<svg width="60" height="60" viewBox="0 0 60 60" fill="none" xmlns="http://www.w3.org/2000/svg">
<g clip-path="url(#clip0_859_13951)">
<path d="M37.2139 51.0713V53.1426C37.2137 54.2806 36.2806 55.2139 35.1426 55.2139H24.8574C23.7194 55.2139 22.7863 54.2806 22.7861 53.1426V51.0713H37.2139ZM30 8.92773C22.6267 8.92773 16.6426 14.9119 16.6426 22.2852C16.6426 25.6489 17.6312 28.0904 19.1387 30.042C20.577 31.904 22.478 33.3025 24.3574 34.6289V40.7852H35.6426V34.6279C39.4168 31.9577 43.3574 28.8372 43.3574 22.2852C43.3574 14.9119 37.3733 8.92773 30 8.92773ZM20.2139 36.7852L20.002 36.6357C15.4737 33.4584 12.5 28.2334 12.5 22.2852C12.5 12.6356 20.3504 4.78516 30 4.78516C39.6496 4.78516 47.5 12.6356 47.5 22.2852C47.5 28.2334 44.5263 33.4584 39.998 36.6357L39.7861 36.7852V42.8564C39.7861 43.9946 38.852 44.9277 37.7139 44.9277H22.2861C21.148 44.9277 20.2139 43.9946 20.2139 42.8564V36.7852Z" fill="#00263C" stroke="#00263C"/>
</g>
<defs>
<clipPath id="clip0_859_13951">
<rect width="60" height="60" fill="white"/>
</clipPath>
</defs>
</svg>
