<svg width="60" height="60" viewBox="0 0 60 60" fill="none" xmlns="http://www.w3.org/2000/svg">
<path d="M23.5 33.9C20.9867 33.9 18.8417 33.0117 17.065 31.235C15.2883 29.4583 14.4 27.3133 14.4 24.8C14.4 22.2867 15.2883 20.1417 17.065 18.365C18.8417 16.5883 20.9867 15.7 23.5 15.7C26.0133 15.7 28.1583 16.5883 29.935 18.365C31.7117 20.1417 32.6 22.2867 32.6 24.8C32.6 27.3133 31.7117 29.4583 29.935 31.235C28.1583 33.0117 26.0133 33.9 23.5 33.9ZM23.5 28.7C24.5833 28.7 25.5037 28.3204 26.2612 27.5612C27.0204 26.8037 27.4 25.8833 27.4 24.8C27.4 23.7167 27.0204 22.7963 26.2612 22.0388C25.5037 21.2796 24.5833 20.9 23.5 20.9C22.4167 20.9 21.4963 21.2796 20.7388 22.0388C19.9796 22.7963 19.6 23.7167 19.6 24.8C19.6 25.8833 19.9796 26.8037 20.7388 27.5612C21.4963 28.3204 22.4167 28.7 23.5 28.7ZM41.7 36.5C39.88 36.5 38.3417 35.8717 37.085 34.615C35.8283 33.3583 35.2 31.82 35.2 30C35.2 28.18 35.8283 26.6417 37.085 25.385C38.3417 24.1283 39.88 23.5 41.7 23.5C43.52 23.5 45.0583 24.1283 46.315 25.385C47.5717 26.6417 48.2 28.18 48.2 30C48.2 31.82 47.5717 33.3583 46.315 34.615C45.0583 35.8717 43.52 36.5 41.7 36.5ZM25.58 50.28C27.53 46.3367 30.13 43.7037 33.38 42.3812C36.63 41.0604 39.4033 40.4 41.7 40.4C42.6967 40.4 43.6717 40.4867 44.625 40.66C45.5783 40.8333 46.51 41.05 47.42 41.31C48.46 39.6633 49.2833 37.8867 49.89 35.98C50.4967 34.0733 50.8 32.08 50.8 30C50.8 24.1933 48.785 19.275 44.755 15.245C40.725 11.215 35.8067 9.2 30 9.2C24.1933 9.2 19.275 11.215 15.245 15.245C11.215 19.275 9.2 24.1933 9.2 30C9.2 31.95 9.44873 33.8133 9.9462 35.59C10.4454 37.3667 11.1933 39.0133 12.19 40.53C13.88 39.6633 15.6679 38.9917 17.5538 38.515C19.4379 38.0383 21.42 37.8 23.5 37.8C24.8867 37.8 26.2196 37.9187 27.4988 38.1562C28.7763 38.3954 30.0433 38.71 31.3 39.1C30.3033 39.62 29.3613 40.2267 28.4738 40.92C27.5846 41.6133 26.75 42.35 25.97 43.13C25.45 43.0433 25.0063 43 24.6388 43H23.5C22.07 43 20.6833 43.1517 19.34 43.455C17.9967 43.7583 16.6967 44.2133 15.44 44.82C16.8267 46.2067 18.3763 47.3663 20.0888 48.2988C21.7996 49.2296 23.63 49.89 25.58 50.28ZM30 56C26.4033 56 23.0233 55.3171 19.86 53.9512C16.6967 52.5871 13.945 50.735 11.605 48.395C9.265 46.055 7.41293 43.3033 6.0488 40.14C4.68293 36.9767 4 33.5967 4 30C4 26.4033 4.68293 23.0233 6.0488 19.86C7.41293 16.6967 9.265 13.945 11.605 11.605C13.945 9.265 16.6967 7.41207 19.86 6.0462C23.0233 4.68207 26.4033 4 30 4C33.5967 4 36.9767 4.68207 40.14 6.0462C43.3033 7.41207 46.055 9.265 48.395 11.605C50.735 13.945 52.5871 16.6967 53.9512 19.86C55.3171 23.0233 56 26.4033 56 30C56 33.5967 55.3171 36.9767 53.9512 40.14C52.5871 43.3033 50.735 46.055 48.395 48.395C46.055 50.735 43.3033 52.5871 40.14 53.9512C36.9767 55.3171 33.5967 56 30 56Z" fill="#00263C"/>
</svg>
