<svg width="60" height="60" viewBox="0 0 60 60" fill="none" xmlns="http://www.w3.org/2000/svg">
<g clip-path="url(#clip0_859_13946)">
<path d="M57.5008 42.5C57.5008 50.775 50.7758 57.5 42.5008 57.5V53.75C48.7008 53.75 53.7508 48.7 53.7508 42.5H57.5008ZM2.50078 17.5C2.50078 9.225 9.22578 2.5 17.5008 2.5V6.25C11.3008 6.25 6.25078 11.3 6.25078 17.5H2.50078ZM20.0258 10.8L8.52578 22.3C0.475781 30.35 0.475781 43.425 8.52578 51.475C16.5758 59.525 29.6508 59.525 37.7008 51.475L55.3758 33.8C56.6008 32.575 56.6008 30.6 55.3758 29.375C54.1508 28.15 52.1758 28.15 50.9508 29.375L39.9008 40.425L38.1258 38.65L54.4758 22.3C55.7008 21.075 55.7008 19.1 54.4758 17.875C53.2508 16.65 51.2758 16.65 50.0508 17.875L35.4758 32.45L33.7008 30.675L50.9258 13.45C52.1508 12.225 52.1508 10.25 50.9258 9.025C49.7008 7.8 47.7258 7.8 46.5008 9.025L29.2758 26.25L27.5508 24.5L41.2508 10.8C42.4758 9.575 42.4758 7.6 41.2508 6.375C40.0258 5.15 38.0508 5.15 36.8258 6.375L17.7758 25.425C20.8258 29.35 20.5508 35.025 16.9508 38.625L15.1758 36.85C18.1008 33.925 18.1008 29.175 15.1758 26.25L14.3008 25.375L24.4758 15.2C25.7008 13.975 25.7008 12 24.4758 10.775C23.2258 9.575 21.2508 9.575 20.0258 10.8Z" fill="#00263C"/>
</g>
<defs>
<clipPath id="clip0_859_13946">
<rect width="60" height="60" fill="white"/>
</clipPath>
</defs>
</svg>
