<svg width="122" height="122" viewBox="0 0 122 122" fill="none" xmlns="http://www.w3.org/2000/svg">
<g clip-path="url(#clip0_859_13936)">
<g clip-path="url(#clip1_859_13936)">
<path d="M60.9023 13.9844C70.6808 13.9844 79.74 16.9948 87.292 22.0928L81.125 28.2598C75.2402 24.596 68.3026 22.4678 60.9023 22.4678C39.7149 22.4678 22.4678 39.7149 22.4678 60.9023C22.4678 82.0898 39.7149 99.3369 60.9023 99.3369C66.4009 99.3369 71.6223 98.1383 76.3438 96.0186L82.7393 102.413C76.2177 105.874 68.7823 107.82 60.9023 107.82C35.0038 107.82 13.9844 86.8009 13.9844 60.9023C13.9844 35.0038 35.0038 13.9844 60.9023 13.9844ZM103.079 61.4023V75.6279H117.304V84.1113H103.079V98.3369H94.5947V84.1113H80.3691V75.6279H94.5947V61.4023H103.079ZM107.611 28.5645L54.2158 82.0068L34.8184 62.6094L40.7969 56.6299L54.2168 70.0498L54.5703 69.6963L101.636 22.6299L107.611 28.5645Z" fill="#00263C" stroke="#00263C"/>
</g>
</g>
<defs>
<clipPath id="clip0_859_13936">
<rect width="122" height="122" fill="white"/>
</clipPath>
<clipPath id="clip1_859_13936">
<rect width="113.803" height="113.803" fill="white" transform="translate(4 4)"/>
</clipPath>
</defs>
</svg>
