<svg width="122" height="122" viewBox="0 0 122 122" fill="none" xmlns="http://www.w3.org/2000/svg">
<g clip-path="url(#clip0_308_10939)">
<path d="M25.417 15.75H96.583C101.899 15.75 106.25 20.1015 106.25 25.417V96.583C106.25 101.899 101.899 106.25 96.583 106.25H25.417C20.1015 106.25 15.75 101.899 15.75 96.583V25.417C15.75 20.1015 20.1015 15.75 25.417 15.75ZM28.4795 97.083H39.1963L55.4463 80.833H44.7295L28.4795 97.083ZM48.6094 97.083H58.2588L74.5088 80.833H64.8594L48.6094 97.083ZM67.5703 97.083H77.2197L93.4697 80.833H83.8203L67.5703 97.083ZM86.582 97.083H97.083V86.582L86.582 97.083ZM24.917 91.2842L25.7705 90.4307L34.5137 81.6865L35.3672 80.833H24.917V91.2842ZM82.708 32.6885L64.4053 50.9902L54.2383 40.8232L53.8848 41.1777L31.4678 63.6465L31.1152 64L38.9893 71.874L39.3428 71.5205L54.2393 56.623L64.0527 66.4365L64.4062 66.791L64.7598 66.4365L90.583 40.5625L90.9355 40.209L90.583 39.8555L83.415 32.6885L83.0615 32.335L82.708 32.6885Z" fill="#00263C" stroke="#00263C"/>
</g>
<defs>
<clipPath id="clip0_308_10939">
<rect width="122" height="122" fill="white"/>
</clipPath>
</defs>
</svg>
