<svg width="122" height="122" viewBox="0 0 122 122" fill="none" xmlns="http://www.w3.org/2000/svg">
<g clip-path="url(#clip0_308_10928)">
<path d="M65.332 19.4346C71.0989 14.3323 79.9721 14.5456 85.5039 20.0771L107.058 41.6309C112.81 47.3831 112.81 56.7244 107.058 62.4766V62.4775L64.7637 104.872C62.9764 106.659 60.0908 106.659 58.3037 104.872C56.5165 103.085 56.5165 100.198 58.3037 98.4111L81.7891 74.9268L82.1426 74.5732L77.8262 70.2568L77.4727 70.6104L53.9873 94.0947C52.2001 95.882 49.3146 95.882 47.5273 94.0947C45.7403 92.3075 45.7402 89.4219 47.5273 87.6348L71.3662 63.7959L67.0498 59.4795L43.2109 83.3184C41.3691 85.1095 38.4836 85.1015 36.7002 83.3184C34.913 81.5311 34.913 78.6456 36.7002 76.8584L60.1846 53.373L60.5381 53.0195L56.2217 48.7031L32.3877 72.5371C30.5461 74.3327 27.6569 74.3268 25.8721 72.542C24.0848 70.7548 24.0848 67.8683 25.8721 66.0811L53.832 38.1201L72.5928 56.8809C73.1953 57.4833 75.254 59.1572 78.0156 59.8525C80.8169 60.5578 84.3201 60.2462 87.6855 56.8809C91.8457 52.7207 91.8456 45.9484 87.6855 41.7881L65.332 19.4346ZM36.4961 20.0771C42.1584 14.4149 51.2992 14.3263 57.0703 19.8115L57.3428 20.0771L83.4209 46.1045C85.2075 47.8918 85.2069 50.7774 83.4199 52.5645C81.6327 54.3514 78.6456 54.3514 76.8584 52.5645L76.8574 52.5635L54.1348 29.8926L53.7822 29.54L53.4287 29.8926L17.9355 65.333L14.9424 62.4766H14.9434C9.19112 56.7243 9.19112 47.3831 14.9434 41.6309L36.4961 20.0771Z" fill="#00263C" stroke="#00263C"/>
</g>
<defs>
<clipPath id="clip0_308_10928">
<rect width="122" height="122" fill="white"/>
</clipPath>
</defs>
</svg>
