<svg width="60" height="60" viewBox="0 0 60 60" fill="none" xmlns="http://www.w3.org/2000/svg">
<g clip-path="url(#clip0_859_13958)">
<path d="M29.4991 44.8717C33.7917 44.8717 37.2716 38.2136 37.2716 30.0003C37.2716 21.7871 33.7917 15.1289 29.4991 15.1289C25.2064 15.1289 21.7266 21.7871 21.7266 30.0003C21.7266 38.2136 25.2064 44.8717 29.4991 44.8717Z" fill="#00263C"/>
<path d="M41.1588 29.9991C41.1588 32.5123 40.5629 40.777 33.3086 46.8396C35.3294 47.6427 37.5317 48.135 39.8634 48.135C49.864 48.135 57.9993 39.9998 57.9993 29.9991C57.9993 19.9985 49.864 11.8633 39.8634 11.8633C37.5317 11.8633 35.3294 12.3555 33.3086 13.1587C40.5629 19.2213 41.1588 27.486 41.1588 29.9991Z" fill="#00263C"/>
<path d="M19.1359 48.135C21.4676 48.135 23.6698 47.6427 25.6907 46.8396C24.1103 45.5183 22.8408 44.0674 21.8303 42.6165C20.9754 42.8238 20.0686 42.9533 19.1359 42.9533C11.9851 42.9533 6.18167 37.1498 6.18167 29.9991C6.18167 22.8484 11.9851 17.045 19.1359 17.045C20.0686 17.045 20.9754 17.1745 21.8303 17.3818C22.8408 15.9309 24.1103 14.48 25.6907 13.1587C23.6698 12.3555 21.4676 11.8633 19.1359 11.8633C9.13523 11.8633 1 19.9985 1 29.9991C1 39.9998 9.13523 48.135 19.1359 48.135Z" fill="#00263C"/>
</g>
<defs>
<clipPath id="clip0_859_13958">
<rect width="60" height="60" fill="white"/>
</clipPath>
</defs>
</svg>
