<svg width="60" height="60" viewBox="0 0 60 60" fill="none" xmlns="http://www.w3.org/2000/svg">
<path d="M9.54545 21.9L6.40909 15.555L0 12.45L6.40909 9.345L9.54545 3L12.6818 9.345L19.0909 12.45L12.6818 15.555L9.54545 21.9ZM49.0909 54.3L45.5455 47.01L38.1818 43.5L45.5455 39.99L49.0909 32.7L52.6364 39.99L60 43.5L52.6364 47.01L49.0909 54.3ZM30.8864 57C29.2955 57 27.7845 56.6733 26.3536 56.0199C24.9209 55.3683 23.6818 54.4575 22.6364 53.2875L8.18182 36.75L11.8636 33.105C12.7727 32.205 13.8636 31.6875 15.1364 31.5525C16.4091 31.4175 17.5909 31.71 18.6818 32.43L23.1818 35.4V13.8C23.1818 12.315 23.7164 11.0442 24.7855 9.9876C25.8527 8.9292 27.1364 8.4 28.6364 8.4C28.8636 8.4 29.0909 8.4108 29.3182 8.4324C29.5455 8.4558 29.7727 8.5125 30 8.6025V8.4C30 6.915 30.5345 5.6433 31.6036 4.5849C32.6709 3.5283 33.9545 3 35.4545 3C36.5455 3 37.5227 3.2808 38.3864 3.8424C39.25 4.4058 39.9091 5.1375 40.3636 6.0375C40.6818 5.9475 40.9891 5.8683 41.2855 5.7999C41.58 5.7333 41.9091 5.7 42.2727 5.7C43.7727 5.7 45.0573 6.2283 46.1264 7.2849C47.1936 8.3433 47.7273 9.615 47.7273 11.1V11.3025C47.9545 11.2125 48.1818 11.1558 48.4091 11.1324C48.6364 11.1108 48.8636 11.1 49.0909 11.1C50.5909 11.1 51.8755 11.6292 52.9445 12.6876C54.0118 13.7442 54.5455 15.015 54.5455 16.5V25.95H50.4545V16.5C50.4545 16.14 50.3182 15.825 50.0455 15.555C49.7727 15.285 49.4545 15.15 49.0909 15.15C48.7273 15.15 48.4091 15.285 48.1364 15.555C47.8636 15.825 47.7273 16.14 47.7273 16.5V30H43.6364V11.1C43.6364 10.74 43.5 10.425 43.2273 10.155C42.9545 9.885 42.6364 9.75 42.2727 9.75C41.9091 9.75 41.5909 9.885 41.3182 10.155C41.0455 10.425 40.9091 10.74 40.9091 11.1V30H36.8182V8.4C36.8182 8.04 36.6818 7.725 36.4091 7.455C36.1364 7.185 35.8182 7.05 35.4545 7.05C35.0909 7.05 34.7727 7.185 34.5 7.455C34.2273 7.725 34.0909 8.04 34.0909 8.4V30H30V13.8C30 13.44 29.8636 13.1358 29.5909 12.8874C29.3182 12.6408 29 12.5175 28.6364 12.5175C28.2727 12.5175 27.9545 12.6525 27.6818 12.9225C27.4091 13.1925 27.2727 13.5075 27.2727 13.8675V43.0275L16.4318 35.8725C16.0682 35.6475 15.7273 35.58 15.4091 35.67C15.0909 35.76 14.8636 35.8725 14.7273 36.0075L13.7727 36.9525L25.7727 50.655C26.4091 51.42 27.1709 51.9942 28.0582 52.3776C28.9436 52.7592 29.8864 52.95 30.8864 52.95H40.2273L42.2727 57H30.8864Z" fill="#00263C"/>
</svg>
