<svg width="20" height="24" viewBox="0 0 20 24" fill="none" xmlns="http://www.w3.org/2000/svg">
<path d="M16.6638 22.7862C15.3716 24.0389 13.9606 23.8411 12.6024 23.2477C11.1651 22.6411 9.84643 22.6148 8.32999 23.2477C6.43114 24.0653 5.42897 23.8279 4.29493 22.7862C-2.14006 16.1534 -1.19063 6.05258 6.11466 5.68336C7.89483 5.77567 9.13436 6.65916 10.1761 6.73828C11.7321 6.4218 13.2222 5.51194 14.8837 5.63062C16.8748 5.78885 18.3781 6.58004 19.3671 8.00418C15.2529 10.47 16.2287 15.8897 20 17.4061C19.2484 19.3841 18.2726 21.3489 16.6506 22.7994L16.6638 22.7862ZM10.0442 5.60424C9.84643 2.66366 12.2332 0.237356 14.976 0C15.3584 3.40211 11.8903 5.93391 10.0442 5.60424Z" fill="black"/>
</svg>
