<svg width="23" height="23" viewBox="0 0 23 23" fill="none" xmlns="http://www.w3.org/2000/svg">
<g clip-path="url(#clip0_1235_7610)">
<path d="M11.6276 14.8789C10.514 14.8818 9.61321 15.7836 9.60938 16.8962V20.9825V21.0218C9.60938 22.1364 10.5131 23.0401 11.6276 23.0401C12.7422 23.0401 13.6459 22.1364 13.6459 21.0218C13.6459 21.0084 13.6459 20.994 13.6459 20.9806V20.9825V16.8972C13.643 15.7845 12.7412 14.8827 11.6295 14.8789H11.6276Z" fill="#00263C"/>
<path d="M18.9369 2.52137H15.0528C14.5823 1.04842 13.2253 0 11.6229 0C10.0206 0 8.66456 1.04842 8.20073 2.4955L8.19402 2.52137H4.36069C3.8039 2.52137 3.35156 2.97275 3.35156 3.5305C3.35156 4.08825 3.80294 4.53962 4.36069 4.53962H8.24481C8.50165 5.40117 9.0594 6.1065 9.79252 6.54829L9.80785 6.55692C7.05648 7.38779 5.08423 9.89192 5.06698 12.8599V18.1575C5.0756 19.0737 5.81544 19.8135 6.73065 19.8222H8.0934V16.9472C8.0934 14.9692 9.69669 13.3659 11.6747 13.3659C13.6527 13.3659 15.256 14.9692 15.256 16.9472V19.8222H16.6178C17.5349 19.8145 18.2757 19.0737 18.2834 18.1575V12.9116C18.2824 9.936 16.3025 7.42421 13.5885 6.61825L13.5425 6.60675C14.2919 6.15537 14.8487 5.451 15.0998 4.61342L15.1065 4.5885H18.9906C19.5474 4.58658 19.9978 4.13617 19.9997 3.57937C19.9777 3.00342 19.5158 2.5415 18.9417 2.52042H18.9398L18.9369 2.52137ZM11.6229 5.59667C10.5084 5.59667 9.60469 4.69296 9.60469 3.57842C9.60469 2.46387 10.5084 1.56017 11.6229 1.56017C12.7375 1.56017 13.6412 2.46387 13.6412 3.57842C13.6421 3.59567 13.6421 3.61579 13.6421 3.63592C13.6421 4.71883 12.7643 5.59667 11.6814 5.59667C11.6613 5.59667 11.6411 5.59667 11.621 5.59571H11.6239L11.6229 5.59667Z" fill="#00263C"/>
</g>
<defs>
<clipPath id="clip0_1235_7610">
<rect width="23" height="23" fill="white"/>
</clipPath>
</defs>
</svg>
