<svg width="40" height="40" viewBox="0 0 40 40" fill="none" xmlns="http://www.w3.org/2000/svg">
<circle cx="20" cy="20" r="20" fill="white"/>
<path d="M27.753 12.659C27.8395 12.5601 27.9056 12.4452 27.9477 12.3207C27.9897 12.1963 28.0069 12.0647 27.9981 11.9337C27.9893 11.8026 27.9548 11.6746 27.8965 11.5568C27.8383 11.4391 27.7574 11.334 27.6585 11.2475C27.5596 11.161 27.4447 11.0949 27.3202 11.0528C27.1958 11.0108 27.0642 10.9936 26.9332 11.0024C26.8021 11.0112 26.6741 11.0457 26.5563 11.104C26.4386 11.1622 26.3335 11.2431 26.247 11.342L21.137 17.182L16.8 11.4C16.7069 11.2758 16.5861 11.175 16.4472 11.1056C16.3084 11.0361 16.1552 11 16 11H12C11.8143 11 11.6322 11.0517 11.4743 11.1493C11.3163 11.247 11.1886 11.3867 11.1056 11.5528C11.0225 11.7189 10.9874 11.9048 11.004 12.0898C11.0207 12.2748 11.0886 12.4514 11.2 12.6L17.637 21.182L12.247 27.342C12.1605 27.4409 12.0944 27.5558 12.0523 27.6803C12.0103 27.8047 11.9931 27.9363 12.0019 28.0673C12.0107 28.1984 12.0452 28.3264 12.1035 28.4442C12.1617 28.5619 12.2426 28.667 12.3415 28.7535C12.4404 28.84 12.5553 28.9061 12.6798 28.9482C12.8042 28.9902 12.9358 29.0074 13.0668 28.9986C13.1979 28.9898 13.3259 28.9553 13.4437 28.897C13.5614 28.8388 13.6665 28.7579 13.753 28.659L18.863 22.818L23.2 28.6C23.2931 28.7242 23.4139 28.825 23.5528 28.8944C23.6916 28.9639 23.8448 29 24 29H28C28.1857 29 28.3678 28.9483 28.5257 28.8507C28.6837 28.753 28.8114 28.6133 28.8944 28.4472C28.9775 28.2811 29.0126 28.0952 28.996 27.9102C28.9793 27.7252 28.9114 27.5486 28.8 27.4L22.363 18.818L27.753 12.659Z" fill="#2F8DF8"/>
</svg>
