<svg width="40" height="40" viewBox="0 0 40 40" fill="none" xmlns="http://www.w3.org/2000/svg">
<circle cx="20" cy="20" r="20" fill="white"/>
<path fill-rule="evenodd" clip-rule="evenodd" d="M11 19C11 15.229 11 13.343 12.172 12.172C13.344 11.001 15.229 11 19 11H21C24.771 11 26.657 11 27.828 12.172C28.999 13.344 29 15.229 29 19V21C29 24.771 29 26.657 27.828 27.828C26.656 28.999 24.771 29 21 29H19C15.229 29 13.343 29 12.172 27.828C11.001 26.656 11 24.771 11 21V19ZM26 15.5C26 15.8978 25.842 16.2794 25.5607 16.5607C25.2794 16.842 24.8978 17 24.5 17C24.1022 17 23.7206 16.842 23.4393 16.5607C23.158 16.2794 23 15.8978 23 15.5C23 15.1022 23.158 14.7206 23.4393 14.4393C23.7206 14.158 24.1022 14 24.5 14C24.8978 14 25.2794 14.158 25.5607 14.4393C25.842 14.7206 26 15.1022 26 15.5ZM22 21C22 21.5304 21.7893 22.0391 21.4142 22.4142C21.0391 22.7893 20.5304 23 20 23C19.4696 23 18.9609 22.7893 18.5858 22.4142C18.2107 22.0391 18 21.5304 18 21C18 20.4696 18.2107 19.9609 18.5858 19.5858C18.9609 19.2107 19.4696 19 20 19C20.5304 19 21.0391 19.2107 21.4142 19.5858C21.7893 19.9609 22 20.4696 22 21ZM24 21C24 22.0609 23.5786 23.0783 22.8284 23.8284C22.0783 24.5786 21.0609 25 20 25C18.9391 25 17.9217 24.5786 17.1716 23.8284C16.4214 23.0783 16 22.0609 16 21C16 19.9391 16.4214 18.9217 17.1716 18.1716C17.9217 17.4214 18.9391 17 20 17C21.0609 17 22.0783 17.4214 22.8284 18.1716C23.5786 18.9217 24 19.9391 24 21Z" fill="#2F8DF8"/>
</svg>
