<svg width="22" height="24" viewBox="0 0 22 24" fill="none" xmlns="http://www.w3.org/2000/svg">
<g clip-path="url(#clip0_308_11928)">
<path d="M10.1426 11.4414L0.09375 21.9696C0.206598 22.3695 0.409389 22.7383 0.686622 23.0479C0.963854 23.3574 1.30819 23.5995 1.6933 23.7555C2.07842 23.9116 2.49411 23.9775 2.90862 23.9483C3.32312 23.9191 3.72546 23.7955 4.08487 23.5869L15.3918 17.1473L10.1426 11.4414Z" fill="#EA4335"/>
<path d="M20.3033 9.65218L15.4139 6.85156L9.91016 11.6812L15.4363 17.1326L20.2885 14.362C20.7184 14.1369 21.0784 13.7984 21.3296 13.3833C21.5808 12.9682 21.7136 12.4922 21.7136 12.007C21.7136 11.5218 21.5808 11.0459 21.3296 10.6307C21.0784 10.2156 20.7184 9.87718 20.2885 9.6521L20.3033 9.65218Z" fill="#FBBC04"/>
<path d="M0.0938265 1.99219C0.033122 2.21675 0.00288649 2.44845 0.00393249 2.68106V21.2812C0.0045319 21.5138 0.0347395 21.7453 0.0938265 21.9702L10.4872 11.7116L0.0938265 1.99219Z" fill="#4285F4"/>
<path d="M10.2175 11.9808L15.4142 6.85154L4.12236 0.381885C3.6975 0.133083 3.2143 0.00131666 2.72196 5.20116e-06C1.50017 -0.00236936 0.426019 0.808542 0.09375 1.98437L10.2175 11.9808Z" fill="#34A853"/>
</g>
<defs>
<clipPath id="clip0_308_11928">
<rect width="21.715" height="24" fill="white"/>
</clipPath>
</defs>
</svg>
