<svg width="26" height="26" viewBox="0 0 26 26" fill="none" xmlns="http://www.w3.org/2000/svg">
<path d="M11.1083 15.2417L8.29896 12.4323C8.06215 12.1955 7.77153 12.0771 7.42708 12.0771C7.08264 12.0771 6.78125 12.2063 6.52292 12.4646C6.28611 12.7014 6.16771 13.0028 6.16771 13.3688C6.16771 13.7347 6.28611 14.0361 6.52292 14.2729L10.2042 17.9542C10.441 18.191 10.7424 18.3094 11.1083 18.3094C11.4743 18.3094 11.7757 18.191 12.0125 17.9542L19.3427 10.624C19.5795 10.3872 19.6979 10.0965 19.6979 9.75208C19.6979 9.40764 19.5688 9.10625 19.3104 8.84792C19.0736 8.61111 18.7722 8.49271 18.4063 8.49271C18.0403 8.49271 17.7389 8.61111 17.5021 8.84792L11.1083 15.2417ZM12.9167 25.8333C11.1299 25.8333 9.4507 25.4941 7.87917 24.8155C6.30764 24.1378 4.94063 23.2177 3.77813 22.0552C2.61563 20.8927 1.69553 19.5257 1.01783 17.9542C0.339278 16.3826 0 14.7035 0 12.9167C0 11.1299 0.339278 9.4507 1.01783 7.87917C1.69553 6.30764 2.61563 4.94063 3.77813 3.77813C4.94063 2.61563 6.30764 1.6951 7.87917 1.01654C9.4507 0.338847 11.1299 0 12.9167 0C14.7035 0 16.3826 0.338847 17.9542 1.01654C19.5257 1.6951 20.8927 2.61563 22.0552 3.77813C23.2177 4.94063 24.1378 6.30764 24.8155 7.87917C25.4941 9.4507 25.8333 11.1299 25.8333 12.9167C25.8333 14.7035 25.4941 16.3826 24.8155 17.9542C24.1378 19.5257 23.2177 20.8927 22.0552 22.0552C20.8927 23.2177 19.5257 24.1378 17.9542 24.8155C16.3826 25.4941 14.7035 25.8333 12.9167 25.8333Z" fill="#9A9A9A"/>
</svg>
