<svg width="24" height="18" viewBox="0 0 24 18" fill="none" xmlns="http://www.w3.org/2000/svg">
<path d="M15.9999 8.99999C14.9719 8.99999 13.9779 8.53056 13.1999 7.67863C12.4434 6.84766 11.9814 5.73954 11.8999 4.55931C11.8129 3.30034 12.1884 2.14261 12.9569 1.29886C13.7254 0.455113 14.7999 0 15.9999 0C17.1914 0 18.2688 0.463295 19.0348 1.305C19.8083 2.15488 20.1848 3.31056 20.0978 4.5588C20.0143 5.74056 19.5528 6.84817 18.7978 7.67812C18.0218 8.53056 17.0284 8.99999 15.9999 8.99999ZM22.5913 18H9.40889C9.19695 18.0011 8.98757 17.9526 8.79687 17.858C8.60617 17.7634 8.43923 17.6253 8.3089 17.4544C8.17065 17.269 8.07518 17.0542 8.02964 16.8258C7.98409 16.5974 7.98965 16.3614 8.0459 16.1356C8.4669 14.4066 9.50989 12.9728 11.0619 11.9894C12.4394 11.117 14.1929 10.6364 15.9999 10.6364C17.8424 10.6364 19.5498 11.0966 20.9353 11.9685C22.4908 12.9467 23.5353 14.3887 23.9543 16.1386C24.0099 16.3647 24.0148 16.6006 23.9688 16.8289C23.9227 17.0572 23.8268 17.2718 23.6883 17.4569C23.5581 17.6271 23.3916 17.7645 23.2014 17.8586C23.0113 17.9527 22.8026 18.0011 22.5913 18ZM6.54991 9.20454C4.79042 9.20454 3.24343 7.53136 3.09993 5.47516C3.02893 4.42176 3.34993 3.44761 3.99992 2.73324C4.64292 2.02602 5.54991 1.63636 6.54991 1.63636C7.5499 1.63636 8.4499 2.02807 9.0964 2.73937C9.75139 3.45937 10.0714 4.43147 9.99639 5.47619C9.85289 7.53187 8.3064 9.20454 6.54991 9.20454ZM9.83289 10.8128C8.9534 10.373 7.8119 10.1531 6.55041 10.1531C5.07742 10.1531 3.64692 10.5458 2.52193 11.2587C1.24644 12.0682 0.388441 13.2469 0.0419429 14.67C-0.00876426 14.8747 -0.0135603 15.0885 0.0279137 15.2953C0.0693876 15.5022 0.156058 15.6968 0.281442 15.8645C0.400415 16.0207 0.552832 16.1469 0.726973 16.2335C0.901113 16.32 1.09234 16.3645 1.28594 16.3636H6.83591C6.92958 16.3636 7.02028 16.33 7.09219 16.2686C7.1641 16.2072 7.21266 16.1219 7.2294 16.0277C7.2349 15.9954 7.24191 15.9632 7.24991 15.9315C7.6739 14.1898 8.6674 12.7181 10.1354 11.6453C10.1894 11.6055 10.2328 11.5525 10.2617 11.4912C10.2907 11.4299 10.3042 11.3622 10.301 11.2942C10.2979 11.2262 10.2783 11.1601 10.2438 11.1018C10.2094 11.0436 10.1613 10.995 10.1039 10.9606C10.0254 10.9135 9.93539 10.8639 9.83289 10.8128Z" fill="#2F8DF8"/>
</svg>
