<svg width="27" height="24" viewBox="0 0 27 24" fill="none" xmlns="http://www.w3.org/2000/svg">
<path d="M24.7197 5.66016L22.1709 15.8555H7.87793L5.3291 5.66016H24.7197Z" stroke="#2F8DF8" stroke-width="2"/>
<path d="M1 1H3.13415L4.04878 4.65854M4.04878 4.65854L7.09756 16.8537H22.9512L26 4.65854H4.04878Z" stroke="#2F8DF8" stroke-width="2" stroke-linecap="round" stroke-linejoin="round"/>
<path d="M7.09733 22.9515C8.10761 22.9515 8.9266 22.1325 8.9266 21.1222C8.9266 20.112 8.10761 19.293 7.09733 19.293C6.08706 19.293 5.26807 20.112 5.26807 21.1222C5.26807 22.1325 6.08706 22.9515 7.09733 22.9515Z" stroke="#2F8DF8" stroke-width="2" stroke-linecap="round" stroke-linejoin="round"/>
<path d="M22.9513 22.9515C23.9616 22.9515 24.7806 22.1325 24.7806 21.1222C24.7806 20.112 23.9616 19.293 22.9513 19.293C21.9411 19.293 21.1221 20.112 21.1221 21.1222C21.1221 22.1325 21.9411 22.9515 22.9513 22.9515Z" stroke="#2F8DF8" stroke-width="2" stroke-linecap="round" stroke-linejoin="round"/>
</svg>
