<svg width="21" height="21" viewBox="0 0 21 21" fill="none" xmlns="http://www.w3.org/2000/svg">
<path d="M10.7512 4.2825C11.0539 4.2825 11.3442 4.16226 11.5582 3.94824C11.7723 3.73421 11.8925 3.44393 11.8925 3.14125C11.8925 2.83857 11.7723 2.54829 11.5582 2.33426C11.3442 2.12024 11.0539 2 10.7512 2C10.4486 2 10.1583 2.12024 9.94426 2.33426C9.73024 2.54829 9.61 2.83857 9.61 3.14125C9.61 3.44393 9.73024 3.73421 9.94426 3.94824C10.1583 4.16226 10.4486 4.2825 10.7512 4.2825ZM18.3612 4.2825C18.5111 4.2825 18.6595 4.25298 18.798 4.19563C18.9364 4.13827 19.0623 4.05421 19.1682 3.94824C19.2742 3.84226 19.3583 3.71645 19.4156 3.57799C19.473 3.43952 19.5025 3.29112 19.5025 3.14125C19.5025 2.99138 19.473 2.84298 19.4156 2.70451C19.3583 2.56605 19.2742 2.44024 19.1682 2.33426C19.0623 2.22829 18.9364 2.14423 18.798 2.08687C18.6595 2.02952 18.5111 2 18.3612 2C18.0586 2 17.7683 2.12024 17.5543 2.33426C17.3402 2.54829 17.22 2.83857 17.22 3.14125C17.22 3.44393 17.3402 3.73421 17.5543 3.94824C17.7683 4.16226 18.0586 4.2825 18.3612 4.2825ZM3.14125 4.2825C3.29112 4.2825 3.43952 4.25298 3.57799 4.19563C3.71645 4.13827 3.84226 4.05421 3.94824 3.94824C4.05421 3.84226 4.13827 3.71645 4.19563 3.57799C4.25298 3.43952 4.2825 3.29112 4.2825 3.14125C4.2825 2.99138 4.25298 2.84298 4.19563 2.70451C4.13827 2.56605 4.05421 2.44024 3.94824 2.33426C3.84226 2.22829 3.71645 2.14423 3.57799 2.08687C3.43952 2.02952 3.29112 2 3.14125 2C2.83857 2 2.54829 2.12024 2.33426 2.33426C2.12024 2.54829 2 2.83857 2 3.14125C2 3.44393 2.12024 3.73421 2.33426 3.94824C2.54829 4.16226 2.83857 4.2825 3.14125 4.2825ZM10.7512 11.8913C11.0539 11.8913 11.3442 11.771 11.5582 11.557C11.7723 11.343 11.8925 11.0527 11.8925 10.75C11.8925 10.4473 11.7723 10.157 11.5582 9.94301C11.3442 9.72899 11.0539 9.60875 10.7512 9.60875C10.4486 9.60875 10.1583 9.72899 9.94426 9.94301C9.73024 10.157 9.61 10.4473 9.61 10.75C9.61 11.0527 9.73024 11.343 9.94426 11.557C10.1583 11.771 10.4486 11.8913 10.7512 11.8913ZM18.3612 11.8913C18.6639 11.8913 18.9542 11.771 19.1682 11.557C19.3823 11.343 19.5025 11.0527 19.5025 10.75C19.5025 10.4473 19.3823 10.157 19.1682 9.94301C18.9542 9.72899 18.6639 9.60875 18.3612 9.60875C18.0586 9.60875 17.7683 9.72899 17.5543 9.94301C17.3402 10.157 17.22 10.4473 17.22 10.75C17.22 11.0527 17.3402 11.343 17.5543 11.557C17.7683 11.771 18.0586 11.8913 18.3612 11.8913ZM3.14125 11.8913C3.44393 11.8913 3.73421 11.771 3.94824 11.557C4.16226 11.343 4.2825 11.0527 4.2825 10.75C4.2825 10.4473 4.16226 10.157 3.94824 9.94301C3.73421 9.72899 3.44393 9.60875 3.14125 9.60875C2.83857 9.60875 2.54829 9.72899 2.33426 9.94301C2.12024 10.157 2 10.4473 2 10.75C2 11.0527 2.12024 11.343 2.33426 11.557C2.54829 11.771 2.83857 11.8913 3.14125 11.8913ZM10.7512 19.5C11.0539 19.5 11.3442 19.3798 11.5582 19.1657C11.7723 18.9517 11.8925 18.6614 11.8925 18.3587C11.8925 18.0561 11.7723 17.7658 11.5582 17.5518C11.3442 17.3377 11.0539 17.2175 10.7512 17.2175C10.4486 17.2175 10.1583 17.3377 9.94426 17.5518C9.73024 17.7658 9.61 18.0561 9.61 18.3587C9.61 18.6614 9.73024 18.9517 9.94426 19.1657C10.1583 19.3798 10.4486 19.5 10.7512 19.5ZM18.3612 19.5C18.6639 19.5 18.9542 19.3798 19.1682 19.1657C19.3823 18.9517 19.5025 18.6614 19.5025 18.3587C19.5025 18.0561 19.3823 17.7658 19.1682 17.5518C18.9542 17.3377 18.6639 17.2175 18.3612 17.2175C18.0586 17.2175 17.7683 17.3377 17.5543 17.5518C17.3402 17.7658 17.22 18.0561 17.22 18.3587C17.22 18.6614 17.3402 18.9517 17.5543 19.1657C17.7683 19.3798 18.0586 19.5 18.3612 19.5ZM3.14125 19.5C3.44393 19.5 3.73421 19.3798 3.94824 19.1657C4.16226 18.9517 4.2825 18.6614 4.2825 18.3587C4.2825 18.0561 4.16226 17.7658 3.94824 17.5518C3.73421 17.3377 3.44393 17.2175 3.14125 17.2175C2.83857 17.2175 2.54829 17.3377 2.33426 17.5518C2.12024 17.7658 2 18.0561 2 18.3587C2 18.6614 2.12024 18.9517 2.33426 19.1657C2.54829 19.3798 2.83857 19.5 3.14125 19.5Z" fill="white" stroke="white" stroke-width="3" stroke-linecap="round" stroke-linejoin="round"/>
</svg>
