<svg width="22" height="21" viewBox="0 0 22 21" fill="none" xmlns="http://www.w3.org/2000/svg">
<path d="M11.0325 4.08719C11.3352 4.08719 11.6255 3.96695 11.8395 3.75292C12.0535 3.5389 12.1738 3.24862 12.1738 2.94594C12.1738 2.64326 12.0535 2.35298 11.8395 2.13895C11.6255 1.92493 11.3352 1.80469 11.0325 1.80469C10.7298 1.80469 10.4395 1.92493 10.2255 2.13895C10.0115 2.35298 9.89125 2.64326 9.89125 2.94594C9.89125 3.24862 10.0115 3.5389 10.2255 3.75292C10.4395 3.96695 10.7298 4.08719 11.0325 4.08719ZM18.6425 4.08719C18.7924 4.08719 18.9408 4.05767 19.0792 4.00032C19.2177 3.94296 19.3435 3.8589 19.4495 3.75292C19.5555 3.64695 19.6395 3.52114 19.6969 3.38268C19.7542 3.24421 19.7837 3.09581 19.7837 2.94594C19.7837 2.79607 19.7542 2.64766 19.6969 2.5092C19.6395 2.37074 19.5555 2.24493 19.4495 2.13895C19.3435 2.03298 19.2177 1.94891 19.0792 1.89156C18.9408 1.83421 18.7924 1.80469 18.6425 1.80469C18.3398 1.80469 18.0495 1.92493 17.8355 2.13895C17.6215 2.35298 17.5012 2.64326 17.5012 2.94594C17.5012 3.24862 17.6215 3.5389 17.8355 3.75292C18.0495 3.96695 18.3398 4.08719 18.6425 4.08719ZM3.4225 4.08719C3.57237 4.08719 3.72077 4.05767 3.85924 4.00032C3.9977 3.94296 4.12351 3.8589 4.22949 3.75292C4.33546 3.64695 4.41952 3.52114 4.47688 3.38268C4.53423 3.24421 4.56375 3.09581 4.56375 2.94594C4.56375 2.79607 4.53423 2.64766 4.47688 2.5092C4.41952 2.37074 4.33546 2.24493 4.22949 2.13895C4.12351 2.03298 3.9977 1.94891 3.85924 1.89156C3.72077 1.83421 3.57237 1.80469 3.4225 1.80469C3.11982 1.80469 2.82954 1.92493 2.61551 2.13895C2.40149 2.35298 2.28125 2.64326 2.28125 2.94594C2.28125 3.24862 2.40149 3.5389 2.61551 3.75292C2.82954 3.96695 3.11982 4.08719 3.4225 4.08719ZM11.0325 11.6959C11.3352 11.6959 11.6255 11.5757 11.8395 11.3617C12.0535 11.1476 12.1738 10.8574 12.1738 10.5547C12.1738 10.252 12.0535 9.96173 11.8395 9.7477C11.6255 9.53368 11.3352 9.41344 11.0325 9.41344C10.7298 9.41344 10.4395 9.53368 10.2255 9.7477C10.0115 9.96173 9.89125 10.252 9.89125 10.5547C9.89125 10.8574 10.0115 11.1476 10.2255 11.3617C10.4395 11.5757 10.7298 11.6959 11.0325 11.6959ZM18.6425 11.6959C18.9452 11.6959 19.2355 11.5757 19.4495 11.3617C19.6635 11.1476 19.7837 10.8574 19.7837 10.5547C19.7837 10.252 19.6635 9.96173 19.4495 9.7477C19.2355 9.53368 18.9452 9.41344 18.6425 9.41344C18.3398 9.41344 18.0495 9.53368 17.8355 9.7477C17.6215 9.96173 17.5012 10.252 17.5012 10.5547C17.5012 10.8574 17.6215 11.1476 17.8355 11.3617C18.0495 11.5757 18.3398 11.6959 18.6425 11.6959ZM3.4225 11.6959C3.72518 11.6959 4.01546 11.5757 4.22949 11.3617C4.44351 11.1476 4.56375 10.8574 4.56375 10.5547C4.56375 10.252 4.44351 9.96173 4.22949 9.7477C4.01546 9.53368 3.72518 9.41344 3.4225 9.41344C3.11982 9.41344 2.82954 9.53368 2.61551 9.7477C2.40149 9.96173 2.28125 10.252 2.28125 10.5547C2.28125 10.8574 2.40149 11.1476 2.61551 11.3617C2.82954 11.5757 3.11982 11.6959 3.4225 11.6959ZM11.0325 19.3047C11.3352 19.3047 11.6255 19.1844 11.8395 18.9704C12.0535 18.7564 12.1738 18.4661 12.1738 18.1634C12.1738 17.8608 12.0535 17.5705 11.8395 17.3565C11.6255 17.1424 11.3352 17.0222 11.0325 17.0222C10.7298 17.0222 10.4395 17.1424 10.2255 17.3565C10.0115 17.5705 9.89125 17.8608 9.89125 18.1634C9.89125 18.4661 10.0115 18.7564 10.2255 18.9704C10.4395 19.1844 10.7298 19.3047 11.0325 19.3047ZM18.6425 19.3047C18.9452 19.3047 19.2355 19.1844 19.4495 18.9704C19.6635 18.7564 19.7837 18.4661 19.7837 18.1634C19.7837 17.8608 19.6635 17.5705 19.4495 17.3565C19.2355 17.1424 18.9452 17.0222 18.6425 17.0222C18.3398 17.0222 18.0495 17.1424 17.8355 17.3565C17.6215 17.5705 17.5012 17.8608 17.5012 18.1634C17.5012 18.4661 17.6215 18.7564 17.8355 18.9704C18.0495 19.1844 18.3398 19.3047 18.6425 19.3047ZM3.4225 19.3047C3.72518 19.3047 4.01546 19.1844 4.22949 18.9704C4.44351 18.7564 4.56375 18.4661 4.56375 18.1634C4.56375 17.8608 4.44351 17.5705 4.22949 17.3565C4.01546 17.1424 3.72518 17.0222 3.4225 17.0222C3.11982 17.0222 2.82954 17.1424 2.61551 17.3565C2.40149 17.5705 2.28125 17.8608 2.28125 18.1634C2.28125 18.4661 2.40149 18.7564 2.61551 18.9704C2.82954 19.1844 3.11982 19.3047 3.4225 19.3047Z" stroke="#2F8DF8" stroke-width="3" stroke-linecap="round" stroke-linejoin="round"/>
</svg>
