<svg width="18" height="18" viewBox="0 0 18 18" fill="none" xmlns="http://www.w3.org/2000/svg">
<path d="M0.75 7.4985C0.551088 7.4985 0.360322 7.41948 0.21967 7.27883C0.0790178 7.13818 0 6.94741 0 6.7485V0.75C0 0.551088 0.0790178 0.360322 0.21967 0.21967C0.360322 0.0790178 0.551088 0 0.75 0H6.75C6.94891 0 7.13968 0.0790178 7.28033 0.21967C7.42098 0.360322 7.5 0.551088 7.5 0.75V6.7485C7.5 6.94741 7.42098 7.13818 7.28033 7.27883C7.13968 7.41948 6.94891 7.4985 6.75 7.4985H0.75ZM11.25 7.4985C11.0511 7.4985 10.8603 7.41948 10.7197 7.27883C10.579 7.13818 10.5 6.94741 10.5 6.7485V0.75C10.5 0.551088 10.579 0.360322 10.7197 0.21967C10.8603 0.0790178 11.0511 0 11.25 0H17.2485C17.4474 0 17.6382 0.0790178 17.7788 0.21967C17.9195 0.360322 17.9985 0.551088 17.9985 0.75V6.7485C17.9985 6.94741 17.9195 7.13818 17.7788 7.27883C17.6382 7.41948 17.4474 7.4985 17.2485 7.4985H11.25ZM0.75 17.9985C0.551088 17.9985 0.360322 17.9195 0.21967 17.7788C0.0790178 17.6382 0 17.4474 0 17.2485V11.2485C0 11.0496 0.0790178 10.8588 0.21967 10.7182C0.360322 10.5775 0.551088 10.4985 0.75 10.4985H6.75C6.94891 10.4985 7.13968 10.5775 7.28033 10.7182C7.42098 10.8588 7.5 11.0496 7.5 11.2485V17.2485C7.5 17.4474 7.42098 17.6382 7.28033 17.7788C7.13968 17.9195 6.94891 17.9985 6.75 17.9985H0.75ZM11.25 17.9985C11.0511 17.9985 10.8603 17.9195 10.7197 17.7788C10.579 17.6382 10.5 17.4474 10.5 17.2485V11.2485C10.5 11.0496 10.579 10.8588 10.7197 10.7182C10.8603 10.5775 11.0511 10.4985 11.25 10.4985H17.2485C17.4474 10.4985 17.6382 10.5775 17.7788 10.7182C17.9195 10.8588 17.9985 11.0496 17.9985 11.2485V17.2485C17.9985 17.4474 17.9195 17.6382 17.7788 17.7788C17.6382 17.9195 17.4474 17.9985 17.2485 17.9985H11.25Z" fill="white"/>
</svg>
