<svg width="67" height="53" viewBox="0 0 67 53" fill="none" xmlns="http://www.w3.org/2000/svg">
<path d="M45.7467 42.3096L33.9427 34.7261L22.1387 42.3096L25.6997 28.7252L14.8519 19.8887L28.865 19.0314L33.9427 6.04043L39.0204 19.0314L53.0335 19.8887L42.1857 28.7252M60.3203 26.4831C60.3203 24.7341 61.0151 23.0568 62.2517 21.8201C63.4884 20.5834 65.1657 19.8887 66.9147 19.8887V6.69987C66.9147 4.95092 66.2199 3.27361 64.9832 2.03692C63.7465 0.800233 62.0692 0.105469 60.3203 0.105469H7.5651C5.81616 0.105469 4.13885 0.800233 2.90216 2.03692C1.66547 3.27361 0.970703 4.95092 0.970703 6.69987V19.8887C2.71965 19.8887 4.39696 20.5834 5.63365 21.8201C6.87034 23.0568 7.5651 24.7341 7.5651 26.4831C7.5651 28.232 6.87034 29.9093 5.63365 31.146C4.39696 32.3827 2.71965 33.0775 0.970703 33.0775V46.2663C0.970703 48.0152 1.66547 49.6925 2.90216 50.9292C4.13885 52.1659 5.81616 52.8607 7.5651 52.8607H60.3203C62.0692 52.8607 63.7465 52.1659 64.9832 50.9292C66.2199 49.6925 66.9147 48.0152 66.9147 46.2663V33.0775C65.1657 33.0775 63.4884 32.3827 62.2517 31.146C61.0151 29.9093 60.3203 28.232 60.3203 26.4831Z" fill="#00263C"/>
</svg>
