<svg width="40" height="58" viewBox="0 0 40 58" fill="none" xmlns="http://www.w3.org/2000/svg">
<path d="M36.6661 6.80447H27.6101C26.513 3.37021 23.3491 0.925781 19.6132 0.925781C15.8773 0.925781 12.7156 3.37021 11.6342 6.74414L11.6185 6.80447H2.68094C1.38276 6.80447 0.328125 7.85687 0.328125 9.15729C0.328125 10.4577 1.38052 11.5101 2.68094 11.5101H11.7369C12.3358 13.5188 13.6362 15.1633 15.3455 16.1934L15.3812 16.2135C8.9663 18.1507 4.36791 23.9892 4.32769 30.9091V43.2609C4.3478 45.3969 6.07275 47.1219 8.2066 47.142H11.3839V40.4388C11.3839 35.827 15.1221 32.0889 19.7338 32.0889C24.3456 32.0889 28.0838 35.827 28.0838 40.4388V47.142H31.2589C33.3972 47.1241 35.1244 45.3969 35.1422 43.2609V31.0298C35.14 24.092 30.5237 18.2356 24.1959 16.3565L24.0887 16.3297C25.836 15.2773 27.1342 13.635 27.7196 11.6822L27.7352 11.6241H36.7912C38.0894 11.6196 39.1396 10.5694 39.144 9.27125C39.0926 7.92837 38.0157 6.8514 36.6773 6.80224H36.6728L36.6661 6.80447ZM19.6132 13.9746C17.0146 13.9746 14.9076 11.8676 14.9076 9.26901C14.9076 6.67041 17.0146 4.56338 19.6132 4.56338C22.2118 4.56338 24.3188 6.67041 24.3188 9.26901C24.3211 9.30923 24.3211 9.35615 24.3211 9.40307C24.3211 11.9279 22.2744 13.9746 19.7495 13.9746C19.7026 13.9746 19.6556 13.9746 19.6087 13.9724H19.6154L19.6132 13.9746Z" fill="#2F8DF8"/>
<path d="M19.5853 34.8164C16.6102 34.8245 14.2036 37.3779 14.1934 40.5283V52.0986V52.2099C14.1934 55.3657 16.6077 57.9245 19.5853 57.9245C22.5628 57.9245 24.9771 55.3657 24.9771 52.2099C24.9771 52.1719 24.9771 52.1312 24.9771 52.0932V52.0986V40.531C24.9695 37.3807 22.5603 34.8273 19.5904 34.8164H19.5853Z" fill="#2F8DF8"/>
</svg>
