<svg width="49" height="58" viewBox="0 0 49 58" fill="none" xmlns="http://www.w3.org/2000/svg">
<path d="M46.272 0H2.7273C1.22205 0 0 1.22502 0 2.7354V55.2665C0 56.7738 1.22205 58 2.7273 58H46.272C47.7797 58 49 56.7738 49 55.2665V2.73369C49 1.22388 47.7797 0 46.272 0ZM38.3572 23.7377C38.3572 31.4005 32.143 37.6352 24.5005 37.6352C16.8581 37.6352 10.6417 31.4005 10.6417 23.7377V12.5733C10.6417 11.0635 11.8631 9.83848 13.3684 9.83848C14.8736 9.83848 16.0959 11.0635 16.0959 12.5733V23.7377C16.0959 28.3852 19.8649 32.1666 24.5005 32.1666C29.1346 32.1666 32.9058 28.3852 32.9058 23.7377V12.5733C32.9058 11.0635 34.1273 9.83848 35.6303 9.83848C37.1357 9.83848 38.3572 11.0635 38.3572 12.5733V23.7377Z" fill="#2F8DF8"/>
</svg>
