<svg width="56" height="58" viewBox="0 0 56 58" fill="none" xmlns="http://www.w3.org/2000/svg">
<path d="M41.2656 3.86769C45.4477 6.40121 48.9206 10.0452 51.3351 14.4334C53.7496 18.8215 55.0208 23.7993 55.0207 28.8663C55.0207 33.9333 53.7495 38.9111 51.3349 43.2992C48.9203 47.6874 45.4474 51.3313 41.2653 53.8648C37.0831 56.3982 32.339 57.7319 27.5099 57.7318C22.6808 57.7318 17.9368 56.3979 13.7547 53.8643C9.57265 51.3307 6.09985 47.6867 3.68539 43.2984C1.27092 38.9102 -0.000122668 33.9324 8.87939e-09 28.8654L0.0137555 27.9302C0.167822 22.945 1.55034 18.0868 4.02653 13.8292C6.50271 9.57163 9.98806 6.05991 14.1428 3.63643C18.2975 1.21295 22.9798 -0.0395772 27.7332 0.000953278C32.4866 0.0414837 37.1489 1.37369 41.2656 3.86769ZM27.5104 11.546C26.7808 11.546 26.081 11.8501 25.5651 12.3914C25.0492 12.9328 24.7593 13.667 24.7593 14.4325C22.5705 14.4325 20.4713 15.3449 18.9235 16.9689C17.3757 18.5929 16.5062 20.7956 16.5062 23.0923C16.5062 25.389 17.3757 27.5916 18.9235 29.2156C20.4713 30.8396 22.5705 31.752 24.7593 31.752V37.5251C24.3031 37.5516 23.8476 37.4608 23.4324 37.2606C23.0172 37.0604 22.6549 36.7568 22.3769 36.3763L22.1899 36.0847C21.8135 35.4478 21.2158 34.9894 20.5231 34.8066C19.8305 34.6237 19.0972 34.7307 18.4783 35.1048C17.8595 35.479 17.4036 36.091 17.207 36.8115C17.0105 37.532 17.0887 38.3044 17.4251 38.9655C18.1272 40.2433 19.1288 41.3117 20.3349 42.0695C21.5409 42.8272 22.9114 43.2492 24.3164 43.2954H24.7593C24.7588 44.0029 25.0058 44.686 25.4537 45.2149C25.9015 45.7439 26.5188 46.0818 27.1885 46.1646L27.5104 46.1848C28.24 46.1848 28.9397 45.8807 29.4557 45.3394C29.9716 44.798 30.2614 44.0638 30.2614 43.2983L30.7456 43.2838C32.8903 43.1538 34.9022 42.1513 36.3537 40.4895C37.8052 38.8277 38.582 36.6376 38.5189 34.3844C38.4559 32.1313 37.558 29.9927 36.0161 28.4231C34.4742 26.8535 32.4097 25.9767 30.2614 25.9788V20.2057C31.2463 20.171 32.1074 20.6098 32.6438 21.3545L32.8309 21.6461C33.2073 22.283 33.805 22.7414 34.4976 22.9242C35.1903 23.1071 35.9236 23.0001 36.5424 22.626C37.1613 22.2518 37.6172 21.6398 37.8137 20.9193C38.0103 20.1988 37.9321 19.4264 37.5957 18.7653C36.8938 17.487 35.8924 16.418 34.6864 15.6597C33.4803 14.9014 32.1096 14.479 30.7043 14.4325H30.2614C30.2614 13.667 29.9716 12.9328 29.4557 12.3914C28.9397 11.8501 28.24 11.546 27.5104 11.546ZM30.2614 31.752C30.991 31.752 31.6908 32.0561 32.2067 32.5974C32.7226 33.1388 33.0124 33.873 33.0124 34.6385C33.0124 35.4041 32.7226 36.1383 32.2067 36.6797C31.6908 37.221 30.991 37.5251 30.2614 37.5251V31.752ZM24.7593 20.2057V25.9788C24.0297 25.9788 23.33 25.6747 22.8141 25.1334C22.2981 24.592 22.0083 23.8578 22.0083 23.0923C22.0083 22.3267 22.2981 21.5925 22.8141 21.0511C23.33 20.5098 24.0297 20.2057 24.7593 20.2057Z" fill="#2F8DF8"/>
</svg>
