<svg width="66" height="53" viewBox="0 0 66 53" fill="none" xmlns="http://www.w3.org/2000/svg">
<path d="M44.776 42.2041L32.972 34.6206L21.168 42.2041L24.729 28.6197L13.8812 19.7832L27.8943 18.9259L32.972 5.93496L38.0497 18.9259L52.0628 19.7832L41.215 28.6197M59.3496 26.3776C59.3496 24.6287 60.0444 22.9513 61.281 21.7147C62.5177 20.478 64.195 19.7832 65.944 19.7832V6.5944C65.944 4.84546 65.2492 3.16814 64.0125 1.93145C62.7758 0.694765 61.0985 0 59.3496 0H6.5944C4.84546 0 3.16814 0.694765 1.93145 1.93145C0.694765 3.16814 0 4.84546 0 6.5944V19.7832C1.74894 19.7832 3.42625 20.478 4.66294 21.7147C5.89963 22.9513 6.5944 24.6287 6.5944 26.3776C6.5944 28.1265 5.89963 29.8038 4.66294 31.0405C3.42625 32.2772 1.74894 32.972 0 32.972V46.1608C0 47.9097 0.694765 49.587 1.93145 50.8237C3.16814 52.0604 4.84546 52.7552 6.5944 52.7552H59.3496C61.0985 52.7552 62.7758 52.0604 64.0125 50.8237C65.2492 49.587 65.944 47.9097 65.944 46.1608V32.972C64.195 32.972 62.5177 32.2772 61.281 31.0405C60.0444 29.8038 59.3496 28.1265 59.3496 26.3776Z" fill="#2F8DF8"/>
</svg>
