<svg width="58" height="58" viewBox="0 0 58 58" fill="none" xmlns="http://www.w3.org/2000/svg">
<path d="M57.2109 11.8503L44.1009 0.925781L40.4244 5.25597L53.5344 16.1805L57.2109 11.8503ZM16.9689 5.25597L13.3209 0.925781L0.210938 11.822L3.88744 16.1522L16.9689 5.25597ZM30.1359 18.3031H25.8609V35.2843L39.3984 43.3503L41.5359 39.8692L30.1359 33.1616V18.3031ZM28.7109 6.98238C14.5464 6.98238 3.06094 18.388 3.06094 32.4541C3.06094 46.5201 14.5179 57.9258 28.7109 57.9258C35.5137 57.9258 42.0379 55.2422 46.8482 50.4653C51.6585 45.6884 54.3609 39.2096 54.3609 32.4541C54.3609 25.6986 51.6585 19.2197 46.8482 14.4429C42.0379 9.666 35.5137 6.98238 28.7109 6.98238ZM28.7109 52.2654C17.6814 52.2654 8.76094 43.4069 8.76094 32.4541C8.76094 21.5013 17.6814 12.6428 28.7109 12.6428C39.7404 12.6428 48.6609 21.5013 48.6609 32.4541C48.6609 43.4069 39.7404 52.2654 28.7109 52.2654Z" fill="#2F8DF8"/>
</svg>
