<svg width="68" height="57" viewBox="0 0 68 57" fill="none" xmlns="http://www.w3.org/2000/svg">
<path d="M7.33057 0.65625C5.56613 0.65625 3.87395 1.39171 2.6263 2.70083C1.37866 4.00996 0.677734 5.78551 0.677734 7.6369V21.5982C2.44218 21.5982 4.13435 22.3337 5.382 23.6428C6.62965 24.9519 7.33057 26.7275 7.33057 28.5788C7.33057 30.4302 6.62965 32.2058 5.382 33.5149C4.13435 34.824 2.44218 35.5595 0.677734 35.5595V49.5208C0.677734 51.3722 1.37866 53.1477 2.6263 54.4568C3.87395 55.766 5.56613 56.5014 7.33057 56.5014H60.5533C62.3177 56.5014 64.0099 55.766 65.2575 54.4568C66.5052 53.1477 67.2061 51.3722 67.2061 49.5208V35.5595C65.4417 35.5595 63.7495 34.824 62.5018 33.5149C61.2542 32.2058 60.5533 30.4302 60.5533 28.5788C60.5533 26.7275 61.2542 24.9519 62.5018 23.6428C63.7495 22.3337 65.4417 21.5982 67.2061 21.5982V7.6369C67.2061 5.78551 66.5052 4.00996 65.2575 2.70083C64.0099 1.39171 62.3177 0.65625 60.5533 0.65625H7.33057ZM45.5844 11.1272L50.574 16.3627L22.2994 46.0305L17.3098 40.795L45.5844 11.1272ZM23.3306 11.2668C26.5905 11.2668 29.2184 14.0242 29.2184 17.4447C29.2184 19.0832 28.5981 20.6545 27.4939 21.8131C26.3897 22.9717 24.8922 23.6226 23.3306 23.6226C20.0708 23.6226 17.4429 20.8652 17.4429 17.4447C17.4429 15.8062 18.0632 14.2349 19.1674 13.0763C20.2715 11.9177 21.7691 11.2668 23.3306 11.2668ZM44.5532 33.5351C47.8131 33.5351 50.4409 36.2925 50.4409 39.713C50.4409 41.3514 49.8206 42.9228 48.7165 44.0814C47.6123 45.24 46.1147 45.8908 44.5532 45.8908C41.2933 45.8908 38.6654 43.1335 38.6654 39.713C38.6654 38.0745 39.2857 36.5031 40.3899 35.3446C41.4941 34.186 42.9917 33.5351 44.5532 33.5351Z" fill="#00263C"/>
</svg>
