<svg width="50" height="59" viewBox="0 0 50 59" fill="none" xmlns="http://www.w3.org/2000/svg">
<path d="M46.7641 0.375H3.21948C1.71423 0.375 0.492188 1.60002 0.492188 3.1104V55.6415C0.492188 57.1488 1.71423 58.375 3.21948 58.375H46.7641C48.2718 58.375 49.4922 57.1488 49.4922 55.6415V3.10869C49.4922 1.59888 48.2718 0.375 46.7641 0.375ZM38.8494 24.1127C38.8494 31.7755 32.6352 38.0102 24.9927 38.0102C17.3503 38.0102 11.1339 31.7755 11.1339 24.1127V12.9483C11.1339 11.4385 12.3553 10.2135 13.8606 10.2135C15.3658 10.2135 16.5881 11.4385 16.5881 12.9483V24.1127C16.5881 28.7602 20.3571 32.5416 24.9927 32.5416C29.6268 32.5416 33.398 28.7602 33.398 24.1127V12.9483C33.398 11.4385 34.6195 10.2135 36.1225 10.2135C37.6279 10.2135 38.8494 11.4385 38.8494 12.9483V24.1127Z" fill="#21212F"/>
</svg>
