<svg width="39" height="57" viewBox="0 0 39 57" fill="none" xmlns="http://www.w3.org/2000/svg">
<path d="M36.338 5.87869H27.282C26.1849 2.44443 23.021 0 19.2851 0C15.5492 0 12.3875 2.44443 11.306 5.81836L11.2904 5.87869H2.35282C1.05463 5.87869 0 6.93109 0 8.23151C0 9.53193 1.0524 10.5843 2.35282 10.5843H11.4088C12.0076 12.593 13.3081 14.2376 15.0174 15.2676L15.0531 15.2877C8.63817 17.2249 4.03979 23.0634 3.99957 29.9833V42.3351C4.01968 44.4712 5.74463 46.1961 7.87848 46.2162H11.0558V39.513C11.0558 34.9012 14.7939 31.1631 19.4057 31.1631C24.0175 31.1631 27.7557 34.9012 27.7557 39.513V46.2162H30.9307C33.069 46.1983 34.7962 44.4712 34.8141 42.3351V30.104C34.8119 23.1662 30.1956 17.3099 23.8678 15.4307L23.7606 15.4039C25.5079 14.3515 26.806 12.7092 27.3914 10.7564L27.4071 10.6983H36.4631C37.7613 10.6938 38.8114 9.64365 38.8159 8.34546C38.7645 7.00259 37.6875 5.92561 36.3491 5.87646H36.3447L36.338 5.87869ZM19.2851 13.0489C16.6865 13.0489 14.5794 10.9418 14.5794 8.34323C14.5794 5.74463 16.6865 3.63759 19.2851 3.63759C21.8837 3.63759 23.9907 5.74463 23.9907 8.34323C23.9929 8.38345 23.9929 8.43037 23.9929 8.47729C23.9929 11.0022 21.9462 13.0489 19.4214 13.0489C19.3744 13.0489 19.3275 13.0489 19.2806 13.0466H19.2873L19.2851 13.0489Z" fill="#21212F"/>
<path d="M19.2571 33.8906C16.2821 33.8988 13.8755 36.4522 13.8652 39.6025V51.1729V51.2841C13.8652 54.4399 16.2796 56.9987 19.2571 56.9987C22.2347 56.9987 24.649 54.4399 24.649 51.2841C24.649 51.2461 24.649 51.2054 24.649 51.1674V51.1729V39.6052C24.6413 36.4549 22.2321 33.9015 19.2622 33.8906H19.2571Z" fill="#21212F"/>
</svg>
