<svg width="56" height="58" viewBox="0 0 56 58" fill="none" xmlns="http://www.w3.org/2000/svg">
<path d="M42.1191 3.97316C46.3012 6.50667 49.7741 10.1506 52.1886 14.5388C54.6032 18.927 55.8743 23.9048 55.8743 28.9718C55.8742 34.0388 54.603 39.0165 52.1884 43.4047C49.7738 47.7928 46.3009 51.4368 42.1188 53.9702C37.9366 56.5037 33.1926 57.8374 28.3635 57.8373C23.5343 57.8372 18.7903 56.5034 14.6082 53.9698C10.4262 51.4362 6.95336 47.7921 4.5389 43.4039C2.12444 39.0157 0.853393 34.0379 0.853516 28.9709L0.867271 28.0356C1.02134 23.0505 2.40386 18.1923 4.88004 13.9347C7.35623 9.6771 10.8416 6.16538 14.9963 3.7419C19.151 1.31842 23.8333 0.0658916 28.5867 0.106422C33.3401 0.146952 38.0024 1.47916 42.1191 3.97316ZM28.3639 11.6514C27.6343 11.6514 26.9345 11.9556 26.4186 12.4969C25.9027 13.0382 25.6129 13.7724 25.6129 14.538C23.424 14.538 21.3248 15.4504 19.777 17.0744C18.2293 18.6984 17.3597 20.901 17.3597 23.1977C17.3597 25.4944 18.2293 27.6971 19.777 29.3211C21.3248 30.9451 23.424 31.8574 25.6129 31.8574V37.6306C25.1566 37.6571 24.7011 37.5663 24.2859 37.3661C23.8707 37.1659 23.5084 36.8623 23.2305 36.4817L23.0434 36.1902C22.667 35.5533 22.0693 35.0949 21.3766 34.912C20.684 34.7292 19.9507 34.8361 19.3319 35.2103C18.713 35.5844 18.2571 36.1965 18.0605 36.917C17.864 37.6374 17.9422 38.4099 18.2786 39.071C18.9808 40.3488 19.9823 41.4172 21.1884 42.1749C22.3944 42.9327 23.7649 43.3547 25.1699 43.4008H25.6129C25.6123 44.1084 25.8593 44.7915 26.3072 45.3204C26.755 45.8493 27.3724 46.1873 28.042 46.2701L28.3639 46.2903C29.0935 46.2903 29.7932 45.9862 30.3092 45.4448C30.8251 44.9035 31.1149 44.1693 31.1149 43.4037L31.5991 43.3893C33.7438 43.2592 35.7557 42.2568 37.2072 40.595C38.6587 38.9332 39.4355 36.7431 39.3724 34.4899C39.3094 32.2367 38.4115 30.0981 36.8696 28.5286C35.3277 26.959 33.2632 26.0821 31.1149 26.0843V20.3112C32.0998 20.2765 32.9609 20.7153 33.4973 21.46L33.6844 21.7516C34.0608 22.3885 34.6585 22.8468 35.3511 23.0297C36.0438 23.2126 36.7771 23.1056 37.3959 22.7315C38.0148 22.3573 38.4707 21.7453 38.6672 21.0248C38.8638 20.3043 38.7856 19.5318 38.4492 18.8708C37.7474 17.5924 36.7459 16.5234 35.5399 15.7652C34.3338 15.0069 32.9631 14.5845 31.5578 14.538H31.1149C31.1149 13.7724 30.8251 13.0382 30.3092 12.4969C29.7932 11.9556 29.0935 11.6514 28.3639 11.6514ZM31.1149 31.8574C31.8445 31.8574 32.5443 32.1616 33.0602 32.7029C33.5761 33.2442 33.866 33.9784 33.866 34.744C33.866 35.5096 33.5761 36.2438 33.0602 36.7851C32.5443 37.3265 31.8445 37.6306 31.1149 37.6306V31.8574ZM25.6129 20.3112V26.0843C24.8832 26.0843 24.1835 25.7802 23.6676 25.2388C23.1517 24.6975 22.8618 23.9633 22.8618 23.1977C22.8618 22.4322 23.1517 21.698 23.6676 21.1566C24.1835 20.6153 24.8832 20.3112 25.6129 20.3112Z" fill="#00263C"/>
</svg>
