<svg width="67" height="56" viewBox="0 0 67 56" fill="none" xmlns="http://www.w3.org/2000/svg">
<path d="M6.65284 0C4.88839 0 3.19622 0.735459 1.94857 2.04458C0.700921 3.35371 0 5.12926 0 6.98065V20.9419C1.76444 20.9419 3.45662 21.6774 4.70427 22.9865C5.95191 24.2957 6.65284 26.0712 6.65284 27.9226C6.65284 29.774 5.95191 31.5495 4.70427 32.8587C3.45662 34.1678 1.76444 34.9032 0 34.9032V48.8645C0 50.7159 0.700921 52.4915 1.94857 53.8006C3.19622 55.1097 4.88839 55.8452 6.65284 55.8452H59.8755C61.64 55.8452 63.3321 55.1097 64.5798 53.8006C65.8274 52.4915 66.5284 50.7159 66.5284 48.8645V34.9032C64.7639 34.9032 63.0717 34.1678 61.8241 32.8587C60.5764 31.5495 59.8755 29.774 59.8755 27.9226C59.8755 26.0712 60.5764 24.2957 61.8241 22.9865C63.0717 21.6774 64.7639 20.9419 66.5284 20.9419V6.98065C66.5284 5.12926 65.8274 3.35371 64.5798 2.04458C63.3321 0.735459 61.64 0 59.8755 0H6.65284ZM44.9066 10.471L49.8963 15.7065L21.6217 45.3742L16.6321 40.1387L44.9066 10.471ZM22.6529 10.6106C25.9128 10.6106 28.5407 13.3679 28.5407 16.7885C28.5407 18.4269 27.9203 19.9983 26.8162 21.1569C25.712 22.3154 24.2144 22.9663 22.6529 22.9663C19.393 22.9663 16.7651 20.209 16.7651 16.7885C16.7651 15.15 17.3855 13.5786 18.4896 12.42C19.5938 11.2615 21.0914 10.6106 22.6529 10.6106ZM43.8755 32.8789C47.1353 32.8789 49.7632 35.6362 49.7632 39.0567C49.7632 40.6952 49.1429 42.2666 48.0387 43.4251C46.9346 44.5837 45.437 45.2346 43.8755 45.2346C40.6156 45.2346 37.9877 42.4772 37.9877 39.0567C37.9877 37.4182 38.608 35.8469 39.7122 34.6883C40.8163 33.5297 42.3139 32.8789 43.8755 32.8789Z" fill="#2F8DF8"/>
</svg>
