<svg width="21" height="23" viewBox="0 0 21 23" fill="none" xmlns="http://www.w3.org/2000/svg">
<path d="M19.1603 0H1.84247C1.24382 0 0.757812 0.485786 0.757812 1.08473V21.9161C0.757812 22.5138 1.24382 23.0001 1.84247 23.0001H19.1603C19.7599 23.0001 20.2453 22.5138 20.2453 21.9161V1.08405C20.2453 0.485335 19.7599 0 19.1603 0ZM16.0126 9.41325C16.0126 12.4519 13.5412 14.9243 10.5017 14.9243C7.46236 14.9243 4.99004 12.4519 4.99004 9.41325V4.98598C4.99004 4.38726 5.47583 3.90148 6.07447 3.90148C6.67311 3.90148 7.1592 4.38726 7.1592 4.98598V9.41325C7.1592 11.2562 8.65814 12.7558 10.5017 12.7558C12.3447 12.7558 13.8446 11.2562 13.8446 9.41325V4.98598C13.8446 4.38726 14.3304 3.90148 14.9281 3.90148C15.5268 3.90148 16.0126 4.38726 16.0126 4.98598V9.41325Z" fill="#00263C"/>
</svg>
