<svg width="36" height="38" viewBox="0 0 36 38" fill="none" xmlns="http://www.w3.org/2000/svg">
<path d="M20 37.7739V33.5768H24V37.7739H20ZM16 33.5768V23.084H20V33.5768H16ZM32 27.2811V18.8869H36V27.2811H32ZM28 18.8869V14.6898H32V18.8869H28ZM4 23.084V18.8869H8V23.084H4ZM0 18.8869V14.6898H4V18.8869H0ZM18 4.1971V0H22V4.1971H18ZM3 9.44347H9V3.14782H3V9.44347ZM0 12.5913V0H12V12.5913H0ZM3 34.626H9V28.3304H3V34.626ZM0 37.7739V25.1826H12V37.7739H0ZM27 9.44347H33V3.14782H27V9.44347ZM24 12.5913V0H36V12.5913H24ZM28 37.7739V31.4782H24V27.2811H32V33.5768H36V37.7739H28ZM20 23.084V18.8869H28V23.084H20ZM12 23.084V18.8869H8V14.6898H20V18.8869H16V23.084H12ZM14 12.5913V4.1971H18V8.39419H22V12.5913H14ZM4.5 7.86956V4.72173H7.5V7.86956H4.5ZM4.5 33.0521V29.9043H7.5V33.0521H4.5ZM28.5 7.86956V4.72173H31.5V7.86956H28.5Z" fill="black"/>
</svg>
