<svg width="26" height="26" viewBox="0 0 26 26" fill="none" xmlns="http://www.w3.org/2000/svg">
<path d="M18.582 16.3522H17.4077L16.9914 15.9508C18.4987 14.2027 19.3271 11.9709 19.3253 9.66267C19.3253 7.75157 18.7586 5.8834 17.6969 4.29438C16.6351 2.70536 15.126 1.46687 13.3604 0.735531C11.5948 0.00418668 9.65195 -0.187166 7.77757 0.18567C5.9032 0.558506 4.18148 1.47878 2.83013 2.83013C1.47878 4.18148 0.558506 5.9032 0.18567 7.77757C-0.187166 9.65195 0.00418668 11.5948 0.735531 13.3604C1.46687 15.126 2.70536 16.6351 4.29438 17.6969C5.8834 18.7586 7.75157 19.3253 9.66267 19.3253C12.056 19.3253 14.2561 18.4483 15.9508 16.9914L16.3522 17.4077V18.582L23.785 26L26 23.785L18.582 16.3522ZM9.66267 16.3522C5.96112 16.3522 2.97313 13.3642 2.97313 9.66267C2.97313 5.96112 5.96112 2.97313 9.66267 2.97313C13.3642 2.97313 16.3522 5.96112 16.3522 9.66267C16.3522 13.3642 13.3642 16.3522 9.66267 16.3522Z" fill="#00263C"/>
</svg>
