<svg width="175" height="345" viewBox="0 0 175 345" fill="none" xmlns="http://www.w3.org/2000/svg">
<path d="M3.6133 87.0311C3.79368 84.7176 3.67544 92.4409 3.94483 87.3124C3.96303 88.3818 3.9818 89.4578 4 90.5272C3.90023 90.7985 3.80071 91.0763 3.70094 91.3475C3.67156 89.9114 3.64219 88.4745 3.61281 87.0311C3.61297 87.0311 3.61314 87.0311 3.6133 87.0311ZM2.36385 85.0702C2.64841 86.3863 2.72428 90.568 2.98687 86.0506C2.88921 85.6915 2.79157 85.3238 2.69391 84.9647C2.76965 83.3963 2.84538 81.8182 2.92071 80.2499C2.88348 79.6858 2.8462 79.1225 2.80939 78.5585C2.97909 77.8402 3.14925 77.1283 3.31937 76.41C3.29453 77.0478 3.26926 77.6941 3.24442 78.3319C3.38223 80.8531 3.41992 83.0966 3.44558 86.5194C3.48574 86.2189 3.52554 85.9176 3.5657 85.617C3.4974 87.3541 3.42893 89.0904 3.36063 90.8202C3.29358 89.3178 3.21902 87.6382 3.15654 86.2459C2.89045 88.4739 3.03854 92.4036 3.09404 94.4491C3.16979 97.2345 3.04327 96.605 3.09624 98.6717C3.10451 99.0016 3.20369 99.039 3.20536 99.6912C3.21323 102.983 3.16066 109.375 2.92925 105.637C2.95906 100.219 2.77323 95.5995 2.84112 90.285C2.57355 91.6909 2.4825 88.8911 2.36385 85.0702ZM3.21586 184.586C3.0859 182.944 3.13835 179.601 3.22855 177.336C3.22855 177.333 3.22855 177.33 3.22855 177.328C3.24842 176.829 3.42113 175.701 3.41409 177.328C3.40203 179.981 3.13017 181.263 3.31473 182.656C3.28037 183.279 3.2498 183.933 3.21586 184.586ZM3.23197 190.351C3.16533 191.979 2.96048 191.24 3.01592 189.203C3.01576 189.203 3.01559 189.203 3.01543 189.203C3.03861 188.352 3.20053 190.022 3.03618 186.972C3.16404 186.35 3.28036 185.736 3.40408 185.121C3.40615 185.867 3.40951 186.548 3.41116 187.332C3.201 186.805 3.2981 188.724 3.23197 190.351ZM3.04497 108.387C3.23404 108.643 3.23284 107.571 3.36405 105.746C3.35784 107.468 3.35121 109.191 3.345 110.906C3.24487 110.063 3.14511 109.229 3.04497 108.387ZM3.07426 67.9217C3.07426 67.9191 3.07426 67.9165 3.07426 67.9139C3.04446 67.3495 3.01455 66.7836 2.98516 66.2264C3.05263 65.8893 3.11982 65.5558 3.1873 65.2187C3.12396 63.2248 3.06063 61.2203 2.99688 59.2265C3.203 59.4687 3.16946 63.0477 3.31351 65.0194C3.25141 67.9512 3.13177 69.364 2.95708 69.5546C2.99598 69.0124 3.03537 68.4714 3.07426 67.9217ZM172.747 309.571C172.69 308.904 172.633 308.246 172.576 307.579C172.55 308.466 172.53 309.345 172.5 310.239C172.748 312.577 172.529 312.797 172.544 315.86C172.591 325.25 172.977 322.759 172.412 331.239C172.439 324.431 172.173 327.047 171.969 322.942C172.124 322.092 172.475 326.159 172.548 323.403C172.384 318.654 172.23 314.087 172.124 308.817C172.097 308.971 172.07 309.124 172.043 309.278C172.06 310.114 172.077 310.943 172.094 311.778C172.022 310.877 171.951 309.995 171.878 309.079C172.041 310.237 171.95 307.286 172.138 307.681C172.221 307.856 172.337 309.161 172.417 309.931C172.461 307.944 172.5 305.907 172.543 303.899C172.609 304.94 172.676 305.979 172.743 307.013C172.745 307.862 172.746 308.706 172.748 309.556C172.748 309.561 172.748 309.566 172.747 309.571ZM53.0875 3.12187C55.6092 2.9273 60.1915 2.89511 62.6031 3.11162C59.4292 3.11493 56.2615 3.11856 53.0875 3.12187ZM2.81305 69.746C2.84612 69.4605 2.87884 69.1839 2.91192 68.8983C2.97317 70.1589 3.03401 71.4268 3.09526 72.6874C2.99967 72.9292 2.90407 73.1765 2.8089 73.4257C2.81014 72.2018 2.81181 70.9697 2.81305 69.746ZM2.91949 150.394C2.9137 149.472 2.91684 149.39 2.93047 148.242C2.93039 148.243 2.93031 148.245 2.93023 148.246C2.93532 147.791 2.99115 143.981 3.06474 144.406C3.06599 146.297 3.06474 148.315 3.06474 150.25C3.01634 150.308 2.96831 150.321 2.91949 150.394ZM2.96245 128.133C2.96262 128.13 2.96278 128.127 2.96294 128.125C2.97412 127.436 2.99688 126.784 3.00103 126.074C3.11685 128.631 2.90905 129.036 2.96782 131.359C3.02702 133.682 3.14167 135.118 2.85699 137.09C2.81435 136.357 2.75335 135.567 2.70368 134.812C2.81751 131.514 2.71039 130.626 2.59821 127.98C2.7199 128.032 2.84077 128.081 2.96245 128.133ZM164.624 342.172C163.994 342.312 163.291 342.174 163.218 342.173C163.219 342.172 163.221 342.172 163.222 342.172C157.638 342.302 163.949 342.094 158.679 342.072C159.463 342.037 160.234 342 161.011 341.964C162.213 342.032 163.452 342.109 164.624 342.172ZM2.84161 324.206C2.88259 324.155 2.92367 324.094 2.96465 324.042C2.95513 327.209 3.11647 328.017 2.96953 330.648C2.92649 328.501 2.88375 326.354 2.84112 324.206C2.84128 324.206 2.84145 324.206 2.84161 324.206ZM2.62141 166.355C2.54317 162.844 2.50869 160.247 2.63288 156.875C2.63304 156.872 2.63321 156.87 2.63337 156.867C2.64101 156.673 2.72675 157.613 2.74835 157.359C2.73553 156.663 2.71581 155.945 2.7005 155.242C2.76917 155.147 2.83781 155.056 2.90606 154.961C2.88661 156.94 2.86717 158.92 2.84771 160.906C2.88787 160.613 2.92767 160.312 2.96782 160.019C2.98852 161.705 3.00914 163.384 3.02983 165.07C2.91727 164.484 2.80469 163.899 2.69172 163.32C2.66813 164.331 2.64541 165.344 2.62141 166.355ZM35.9252 342.607C35.368 342.562 36.3995 342.487 35.5345 342.449C34.6694 342.411 33.0748 342.494 33.4486 342.368C34.6132 342.351 35.8363 342.331 37.0228 342.314C33.2039 342.086 29.394 342.292 29.3353 342.011C33.0004 342.084 36.014 342.05 39.5619 341.972C39.4152 342.195 35.8666 342.388 38.1009 342.598C37.3831 342.6 36.6288 342.605 35.933 342.606C35.9304 342.607 35.9278 342.607 35.9252 342.607ZM0.0153344 18.4492C0.0323072 16.2794 -0.0587468 11.308 0.0712399 8.5664C0.103273 7.89189 0.518227 5.64484 0.572924 5.65626C0.757136 5.72217 0.78221 8.46644 0.902253 5.52733C0.9035 6.51602 0.910416 7.47557 0.913727 8.45703C1.0375 8.2811 1.16095 8.10608 1.28431 7.93749C1.26569 6.74264 1.24696 5.54639 1.22792 4.35156C1.2689 4.29286 1.30998 4.23442 1.35096 4.17579C1.35179 8.47132 1.50997 5.93563 1.65734 8.16406C1.73184 6.11197 1.80598 4.04471 1.88048 2C1.87137 3.17999 1.86463 4.57245 1.85387 5.61329C2.06373 5.75257 2.01369 3.26925 2.05259 2.84376C2.27239 0.446849 2.16145 12.6498 2.46687 13.6484C2.50081 11.6991 2.53393 9.65355 2.56745 7.66016C2.60512 8.23187 2.64282 8.81111 2.68049 9.38282C2.46983 13.9051 2.39521 18.9764 2.264 24.2461C2.27269 24.7222 2.28161 25.1991 2.28988 25.6679C2.38464 25.5287 2.47904 25.397 2.5738 25.2578C2.58498 25.9761 2.59607 26.7034 2.60725 27.4218C2.29515 25.3038 2.2994 28.2369 2.10898 31.7773C1.9993 29.8938 2.0658 27.5702 1.86143 27.7304C2.01867 34.195 1.79646 41.7659 1.97398 48.0546C2.01785 49.6157 2.28148 49.6107 2.25717 53.2812C2.22819 53.1566 2.17587 53.1352 2.13779 53.0546C2.26405 59.4027 2.33953 63.2542 2.21078 69.8514C2.30553 69.4705 2.40068 69.0957 2.49544 68.7147C2.44824 67.3146 2.4003 65.9121 2.35311 64.5194C2.50958 63.5667 2.57863 64.9747 2.57697 60.7968C2.57573 57.3735 2.50665 59.4114 2.46028 58.4804C2.39698 57.2199 2.5215 56.1135 2.45076 54.7577C2.39653 53.7095 2.26743 54.8435 2.30013 52.1093C2.46738 53.2089 2.64007 54.3305 2.80939 55.4374C2.77171 56.1045 2.73346 56.7664 2.69538 57.4335C2.65067 56.7591 2.60655 56.0962 2.56184 55.4218C2.64214 57.7966 2.71788 60.0406 2.80108 62.496C2.55933 61.697 2.64997 64.2351 2.67853 65.6132C2.72319 67.7599 2.55681 65.9207 2.58454 67.328C2.61271 68.7354 2.79859 70.2532 2.75885 72.7968C2.65124 71.4335 2.55473 73.288 2.4554 72.9296C2.35607 72.5704 2.33407 69.88 2.22567 72.4647C2.30805 77.4346 2.68634 72.0417 2.74762 75.3983C2.8213 79.4297 2.20467 80.3889 2.07212 79.1874C1.9678 78.2418 1.98878 74.988 1.88487 74.035C1.69735 79.8625 2.06754 79.913 2.13998 80.91C2.40366 84.5309 1.69989 82.0987 1.95445 86.3866C1.82284 86.306 1.70447 86.2406 1.57825 86.16C1.60225 86.8999 1.63416 87.3911 1.65319 88.285C1.90962 85.649 1.89863 87.8066 1.89903 88.9139C1.89986 90.6586 2.02494 87.9638 2.05723 88.4256C2.14363 89.6718 2.1044 91.6426 2.21737 90.4334C2.1648 90.9759 2.11207 91.5638 2.05991 92.121C2.12542 94.1592 2.67472 98.9494 2.56379 94.3905C2.76788 94.8156 2.66979 96.2904 2.63874 97.4413C2.60772 98.5918 2.7377 98.5704 2.71369 99.5819C2.61764 103.606 2.39531 100.973 2.22104 100.336C2.34108 105.65 2.4205 100.447 2.50081 108.105C2.6428 108.846 2.79431 105.307 2.87628 108.254C2.6296 108.797 2.4524 110.966 2.37044 115.195C2.42716 115.606 2.48437 116.015 2.54109 116.426C2.31341 118.735 2.07665 117.554 2.35897 121.828C1.83945 119.534 2.17181 121.111 1.96031 124.937C1.91767 125.714 1.80988 123.919 1.75524 125.004C1.7306 125.496 1.81196 126.689 1.74914 127.89C1.71809 128.477 1.51777 131.218 1.61291 133.117C1.86461 131.724 2.07872 135.331 2.28695 132.238C2.23562 137.956 2.35646 141.957 2.01328 135.551C1.93711 137.002 1.86127 138.455 1.78551 139.906C1.84554 140.918 1.90509 141.938 1.9647 142.957C1.75784 143.111 1.69981 142.956 1.7362 146.941C1.68737 145.212 1.63774 143.49 1.5885 141.754C1.54673 141.695 1.50331 141.453 1.46277 141.511C1.54222 143.638 1.57642 149.627 1.63147 151.078C1.68652 152.529 1.70159 149.726 1.75499 150.144C2.19535 153.625 1.87057 153.349 1.94615 155.847C1.99086 157.313 2.0394 153.813 2.05845 154.597C2.12824 157.506 1.8942 158.855 1.89122 161.433C2.02406 160.517 2.15897 159.609 2.29305 158.715C2.28602 161.419 2.28484 164.435 2.32748 166.949C2.34412 167.936 2.44292 167.19 2.44954 167.351C2.48349 168.151 2.53726 171.405 2.53767 171.75C2.53846 174.343 2.40162 174.417 2.39412 176.937C2.38254 175.948 2.37209 175.018 2.36092 174.05C2.13906 173.611 1.91721 173.162 1.69494 172.722C1.6788 175.192 1.66299 177.663 1.64685 180.14C1.72093 178.33 1.79467 176.513 1.86876 174.703C2.048 177.532 2.22765 180.362 2.40731 183.191C2.2972 184.664 2.18711 186.132 2.077 187.605C2.10605 191.606 2.55302 190.801 2.16147 192.699C2.19457 193.879 2.22765 195.058 2.26034 196.238C2.20447 196.069 2.14849 195.903 2.09262 195.734C2.12698 197.156 2.16112 198.578 2.19589 200C2.39374 198.504 2.60195 197.039 2.79401 195.558C2.837 198.357 2.66915 198.41 2.62727 198.828C2.51632 199.935 2.66597 202.132 2.5633 203.011C2.52806 203.309 2.41756 200.566 2.29012 201.511C2.26542 201.696 1.79697 205.368 1.90513 207.711C1.99 207.667 2.09405 207.486 2.18637 207.39C2.23791 210.541 1.79494 212.148 1.67077 211.73C1.7577 213.409 1.76496 215.862 1.90074 216.207C1.90405 217.064 1.90719 217.915 1.9105 218.773C1.57982 217.879 1.64029 221.456 1.92466 221.691C1.9317 220.218 1.93911 218.743 1.94615 217.269C2.2947 218.383 2.50509 213.906 2.18222 223.222C2.0009 225.004 2.20692 220.056 2.07114 221.507C1.99211 224.029 2.05824 226.396 1.93199 228.793C1.77428 231.775 1.62259 228.106 1.82335 235.054C2.32631 219.727 2.16312 237.156 2.31918 244.355C1.82241 246.334 1.66507 252.413 1.81285 260.785C1.95111 259.912 1.87988 257.279 1.9254 255.761C1.97093 254.244 2.05295 255.886 2.11752 253.996C2.18208 252.105 2.26985 248.089 2.36751 246.175C2.44576 247.796 2.63076 255.798 2.40853 250.507C2.27153 254.457 2.13076 256.312 2.10507 261.207C2.32074 262.673 2.45504 262.564 2.46126 267.335C2.16157 264.514 1.95328 269.935 1.64367 268.742C1.71578 265.358 2.0167 267.249 2.16074 265.293C2.17513 265.092 2.0997 261.939 2.10507 261.207C1.83475 264.388 1.73414 265.488 1.41248 263.531C1.44063 265.781 1.40025 267.181 1.55383 267.386C1.4872 267.855 1.42052 268.327 1.35389 268.789C1.35555 269.521 1.36172 270.18 1.36048 270.957C1.59215 269.887 1.44954 271.96 1.55456 273.433C1.65971 274.907 1.84259 272.93 1.84508 276.976C1.89931 275.627 1.94584 274.394 1.99717 273.089C2.05677 275.699 2.11676 278.316 2.17636 280.925C2.31791 279.093 2.52818 275.121 2.71442 275.23C2.6441 276.432 2.76768 280.549 2.77277 281C2.79181 282.744 2.67435 281.793 2.67145 281.925C2.61437 284.666 2.65437 286.924 2.47639 287.964C2.55669 290.024 2.51091 291.577 2.51545 293.761C2.51794 294.963 2.64866 294.73 2.62385 295.433C2.45827 300.11 2.28935 295.654 2.61091 304.675C2.70197 303.583 2.79513 302.506 2.88702 301.414C2.92138 302.432 2.95593 303.445 2.99028 304.464C2.97373 305.146 2.95704 305.822 2.94048 306.503C2.74304 306.489 2.54518 306.471 2.34774 306.457C2.33698 307.204 2.32652 307.955 2.31576 308.703C2.2963 307.42 2.27687 306.134 2.25741 304.851C2.22267 304.734 2.18791 304.624 2.15317 304.507C2.09935 306.413 2.04505 308.312 1.99082 310.218C2.05951 310.255 2.12867 310.291 2.19736 310.328C2.10173 314.623 2.04359 314.725 2.23275 318.808C2.23068 321.953 2.51786 324.514 2.63874 326.331C2.60025 326.984 2.56127 327.637 2.52278 328.296C2.57991 328.714 2.63678 329.136 2.69391 329.554C2.61444 330.382 2.53495 331.222 2.45589 332.05C2.63628 332.512 2.6926 332.751 2.75592 329.519C2.98028 330.626 2.88131 336.316 2.80597 338.632C2.74879 340.39 2.56165 338.44 2.53889 338.66C2.46156 339.393 2.52828 342.29 2.51545 342.898C2.51475 342.932 2.51405 342.966 2.51336 343L2 342.487C4.51869 342.538 6.30427 342.529 8.59708 342.57C9.04943 342.578 10.3139 342.697 10.4213 342.701C11.2569 342.721 13.3196 342.779 13.5541 342.78C25.6537 342.869 12.725 342.354 23.976 342.408C23.6389 342.341 23.3291 342.273 22.9994 342.205C23.8493 342.201 24.7081 342.197 25.558 342.193C26.6355 342.25 25.3319 342.353 27.472 342.27C27.3327 342.353 27.1929 342.437 27.0463 342.52C27.9772 342.475 28.8746 342.43 29.8275 342.385C31.3228 342.675 36.7819 342.741 36.3939 343.082C36.2619 343.198 32.3917 343.317 34.4369 343.441C36.0986 343.465 34.9739 343.326 35.6517 343.319C40.5484 343.269 40.2638 343.463 42.265 343.411C42.58 343.328 42.9114 343.243 43.2337 343.159C43.9884 343.183 44.7452 343.208 45.5072 343.232C45.6831 343.176 45.8664 343.12 46.0423 343.065C45.3314 343.061 44.5307 343.057 43.8783 343.053C44.788 342.837 53.1421 342.74 49.9564 342.924C48.6591 342.999 46.283 342.967 47.7845 343.223C50.0201 343.186 52.5566 343.149 54.9095 343.112C54.9828 343.167 55.051 343.222 55.1243 343.277C58.2954 343.241 55.4115 343.021 55.4173 342.903C56.1427 342.9 56.8755 342.897 57.6009 342.894C57.9084 342.947 58.2006 343.003 58.5228 343.055C58.5523 342.97 58.9585 342.772 61.1204 342.846C62.5105 342.893 60.3214 343.107 62.972 343.078C62.7739 342.945 61.8164 342.784 64.7689 342.741C65.0621 342.88 65.4675 343.006 65.6946 343.152C69.3663 343.019 71.0372 343.232 75.347 343.078C78.0811 342.98 81.8264 342.633 83.5931 343.168C85.593 343.182 84.9582 343.049 85.5501 343.019C88.3429 342.877 90.4202 343.13 90.9407 343.145C94.2599 343.241 95.7481 343.153 98.4524 343.273C98.3058 343.174 98.226 343.08 98.1086 342.984C95.631 343.132 94.3762 343.125 90.9016 343.093C92.0669 343.073 93.2325 343.053 94.3977 343.033C94.2072 342.953 94.0184 342.873 93.8352 342.793C83.0889 343.109 85.5958 342.609 94.6047 342.5C95.3816 342.649 96.1868 342.797 96.9563 342.946C102.161 342.721 104.61 342.916 110.495 342.963C111.195 342.968 113.744 342.883 114.839 342.878C114.821 342.878 114.803 342.877 114.784 342.877C115.466 342.736 114.543 342.672 114.433 342.546C115.026 342.531 115.62 342.515 116.214 342.499C117.54 342.595 117.074 342.673 119.683 342.651C119.331 342.555 118.984 342.46 118.632 342.365C121.491 342.362 123.362 342.465 126.023 342.42C125.576 342.456 125.134 342.492 124.687 342.528C130.478 342.62 125.869 343.18 130.245 342.902C130.524 342.95 130.795 343 131.073 343.048C129.271 343.06 127.467 343.072 125.671 343.084C125.634 343.153 125.595 343.222 125.566 343.291C127.493 343.27 129.431 343.249 131.359 343.228C129.951 343.275 128.536 343.321 127.128 343.368C129.364 343.401 131.6 343.434 133.835 343.467C131.461 343.213 134.539 343.182 133.96 342.93C137.919 343.14 141.028 343.416 147.163 343.239C148.38 343.204 147.719 343.028 151.171 343.242C150.335 342.962 154.66 342.831 154.105 342.565C152.903 342.577 151.657 342.586 150.491 342.601C151.818 342.694 152.038 342.947 150.023 343.023C147.45 343.119 143.697 342.943 143.851 343.225C142.825 343.212 141.871 343.204 140.874 343.193C141.284 343.123 141.686 343.052 142.089 342.982C139.253 343.092 137.472 343.056 136.109 342.88C139.487 342.839 142.859 342.799 146.237 342.759C145.74 342.747 145.235 342.735 144.737 342.724C147.296 342.543 144.657 342.373 149.429 342.334C149.4 342.417 149.376 342.499 149.347 342.582C151.084 342.362 155.841 342.363 154.323 342.11C155.76 342.187 156.053 342.237 156.866 342.1C160.656 342.293 163.09 342.536 161.741 342.827C163.148 342.78 164.556 342.733 165.956 342.686C165.143 342.607 164.328 342.528 163.515 342.448C165.963 342.453 168.429 342.458 170.87 342.463C171.105 342.698 166.158 342.534 167.585 342.744C167.871 342.786 169.188 342.696 169.534 342.72C173.184 342.977 167.454 342.791 168.53 342.988C172.353 343.031 171.339 343.206 173 343.211L173.212 343.21L173.211 343C173.213 342.298 173.184 341.118 173.101 338.891C173.169 338.694 173.239 338.481 173.306 338.298C173.31 335.697 173.157 335.908 173.128 333.673C173.11 332.273 173.379 330.516 173.196 328.97C173.162 328.694 172.833 331.295 172.847 325.829C172.859 321.587 173.091 323.352 173.173 321.059C173.256 318.765 172.933 313.516 173.299 311.97C173.251 313.171 173.224 314.702 173.185 316.036C173.256 316.578 173.326 317.106 173.397 317.641C173.305 314.592 173.414 311.44 173.244 309.388C173.503 305.319 173.262 300.769 172.969 302.001C173.012 303.34 173.139 301.883 173.058 303.743C172.99 303.934 172.922 304.135 172.853 304.325C172.862 301.158 172.86 298.959 173.068 300.403C173.073 299.912 173.078 299.426 173.083 298.934C172.932 298.847 172.781 298.769 172.63 298.681C172.613 298.094 172.596 297.505 172.58 296.919C172.613 296.267 172.646 295.613 172.68 294.954C172.918 295.841 172.926 297.352 173.059 292.352C172.977 292.338 172.895 292.316 172.812 292.302C172.917 288.116 173.117 288.006 173.109 282.751C173.395 286.783 172.888 288.988 173.462 288.974C173.424 289.985 173.386 291.005 173.349 292.017C173.432 292.17 173.515 292.323 173.598 292.47C173.554 287.038 173.007 278.016 173.37 274.38C173.326 273.94 173.287 273.499 173.24 273.052C173.459 269.489 172.967 267.951 173.25 264.337C173.28 263.964 173.742 264.744 173.725 260.04C173.665 260.157 173.564 260.218 173.488 260.313C173.525 259.295 173.564 258.282 173.601 257.27C173.546 257.087 173.491 256.895 173.435 256.712C173.413 258.449 173.391 260.182 173.37 261.919C173.351 260.475 173.332 259.023 173.313 257.579C173.222 259.462 173.221 260.312 173.076 259.177C173.067 257.542 173.058 255.905 173.049 254.271C173.012 254.102 172.974 253.935 172.937 253.767C172.826 254.558 172.718 255.358 172.605 256.149C172.696 251.891 172.701 248.188 172.919 244.919C172.956 244.362 173.1 246.332 172.97 242.536C173.046 242.477 173.109 242.376 173.179 242.31C172.965 237.662 173.029 236.135 173.184 231.29C173.039 234.427 173.133 231.628 173.056 230.829C173.002 230.282 173.01 232.418 172.954 232.177C172.899 231.935 172.675 229.158 172.648 231.532C173.107 237.353 172.558 238.938 172.779 246.415C172.72 245.264 172.66 244.105 172.601 242.954C172.561 243.496 172.525 243.981 172.482 244.567C172.572 240.397 172.514 242.425 172.443 240.712C172.372 238.997 172.312 235.879 172.292 233.79C172.286 233.132 172.389 233.826 172.399 232.341C172.405 231.329 172.253 228.565 172.433 227.927C172.55 227.509 172.873 231.95 172.872 225.81C172.987 224.654 172.951 227.598 172.965 227.661C173.101 228.196 173.204 224.421 173.1 222.677C173.091 222.535 172.984 223.913 172.943 222.415C172.843 218.86 172.965 216.807 173.13 214.505C172.936 214.256 172.705 211.264 172.777 207.54C172.721 207.35 172.665 207.168 172.609 206.978C172.639 207.556 172.668 208.134 172.697 208.712C172.662 209.342 172.637 210.01 172.596 210.626C172.548 206.881 172.281 206.352 172.184 204.556C171.85 198.41 172.556 202.135 172.677 203.243C172.628 204.042 172.573 204.815 172.521 205.607C172.589 205.519 172.657 205.429 172.725 205.349C172.723 196.149 173.163 203.948 173.288 199.278C172.956 198.076 172.924 194.647 173.135 190.278C173.133 189.795 173.133 189.309 173.131 188.825C173.082 188.745 173.008 188.746 172.976 188.614C172.92 183.351 173.431 182.414 173.48 181.915C173.695 179.702 173.397 177.978 173.395 177.325C173.385 174.577 173.517 173.778 173.46 171.161C173.399 168.347 173.297 170.271 173.207 169.415C173.135 168.728 173.122 166.508 173.047 165.591C173.108 165.955 173.168 166.36 173.229 166.724C173.313 163.807 173.394 161.423 173.414 158.111C172.967 154.372 173.721 151.192 173.11 152.482C173.068 155.619 172.998 157.373 172.843 159.052C172.823 156.993 172.803 154.932 172.784 152.872C172.851 152.271 172.916 151.845 172.984 151.134C172.842 149.595 172.903 146.027 172.861 144.626C172.665 138.066 172.423 140.095 172.831 134.107C172.87 138.423 173.069 138.416 173.041 142.696C173.183 141.773 173.154 139.598 173.323 141.005C173.282 136.864 173.13 138.203 172.996 136.591C172.88 135.201 172.873 132.402 172.722 132.56C172.805 132.274 172.885 132.052 172.968 131.767C172.967 129.085 172.967 126.402 172.966 123.72C173.053 124.863 173.14 126.006 173.226 127.15C173.258 126.285 173.291 125.42 173.324 124.556C173.055 117.959 173.548 106.582 172.872 108.4C172.85 105.219 172.935 104.821 173.063 103.091C173.012 102.901 172.969 102.715 172.912 102.525C172.965 100.473 172.773 98.8974 172.823 97.0872C172.873 95.277 173.055 94.8276 172.749 94.5637C172.836 93.3911 172.909 92.2252 172.991 91.0598C172.921 90.3567 172.853 89.6541 172.784 88.9583C172.82 87.8589 172.856 86.7569 172.893 85.6575C172.747 85.0699 172.81 80.7468 172.712 78.8411C172.869 77.032 173.365 77.0817 173.276 72.8255C173.153 72.9354 173.03 73.0437 172.907 73.1536C172.933 72.1789 172.959 71.2021 172.984 70.22C173.024 70.1614 173.065 70.1106 173.105 70.0521C173.092 70.5504 173.08 71.042 173.067 71.5403C173.135 71.1079 173.203 70.6842 173.27 70.2591C173.17 68.7713 173.069 67.2816 172.969 65.7864C172.893 67.8018 172.816 69.818 172.74 71.8333C172.65 69.3043 172.74 67.5441 172.639 65.345C172.809 63.4322 172.907 64.1385 173.091 64.9154C173.075 64.2046 173.06 63.4855 173.044 62.7747C173.229 63.2436 173.338 62.0414 173.323 66.1966C173.376 65.9109 173.426 65.6195 173.481 65.3411C173.472 64.6595 173.517 64.2175 173.496 63.47C173.441 61.4322 173.117 59.8698 173.004 60.0091C172.945 60.0842 173.058 62.0936 172.974 62.013C172.769 61.8142 172.861 57.2049 172.656 63.8529C172.525 61.6465 172.624 61.1536 172.661 58.72C172.593 58.9105 172.525 59.0955 172.457 59.2786C172.488 58.1502 172.52 57.0203 172.551 55.8919C172.902 57.4605 173.033 49.1406 173.34 56.6302C173.356 54.4169 173.372 52.2112 173.388 50.0052C173.424 50.4596 173.46 50.9141 173.496 51.3685C173.477 52.3653 173.458 53.3561 173.44 54.3529C173.505 53.1804 173.571 52.0058 173.637 50.8333C173.555 48.0626 173.43 46.9765 173.275 45.7084C173.162 48.9329 173.316 47.8794 173.347 50.3919C173.249 50.3042 173.159 50.4202 173.056 50.2005C173.259 48.9022 173.111 44.667 173.101 43.6849C173.071 40.6959 173.27 43.0398 173.275 41.0404C173.279 39.0392 173.16 36.679 173.358 35.0443C173.247 35.0736 173.132 35.2044 173.031 35.3217C172.995 32.2063 173.126 32.8278 173.143 32.5052C173.422 27.3594 173.186 24.5673 173.158 18.6811C173.123 19.4286 173.092 20.1839 173.06 20.9389C172.824 16.4982 172.897 19.4897 172.819 23.3451C172.842 19.7312 172.642 17.6617 172.582 15.1107C172.523 12.5602 172.626 8.18594 172.706 6.58732C172.835 10.2452 172.75 14.1904 172.786 18.2514C172.899 17.7897 172.994 17.341 173.118 16.8646C172.881 14.3947 173.04 12.9634 173.071 12.1498C173.163 9.76069 172.96 9.83576 173.179 8.39201C173.104 8.45063 173.04 8.49356 172.97 8.55216C172.984 6.37201 173.018 4.11607 173.027 2L173.027 1.97301L173 1.97311C170.328 1.96131 167.879 1.98844 166.087 2.14365C165.794 1.96276 165.573 1.78849 165.236 1.60388C163.147 1.74004 161.358 1.60061 159.599 1.63244C157.847 1.66432 158.514 1.8105 156.455 1.86681C156.073 1.87715 155.28 1.78566 154.341 1.85313C153.394 1.92097 149.9 2.42533 149.482 1.98472C147.715 1.98265 146.044 1.96654 144.314 1.95909C146 1.93425 147.686 1.91019 149.365 1.88536C147.928 1.77857 146.501 1.6721 145.064 1.56531C144.881 1.66052 144.697 1.75745 144.521 1.85143C140.651 1.96733 137.842 1.81166 133.935 1.8485C133.283 1.8547 134.822 2.04295 131.927 1.99497C129.032 1.94696 126.883 1.5956 121.951 1.73131C121.701 1.73835 120.241 2.00744 118.474 1.82115C118.072 1.77893 119.764 1.71646 118.841 1.661C117.918 1.60553 113.797 1.55992 113.474 1.42786C113.518 1.47463 113.775 1.52308 113.9 1.57068C113.196 1.59302 112.486 1.61539 111.775 1.63732C111.709 1.55496 111.638 1.47247 111.572 1.39051C107.526 1.58217 105.435 1.89482 99.439 1.79137C101.125 1.911 102.811 2.0311 104.49 2.15073C104.952 2.06669 105.414 1.98209 105.869 1.89805C108.632 1.93158 111.402 1.96486 114.166 1.99839C114.62 1.90276 115.067 1.80741 115.521 1.71178C116.254 1.7242 116.98 1.73623 117.712 1.74865C117.529 1.81778 117.344 1.88654 117.154 1.95567C118.605 1.9387 120.058 1.92137 121.501 1.9044C118.562 2.31245 113.293 1.86969 113.673 2.21103C113.021 2.15807 112.368 2.10474 111.716 2.05137C111.43 2.21687 110.104 2.16924 107.767 2.14316C108.302 2.22471 108.893 2.30515 109.384 2.38753C107.112 2.27246 103.081 2.28364 100.728 2.23935C99.6947 2.21989 100.727 2.09989 100.419 2.08579C98.8434 2.0121 95.8311 2.22148 95.2007 2.20492C91.4332 2.10638 88.9848 1.70943 84.8726 1.97105C89.1169 2.03563 86.8079 2.00835 88.3179 2.15366C88.7906 2.19921 94.2738 2.29425 87.4078 2.25204C86.6028 2.24676 74.1446 1.97249 78.2398 1.76232C76.224 1.82938 74.6457 1.90692 72.7984 1.97813C68.2829 1.42424 69.8457 1.94458 71.1578 2.23104C70.4175 2.23229 69.7131 2.23519 68.9508 2.23519C70.5708 1.93424 62.3174 1.91555 59.5172 2.06748C58.579 2.11798 61.2025 2.21432 59.0328 2.25985C57.9997 2.23875 56.8277 2.21142 55.736 2.18783C57.3192 2.37825 54.212 2.45163 54.2555 2.64533C52.2692 2.47272 50.7498 2.10686 51.8414 1.90855C50.1998 1.98885 48.5495 2.06904 46.9079 2.14975C47.6702 2.1957 48.4424 2.24125 49.2047 2.28719C43.8389 2.16549 36.9396 2.44243 35.818 2.0355C35.107 2.0384 34.3884 2.0409 33.6774 2.0438C33.4575 2.11252 33.245 2.18137 33.0251 2.25009C29.8078 2.19049 26.5978 2.13049 23.3805 2.0709C26.2452 2.02825 26.9272 1.93044 29.9313 2.00986C28.7736 1.93083 27.5944 1.85136 26.4587 1.77233C21.9359 1.9851 21.319 2.12495 14.5095 2.06162C14.2016 2.05872 9.0565 1.88029 8.88058 1.8629C8.07458 1.78342 9.29806 1.66796 8.93917 1.6278C7.94224 1.5152 1.8844 1.23248 2.00168 1.18984C3.48243 0.666579 23.8642 0.659644 29.3766 0.632735C77.7162 0.396854 125.156 0.627206 173 0.665515L174.329 0.660323L174.334 2C174.327 10.746 174.327 19.5055 174.337 28.2865C174.338 28.8706 174.415 28.6157 174.418 28.8646C174.438 30.411 174.317 31.9297 174.312 32.5013C174.302 33.7229 174.413 33.0503 174.413 33.9427C174.412 43.1643 174.347 51.8662 174.366 61.095C174.367 61.6961 174.278 61.0824 174.294 62.138C174.302 62.6829 174.439 64.3886 174.441 65.6185C174.448 69.9139 174.404 73.522 174.406 78.052C174.408 80.5297 174.396 84.2467 174.398 87.0169C174.399 88.2404 174.461 89.5151 174.463 90.7239C174.466 92.4392 174.34 92.0889 174.332 92.3528C174.298 93.5109 174.436 93.6713 174.433 94.7708C174.427 96.8159 174.334 96.926 174.342 99.5208C174.347 101.375 174.421 105.62 174.442 107.958C174.335 113.427 174.377 120.317 174.413 125.419C174.434 128.439 174.304 128.719 174.305 129.95C174.307 134.289 174.473 137.582 174.478 141.657C174.485 147.066 174.376 151.859 174.368 157.099C174.367 157.949 174.486 157.753 174.489 158.587C174.5 161.673 174.521 165.619 174.504 168.368C174.486 171.432 174.313 172.562 174.348 175.56C174.359 176.439 174.51 176.696 174.53 178.169C174.56 180.522 174.427 183.102 174.412 184.743C174.392 186.994 174.546 185.037 174.525 188.071C174.525 188.196 174.414 188.65 174.42 189.302C174.434 191.2 174.521 191.012 174.513 193.79C174.512 194.057 174.407 197.74 174.406 198.107C174.405 200.262 174.368 204.6 174.39 205.876C174.47 210.436 174.636 206.846 174.275 210.724C174.364 212.431 174.453 214.125 174.539 215.935C174.459 214.727 174.343 219.629 174.351 219.974C174.411 222.824 174.551 221.126 174.528 224.739C174.204 219.967 174.486 229.401 174.494 231.505C174.535 241.635 174.454 250.843 174.456 261.024C174.457 264.433 174.525 269 174.524 272.606C174.523 273.447 174.447 272.812 174.445 273.552C174.444 274.29 174.53 273.471 174.525 274.313C174.496 279.554 174.333 283.661 174.536 288.462C174.507 288.696 174.484 288.688 174.451 289.075C174.633 293.004 174.389 300.571 174.355 303.415C174.303 307.863 174.426 309 174.401 312.231C174.368 316.505 174.128 322.921 174.524 320.056C174.537 322.987 174.54 325.809 174.503 328.77C174.499 329.1 174.398 328.873 174.396 329.005C174.382 329.84 174.472 330.112 174.476 330.677C174.487 332.207 174.379 329.71 174.409 331.891C174.426 333.042 174.504 333.696 174.506 336.891C174.507 338.911 174.507 340.948 174.508 343L174.513 344.502L173 344.508C155.473 344.509 136.861 344.485 119.183 344.473C117.827 344.472 118.719 344.57 117.019 344.564C111.111 344.542 100.535 344.378 95.4407 344.4C90.3464 344.423 91.4958 344.565 88.3079 344.625C87.6922 344.636 88.197 344.555 87.6399 344.554C83.8942 344.547 79.4285 344.42 76.3938 344.401C74.387 344.388 74.5477 344.516 73.1556 344.525C71.0811 344.538 68.946 344.409 67.8392 344.405C62.6356 344.387 59.0581 344.491 54.1986 344.438C54.3887 344.466 54.5142 344.492 54.6751 344.52C48.9214 344.515 43.175 344.51 37.4213 344.506C37.6925 344.532 37.9547 344.557 38.2259 344.584C31.4751 344.569 32.2455 344.291 32.8392 344.879C32.3482 344.899 31.8278 344.923 31.3588 344.942C31.5493 344.64 27.4656 344.418 22.2689 344.341C21.8878 344.336 19.3302 344.631 19.6088 344.282C18.9417 344.367 18.5443 344.426 17.9799 344.501C16.8806 344.396 15.7666 344.291 14.6674 344.186C14.0738 344.202 13.4719 344.217 12.8783 344.233C12.7904 344.301 12.858 344.372 12.6674 344.439C9.91153 344.449 4.25918 344.365 2.08147 344.374C2.05428 344.374 2.02718 344.374 2 344.374L0.631433 344.379L0.626046 343C0.602604 337.616 0.420776 332.143 0.619308 327.956C0.598965 325.907 0.464902 327.942 0.481864 324.894C0.549739 324.55 0.614793 324.226 0.684735 323.867C0.381472 321.375 0.565955 320.855 0.629318 317.441C0.672366 315.132 0.598247 313.62 0.612717 311.421C0.616443 310.864 0.705454 310.943 0.702556 310.562C0.693377 309.285 0.570864 305.643 0.567553 304.742C0.535271 296.576 0.549012 289.562 0.581713 281.785C0.585024 280.949 0.49718 282.032 0.500906 281.168C0.506755 279.776 0.641738 280.595 0.64836 279.789C0.666072 277.54 0.523736 277.523 0.516286 274.386C0.491878 264.058 0.598802 252.184 0.608323 241.394C0.608323 241.057 0.524926 241.077 0.524098 240.711C0.520021 238.321 0.632752 235.903 0.631515 233.734C0.629859 230.135 0.512699 227.43 0.513112 223.875C0.513526 216.926 0.573516 210.717 0.57683 203.57C0.579728 197.72 0.568604 192.64 0.569018 186.226C0.570674 158.21 0.30596 129.621 0.44671 101.414C0.450432 100.696 0.524115 100.988 0.520925 100.769C0.48905 98.6876 0.389632 98.5019 0.597825 97.7616C0.556794 95.1096 0.400381 94.2727 0.411555 91.0702C0.417414 89.3633 0.659842 90.6376 0.53484 87.7499C0.421837 85.1424 0.288976 88.0198 0.424738 80.2655C0.42847 80.0602 0.576239 79.0498 0.537769 77.4374C0.499684 75.8174 0.393873 77.6926 0.361997 73.7928C0.287491 64.6377 0.415223 53.0494 0.375912 42.4062C0.373428 41.7391 0.294428 35.3149 0.257998 34.0468C0.187213 31.5928 0.0774014 32.1054 0.0504889 28.9179C0.0297904 26.4548 0.154181 24.4228 0.129342 21.5273C0.126324 21.19 -0.00162656 20.6252 0.0153344 18.4492ZM172.499 298.942C172.374 298.341 171.912 297.256 172.052 293.622C172.066 293.278 172.383 295.137 172.434 293.13C172.468 295.094 172.478 297.007 172.5 298.942C172.5 298.942 172.5 298.942 172.499 298.942ZM2.96172 2.6953C2.93854 5.41486 2.91557 8.1437 2.89239 10.8633C2.8365 8.98671 2.78073 7.10752 2.72443 5.23829C2.80348 4.38815 2.88267 3.54544 2.96172 2.6953ZM2.74225 341.234C2.74225 341.231 2.74225 341.229 2.74225 341.226C2.75458 341.817 2.76691 342.409 2.77925 343L2 342.221C4.26798 342.173 6.53654 342.126 8.80411 342.079C8.50353 342.123 8.20234 342.167 7.90176 342.211C5.93328 342.271 3.96385 342.331 2 342.391L2.60862 343C2.59978 342.712 2.59094 342.424 2.5821 342.136C2.63549 341.836 2.68886 341.534 2.74225 341.234ZM2.27767 318.648C2.32983 316.823 2.4178 317.269 2.50349 316.265C2.50333 316.265 2.50317 316.265 2.503 316.265C2.52531 316 2.54483 314.766 2.54817 314.289C2.49311 314.464 2.43876 314.692 2.38411 314.882C2.25081 310.623 2.7245 302.295 2.91534 313.078C2.84581 312.916 2.77663 312.762 2.7071 312.601C2.72655 317.959 2.57573 323.933 2.27767 318.648ZM172.299 255.856C172.072 251.282 172.024 249.816 172.18 244.267C172.244 245.05 172.309 245.834 172.373 246.618C172.307 247.534 172.242 248.444 172.176 249.36C172.176 249.363 172.176 249.366 172.176 249.368C172.245 249.551 172.315 249.735 172.384 249.911C172.356 251.89 172.327 253.877 172.299 255.856ZM2.44222 143.554C2.89695 142.28 2.63263 142.647 2.73517 146.289C2.77077 147.55 2.85033 146.321 2.86358 147.105C2.93594 151.341 2.63127 151.68 2.47273 150.734C2.46197 148.337 2.45215 145.915 2.44222 143.562C2.44222 143.56 2.44222 143.557 2.44222 143.554ZM2.34774 33.6601C2.34774 33.6575 2.34774 33.6549 2.34774 33.6523C2.45865 33.5424 2.48849 35.2498 2.59358 33.3242C2.59316 34.7892 2.59228 36.2541 2.59187 37.7265C2.58153 37.2946 2.57168 36.8536 2.56135 36.4218C2.52327 36.803 2.4847 37.1852 2.44661 37.5663C2.5741 38.0867 2.49999 38.5703 2.45735 40.1093C2.59354 39.6842 2.72983 39.261 2.86602 38.8359C2.82546 40.6241 2.78476 42.4188 2.7442 44.207C2.70988 44.2289 2.6755 44.2514 2.64118 44.2734C2.68504 44.9474 2.72939 45.6149 2.77325 46.289C2.73228 46.4722 2.69168 46.6487 2.6507 46.832C2.68174 47.6453 2.71275 48.4601 2.7442 49.2733C2.64495 49.5209 2.60205 47.7283 2.62727 50.9062C2.52544 49.9314 2.42393 48.9586 2.3221 47.9765C2.33038 43.2046 2.33904 38.432 2.34774 33.6601ZM2.5821 176.683C2.56306 171.428 2.63499 172.908 2.86016 174.125C2.76746 174.975 2.6748 175.833 2.5821 176.683ZM106.456 342.618C107.981 342.465 109.512 342.313 111.073 342.164C114.182 342.079 117.291 342.359 114.952 342.468C112.138 342.6 109.198 342.453 106.456 342.618ZM172.55 338.755C172.479 342.557 172.296 338.98 172.19 338.122C172.361 337.07 172.346 335.603 172.366 333.247C172.377 335.459 172.562 338.126 172.55 338.755C172.55 338.755 172.55 338.755 172.55 338.755ZM45.2611 342.446C43.7373 342.45 42.2214 342.493 40.8587 342.441C41.2698 342.294 43.9956 342.428 42.0462 342.21C43.0209 342.206 43.9968 342.203 44.9642 342.199C44.3494 342.289 45.1764 342.356 45.2572 342.445C45.2585 342.445 45.2598 342.446 45.2611 342.446ZM2.75519 227.605C2.58132 230.596 2.65572 231.163 2.77618 234.175C2.63462 234.6 2.3975 231.008 2.3453 228.757C2.4819 228.376 2.61859 227.994 2.75519 227.605ZM92.9859 2.68268C93.7041 2.50224 99.002 2.47871 101.634 2.53206C101.321 2.55882 101.006 2.58594 100.693 2.61311C98.1273 2.63629 95.5515 2.6595 92.9859 2.68268ZM172.378 332.126C172.373 332.52 172.369 332.894 172.366 333.247C172.364 332.855 172.367 332.476 172.378 332.126ZM173.161 172.892C173.331 174.145 173.388 170.42 173.322 174.942C173.322 174.942 173.322 174.942 173.322 174.942C173.278 177.933 173.267 178.593 173.253 181.364C173.035 180.367 172.957 174.746 172.912 182.493C172.911 182.595 173.041 182.392 173.024 183.63C173.018 184.012 172.911 185.235 172.88 187.095C172.87 187.696 172.837 192.213 172.835 186.056C172.683 186.239 172.529 185.908 172.381 185.923C172.338 183.52 172.636 181.672 172.629 179.13C172.617 175.355 172.316 173.434 172.712 172.708C172.809 175.882 172.811 181.333 172.573 182.044C172.57 185.115 172.765 185.997 172.862 183.521C172.739 172.914 173.151 180.609 172.996 171.321C172.94 171.212 172.881 170.829 172.829 170.888C173.023 168.053 173.1 172.445 173.161 172.892ZM172.74 195.071C172.624 193.239 172.507 191.412 172.39 189.587C172.579 189.587 172.75 190.593 172.856 193.482C172.817 194.009 172.779 194.544 172.74 195.071ZM172.69 40.9154C172.587 40.6515 172.493 39.948 172.395 39.4349C172.482 38.8778 172.565 25.683 172.65 32.3959C172.663 33.3708 172.48 39.3174 172.69 40.9154ZM2.59992 206.84C2.53079 208.394 2.46155 209.941 2.39241 211.488C2.34856 209.107 2.30356 206.724 2.25888 204.343C2.37253 205.178 2.48627 206.005 2.59992 206.84ZM131.753 342.799C131.097 342.795 133.277 342.654 130.691 342.676C132.618 342.585 134.424 342.509 136.308 342.423C136.872 342.49 137.443 342.557 138.007 342.624C138.447 342.581 138.895 342.538 139.335 342.495C139.071 342.593 138.836 342.688 138.558 342.788C135.384 342.578 134.656 342.816 131.753 342.799ZM37.3744 343.181C36.8036 342.969 41.3997 342.843 36.8783 342.809C37.7359 342.669 39.1149 342.596 41.7611 342.584C42.1858 342.637 42.6098 342.69 43.0345 342.743C43.0932 342.601 43.774 342.547 45.2611 342.446C45.2624 342.446 45.2637 342.446 45.265 342.446C49.2879 342.436 49.0475 342.483 50.015 342.718C45.7561 342.586 45.6287 342.8 42.7259 342.928C40.7323 343.015 38.1292 342.976 37.3744 343.181ZM172.693 54.974C172.514 51.9624 172.346 54.665 172.537 49.3216C172.582 49.6662 172.627 50.0123 172.673 50.3568C172.68 51.8958 172.687 53.4349 172.693 54.974ZM22.5111 342.454C22.8556 342.782 25.6911 343.038 26.1752 342.503C23.4117 342.394 24.7614 342.697 22.5111 342.454ZM173.065 340.052C173.061 341.429 173.033 342.382 172.99 343L173 342.99C171.563 342.892 171.939 342.715 173 342.579L172.579 343C172.548 342.757 172.518 342.478 172.493 342.177C172.56 341.839 172.628 341.503 172.695 341.173C172.664 340.242 172.634 339.311 172.603 338.38C172.757 338.937 172.911 339.495 173.065 340.052ZM2.18539 269.828C2.42011 273.889 2.31593 265.444 2.46248 268.281C2.57962 270.546 2.34311 273.531 2.19491 272.402C2.19077 271.618 2.18788 270.744 2.18539 269.835C2.18539 269.833 2.18539 269.83 2.18539 269.828ZM2.25253 293.328C2.50331 292.661 2.43021 293.622 2.38509 290.414C2.37226 289.497 2.46644 282.216 2.25863 285.273C2.25863 287.875 2.25501 290.623 2.25253 293.328ZM172.698 278.626C172.807 278.577 173.047 284.184 172.987 284.903C172.987 284.903 172.987 284.903 172.987 284.903C172.824 286.846 172.8 280.932 172.576 283.497C172.774 277.816 172.296 276.117 172.925 276.513C172.953 279.859 172.823 278.275 172.698 278.626ZM23.4235 2.16855C23.4209 2.16855 23.4183 2.16855 23.4157 2.16855C23.7922 2.17368 26.8945 2.33397 26.5173 2.38948C22.7866 2.34188 23.4514 2.23638 19.9782 2.40975C19.7878 2.35391 19.6247 2.29975 19.4196 2.2435C20.7977 2.21038 21.5616 2.1433 23.4235 2.16855ZM172.911 26.6498C172.939 28.0206 172.821 30.522 172.828 32.0834C172.373 27.1135 172.797 21.1745 172.911 26.6498ZM2.36336 85.0584C2.36353 85.0623 2.36369 85.0663 2.36385 85.0702C2.3636 85.0691 2.36337 85.0674 2.36312 85.0663C2.3632 85.0636 2.36328 85.061 2.36336 85.0584ZM172.638 132.872C172.667 132.695 172.693 132.596 172.715 132.56C172.718 132.56 172.72 132.56 172.722 132.56C172.694 132.655 172.666 132.757 172.638 132.872ZM172.665 266.974C172.817 264.638 173.059 272.419 173.001 274.935C172.932 274.759 172.869 274.731 172.789 274.321C172.969 272.291 172.639 267.362 172.665 266.974ZM71.6438 342.721C77.794 342.725 69.7902 343.326 69.4603 342.846C69.4726 342.837 71.485 342.721 71.6438 342.721ZM172.728 315.474C172.91 317.04 172.958 313.892 172.927 318.927C172.88 319.22 172.832 319.513 172.785 319.806C172.766 318.362 172.747 316.917 172.728 315.474ZM111.933 343.51C119.673 343.409 127.076 343.23 122.034 342.728C121.449 342.744 120.855 342.759 120.269 342.776C120.181 343.021 118.019 342.887 114.855 342.879C114.404 342.976 112.649 342.999 112.32 343.081C111.683 343.241 113.699 343.353 111.933 343.51ZM1.88853 126.14C1.93034 126.265 1.97237 126.387 2.01377 126.512C2.06096 127.736 2.10793 128.963 2.15512 130.187C2.07488 129.99 1.99465 129.791 1.91441 129.594C1.90572 128.443 1.89698 127.298 1.88829 126.148C1.88837 126.146 1.88845 126.143 1.88853 126.14ZM173.257 202.614C172.797 201.911 172.882 204.368 173.114 209.353C173.162 207.11 173.209 204.857 173.257 202.614ZM1.67638 328.55C1.80713 328.389 1.93747 328.23 2.06821 328.062C1.93201 325.416 1.78229 325.907 1.60925 327.175C1.63158 327.637 1.65405 328.089 1.67638 328.55ZM1.62072 290.433C1.59345 291.531 1.69901 290.971 1.69689 291.085C1.64142 293.864 1.593 294.255 1.67248 297.664C1.70021 298.081 1.72937 298.492 1.75792 298.91C2.03188 297.334 1.88257 296.19 2.04355 292.855C1.94958 293.456 1.85548 294.055 1.7611 294.656C1.78096 292.802 1.80056 290.955 1.82042 289.101C1.79144 288.881 1.76273 288.661 1.73376 288.441C1.69651 289.1 1.65465 289.781 1.62072 290.433ZM2.00742 111.984C2.01819 110.181 2.02937 108.369 2.04014 106.566C1.97267 106.5 1.90474 106.437 1.83727 106.371C1.89397 108.24 1.95072 110.115 2.00742 111.984ZM173.047 165.591C173.023 165.448 172.999 165.309 172.975 165.185C173.005 165.197 173.028 165.353 173.047 165.591ZM18.6657 1.79845C16.6209 1.75126 13.6743 1.78225 11.4314 1.77233C11.6077 1.9416 17.3084 1.89481 19.3102 1.99741C19.6319 1.96704 19.5301 1.81831 18.6657 1.79845ZM168.597 343.05C168.084 343.134 167.571 343.218 167.066 343.303C165.827 343.294 164.585 343.284 163.339 343.275C163.302 343.344 163.266 343.414 163.23 343.483C168.719 343.393 167.453 343.592 170.171 343.789C169.643 343.543 169.125 343.296 168.597 343.05ZM1.56897 54.6093C1.61575 58.5749 1.70312 59.9815 1.9105 57.746C1.86291 56.3464 1.81528 54.9386 1.76769 53.539C1.70147 53.898 1.63519 54.2575 1.56897 54.6093ZM173.204 93.3684C173.126 90.0499 173.404 89.9948 173.249 86.7513C173.198 88.4881 173.146 90.2248 173.094 91.9544C173.131 92.4217 173.167 92.901 173.204 93.3684ZM173.968 256.126C174.065 254.726 173.604 252.109 173.944 248.173C173.843 247.235 173.746 246.647 173.647 245.841C173.755 245.372 173.864 244.839 173.971 244.392C173.971 244.389 173.971 244.386 173.971 244.384C173.935 240.814 173.799 243.129 173.685 243.048C173.637 243.01 173.717 240.361 173.613 241.188C173.436 242.618 173.538 247.959 173.321 247.974C173.392 246.097 173.333 242.433 173.188 243.517C173.03 244.704 173.296 248.157 173.164 250.356C173.51 247.205 173.403 253.714 173.137 254.454C173.341 258.273 173.425 254.763 173.415 250.849C173.619 253.238 173.509 249.721 173.678 249.142C173.78 251.606 173.695 260.062 173.968 256.126ZM79.6946 343.593C82.3342 343.58 86.4578 343.696 88.2649 343.524C89.3175 343.424 85.1841 343.346 88.0344 343.189C85.4627 343.204 84.8759 343.266 85.3157 343.404C84.7296 343.42 84.1361 343.436 83.5501 343.453C83.279 343.426 83.0008 343.399 82.7298 343.372C82.4219 343.429 82.1124 343.485 81.8118 343.542C81.1892 343.531 80.5594 343.52 79.9368 343.508C79.8636 343.536 79.7388 343.561 79.6946 343.593ZM169.083 1.80504C169.816 1.80339 170.542 1.80174 171.275 1.79967C171.194 1.7661 171.098 1.73115 171.005 1.69665C170.939 1.66939 170.873 1.64213 170.806 1.61486C171.012 1.66199 171.935 1.72421 173 1.7641L173.235 1.76319L173.236 2C173.193 3.13621 173.176 4.43367 173.23 5.19279C173.282 5.93225 173.467 4.2496 173.5 7.3842C173.492 5.52657 173.474 3.78082 173.458 2L173.457 1.53972L173 1.5415C172.603 1.54485 172.204 1.54804 171.802 1.5509C172 1.49584 172.19 1.4402 172.388 1.38514C172.387 1.38506 172.385 1.38498 172.384 1.3849C171.651 1.37248 170.91 1.35947 170.177 1.34706C169.811 1.49981 169.45 1.65229 169.083 1.80504ZM1.41785 330.699C1.5259 333.198 1.58201 334.035 1.7567 332.855C1.75678 332.852 1.75687 332.85 1.75695 332.847C1.67955 331.916 1.60218 330.985 1.52478 330.054C1.48918 330.267 1.45345 330.479 1.41785 330.699ZM173.624 144.06C172.96 138.745 173.367 150.713 173.593 148.435C173.603 148.332 173.551 144.558 173.624 144.06ZM173.269 339.075C173.274 340.381 173.278 341.689 173.283 343L173.284 343.282L173 343.283C172.846 343.283 172.692 343.284 172.538 343.284C172.691 343.321 172.845 343.358 173 343.395L173.397 343.393L173.395 343C173.44 342.813 173.484 342.627 173.529 342.442C173.442 341.321 173.355 340.197 173.269 339.075ZM1.26771 71.8749C1.08556 73.4103 1.01957 77.3512 1.21767 79.2772C1.24085 78.2656 1.26406 77.2537 1.28724 76.2421C1.31 78.1545 1.33506 80.0454 1.35658 81.9725C1.61034 82.0752 1.46312 79.8542 1.53308 76.5116C1.54436 75.9941 1.85936 72.6854 1.62194 71.5428C1.57315 71.313 1.53997 74.8328 1.39808 72.3866C1.38691 73.4562 1.38939 74.3794 1.38319 75.3905C1.32275 75.4638 1.26224 75.5364 1.2018 75.6171C1.22368 74.3668 1.24583 73.1251 1.26771 71.8749ZM95.0618 343.573C98.6874 343.587 99.1351 343.485 99.8899 343.306C98.2039 343.327 96.5173 343.347 94.8313 343.367C94.9118 343.435 94.9814 343.504 95.0618 343.573ZM1.20961 104.281C1.1803 106.266 1.32616 105.416 1.35389 106.215C1.45819 109.234 1.35395 111.294 1.41932 114.277C1.39117 114.079 1.36486 113.897 1.33753 113.707C1.33753 113.709 1.33753 113.712 1.33753 113.715C1.2146 127.839 1.5454 120.42 1.49158 111.969C1.54581 111.771 1.60011 111.581 1.65393 111.383C1.55913 107.6 1.46792 104.113 1.20961 104.281ZM173.647 191.275C173.681 191.113 173.896 192.484 173.795 189.911C173.48 187.874 173.637 191.215 173.516 192.052C173.485 191.355 173.456 190.643 173.426 189.954C173.337 194.118 173.412 194.726 173.642 193.208C173.657 193.1 173.613 191.436 173.647 191.275ZM173.802 163.911C173.338 163.339 173.546 168.594 173.691 168.403C173.696 167.678 173.618 167.114 173.652 166.345C173.687 165.568 173.796 165.369 173.802 163.911ZM173.688 314.454C173.69 314.3 173.885 312.754 173.733 312.907C173.371 314.82 173.604 318.675 173.73 318.001C173.724 316.726 173.669 315.876 173.689 314.454C173.689 314.454 173.689 314.454 173.688 314.454ZM1.15834 47.9609C1.1454 48.0341 1.067 51.8926 1.13979 52.3905C1.22174 52.8008 1.30957 53.0047 1.39442 53.3124C1.31576 51.1866 1.37568 46.8838 1.15834 47.9687C1.15834 47.9661 1.15834 47.9635 1.15834 47.9609Z" fill="white"/>
<path d="M62.6415 157.045H67.1525V157.89H62.6415V157.045ZM61.7055 159.333H68.1275V160.178H61.7055V159.333ZM64.4225 157.487H65.3455V164C65.3455 164.243 65.3151 164.429 65.2545 164.559C65.1938 164.698 65.0811 164.806 64.9165 164.884C64.7605 164.953 64.5525 164.997 64.2925 165.014C64.0325 165.031 63.7031 165.04 63.3045 165.04C63.2785 164.919 63.2351 164.776 63.1745 164.611C63.1138 164.446 63.0531 164.308 62.9925 164.195C63.2785 164.204 63.5341 164.208 63.7595 164.208C63.9848 164.208 64.1365 164.204 64.2145 164.195C64.3531 164.195 64.4225 164.126 64.4225 163.987V157.487ZM64.8255 154.068C64.6175 154.475 64.3531 154.904 64.0325 155.355C63.7205 155.806 63.3695 156.243 62.9795 156.668C62.5895 157.084 62.1821 157.457 61.7575 157.786C61.7055 157.665 61.6275 157.526 61.5235 157.37C61.4281 157.205 61.3328 157.067 61.2375 156.954C61.6708 156.651 62.0868 156.282 62.4855 155.849C62.8841 155.416 63.2438 154.961 63.5645 154.484C63.8851 153.999 64.1408 153.535 64.3315 153.093H65.2545C65.5145 153.57 65.8221 154.046 66.1775 154.523C66.5328 154.991 66.9098 155.429 67.3085 155.836C67.7158 156.235 68.1188 156.573 68.5175 156.85C68.4221 156.971 68.3225 157.114 68.2185 157.279C68.1231 157.444 68.0365 157.595 67.9585 157.734C67.5685 157.422 67.1741 157.062 66.7755 156.655C66.3855 156.239 66.0215 155.806 65.6835 155.355C65.3455 154.904 65.0595 154.475 64.8255 154.068ZM66.2165 161.049L67.0095 160.763C67.1915 161.075 67.3691 161.409 67.5425 161.764C67.7245 162.119 67.8848 162.466 68.0235 162.804C68.1708 163.133 68.2791 163.428 68.3485 163.688L67.4905 164.013C67.4298 163.762 67.3301 163.463 67.1915 163.116C67.0615 162.769 66.9098 162.418 66.7365 162.063C66.5718 161.699 66.3985 161.361 66.2165 161.049ZM62.5895 160.867L63.4345 161.049C63.2871 161.604 63.0878 162.145 62.8365 162.674C62.5938 163.194 62.3295 163.64 62.0435 164.013C61.9915 163.961 61.9221 163.909 61.8355 163.857C61.7488 163.796 61.6578 163.74 61.5625 163.688C61.4671 163.627 61.3805 163.58 61.3025 163.545C61.5971 163.198 61.8528 162.787 62.0695 162.31C62.2861 161.833 62.4595 161.352 62.5895 160.867ZM57.1555 156.889H58.0005V165.027H57.1555V156.889ZM57.6625 158.436H60.7565V159.112H57.6625V158.436ZM58.0135 155.433H60.5485V156.135H58.0135V155.433ZM57.6755 161.556H61.2375V162.336H57.6755V161.556ZM57.6755 163.22H61.4325V164H57.6755V163.22ZM57.6755 156.889H61.1725V160.685H57.6755V159.996H60.3535V157.578H57.6755V156.889ZM58.5855 153.08H59.0925V153.288H59.3785V153.548C59.1271 154.016 58.7805 154.553 58.3385 155.16C57.9051 155.758 57.3678 156.321 56.7265 156.85C56.6571 156.755 56.5575 156.646 56.4275 156.525C56.3061 156.404 56.1935 156.317 56.0895 156.265C56.6875 155.797 57.1988 155.273 57.6235 154.692C58.0481 154.111 58.3688 153.574 58.5855 153.08ZM58.8845 153.08H59.5605C59.8205 153.305 60.0848 153.557 60.3535 153.834C60.6308 154.111 60.8865 154.389 61.1205 154.666C61.3631 154.935 61.5581 155.182 61.7055 155.407L61.0945 156.07C60.9558 155.853 60.7695 155.606 60.5355 155.329C60.3101 155.043 60.0675 154.757 59.8075 154.471C59.5561 154.176 59.3005 153.921 59.0405 153.704H58.8845V153.08ZM72.9878 154.504C73.5845 154.504 74.1156 154.62 74.5811 154.853C75.0465 155.082 75.4105 155.403 75.6729 155.818C75.9395 156.228 76.0728 156.696 76.0728 157.221C76.0728 157.745 75.9395 158.215 75.6729 158.63C75.4105 159.04 75.0465 159.362 74.5811 159.595C74.1156 159.823 73.5845 159.938 72.9878 159.938C72.3953 159.938 71.8621 159.823 71.3882 159.595C70.9142 159.362 70.5439 159.04 70.2773 158.63C70.015 158.215 69.8838 157.745 69.8838 157.221C69.8838 156.696 70.015 156.228 70.2773 155.818C70.5439 155.403 70.9142 155.082 71.3882 154.853C71.8621 154.62 72.3953 154.504 72.9878 154.504ZM72.9878 155.558C72.6196 155.558 72.2896 155.625 71.9976 155.761C71.7098 155.896 71.4834 156.091 71.3184 156.345C71.1533 156.599 71.0708 156.891 71.0708 157.221C71.0708 157.551 71.1533 157.841 71.3184 158.09C71.4834 158.34 71.7098 158.535 71.9976 158.674C72.2896 158.814 72.6196 158.884 72.9878 158.884C73.356 158.884 73.6839 158.814 73.9717 158.674C74.2637 158.535 74.4901 158.34 74.6509 158.09C74.8159 157.841 74.8984 157.551 74.8984 157.221C74.8984 156.891 74.8159 156.599 74.6509 156.345C74.4901 156.091 74.2637 155.896 73.9717 155.761C73.6839 155.625 73.356 155.558 72.9878 155.558ZM78.6816 165.104H77.4819V153.698H78.6816V165.104ZM69.3315 161.651C70.271 161.647 71.1216 161.637 71.8833 161.62C72.6493 161.603 73.4618 161.569 74.3208 161.518C75.1841 161.463 75.9987 161.381 76.7646 161.271L76.8535 162.153C76.0622 162.297 75.2391 162.407 74.3843 162.483C73.5337 162.555 72.7339 162.601 71.9849 162.623C71.2358 162.644 70.4043 162.654 69.4902 162.654L69.3315 161.651ZM92.145 155.843H84.7944V154.859H92.145V155.843ZM94.0557 163.46H83.6836V162.47H94.0557V163.46ZM92.6973 156.072C92.6973 156.74 92.6909 157.318 92.6782 157.805C92.6655 158.287 92.6296 158.848 92.5703 159.487C92.5111 160.126 92.4137 160.824 92.2783 161.582L91.0532 161.467C91.1971 160.756 91.3008 160.088 91.3643 159.461C91.432 158.835 91.4722 158.277 91.4849 157.786C91.4976 157.295 91.5039 156.723 91.5039 156.072V154.859H92.6973V156.072ZM104.352 160.458H103.152V153.71H104.352V160.458ZM96.4678 158.96C97.6146 158.964 98.5921 158.943 99.4004 158.896C100.209 158.85 101.036 158.757 101.882 158.617L102.022 159.607C101.146 159.743 100.291 159.836 99.4575 159.887C98.6281 159.933 97.6315 159.957 96.4678 159.957H95.522V158.96H96.4678ZM100.721 157.583H96.6963V159.576H95.522V156.649H99.5273V155.348H95.4966V154.39H100.721V157.583ZM104.352 164.933H96.8804V161.029H104.352V164.933ZM98.0674 163.956H103.171V162H98.0674V163.956ZM109.88 157.056C109.88 157.86 109.741 158.655 109.461 159.442C109.186 160.225 108.803 160.921 108.312 161.531C107.822 162.14 107.271 162.597 106.662 162.902L105.938 161.956C106.506 161.681 107.015 161.281 107.468 160.756C107.921 160.227 108.277 159.639 108.535 158.992C108.797 158.34 108.928 157.695 108.928 157.056V155.367H109.88V157.056ZM110.122 157.056C110.122 157.657 110.242 158.262 110.483 158.871C110.729 159.476 111.072 160.028 111.512 160.528C111.956 161.027 112.46 161.408 113.022 161.67L112.343 162.616C111.725 162.324 111.175 161.888 110.693 161.309C110.21 160.725 109.834 160.062 109.563 159.322C109.296 158.577 109.163 157.822 109.163 157.056V155.367H110.122V157.056ZM112.591 155.843H106.364V154.853H112.591V155.843ZM115.016 165.073H113.816V153.698H115.016V165.073ZM116.85 159.233H114.743V158.217H116.85V159.233ZM44.1938 171.903H40.9712V170.577H44.1938V171.903ZM44.9482 176.751H43.3223V167.076H44.9482V176.751ZM45.2852 180.055H36.2617V178.722H45.2852V180.055ZM37.895 179.469H36.2617V175.895H37.895V179.469ZM38.4004 169.698C38.4004 170.528 38.2563 171.31 37.9683 172.042C37.6802 172.774 37.2554 173.417 36.6938 173.968C36.1372 174.515 35.4634 174.928 34.6724 175.206L33.8301 173.888C34.5137 173.663 35.0996 173.333 35.5879 172.899C36.0762 172.464 36.4448 171.974 36.6938 171.427C36.9429 170.875 37.0674 170.299 37.0674 169.698V168.768H38.4004V169.698ZM38.7227 169.713C38.7227 170.255 38.8423 170.782 39.0815 171.295C39.3208 171.808 39.6748 172.269 40.1436 172.679C40.6123 173.089 41.1763 173.404 41.8354 173.624L41.0225 174.92C40.251 174.657 39.5942 174.264 39.0522 173.741C38.5103 173.214 38.0977 172.604 37.8145 171.91C37.5361 171.217 37.397 170.484 37.397 169.713V168.768H38.7227V169.713ZM41.4692 169.347H34.3062V168.028H41.4692V169.347ZM51.5254 170.24C51.5254 171.344 51.374 172.386 51.0713 173.368C50.7734 174.344 50.3364 175.204 49.7603 175.946C49.1841 176.688 48.4907 177.252 47.6802 177.638L46.6841 176.275C47.4019 175.958 48.0244 175.492 48.5518 174.876C49.0791 174.256 49.4819 173.546 49.7603 172.745C50.0435 171.939 50.1851 171.104 50.1851 170.24V168.124H51.5254V170.24ZM51.8257 170.24C51.8257 171.061 51.9624 171.854 52.2358 172.621C52.5093 173.387 52.9048 174.071 53.4224 174.671C53.9448 175.272 54.5552 175.724 55.2534 176.026L54.2866 177.33C53.5054 176.964 52.8267 176.424 52.2505 175.711C51.6743 174.994 51.2349 174.166 50.9321 173.229C50.6294 172.291 50.478 171.295 50.478 170.24V168.124H51.8257V170.24ZM57.8389 180.326H56.1909V167.062H57.8389V180.326ZM61.1421 180.597H59.5161L62.9292 167.896H64.5698L61.1421 180.597ZM76.1934 180.326H74.5454V167.062H76.1934V180.326ZM67.4995 171.456H70.7148V168.146H72.3188V177.198H65.8809V168.146H67.4995V171.456ZM70.7148 175.865V172.73H67.4995V175.865H70.7148ZM84.6602 168.937C84.6602 169.708 84.4355 170.416 83.9863 171.061C83.542 171.705 82.9219 172.245 82.126 172.679C81.3301 173.109 80.417 173.402 79.3867 173.558L78.7715 172.284C79.6504 172.167 80.4292 171.939 81.1079 171.603C81.7866 171.266 82.3115 170.865 82.6826 170.401C83.0537 169.933 83.2393 169.444 83.2393 168.937V168.482H84.6602V168.937ZM85.1143 168.937C85.1143 169.444 85.2974 169.933 85.6636 170.401C86.0347 170.865 86.5596 171.266 87.2383 171.603C87.9219 171.939 88.7031 172.167 89.582 172.284L88.9961 173.558C87.9561 173.402 87.0356 173.109 86.2349 172.679C85.4341 172.25 84.8091 171.712 84.3599 171.068C83.9155 170.418 83.6934 169.708 83.6934 168.937V168.482H85.1143V168.937ZM84.9458 180.296H83.3418V175.36H84.9458V180.296ZM90.2046 175.755H78.1489V174.444H90.2046V175.755ZM89.0986 169.09H79.2402V167.809H89.0986V169.09ZM102.187 173.719H100.568V167.062H102.187V173.719ZM101.213 171.134H97.6899V169.808H101.213V171.134ZM94.7822 167.472C95.4414 167.472 96.0322 167.601 96.5547 167.86C97.082 168.114 97.4971 168.47 97.7998 168.929C98.1025 169.383 98.2539 169.898 98.2539 170.475C98.2539 171.065 98.1025 171.593 97.7998 172.057C97.4971 172.516 97.082 172.875 96.5547 173.133C96.0322 173.392 95.4414 173.521 94.7822 173.521C94.1182 173.521 93.52 173.392 92.9878 173.133C92.4604 172.875 92.0454 172.516 91.7427 172.057C91.4399 171.593 91.2886 171.065 91.2886 170.475C91.2886 169.898 91.4399 169.383 91.7427 168.929C92.0454 168.47 92.4604 168.114 92.9878 167.86C93.52 167.601 94.1182 167.472 94.7822 167.472ZM94.7822 168.797C94.4062 168.788 94.0693 168.854 93.7715 168.995C93.4785 169.137 93.249 169.337 93.083 169.596C92.917 169.85 92.834 170.143 92.834 170.475C92.834 170.821 92.917 171.126 93.083 171.39C93.249 171.649 93.4785 171.849 93.7715 171.991C94.0693 172.132 94.4062 172.203 94.7822 172.203C95.1533 172.203 95.4829 172.132 95.771 171.991C96.0591 171.844 96.2837 171.642 96.4448 171.383C96.6108 171.124 96.6938 170.821 96.6938 170.475C96.6938 170.143 96.6108 169.85 96.4448 169.596C96.2837 169.337 96.0591 169.137 95.771 168.995C95.4829 168.854 95.1533 168.788 94.7822 168.797ZM102.187 177.792H95.1118V179.535H93.4785V176.583H100.568V175.616H93.4565V174.349H102.187V177.792ZM102.619 180.135H93.4785V178.854H102.619V180.135ZM107.988 177.806L113.43 169.999H107.958V168.395H115.795V169.588L110.361 177.396H115.825V179H107.988V177.806ZM120.952 179.154C120.19 179.154 119.519 178.983 118.938 178.641C118.361 178.299 117.917 177.818 117.604 177.198C117.292 176.578 117.136 175.863 117.136 175.052C117.136 174.232 117.292 173.514 117.604 172.899C117.917 172.279 118.361 171.798 118.938 171.456C119.519 171.114 120.19 170.943 120.952 170.943C121.718 170.943 122.39 171.114 122.966 171.456C123.542 171.798 123.984 172.279 124.292 172.899C124.599 173.514 124.753 174.232 124.753 175.052C124.753 175.863 124.599 176.578 124.292 177.198C123.984 177.818 123.542 178.299 122.966 178.641C122.39 178.983 121.718 179.154 120.952 179.154ZM120.966 177.667C121.376 177.667 121.723 177.552 122.006 177.323C122.294 177.088 122.509 176.773 122.651 176.378C122.792 175.982 122.863 175.538 122.863 175.045C122.863 174.547 122.792 174.1 122.651 173.705C122.509 173.309 122.294 172.997 122.006 172.767C121.723 172.533 121.376 172.416 120.966 172.416C120.546 172.416 120.19 172.533 119.897 172.767C119.604 172.997 119.384 173.309 119.238 173.705C119.091 174.1 119.018 174.547 119.018 175.045C119.018 175.543 119.091 175.99 119.238 176.385C119.384 176.776 119.604 177.088 119.897 177.323C120.19 177.552 120.546 177.667 120.966 177.667ZM128.078 179H126.218V171.046H127.998V172.394H128.085C128.281 171.935 128.579 171.578 128.979 171.324C129.379 171.07 129.873 170.943 130.458 170.943C131.01 170.943 131.489 171.061 131.894 171.295C132.304 171.524 132.619 171.864 132.839 172.313C133.063 172.762 133.176 173.302 133.176 173.932V179H131.315V174.217C131.315 173.861 131.254 173.558 131.132 173.309C131.01 173.055 130.834 172.86 130.605 172.723C130.375 172.586 130.095 172.518 129.763 172.518C129.431 172.518 129.138 172.589 128.884 172.73C128.63 172.872 128.432 173.08 128.291 173.353C128.149 173.626 128.078 173.954 128.078 174.334V179ZM138.493 179.154C137.707 179.154 137.023 178.988 136.442 178.656C135.861 178.324 135.412 177.85 135.095 177.235C134.782 176.62 134.626 175.899 134.626 175.074C134.626 174.259 134.782 173.539 135.095 172.914C135.412 172.284 135.854 171.798 136.42 171.456C136.987 171.114 137.646 170.943 138.398 170.943C139.077 170.943 139.689 171.087 140.236 171.375C140.783 171.664 141.218 172.11 141.54 172.716C141.862 173.316 142.023 174.061 142.023 174.95V175.536H135.512V174.269H140.236C140.236 173.907 140.161 173.585 140.009 173.302C139.858 173.019 139.643 172.796 139.365 172.635C139.091 172.474 138.776 172.394 138.42 172.394C138.039 172.394 137.702 172.484 137.409 172.665C137.116 172.845 136.887 173.089 136.721 173.397C136.56 173.7 136.477 174.032 136.472 174.393V175.477C136.472 175.941 136.555 176.341 136.721 176.678C136.892 177.01 137.131 177.264 137.438 177.44C137.746 177.616 138.105 177.704 138.515 177.704C138.779 177.704 139.016 177.667 139.226 177.594C139.44 177.521 139.624 177.425 139.775 177.308C139.926 177.186 140.041 177.042 140.119 176.876H141.95C141.838 177.33 141.625 177.73 141.313 178.077C141.005 178.419 140.61 178.685 140.126 178.875C139.643 179.061 139.099 179.154 138.493 179.154Z" fill="white"/>
</svg>
