<svg width="238" height="188" viewBox="0 0 238 188" fill="none" xmlns="http://www.w3.org/2000/svg">
<path d="M50.9797 6.76253C51.0318 9.56439 50.9761 13.2372 50.8996 16.0284C50.8759 16.9032 50.7698 16.4603 50.7487 17.0641C50.7075 18.2452 50.7595 19.3455 50.7104 20.5126C50.6936 20.8994 50.5257 20.4179 50.5119 20.8235C50.4377 23.0461 50.4804 25.1486 50.4447 27.4001C50.2686 38.49 50.2056 49.3911 50.1291 60.6166C50.1198 61.9927 50.0928 63.4791 50.0661 65L49 63.9339C51.5701 63.979 54.2388 64.0236 56.6406 63.9818C57.0869 63.9738 56.8208 63.8264 56.9057 63.8143C58.2375 63.6283 57.7947 63.9259 58.6643 63.9654C62.1156 64.1215 65.9534 64.1351 69.2749 64.0782C70.6879 64.0536 69.2712 63.7608 70.6939 63.9251C70.7928 63.9362 70.4342 64.0927 70.8217 64.1094C71.7006 64.147 73.3679 64.119 74.049 64.1314C75.3616 64.1561 75.5788 64.1545 76.8204 64.1563C78.5176 64.1601 80.5364 64.2379 82.3574 64.2025C82.7461 64.1944 82.2315 64.034 82.8514 64.0067C83.4719 63.9794 85.1133 63.993 85.6667 64.0308C86.2202 64.0687 85.9845 64.1948 86.0825 64.2237C86.8883 64.4677 88.787 64.1298 89.0312 64.1214C93.4855 63.979 97.3052 64.1715 101.486 64.171C104.66 64.1701 108.054 64.1066 111.075 64.1153C114.673 64.1263 117.722 64.2133 121.218 64.1983C121.587 64.1969 121.154 64.0083 121.605 64.0062C126.392 63.9842 131.146 64.0048 135.912 64.1321C136.39 64.1451 135.774 64.3107 136.252 64.3336C139.175 64.4697 143.802 64.7967 145.538 64.0755C147.519 64.1037 149.924 64.1328 151.695 64.2781C152.838 64.3717 151.728 64.5522 153.132 64.4752C153.448 64.458 153.037 64.3 153.511 64.2862C155.51 64.2283 157.693 64.2797 159.67 64.1981C160.072 64.1811 159.962 64.0395 160.076 64.014C161.034 63.8075 162.628 64.1488 162.975 64.1737C165.622 64.3586 167.554 64.2858 170.019 64.2904C170.591 64.2915 169.915 64.1013 170.466 64.0955C173.321 64.0683 176.278 64.0846 179.074 64.169C179.695 64.1882 179.124 64.3503 179.421 64.3677C180.731 64.4428 181.021 64.1368 182.278 64.2029C182.543 64.2165 182.394 64.3552 182.442 64.3704C183.198 64.6096 183.855 64.2707 184.05 64.2633C186.51 64.161 188.083 64.5148 190.46 64.4647C190.745 64.4583 190.104 64.2828 190.903 64.2757C196.229 64.2273 201.861 64.2755 207.133 64.4158C207.952 64.4374 207.367 64.5693 207.419 64.5855C208.259 64.8395 208.803 64.4992 209.07 64.4864C211.179 64.3942 213.148 64.6795 214.581 64.2742C221.745 64.3871 228.884 64.2629 236 64.3969L235.397 65C235.43 63.2476 235.479 61.4965 235.55 59.7468C235.555 59.6342 235.722 59.8359 235.73 59.6113C235.824 56.9066 235.563 57.426 235.245 55.6364C235.165 55.1856 235.55 53.8142 235.578 53.6928C235.682 53.2507 235.931 53.7093 235.951 53.5612C236.109 52.3362 235.285 52.5358 235.284 50.8833C235.286 50.8316 235.437 51.0487 235.452 50.91C235.5 50.4791 235.44 50.0518 235.492 49.6302C235.613 48.6651 236.013 48.3214 235.78 46.8473C235.75 46.6608 235.282 46.9457 235.304 45.4702C235.313 44.882 235.305 42.2784 235.336 41.5487C235.366 40.8199 235.517 41.3203 235.523 41.2683C235.723 39.3046 235.805 40.0492 236.1 39.0653C236.394 38.0816 235.693 38.3544 235.615 37.9534C235.537 37.5516 235.701 36.1118 235.758 35.758C235.816 35.4044 235.911 35.8454 235.944 35.531C236.155 33.446 235.596 34.6158 235.484 33.9288C235.221 32.3091 235.741 31.0476 235.792 29.5648C235.806 29.1636 235.687 29.491 235.676 29.1338C235.634 27.7188 235.796 26.8678 235.647 25.258C235.623 24.9947 235.31 23.6933 235.54 22.8509C235.573 22.7316 235.702 23.0706 235.732 22.4676C235.775 21.5668 235.803 19.9436 235.76 18.9752C235.728 18.2603 235.515 19.0797 235.581 18.1798C235.61 17.7799 235.735 18.5211 235.781 17.7697C235.826 17.0224 235.82 15.1114 235.816 14.3842C235.812 13.6584 235.65 14.0557 235.639 13.997C235.576 13.642 235.498 12.249 235.498 12.1259C235.487 8.64588 235.568 5.31771 235.625 2L236 2.37452C233.398 2.32957 230.803 2.29909 228.145 2.3388C227.671 2.34565 227.987 2.51641 227.914 2.51922C226.29 2.59076 227.571 2.13676 226.436 1.98479C226.6 2.33131 225.931 2.26857 224.786 2.30657C224.235 2.32516 224.535 2.45934 224.485 2.47307C223.667 2.67687 223.098 2.41364 222.952 2.35979C222.41 2.16171 221.821 2.39576 221.452 2.26336C221.084 2.13195 221.932 1.93713 220.834 1.93963C220.527 2.06367 221.341 2.38782 220.508 2.44036C217.365 2.63908 211.498 2.38475 208.971 2.35833C206.448 2.33193 205.634 2.35482 204.164 2.30999C201.509 2.22893 202.482 2.46943 200.834 2.57952C199.181 2.68959 199.984 2.09784 199.747 1.97063C199.513 1.84348 199.259 1.97437 198.969 1.90447C198.679 1.83459 199.305 1.7481 198.625 1.72186C197.945 1.69564 196.084 1.92185 195.842 2.05486C195.332 2.33666 196.171 2.63241 194.37 2.52849C194.266 2.52233 194.602 2.36673 194.206 2.351C191.056 2.23122 187.783 2.22379 184.637 2.11785C184.204 2.10304 184.591 1.92994 184.339 1.91936C181.717 1.80865 182.654 2.10051 181.217 2.42473C181.539 1.99326 180.745 1.72929 178.754 1.72674C177.558 1.72506 177.764 1.9135 176.99 2.04632C176.758 2.08635 175.911 1.95696 175.758 2.04558C175.252 2.33528 176.049 2.65958 173.997 2.53045C173.907 2.52431 174.194 2.36573 173.883 2.35613C171.872 2.29327 171.632 2.59629 169.458 2.63298C167.754 2.66178 164.724 2.477 162.784 2.44695C162.825 1.96185 160.993 2.07293 160.249 2.4074C158.99 2.39371 157.63 2.41261 156.414 2.36638C155.995 2.35062 156.27 2.21017 156.217 2.195C155.407 1.95694 154.86 2.28234 154.588 2.2951C151.643 2.4191 149.243 2.17248 146.432 2.4135C146.333 2.42218 146.171 2.75915 145.42 2.51311C145.371 2.49615 146.299 2.34284 144.977 2.33098C143.655 2.3191 141.162 2.13846 139.326 2.29461C138.881 2.3322 137.758 2.60574 136.856 2.39202C136.735 2.363 136.867 2.26635 136.693 2.21258C136.133 2.04122 135.827 2.38181 135.168 2.09246C134.508 1.80313 133.138 1.58644 131.286 1.78606C131.227 1.79187 130.789 2.06182 130.207 2.05755C129.277 2.0505 127.957 1.99427 126.987 1.99602C126.522 1.99696 126.82 2.16459 126.739 2.16765C123.614 2.26159 121.391 2.11215 118.043 2.04729C117.43 2.03507 115.666 2.26365 114.479 2.08294C113.174 1.88511 114.515 1.06217 111.516 1.25823C110.307 1.33665 108.776 2.38069 106.603 1.83977C102.388 1.97381 98.4908 1.69697 94.2644 1.88836C94.0744 1.89684 93.4733 2.18822 93.0265 2.18426C92.3632 2.1778 91.9991 2.04162 91.5254 2.03265C89.5407 1.99162 87.7246 2.10814 85.811 2.09002C85.0845 2.08343 85.3386 1.94262 84.472 1.93474C83.6061 1.92701 83.0287 2.11244 81.8552 2.02288C80.9689 1.95462 80.0828 1.5756 78.9064 1.53143C78.8615 1.90528 78.0536 1.89758 76.6176 1.99627C76.3415 2.01542 76.6375 2.14554 76.5069 2.16131C75.9755 2.22837 75.4838 2.12053 74.9792 2.19353C74.8564 2.21107 74.8506 2.33874 74.7503 2.36028C73.897 2.5483 72.4912 2.26112 72.2497 2.21111C71.3243 2.02121 70.892 2.18726 70.1822 2.11248C69.4735 2.03771 70.5331 1.94423 69.7053 1.89886C67.9895 1.805 65.785 1.82562 64.0424 1.81976C63.3471 1.8182 63.8215 1.98863 63.7219 1.99236C62.2842 2.03559 60.8303 1.8543 60.0331 2.19378C59.0363 1.31602 59.1662 2.27891 57.1111 2.1032C56.9492 2.08899 56.7433 1.67391 57.3648 1.61297C57.9862 1.55209 58.9286 1.68184 59.7909 1.58685C59.9951 1.56455 61.1648 1.17559 61.3244 1.15203C62.5746 0.967893 62.7517 1.58818 62.8179 1.62225C63.5679 1.98991 64.9973 1.57088 65.3737 1.54192C67.0957 1.40925 68.5588 1.49649 69.9991 1.40179C70.9411 1.34058 71.0332 0.934273 71.7729 0.946711C74.2318 0.987818 75.0901 1.55462 77.4072 1.06317C77.904 0.958348 77.4103 0.514263 79.1906 0.863459C79.3024 0.885473 80.6242 1.20492 81.3879 1.00286C81.4838 0.977386 81.4807 0.847965 81.6072 0.837092C82.4549 0.766766 83.0203 0.869872 83.9437 0.820491C84.8671 0.771109 85.9774 0.697493 87.0317 0.741389C87.6671 0.767638 88.4823 1.00877 88.7865 1.0678C89.6453 1.23787 90.5661 0.959035 91.0982 1.16497C91.6347 1.37195 90.5858 1.68627 91.9927 1.82C92.0448 1.48375 92.1645 1.13863 92.2483 0.800471C95.3316 0.81231 98.3654 0.921039 101.459 0.906184C101.842 0.904006 101.45 0.723238 101.861 0.716243C103.596 0.687525 105.111 0.816389 106.91 0.765071C108.303 0.724657 109.83 0.533262 111.286 0.485043C112.175 0.869805 114.336 0.739187 115.905 0.774348C116.455 0.786498 116.418 0.88926 116.809 0.922785C118.284 1.04678 117.593 0.706764 117.998 0.653255C119.733 0.424888 119.881 1.19449 121.927 1.17547C122.035 1.17472 123.36 0.764494 123.542 0.738948C124.702 0.572366 123.734 0.881733 124.46 0.912043C125.784 0.967434 126.705 1.0654 128.259 0.945246C128.712 0.909656 129.799 0.653965 130.68 0.851741C130.795 0.877638 130.731 1.01323 130.825 1.02117C132.511 1.15354 132.556 0.727482 133.52 0.583187C134.484 0.438923 135.973 0.733037 136.276 0.817805C137.069 1.03709 135.668 0.911521 135.625 0.933039C135.121 1.18913 136.207 1.14504 137.037 1.16668C137.157 1.58444 138.317 1.55936 137.897 1.18743C137.849 1.14681 137.203 1.18577 137.037 1.16668C137.765 0.756806 139.04 0.704313 140.449 1.08734C141.108 1.26685 140.485 1.47616 142.488 1.39959C143.397 1.36503 143.046 1.07738 143.848 0.998957C145.681 0.820028 148.062 1.08835 149.951 1.04608C150.637 1.03073 149.969 0.873272 150.438 0.857356C151.682 0.814626 152.778 0.932768 154.027 0.872248C154.141 0.866565 153.864 0.701742 154.253 0.699641C157.197 0.6805 159.761 0.78607 162.836 0.788997C164.321 0.790336 166.977 0.699431 168.516 0.717708C171.183 0.748411 174.464 0.98809 176.742 0.929865C178.228 0.892595 177.902 0.727737 178.539 0.615413C179.768 0.397683 181.942 0.787688 182.235 0.848079C182.244 0.850077 180.966 0.888941 181.648 0.973566C182.045 1.1499 182.221 0.848843 182.235 0.848079C182.428 0.887091 184.982 0.924515 185.489 0.893C185.765 0.875778 185.611 0.719585 185.754 0.713557C189.17 0.57378 192.592 0.534081 196.056 0.607112C196.117 0.610268 196.025 0.78498 196.169 0.790217C198.174 0.867898 199.458 0.654172 201.112 0.527279C202.766 0.400442 204.078 0.442924 205.057 0.742854C206.305 0.705091 208.095 0.837689 209.125 0.918147C210.155 0.998603 210.299 0.658513 210.39 0.65179C213.217 0.436599 214.851 0.63126 217.785 0.661556C219.179 0.676542 221.945 0.627212 223.455 0.590023C224.648 0.560063 225.367 0.639764 226.467 0.588802C226.616 0.581996 226.465 0.43057 226.511 0.42474C227.738 0.243568 227.148 0.613752 227.401 0.679866C228.32 0.920291 228.887 1.04834 230.459 0.935236C230.821 0.909335 231.877 0.376322 232.538 0.34515C233.397 0.3056 233.073 0.496654 233.972 0.450375C234.049 0.446589 234.033 0.328723 234.588 0.33392C235.052 0.337982 235.523 0.343535 236 0.34984L237.663 0.363146L237.65 2C237.621 4.17214 237.577 6.45662 237.587 8.6526C237.588 9.01839 237.775 8.54942 237.78 9.07794C237.802 11.5579 237.795 14.2761 237.707 16.6921C237.685 17.2868 237.554 16.914 237.515 17.043C237.28 17.8356 237.622 18.9595 237.628 19.1449C237.793 23.5685 237.483 26.954 237.631 31.4626C237.639 31.7081 238.006 33.5972 237.691 34.44C237.671 34.4977 237.349 35.3316 237.569 36.0689C237.583 36.1147 237.748 35.5951 237.731 36.5019C237.714 37.4086 237.825 38.868 237.643 40.1144C237.586 40.509 237.265 41.4417 237.521 42.6187C237.539 42.6954 238.117 44.5126 237.718 45.1612C237.652 45.2664 237.23 45.1563 237.447 46.5612C237.489 46.8296 237.583 46.3424 237.641 47.0495C237.732 48.133 237.619 49.5686 237.807 50.9005C237.84 51.1327 238.127 52.1215 237.909 52.9146C237.875 53.0388 237.734 52.8028 237.719 53.2217C237.643 55.2135 237.737 57.2991 237.64 59.3214C237.605 60.0377 237.378 59.6715 237.317 60.4181C237.256 61.165 237.197 62.6695 237.301 63.4508C237.405 64.2324 237.768 63.3786 237.797 64.5495C237.801 64.6997 237.804 64.8499 237.807 65L237.793 66.8218L236 66.8075C231.063 66.9109 226.168 66.7095 221.236 66.6793C220.482 66.6746 221.107 66.8045 219.996 66.8069C215.9 66.8166 208.829 66.9384 205.275 66.6624C202.427 66.4414 206.011 66.2731 203.835 66.1832C202.785 66.1403 201.649 66.5622 201.395 66.5755C198.919 66.7104 197.198 66.5235 194.969 66.5809C194.509 66.5928 194.961 66.7638 194.569 66.772C193.231 66.8017 191.825 66.7254 190.546 66.7393C189.973 66.746 190.078 66.8766 189.551 66.8665C188.288 66.8439 187.171 66.789 185.94 66.6666C185.828 66.6554 186.584 66.4929 185.65 66.4869C184.138 66.4776 182.261 66.3568 180.521 66.4815C180.005 66.519 179.985 66.8176 178.875 66.6114C178.642 66.5683 178.939 66.2099 177.647 66.5196C177.429 66.5711 175.258 66.9888 174.193 66.7195C173.911 66.6487 173.194 66.3553 172.573 66.4014C172.489 66.4088 172.826 66.5691 172.312 66.5848C170.499 66.6371 168.599 66.62 166.737 66.6702C166.239 66.684 166.98 66.8499 166.239 66.8651C164.201 66.907 161.656 66.8647 159.662 66.8128C158.928 66.7933 159.435 66.6559 159.382 66.6409C158.522 66.3976 158.014 66.726 157.728 66.7452C155.953 66.8598 154.602 66.7056 152.966 66.7464C152.514 66.7572 152.834 66.9138 152.744 66.9278C151.812 67.0642 152.507 66.783 151.917 66.752C150.264 66.6642 148.421 66.6768 146.75 66.6968C146.136 66.7044 146.826 66.886 146.275 66.8907C143.013 66.922 139.623 66.9046 136.44 66.8045C135.841 66.7853 136.218 66.6455 136.093 66.6136C135.232 66.3902 133.971 66.6949 133.68 66.7239C132.36 66.8565 131.848 66.7328 130.682 66.7559C124.988 66.8708 117.957 66.7889 112.581 66.7383C105.577 66.6732 100.142 66.5402 93.462 66.5748C93.0375 66.5768 93.4656 66.7628 93.0996 66.7669C88.3748 66.8117 83.7233 66.7391 78.989 66.7928C78.6005 66.7969 79.1605 66.9732 78.537 66.9857C77.258 67.0125 75.6378 67.0029 74.3446 66.9466C73.7139 66.9195 74.5599 66.7682 73.925 66.744C72.4467 66.6872 70.862 66.6747 69.3435 66.7029C68.6973 66.7154 69.6723 66.8957 68.8324 66.8978C63.1109 66.9157 57.4918 66.9467 51.7101 66.7132C51.3137 66.6972 50.9659 66.3307 50.1232 66.4009C50.0597 66.5027 50.0631 66.6223 50.0354 66.731C49.6901 66.7334 49.345 66.7356 49 66.7374L47.2488 66.7234L47.2626 65C47.2208 57.0227 47.3383 49.1162 47.3571 41.1101C47.3579 40.758 47.1637 41.3666 47.1642 40.6848C47.1671 36.7388 47.1133 32.907 47.3063 28.8706C47.3252 28.4702 47.6668 28.6756 47.6152 27.4954C47.6057 27.2873 47.5602 25.5098 47.486 25.0502C47.4748 24.9878 47.3154 25.3121 47.3107 24.7393C47.2865 21.4108 47.3229 17.9226 47.4203 14.5998C47.4364 14.0636 47.6062 14.6347 47.6191 14.2527C47.7092 11.5433 47.5801 8.5962 47.7343 6.00722C47.8381 4.27424 48.1317 4.91584 48.4206 3.99496C48.4614 3.86471 48.4678 2.7916 48.6359 2.73611C49.0586 2.59364 49.5215 3.11342 49.9721 2.90014C50.0691 2.85508 49.9646 1.41791 50.1991 2.2688C50.2148 2.32825 50.2927 3.3702 50.3722 3.62684C50.4272 3.80552 50.5982 3.48353 50.6686 3.84809C50.739 4.21262 50.5957 4.61319 50.6784 5.21757C50.7621 5.82168 50.9566 5.55605 50.9797 6.76253ZM213.764 1.27776C214.718 1.44109 214.859 0.842899 213.827 0.986018C213.777 0.993645 213.715 1.26975 213.764 1.27776ZM98.348 1.37225C99.5951 1.63609 100.449 1.24814 99.5687 1.04437C98.6891 0.840818 97.9681 1.29227 98.348 1.37225ZM85.4162 1.56487C86.8737 1.7729 87.1031 0.924645 85.5421 1.09612C85.4513 1.10581 85.331 1.55279 85.4162 1.56487ZM48.5029 8.26552C48.5108 8.25235 48.5185 7.48096 48.5107 7.46253C48.3207 7.05177 48.3053 8.59424 48.5029 8.26552ZM72.5835 1.77459C73.0385 1.88933 74.3486 1.75687 73.7832 1.61419C73.3281 1.4994 72.0168 1.63185 72.5835 1.77459ZM236.084 29.5248C236.075 29.5398 236.067 30.0928 236.117 30.0817C236.28 30.0442 236.234 29.2745 236.084 29.5248ZM50.7729 1.78435C53.9954 1.81628 55.9491 2.51698 52.44 2.43792C51.8045 2.42361 53.8095 2.21447 53.0007 2.1513C51.5208 2.03621 50.538 2.47616 49.0277 2.24041C48.7543 2.19726 50.5891 1.78098 50.7787 1.78338C50.7768 1.7837 50.7748 1.78403 50.7729 1.78435ZM214.313 1.99627C214.332 2.00418 215.098 2.01168 215.116 2.00384C215.531 1.81393 213.988 1.79871 214.313 1.99627ZM235.714 61.7953C235.697 61.8375 235.681 63.6142 235.697 63.6721C236.007 64.5989 236.04 61.007 235.714 61.7953ZM162.754 2.43401C161.918 2.62506 160.919 2.64755 160.253 2.40764C161.083 2.42038 161.919 2.42226 162.754 2.43401Z" fill="white"/>
<path d="M63.4029 184.443C63.9242 182.7 64.7254 180.453 65.3667 178.757C65.5675 178.225 65.5779 178.531 65.721 178.166C66.0007 177.45 66.1755 176.756 66.46 176.052C66.5547 175.819 66.6161 176.168 66.7118 175.923C67.235 174.576 67.6228 173.266 68.1154 171.89C70.542 165.109 72.8228 158.409 75.1825 151.514C75.9605 149.24 77.0219 146.514 77.7375 144.137C77.8209 143.859 77.6267 143.977 77.6325 143.921C77.7272 143.042 77.9196 143.408 78.1343 142.884C78.9856 140.806 79.7804 138.444 80.4031 136.379C80.6676 135.5 80.101 136.282 80.5469 135.456C80.5776 135.399 80.6531 135.669 80.7479 135.435C80.9626 134.906 81.2758 133.869 81.4263 133.453C81.7172 132.652 81.7599 132.517 82.0146 131.753C82.364 130.708 82.8492 129.488 83.1865 128.354C83.2581 128.112 83.0009 128.379 83.1012 127.988C83.2018 127.597 83.5491 126.589 83.6978 126.26C83.8465 125.931 83.9182 126.116 83.9656 126.064C84.3614 125.644 84.4274 124.368 84.4692 124.215C85.2415 121.424 86.2025 119.13 87.0538 116.553C87.6997 114.596 88.3309 112.484 88.9545 110.625C89.698 108.411 90.4019 106.558 91.0998 104.399C91.1737 104.171 90.9065 104.378 90.9963 104.1C91.9507 101.142 92.9388 98.2183 94.0308 95.3203C94.1404 95.0297 94.1722 95.4614 94.2912 95.1742C95.0161 93.4146 96.2692 90.6654 95.9382 89.3687C96.3685 88.1566 96.886 86.6836 97.385 85.637C97.7066 84.9622 97.6519 85.7028 97.8647 84.8136C97.9129 84.6131 97.679 84.8172 97.7626 84.5203C98.1149 83.2703 98.6085 81.9405 98.9337 80.6963C98.9995 80.4431 98.8427 80.4663 98.8417 80.3881C98.8407 79.733 99.4896 78.8575 99.584 78.6511C99.8895 77.9787 100.124 77.3719 100.331 76.779L101.029 77.7037C100.187 77.7232 99.3859 77.7787 98.4702 77.8135C98.0991 77.8276 98.5455 77.9997 98.1887 78.02C96.3379 78.1229 94.4188 78.1849 92.602 78.1746C92.1979 78.1718 92.5622 77.9948 92.3687 77.9852C91.5158 77.9449 91.3399 78.2583 90.5221 78.2255C90.3497 78.219 90.4408 78.0765 90.4088 78.0625C89.9085 77.8437 89.4961 78.1996 89.3702 78.2122C87.7782 78.3795 86.7436 78.0678 85.2036 78.1808C85.0194 78.1946 85.4426 78.353 84.9243 78.3813C81.4717 78.5708 77.8161 78.6718 74.3909 78.6711C73.8584 78.6713 74.2325 78.524 74.1984 78.5092C73.6428 78.2777 73.3039 78.6321 73.131 78.652C71.7672 78.8 70.478 78.567 69.5653 79.0099C63.7676 79.1059 58.0115 79.5687 52.2525 79.4404C52.1793 79.4392 52.3033 79.2664 52.1574 79.2647C50.399 79.2424 50.7466 79.4888 49.5987 79.8545C49.3096 79.9463 48.4043 79.5984 48.3244 79.5735C48.0334 79.4814 48.3207 79.2201 48.2238 79.204C47.4227 79.0786 47.5859 79.8971 46.5139 79.9411C46.4803 79.9411 46.6149 79.7837 46.5244 79.7723C46.243 79.7364 45.9682 79.808 45.6926 79.7669C45.6082 79.7542 45.5308 79.7362 45.4578 79.7151L45.7843 79.553C45.3674 79.8143 44.9792 79.8549 44.6076 80.6229C44.5538 80.7356 45.0323 80.8905 44.4058 81.6154C44.1557 81.9041 43.0863 83.2131 42.7615 83.5593C42.4371 83.905 42.5275 83.5585 42.501 83.5804C41.5361 84.4371 41.78 84.0116 41.1459 84.3166C40.5128 84.6223 41.1663 84.9317 41.061 85.1824C40.9552 85.4332 40.2336 86.0497 40.0434 86.1905C39.8532 86.3312 39.9615 86.0494 39.8066 86.1863C38.7822 87.096 39.697 86.866 39.4991 87.2809C39.0332 88.2597 38.111 88.5607 37.4592 89.2709C37.2828 89.4631 37.5094 89.3745 37.3704 89.5604C36.8185 90.296 36.3418 90.6189 35.7915 91.5198C35.7015 91.6671 35.405 92.5177 34.8801 92.7937C34.8053 92.8324 34.8454 92.5801 34.5738 92.8637C34.1681 93.2871 33.4757 94.082 33.1091 94.5946C32.8385 94.973 33.3417 94.6985 32.9188 95.1069C32.7307 95.2884 32.9406 94.8377 32.5953 95.1853C32.2517 95.5308 31.4665 96.4914 31.1695 96.8583C30.873 97.2246 31.1621 97.1287 31.1462 97.165C31.0478 97.3825 30.5326 98.1299 30.4816 98.1914C27.9318 101.314 25.3559 104.008 22.9282 107.093C22.7375 107.335 22.9998 107.285 22.9721 107.323C22.3563 108.182 22.5351 107.252 21.9492 107.723C22.2842 107.862 21.9591 108.157 21.5158 108.755C21.3024 109.042 21.53 108.977 21.5198 109.011C21.3393 109.551 20.901 109.668 20.7989 109.707C20.4224 109.852 20.3596 110.296 20.1052 110.397C19.8517 110.498 20.0515 109.949 19.6002 110.5C19.5688 110.733 20.1553 110.532 19.8517 110.982C18.7066 112.683 16.0867 115.459 15.0223 116.708C13.96 117.955 13.6412 118.377 12.9995 119.085C11.8403 120.363 12.4277 120.029 11.8317 120.924C11.2336 121.822 11.1091 121.043 10.9128 121.081C10.7184 121.117 10.7141 121.328 10.5403 121.429C10.3669 121.529 10.5589 121.161 10.2576 121.485C9.95622 121.809 9.36199 122.885 9.36493 123.09C9.37162 123.525 9.9462 123.293 9.12204 124.129C9.07449 124.177 9.09332 123.91 8.91735 124.098C7.52361 125.6 6.16596 127.234 4.78448 128.742C4.59435 128.95 4.62062 128.646 4.50845 128.765C3.33971 130.008 3.95211 129.724 3.60848 130.65C3.40895 130.214 2.87696 130.444 2.05281 131.439C1.93732 131.579 1.86127 131.687 1.80979 131.776L1.65924 131.954L1.83508 132.116C2.12161 132.298 2.21991 132.205 2.57447 132.387C2.71329 132.458 3.03531 132.922 3.16862 132.923C3.60652 132.927 3.4386 132.34 4.34255 133.327C4.38188 133.371 4.13748 133.364 4.28119 133.506C5.20959 134.426 5.52838 134.305 6.60192 135.222C7.44342 135.94 8.78218 137.394 9.69832 138.258C9.35416 138.601 10.3128 139.314 10.8952 139.389C11.4936 139.945 12.1626 140.522 12.7189 141.085C12.9105 141.278 12.6837 141.263 12.6991 141.297C12.9307 141.826 13.4125 141.822 13.5521 141.93C15.0565 143.117 16.0496 144.342 17.5674 145.384C17.6213 145.421 17.9247 145.24 18.1228 145.75C18.1349 145.783 17.5843 145.494 18.2145 146.077C18.8448 146.66 19.9271 147.877 20.9176 148.558C21.1572 148.723 21.8825 149.008 22.1748 149.558C22.2134 149.632 22.0853 149.647 22.1331 149.762C22.2891 150.133 22.6646 150.013 22.7891 150.514C22.9136 151.015 23.4303 151.772 24.4574 152.427C24.4897 152.449 24.8818 152.438 25.16 152.694C25.6039 153.103 26.2031 153.718 26.6726 154.138C26.8975 154.339 26.8661 154.085 26.9071 154.118C28.4778 155.405 29.4511 156.482 31.0231 157.984C31.3111 158.259 32.315 158.855 32.7674 159.505C33.2646 160.219 32.0673 160.248 33.6453 161.404C34.2814 161.871 35.7185 161.76 36.4055 163.106C38.5291 164.836 40.225 166.735 42.3927 168.427C42.4901 168.504 42.975 168.548 43.188 168.745C43.5038 169.038 43.5885 169.297 43.811 169.51C44.7414 170.402 45.6959 171.104 46.6072 171.948C46.9534 172.269 46.7367 172.263 47.1496 172.645C47.5623 173.027 47.965 173.14 48.4714 173.716C48.8535 174.152 49.0276 174.818 49.5658 175.362C49.8375 175.103 50.2223 175.46 50.9813 176.01C51.1274 176.116 51.0716 175.891 51.1451 175.936C51.4464 176.116 51.6116 176.41 51.904 176.575C51.975 176.615 52.0632 176.523 52.126 176.55C52.6636 176.781 53.1499 177.605 53.233 177.747C53.5525 178.29 53.8723 178.354 54.1648 178.718C54.4568 179.082 53.8829 178.691 54.2521 179.084C55.0173 179.899 56.0951 180.841 56.9321 181.602C57.2666 181.905 57.1517 181.572 57.2022 181.613C57.925 182.205 58.5054 182.971 59.1172 183.065C59.0112 184.15 59.5925 183.378 60.4668 184.401C60.5354 184.482 60.3572 184.88 60.0165 184.655C59.6758 184.431 59.3078 183.925 58.8281 183.621C58.7147 183.549 57.89 183.33 57.7972 183.279C57.0707 182.873 57.4001 182.335 57.391 182.281C57.2749 181.682 56.3048 181.372 56.1038 181.23C55.184 180.581 54.5363 179.881 53.7778 179.326C53.2823 178.963 52.966 179.225 52.6174 178.894C51.4582 177.796 51.4231 177.002 49.9761 176.361C49.6662 176.223 49.6075 176.768 48.9819 175.735C48.9426 175.67 48.5184 174.859 48.0147 174.677C47.9514 174.655 47.8663 174.752 47.798 174.705C47.3418 174.389 47.138 174.067 46.6593 173.703C46.1806 173.339 45.5955 172.911 45.1161 172.421C44.827 172.125 44.5948 171.592 44.4875 171.416C44.1868 170.917 43.5559 170.724 43.4369 170.34C43.3164 169.953 44.0328 170.175 43.4433 169.465C43.1932 169.692 42.9046 169.897 42.638 170.112C41.1579 168.764 39.7665 167.366 38.2636 166.033C38.0771 165.869 38.1455 166.173 37.9424 166C37.086 165.268 36.441 164.514 35.5385 163.771C34.8394 163.197 33.9745 162.676 33.2395 162.079C33.0677 161.407 31.9376 160.566 31.2036 159.858C30.9464 159.611 31.0328 159.55 30.8666 159.355C30.2376 158.623 30.3438 159.176 30.1128 159.04C29.1227 158.456 29.5658 157.82 28.5659 156.945C28.5131 156.899 27.5994 156.629 27.4942 156.568C26.8233 156.189 27.4971 156.379 27.1672 156.041C26.565 155.425 26.1863 154.952 25.3558 154.367C25.1133 154.196 24.4176 153.914 24.1252 153.385C24.0866 153.316 24.2082 153.243 24.1685 153.196C23.443 152.365 23.1366 152.663 22.5749 152.352C22.0131 152.04 21.4913 151.175 21.4017 150.98C21.1658 150.473 21.7576 151.175 21.7927 151.177C22.2074 151.206 21.6538 150.767 21.2678 150.391C21.4892 150.028 20.9124 149.543 20.8665 150.002C20.8624 150.053 21.2001 150.304 21.2678 150.391C20.6421 150.379 19.9915 149.864 19.568 148.968C19.3698 148.548 19.8106 148.663 18.7928 147.85C18.331 147.481 18.3081 147.848 17.8685 147.558C16.8644 146.895 15.8945 145.661 14.9544 144.872C14.6132 144.586 14.8303 144.993 14.5935 144.801C13.9647 144.293 13.5143 143.729 12.8711 143.231C12.8126 143.187 12.8358 143.429 12.647 143.262C11.2131 141.998 10.0463 140.806 8.5645 139.468C7.8485 138.822 6.506 137.737 5.77557 137.055C4.50898 135.874 3.08588 134.271 1.94737 133.325C1.45594 132.916 1.31059 132.894 1.1574 132.869L0.259036 132.041L1.0282 131.131C1.03732 131.053 1.04689 130.972 1.10647 130.84C1.44607 130.086 2.64538 129.245 2.81295 129.137C2.81819 129.134 2.31993 129.799 2.66707 129.511C2.96698 129.425 2.80757 129.145 2.81295 129.137C2.92248 129.065 4.00658 127.81 4.19179 127.536C4.29236 127.387 4.10818 127.365 4.16289 127.289C5.46607 125.489 6.84891 123.75 8.33634 122.062C8.36396 122.033 8.46079 122.191 8.52408 122.122C9.4125 121.167 9.77812 120.388 10.3635 119.479C10.9489 118.57 11.5235 117.94 12.1593 117.641C12.6456 116.992 13.4875 116.179 13.9751 115.715C14.4628 115.25 14.2598 114.961 14.292 114.912C15.294 113.359 16.1193 112.664 17.3543 111.214C17.942 110.526 19.0466 109.109 19.6417 108.329C20.1115 107.712 20.4699 107.403 20.8848 106.82C20.941 106.741 20.7621 106.72 20.7764 106.694C21.1436 105.964 21.1855 106.495 21.3412 106.41C21.9061 106.103 22.2393 105.9 22.8012 105.041C22.931 104.843 22.9559 103.975 23.2048 103.624C23.5292 103.169 23.5427 103.453 23.8785 102.973C23.9074 102.932 23.8099 102.865 24.0432 102.59C25.1251 101.314 26.3386 99.9507 27.4357 98.602C27.5859 98.4181 27.248 98.534 27.4627 98.2663C28.47 97.0102 29.5982 95.6533 30.6638 94.499C30.9265 94.2152 30.8735 94.4852 30.9568 94.4453C31.4656 94.198 31.6663 93.4177 31.7379 93.3207C33.4386 91.0008 35.0757 89.502 36.8246 87.1503C36.9193 87.0219 37.4171 85.8427 38.0076 85.6205C38.0476 85.6049 38.64 85.3918 38.7751 84.8827C38.7834 84.851 38.4411 85.006 38.8287 84.5626C39.2163 84.1192 39.7339 83.318 40.389 82.8094C40.5962 82.6483 41.2288 82.3852 41.5179 81.633C41.5358 81.5833 41.8407 80.3055 42.4162 80.2343C42.5103 80.2234 42.7903 80.547 43.2038 79.7058C43.2823 79.5447 43.0084 79.7288 43.2552 79.3373C43.4809 78.9785 43.8147 78.6031 44.1333 78.1911L44.6352 77.5976L45.3705 77.5766C45.7202 77.5513 46.0776 77.5098 46.4221 77.42C46.5715 77.3806 47.2012 77.0683 47.7245 77.2645C47.8065 77.2952 47.6591 77.4422 47.9315 77.4469C49.2266 77.4697 50.5756 77.3203 51.8914 77.3641C52.3574 77.3793 52.1291 77.6166 52.616 77.6578C53.1029 77.699 54.0812 77.7177 54.5838 77.5931C55.0865 77.4683 54.5179 77.1283 55.2762 77.0683C58.5728 76.8074 61.8523 76.8866 65.1505 76.7831C65.6397 76.7678 65.229 76.6546 65.9495 76.6227C68.6058 76.5046 73.1878 76.1956 75.5044 76.3772C77.3605 76.5226 75.0429 76.7857 76.458 76.8179C77.1409 76.833 77.8606 76.3813 78.0244 76.3613C79.6252 76.1609 80.7491 76.3021 82.1925 76.1857C82.4905 76.1617 82.1908 76.0027 82.4445 75.9841C83.3112 75.9191 84.2264 75.9581 85.0552 75.9103C85.4269 75.8884 85.3531 75.7607 85.6958 75.7568C86.5159 75.746 87.2425 75.7713 88.0461 75.861C88.1193 75.8691 87.6352 76.0515 88.2415 76.0328C89.2227 76.0021 90.4452 76.073 91.5686 75.9024C91.9019 75.8512 91.9029 75.5524 92.631 75.729C92.7838 75.7658 92.6058 76.1319 93.4316 75.7882C93.5705 75.731 94.9619 75.256 95.664 75.4969C95.8493 75.5603 96.3266 75.8344 96.7274 75.7719C96.7817 75.7623 96.5565 75.611 96.8895 75.5817C98.0633 75.4814 99.2964 75.4482 100.502 75.3487C100.824 75.3218 100.337 75.1756 100.817 75.1408C100.853 75.1383 100.888 75.1358 100.924 75.1333L103.644 75.0543L102.774 77.5863C102.399 78.8365 101.858 80.3415 101.415 81.5215C101.247 81.9684 101.22 81.6122 101.194 81.6404C100.788 82.0941 100.997 82.5106 100.957 82.6925C100.704 83.8226 100.282 84.6073 99.9874 85.6286C99.9057 85.9103 100.12 85.7621 100.115 85.8219C100.054 86.4393 99.9286 85.923 99.779 86.277C99.3589 87.2683 98.9954 88.4081 98.6739 89.4447C98.556 89.8256 98.869 89.4571 98.7612 89.7983C98.1265 91.8184 97.4192 93.9028 96.6758 95.8332C96.5355 96.1966 96.4795 95.9203 96.4238 95.9873C96.0363 96.4478 96.0685 97.3211 96.037 97.5092C95.8939 98.3645 95.672 98.6416 95.4565 99.3675C94.4054 102.914 92.8951 107.222 91.752 110.519C90.2631 114.817 89.0294 118.125 87.7014 122.253C87.6168 122.516 87.8806 122.31 87.81 122.537C86.8899 125.464 85.8732 128.308 84.9597 131.243C84.8844 131.484 85.1659 131.194 85.0507 131.582C84.8156 132.379 84.4764 133.375 84.1595 134.154C84.0052 134.535 84.034 133.966 83.8816 134.349C83.5266 135.243 83.1918 136.216 82.9093 137.161C82.7894 137.563 83.1592 137.018 82.9901 137.537C81.8414 141.069 80.7261 144.543 79.3264 148.033C79.2304 148.273 78.8116 148.372 78.7066 148.913C78.7903 148.984 78.9046 149.02 79.0021 149.071C77.3608 154.224 75.5606 159.265 73.8403 164.408C73.7678 164.624 74.0762 164.31 73.9367 164.73C73.1301 167.162 72.4005 169.541 71.3949 171.968C71.2953 172.209 71.0128 171.975 70.8215 172.719C70.788 172.85 70.4691 173.96 70.4459 174.267C70.4438 174.309 70.6613 174.159 70.549 174.513C69.8938 176.573 69.1486 178.711 68.3791 180.729C68.2547 181.055 68.2098 180.649 68.1197 180.881C67.4821 182.522 67.0043 184.38 66.3304 185.927C65.8788 186.963 65.7308 186.475 65.2688 186.952C65.2036 187.02 64.9788 187.679 64.8079 187.661C64.3775 187.616 64.0439 187.15 63.5726 187.14C63.4713 187.137 63.2778 188.056 63.2284 187.458C63.2256 187.416 63.364 186.75 63.3408 186.567C63.3249 186.439 63.097 186.584 63.1044 186.337C63.1119 186.09 63.3296 185.888 63.3742 185.49C63.4177 185.091 63.1789 185.194 63.4029 184.443ZM16.1688 113.62C16.6888 113.246 16.2855 112.795 15.9697 113.403C15.955 113.433 16.1423 113.64 16.1688 113.62ZM40.0767 167.038C39.6513 166.3 38.98 166.218 39.2683 166.752C39.5566 167.285 40.2066 167.262 40.0767 167.038ZM46.4465 172.51C45.8823 171.723 45.2042 172.254 46.0722 172.804C46.1225 172.836 46.4796 172.556 46.4465 172.51ZM66.0608 184.294C66.0505 184.3 65.886 184.773 65.8898 184.786C65.9865 185.099 66.3153 184.153 66.0608 184.294ZM52.7799 177.927C52.6371 177.644 51.9162 177.173 52.0936 177.525C52.2365 177.808 52.9579 178.279 52.7799 177.927ZM37.2174 89.1052C37.2305 89.1033 37.4651 88.8314 37.4216 88.8049C37.2809 88.7205 36.9983 89.1351 37.2174 89.1052ZM63.3124 187.39C61.7786 185.967 61.3043 184.598 62.945 186.181C63.2421 186.467 62.1346 185.752 62.4827 186.15C63.1199 186.878 63.8885 186.978 64.4597 187.809C64.5627 187.96 63.3988 187.473 63.3089 187.389C63.3101 187.389 63.3112 187.39 63.3124 187.39ZM16.95 113.802C16.964 113.798 17.286 113.419 17.2875 113.405C17.3123 113.076 16.6634 113.839 16.95 113.802ZM53.5746 79.2227C53.6027 79.2385 54.7558 79.2072 54.7928 79.1901C55.3813 78.8553 53.05 78.9176 53.5746 79.2227ZM9.70439 138.281C10.2353 138.502 10.7326 138.919 10.8935 139.387C10.5014 139.017 10.0994 138.652 9.70439 138.281Z" fill="white"/>
<path d="M234.02 180.174C233.968 177.335 234.024 173.613 234.1 170.785C234.124 169.898 234.23 170.347 234.251 169.735C234.293 168.538 234.241 167.423 234.29 166.241C234.306 165.849 234.474 166.337 234.488 165.926C234.562 163.673 234.52 161.543 234.555 159.261C234.731 148.024 234.794 136.977 234.871 125.602C234.896 121.851 235.048 117.292 234.982 113.418C234.974 112.966 234.826 113.235 234.814 113.149C234.628 111.8 234.926 112.248 234.965 111.367C235.122 107.87 235.135 103.981 235.078 100.615C235.054 99.1834 234.761 100.619 234.925 99.1773C234.936 99.0772 235.093 99.4405 235.109 99.0478C235.147 98.1573 235.119 96.4677 235.131 95.7775C235.156 94.4474 235.155 94.2273 235.156 92.9692C235.16 91.2493 235.238 89.2037 235.202 87.3584C235.194 86.9645 235.034 87.4859 235.007 86.8578C234.979 86.229 234.993 84.5657 235.031 84.005C235.069 83.4441 235.195 83.6829 235.224 83.5837C235.468 82.7671 235.13 80.8431 235.121 80.5956C235.082 79.3555 235.068 78.164 235.069 77L236 77.9311C232.927 77.9298 230.047 77.8286 226.975 77.829C223.758 77.8299 220.319 77.8934 217.259 77.8847C213.612 77.8737 210.522 77.7867 206.98 77.8017C206.606 77.8031 207.044 77.9917 206.588 77.9938C201.737 78.0158 196.92 77.9952 192.09 77.8678C191.606 77.8549 192.23 77.6893 191.746 77.6664C188.783 77.5303 184.095 77.2033 182.335 77.9245C180.328 77.8963 177.892 77.8672 176.096 77.7219C174.939 77.6283 176.063 77.4478 174.641 77.5248C174.32 77.542 174.737 77.7 174.256 77.7138C172.231 77.7716 170.019 77.7203 168.015 77.8019C167.608 77.8189 167.719 77.9605 167.604 77.986C166.633 78.1925 165.018 77.8511 164.666 77.8263C161.984 77.6414 160.026 77.7142 157.528 77.7096C156.948 77.7085 157.634 77.8987 157.076 77.9045C154.183 77.9317 151.186 77.9154 148.353 77.831C147.723 77.8118 148.303 77.6497 148.001 77.6323C146.674 77.5572 146.379 77.8632 145.106 77.797C144.838 77.7835 144.989 77.6448 144.94 77.6296C144.174 77.3904 143.508 77.7293 143.311 77.7367C140.817 77.839 139.223 77.4852 136.815 77.5353C136.526 77.5417 137.176 77.7172 136.366 77.7243C130.97 77.7727 125.262 77.7245 119.92 77.5842C119.09 77.5626 119.683 77.4307 119.63 77.4145C118.778 77.1605 118.227 77.5008 117.957 77.5136C115.995 77.5983 114.152 77.3647 112.74 77.6394L113.344 77.2109C113.326 77.3381 113.312 77.4633 113.304 77.5865C110.187 86.0817 107.43 94.6591 104.127 103.01C104.086 103.117 103.995 102.868 103.913 103.081C102.92 105.637 103.339 105.226 103.042 107.043C102.967 107.501 102.145 108.686 102.078 108.793C101.832 109.181 101.75 108.66 101.682 108.795C101.123 109.915 101.968 109.996 101.416 111.577C101.397 111.626 101.326 111.368 101.266 111.496C101.077 111.892 100.991 112.321 100.801 112.707C100.364 113.591 99.8712 113.787 99.5985 115.274C99.5647 115.463 100.101 115.344 99.5874 116.748C99.3821 117.308 98.5193 119.801 98.2467 120.489C97.9745 121.177 97.9995 120.648 97.976 120.696C97.1314 122.509 97.3024 121.769 96.695 122.613C96.0887 123.457 96.8416 123.427 96.7814 123.837C96.7208 124.247 96.0843 125.57 95.9121 125.889C95.7399 126.209 95.7969 125.755 95.6613 126.045C94.7647 127.97 95.6838 127.036 95.5592 127.73C95.2665 129.366 94.354 130.401 93.8102 131.803C93.6631 132.182 93.8843 131.908 93.7754 132.253C93.3423 133.621 92.9047 134.381 92.507 135.97C92.4418 136.23 92.3019 137.578 91.8037 138.308C91.7326 138.412 91.7236 138.045 91.4946 138.612C91.1524 139.459 90.5831 141.003 90.3002 141.943C90.0915 142.638 90.567 141.924 90.2035 142.763C90.0419 143.136 90.1718 142.386 89.8779 143.09C89.5854 143.79 88.9518 145.62 88.7128 146.317C88.4743 147.012 88.76 146.686 88.7507 146.746C88.691 147.106 88.299 148.464 88.2577 148.582C86.2007 154.528 84.029 159.915 82.0934 165.728C81.9412 166.184 82.2081 165.938 82.1865 166.009C81.7111 167.586 81.7106 166.211 81.1879 167.246C81.5698 167.204 81.2867 167.824 80.9401 168.931C80.7734 169.464 81.0004 169.221 80.9966 169.274C80.9156 170.123 80.4768 170.581 80.377 170.704C80.009 171.156 80.033 171.797 79.7848 172.106C79.5377 172.415 79.6371 171.54 79.2726 172.59C79.2869 172.926 79.8652 172.253 79.6363 173.067C78.7732 176.14 76.5718 181.668 75.702 184.077C75.5633 184.461 75.4403 184.804 75.3294 185.115L75 184.651C76.7339 184.662 77.5166 184.652 78.7679 184.69C81.458 184.771 80.4721 184.531 82.1425 184.42C83.8178 184.31 83.0034 184.902 83.2442 185.029C83.4806 185.157 83.7387 185.026 84.0328 185.096C84.3258 185.165 83.6913 185.252 84.3807 185.278C85.0704 185.304 86.9561 185.078 87.2006 184.945C87.7174 184.663 86.8677 184.368 88.6927 184.472C88.7976 184.478 88.457 184.633 88.8589 184.649C92.0511 184.769 95.3674 184.776 98.5556 184.882C98.994 184.897 98.602 185.07 98.8571 185.081C101.515 185.191 100.565 184.899 102.021 184.575C101.694 185.007 102.499 185.271 104.516 185.273C105.729 185.275 105.52 185.087 106.304 184.954C106.539 184.914 107.397 185.043 107.553 184.954C108.065 184.665 107.257 184.34 109.337 184.47C109.428 184.476 109.137 184.634 109.453 184.644C111.49 184.707 111.734 184.404 113.937 184.367C115.663 184.338 118.734 184.523 120.699 184.553C120.658 185.038 122.515 184.927 123.268 184.593C124.544 184.606 125.922 184.587 127.155 184.634C127.579 184.649 127.3 184.79 127.354 184.805C128.175 185.043 128.729 184.718 129.005 184.705C131.989 184.581 134.421 184.828 137.269 184.586C137.37 184.578 137.534 184.241 138.295 184.487C138.345 184.504 137.404 184.657 138.744 184.669C140.084 184.681 142.61 184.862 144.471 184.705C144.921 184.668 146.06 184.394 146.974 184.608C147.095 184.637 146.962 184.734 147.138 184.787C147.706 184.959 148.016 184.618 148.684 184.908C149.352 185.197 150.741 185.414 152.617 185.214C152.677 185.208 153.121 184.938 153.711 184.942C154.653 184.95 155.99 185.006 156.974 185.004C157.445 185.003 157.143 184.835 157.225 184.832C160.391 184.738 162.645 184.888 166.036 184.953C166.658 184.965 168.445 184.736 169.649 184.917C170.971 185.115 169.612 185.938 172.65 185.742C173.876 185.663 175.427 184.619 177.629 185.16C181.9 185.026 185.85 185.303 190.132 185.112C190.325 185.103 190.934 184.812 191.387 184.816C192.059 184.822 192.428 184.958 192.908 184.967C194.919 185.008 196.759 184.892 198.698 184.91C199.435 184.917 199.177 185.057 200.055 185.065C200.933 185.073 201.518 184.888 202.707 184.977C203.605 185.045 204.503 185.424 205.695 185.469C205.74 185.095 206.559 185.102 208.014 185.004C208.294 184.985 207.994 184.854 208.126 184.839C208.665 184.772 209.163 184.879 209.675 184.806C209.799 184.789 209.805 184.661 209.907 184.64C210.771 184.452 212.196 184.739 212.44 184.789C213.378 184.979 213.816 184.813 214.536 184.888C215.254 184.962 214.18 185.056 215.019 185.101C216.757 185.195 218.991 185.174 220.757 185.18C221.462 185.182 220.981 185.011 221.082 185.008C222.539 184.964 224.012 185.146 224.82 184.806C225.83 185.684 225.698 184.721 227.781 184.897C227.945 184.911 228.154 185.326 227.524 185.387C226.894 185.448 225.939 185.318 225.065 185.413C224.858 185.435 223.673 185.824 223.511 185.848C222.244 186.032 222.065 185.412 221.998 185.378C221.238 185.01 219.789 185.429 219.408 185.458C217.663 185.591 216.181 185.504 214.721 185.598C213.767 185.659 213.673 186.066 212.924 186.053C210.432 186.012 209.562 185.445 207.214 185.937C206.711 186.042 207.211 186.486 205.407 186.137C205.294 186.115 203.954 185.795 203.18 185.997C203.083 186.023 203.086 186.152 202.958 186.163C202.099 186.233 201.526 186.13 200.591 186.18C199.655 186.229 198.53 186.303 197.461 186.259C196.818 186.232 195.991 185.991 195.683 185.932C194.813 185.762 193.88 186.041 193.341 185.835C192.797 185.628 193.86 185.314 192.434 185.18C192.381 185.516 192.26 185.861 192.175 186.2C189.051 186.188 185.977 186.079 182.842 186.094C182.453 186.096 182.851 186.277 182.434 186.284C180.676 186.312 179.141 186.184 177.318 186.235C175.907 186.275 174.36 186.467 172.884 186.515C171.983 186.13 169.794 186.261 168.203 186.226C167.646 186.214 167.683 186.111 167.287 186.077C165.792 185.953 166.493 186.293 166.083 186.347C164.325 186.575 164.174 185.806 162.101 185.825C161.992 185.825 160.649 186.236 160.464 186.261C159.29 186.428 160.27 186.118 159.535 186.088C158.192 186.033 157.259 185.935 155.685 186.055C155.225 186.09 154.124 186.346 153.232 186.148C153.115 186.122 153.179 185.987 153.085 185.979C151.376 185.846 151.331 186.273 150.354 186.417C149.377 186.561 147.868 186.267 147.561 186.182C146.758 185.963 148.177 186.088 148.22 186.067C148.731 185.811 147.631 185.855 146.79 185.833C146.668 185.416 145.492 185.441 145.918 185.813C145.967 185.853 146.621 185.814 146.79 185.833C146.052 186.243 144.76 186.296 143.332 185.913C142.664 185.733 143.296 185.524 141.266 185.6C140.345 185.635 140.701 185.923 139.888 186.001C138.031 186.18 135.618 185.912 133.703 185.954C133.008 185.969 133.685 186.127 133.21 186.143C131.95 186.185 130.838 186.067 129.573 186.128C129.458 186.133 129.738 186.298 129.345 186.3C126.361 186.32 123.763 186.214 120.647 186.211C119.142 186.21 116.451 186.301 114.891 186.282C112.189 186.252 108.864 186.012 106.555 186.07C105.05 186.107 105.38 186.272 104.735 186.385C103.49 186.602 101.286 186.212 100.989 186.152C100.98 186.15 102.276 186.111 101.584 186.026C101.182 185.85 101.004 186.151 100.989 186.152C100.794 186.113 98.2056 186.075 97.6917 186.107C97.4124 186.124 97.5686 186.28 97.423 186.286C93.9618 186.426 90.4946 186.466 86.9841 186.393C86.9223 186.39 87.0154 186.215 86.8701 186.21C84.8378 186.132 83.5365 186.346 81.8603 186.473C80.1845 186.6 78.8554 186.557 77.8633 186.257C77.0226 186.282 75.9388 186.232 75 186.172L73.3402 186.159L73.8937 184.613C74.0784 184.177 74.2533 183.776 74.3941 183.454C74.8144 182.495 74.5415 182.246 74.5654 182.157C75.3074 179.381 76.0375 177.882 77.0466 175.086C77.5269 173.757 78.405 171.095 78.8746 169.638C79.2452 168.487 79.5608 167.825 79.8802 166.757C79.9235 166.612 79.7304 166.706 79.74 166.661C79.9792 165.427 80.1315 166.113 80.2786 165.893C80.8126 165.093 81.1232 164.593 81.5418 163.052C81.6385 162.697 81.4883 161.511 81.6797 160.869C81.9295 160.034 82.0015 160.407 82.2585 159.531C82.2807 159.456 82.164 159.433 82.3545 158.904C83.2372 156.446 84.2411 153.781 85.1252 151.215C85.2463 150.865 84.9131 151.252 85.0853 150.745C85.8934 148.365 86.8085 145.767 87.6988 143.485C87.9185 142.923 87.9174 143.323 87.9972 143.213C88.4842 142.532 88.5373 141.344 88.5932 141.165C89.9169 136.879 91.3405 133.742 92.7087 129.381C92.7826 129.143 93.0683 127.215 93.6466 126.513C93.6856 126.464 94.2678 125.773 94.3068 124.995C94.3091 124.946 93.9792 125.389 94.2983 124.527C94.6173 123.665 95.0008 122.233 95.5891 121.1C95.7751 120.742 96.3895 119.955 96.5417 118.745C96.5505 118.666 96.6124 116.737 97.2056 116.248C97.3027 116.169 97.6643 116.413 97.9297 114.998C97.9798 114.728 97.7281 115.163 97.909 114.467C98.1857 113.4 98.7722 112.064 99.04 110.728C99.0863 110.495 99.1464 109.455 99.6168 108.768C99.6904 108.66 99.7445 108.932 99.8994 108.537C100.637 106.657 101.245 104.63 102.013 102.728C102.285 102.054 102.377 102.48 102.684 101.785C102.992 101.091 103.55 99.6713 103.713 98.8895C103.876 98.1075 103.248 98.8045 103.612 97.6749C105.194 92.7641 107.081 88.0109 108.809 83.1591C109.066 82.4395 108.734 82.9945 109.103 81.931C109.635 80.3986 110.302 78.4257 111.004 76.3933L111.449 75.1506L112.74 75.1608C116.092 75.149 119.609 75.1695 121.803 75.3376C124.688 75.5586 121.057 75.7269 123.262 75.8168C124.326 75.8597 125.477 75.4378 125.734 75.4245C128.243 75.2896 129.987 75.4765 132.246 75.4191C132.712 75.4072 132.254 75.2362 132.651 75.228C134.007 75.1983 135.432 75.2746 136.728 75.2607C137.309 75.254 137.202 75.1234 137.737 75.1335C139.016 75.1561 140.148 75.211 141.395 75.3334C141.509 75.3446 140.742 75.5071 141.689 75.5131C143.221 75.5224 145.123 75.6432 146.886 75.5185C147.409 75.481 147.43 75.1824 148.554 75.3886C148.79 75.4317 148.489 75.7901 149.799 75.4804C150.019 75.4289 152.219 75.0112 153.299 75.2805C153.584 75.3513 154.311 75.6447 154.94 75.5986C155.025 75.5912 154.684 75.4309 155.205 75.4152C157.042 75.3629 158.967 75.38 160.854 75.3298C161.358 75.316 160.608 75.1501 161.359 75.1349C163.424 75.093 166.003 75.1353 168.023 75.1872C168.768 75.2067 168.253 75.3441 168.307 75.3591C169.179 75.6024 169.694 75.274 169.983 75.2548C171.782 75.1402 173.151 75.2944 174.809 75.2536C175.267 75.2427 174.942 75.0862 175.033 75.0722C175.978 74.9358 175.274 75.217 175.872 75.248C177.547 75.3358 179.414 75.3232 181.108 75.3032C181.73 75.2956 181.031 75.114 181.589 75.1093C184.894 75.078 188.329 75.0954 191.555 75.1955C192.162 75.2147 191.78 75.3545 191.906 75.3864C192.779 75.6098 194.057 75.3051 194.351 75.2761C195.689 75.1435 196.208 75.2672 197.39 75.2441C203.16 75.1292 210.285 75.2111 215.732 75.2617C222.829 75.3268 228.337 75.4598 235.106 75.4252C235.536 75.4232 235.102 75.2372 235.473 75.2331C235.649 75.2314 235.824 75.23 236 75.2286L237.785 75.2427L237.771 77C237.807 81.607 237.741 86.1504 237.793 90.7717C237.797 91.1653 237.973 90.5979 237.986 91.2297C238.012 92.5258 238.003 94.1675 237.947 95.478C237.919 96.1171 237.768 95.2598 237.744 95.9032C237.687 97.4012 237.675 99.0069 237.703 100.546C237.715 101.2 237.896 100.213 237.898 101.064C237.916 106.861 237.947 112.555 237.713 118.414C237.697 118.816 237.331 119.168 237.401 120.022C237.503 120.087 237.622 120.083 237.731 120.111C237.79 128.551 237.663 136.905 237.643 145.369C237.642 145.725 237.836 145.109 237.836 145.8C237.833 149.798 237.887 153.681 237.694 157.771C237.675 158.177 237.333 157.969 237.385 159.165C237.394 159.376 237.44 161.177 237.514 161.643C237.525 161.706 237.685 161.377 237.689 161.958C237.713 165.331 237.677 168.865 237.58 172.232C237.564 172.776 237.394 172.197 237.381 172.584C237.291 175.33 237.42 178.316 237.266 180.939C237.162 182.695 236.868 182.045 236.579 182.978C236.539 183.11 236.532 184.198 236.364 184.254C235.941 184.398 235.478 183.872 235.028 184.088C234.931 184.134 235.035 185.59 234.801 184.728C234.785 184.667 234.707 183.612 234.628 183.351C234.573 183.17 234.402 183.497 234.331 183.127C234.261 182.758 234.404 182.352 234.322 181.74C234.238 181.127 234.043 181.397 234.02 180.174ZM76.2842 179.136C76.7573 178.277 76.2397 177.945 76.0299 178.979C76.0204 179.029 76.2602 179.18 76.2842 179.136ZM185.994 185.628C184.731 185.364 183.866 185.752 184.757 185.956C185.649 186.159 186.379 185.708 185.994 185.628ZM199.098 185.435C197.622 185.227 197.389 186.075 198.971 185.904C199.063 185.894 199.185 185.447 199.098 185.435ZM236.497 178.651C236.489 178.664 236.481 179.446 236.489 179.465C236.679 179.881 236.695 178.318 236.497 178.651ZM212.102 185.225C211.641 185.111 210.314 185.243 210.886 185.386C211.348 185.501 212.676 185.368 212.102 185.225ZM93.5212 131.745C93.5346 131.733 93.7271 131.207 93.6758 131.201C93.51 131.183 93.296 131.935 93.5212 131.745ZM234.203 185.216C230.938 185.184 228.958 184.483 232.514 184.562C233.158 184.576 231.126 184.786 231.946 184.849C233.446 184.964 234.442 184.524 235.972 184.76C236.249 184.803 234.39 185.219 234.198 185.217C234.2 185.216 234.201 185.216 234.203 185.216ZM77.1462 178.847C77.16 178.832 77.423 178.102 77.4217 178.082C77.381 177.622 76.8511 179.093 77.1462 178.847ZM104.658 100.997C104.688 100.962 105.297 99.2676 105.301 99.2071C105.318 98.218 104.086 101.643 104.658 100.997ZM120.73 184.566C121.577 184.375 122.589 184.352 123.264 184.592C122.423 184.58 121.576 184.578 120.73 184.566Z" fill="white"/>
</svg>
