<svg width="179" height="155" viewBox="0 0 179 155" fill="none" xmlns="http://www.w3.org/2000/svg">
<path d="M3.97966 8.21033C4.03177 11.864 3.97605 16.6533 3.89958 20.2931C3.87587 21.4338 3.76985 20.8562 3.7487 21.6436C3.70748 23.1837 3.75948 24.6185 3.71037 26.1405C3.69358 26.6448 3.52565 26.017 3.51189 26.5459C3.43767 29.4441 3.48045 32.1858 3.44475 35.1217C3.26863 49.5829 3.20559 63.7979 3.12908 78.4361C3.10399 83.2627 2.95159 89.13 3.01824 94.1153C3.02617 94.6973 3.17357 94.3503 3.18572 94.461C3.3717 96.1977 3.07413 95.6203 3.0346 96.7542C2.87849 101.255 2.86492 106.259 2.9218 110.59C2.94644 112.433 3.23921 110.586 3.07488 112.441C3.06378 112.57 2.90725 112.102 2.89055 112.608C2.853 113.754 2.88098 115.928 2.86858 116.816C2.84389 118.528 2.84546 118.811 2.84368 120.43C2.83988 122.643 2.76207 125.275 2.79754 127.65C2.80557 128.157 2.96603 127.486 2.99334 128.294C3.0206 129.103 3.00699 131.244 2.96917 131.965C2.93132 132.687 2.8052 132.38 2.7763 132.508C2.5323 133.558 2.87023 136.034 2.87859 136.353C3.02099 142.161 2.82848 147.142 2.82903 152.594C2.82906 152.729 2.82915 152.864 2.82931 153L2 152.171C6.02131 152.166 10.2873 152.107 14.0971 152.115C18.7892 152.126 22.7658 152.213 27.324 152.198C27.8051 152.197 27.2414 152.008 27.8289 152.006C34.0712 151.984 40.27 152.005 46.4853 152.132C47.1086 152.145 46.3053 152.311 46.928 152.334C50.7408 152.47 56.7736 152.797 59.0381 152.076C61.6208 152.104 64.7563 152.133 67.0668 152.278C68.5565 152.372 67.1096 152.552 68.9396 152.475C69.3523 152.458 68.8156 152.3 69.4346 152.286C72.0406 152.228 74.8877 152.28 77.4657 152.198C77.9901 152.181 77.8469 152.039 77.9955 152.014C79.2441 151.807 81.3229 152.149 81.776 152.174C85.2267 152.359 87.7466 152.286 90.9612 152.29C91.7072 152.291 90.8254 152.101 91.5432 152.096C95.2661 152.068 99.1226 152.085 102.768 152.169C103.579 152.188 102.833 152.35 103.221 152.368C104.929 152.443 105.308 152.137 106.946 152.203C107.292 152.216 107.097 152.355 107.16 152.37C108.146 152.61 109.003 152.271 109.257 152.263C112.466 152.161 114.517 152.515 117.616 152.465C117.987 152.458 117.151 152.283 118.193 152.276C125.138 152.227 132.483 152.275 139.357 152.416C140.426 152.437 139.663 152.569 139.73 152.586C140.826 152.839 141.535 152.499 141.884 152.486C144.633 152.394 147.201 152.679 149.069 152.274C158.412 152.387 167.72 152.263 177 152.397L176.397 153C176.43 150.715 176.479 148.431 176.55 146.15C176.555 146.003 176.722 146.266 176.73 145.973C176.824 142.446 176.563 143.124 176.245 140.79C176.165 140.202 176.55 138.414 176.578 138.255C176.682 137.679 176.931 138.277 176.951 138.084C177.109 136.486 176.285 136.747 176.284 134.592C176.286 134.524 176.437 134.807 176.452 134.627C176.5 134.065 176.44 133.508 176.492 132.958C176.613 131.699 177.013 131.251 176.78 129.329C176.75 129.086 176.282 129.457 176.304 127.533C176.313 126.766 176.305 123.371 176.336 122.42C176.366 121.469 176.517 122.122 176.523 122.054C176.723 119.493 176.805 120.464 177.1 119.181C177.394 117.898 176.693 118.254 176.615 117.731C176.537 117.207 176.701 115.33 176.758 114.868C176.816 114.407 176.911 114.982 176.944 114.572C177.155 111.854 176.596 113.379 176.484 112.483C176.221 110.371 176.741 108.726 176.792 106.793C176.806 106.269 176.687 106.696 176.676 106.23C176.634 104.385 176.796 103.276 176.647 101.176C176.623 100.833 176.31 99.1361 176.54 98.0376C176.573 97.8821 176.702 98.3241 176.732 97.5377C176.775 96.363 176.803 94.2464 176.76 92.9837C176.728 92.0514 176.515 93.12 176.581 91.9465C176.61 91.425 176.735 92.3916 176.781 91.4118C176.826 90.4372 176.82 87.9452 176.816 86.997C176.812 86.0505 176.65 86.5686 176.639 86.4921C176.576 86.0292 176.498 84.2127 176.498 84.0522C176.479 75.9553 176.752 68.4888 176.661 60.6055C176.654 59.9868 176.484 60.3989 176.481 60.3045C176.409 58.1866 176.863 59.8564 177.015 58.3769C176.669 58.5907 176.731 57.7174 176.693 56.2255C176.675 55.5066 176.541 55.8981 176.527 55.8325C176.323 54.7664 176.586 54.024 176.64 53.8328C176.838 53.1268 176.604 52.3584 176.737 51.8779C176.868 51.3977 177.063 52.5029 177.06 51.0721C176.936 50.6709 176.612 51.7331 176.56 50.6468C176.361 46.5481 176.615 38.8973 176.642 35.6018C176.668 32.3128 176.645 31.2505 176.69 29.334C176.771 25.8723 176.531 27.1409 176.42 24.9914C176.31 22.8356 176.902 23.8836 177.029 23.5737C177.157 23.2695 177.026 22.9373 177.096 22.5589C177.165 22.1818 177.252 22.9983 177.278 22.1113C177.304 21.2237 177.078 18.797 176.945 18.4824C176.663 17.8173 176.368 18.9109 176.471 16.5623C176.478 16.4273 176.633 16.8656 176.649 16.3484C176.769 12.2406 176.776 7.97301 176.882 3.87023C176.897 3.30608 177.07 3.81052 177.081 3.48222C177.101 2.84266 177.108 2.36542 177.103 2L177.104 1.8977L177 1.89707C175.411 1.91895 175.934 2.16115 174.411 2.42473C174.832 1.99326 173.795 1.72929 171.2 1.72674C169.64 1.72506 169.908 1.9135 168.899 2.04632C168.596 2.08635 167.492 1.95696 167.292 2.04558C166.633 2.33528 167.673 2.65958 164.997 2.53045C164.879 2.52431 165.253 2.36573 164.847 2.35613C162.225 2.29327 161.912 2.59629 159.077 2.63298C156.855 2.66178 152.904 2.477 150.375 2.44695C150.428 1.96185 148.038 2.07293 147.069 2.4074C145.427 2.39371 143.654 2.41261 142.067 2.36638C141.521 2.35062 141.88 2.21017 141.811 2.195C140.755 1.95694 140.041 2.28234 139.687 2.2951C135.846 2.4191 132.717 2.17248 129.052 2.4135C128.922 2.42218 128.711 2.75915 127.731 2.51311C127.668 2.49615 128.878 2.34284 127.154 2.33098C125.43 2.3191 122.179 2.13846 119.785 2.29461C119.205 2.3322 117.74 2.60574 116.564 2.39202C116.407 2.363 116.578 2.26635 116.352 2.21258C115.621 2.04122 115.222 2.38181 114.363 2.09246C113.503 1.80313 111.716 1.58644 109.301 1.78606C109.224 1.79187 108.653 2.06182 107.893 2.05755C106.681 2.0505 104.961 1.99427 103.695 1.99602C103.089 1.99696 103.477 2.16459 103.372 2.16765C99.2972 2.26159 96.3974 2.11215 92.0325 2.04729C91.2324 2.03507 88.933 2.26365 87.384 2.08294C85.6831 1.88511 87.4309 1.06217 83.5214 1.25823C81.9445 1.33665 79.9482 2.38069 77.1144 1.83977C71.6185 1.97381 66.5359 1.69697 61.0248 1.88836C60.7769 1.89684 59.9933 2.18822 59.4106 2.18426C58.5456 2.1778 58.0708 2.04162 57.4532 2.03265C54.8651 1.99162 52.4968 2.10814 50.0016 2.09002C49.0542 2.08343 49.3855 1.94262 48.2556 1.93474C47.1263 1.92701 46.3734 2.11244 44.8431 2.02288C43.6874 1.95462 42.5319 1.5756 40.9979 1.53143C40.9395 1.90528 39.8859 1.89758 38.0133 1.99627C37.6534 2.01542 38.0394 2.14554 37.869 2.16131C37.1761 2.22837 36.5348 2.12053 35.8768 2.19353C35.7167 2.21107 35.7092 2.33874 35.5784 2.36028C34.4656 2.5483 32.6325 2.26112 32.3177 2.21111C31.111 2.02121 30.5471 2.18726 29.6215 2.11248C28.6975 2.03771 30.0792 1.94423 28.9997 1.89886C26.7624 1.805 23.8876 1.82562 21.6153 1.81976C20.7086 1.8182 21.3272 1.98863 21.1974 1.99236C19.3226 2.03559 17.4268 1.8543 16.3872 2.19378C15.0874 1.31602 15.2567 2.27891 12.5768 2.1032C12.3657 2.08899 12.0972 1.67391 12.9076 1.61297C13.7181 1.55209 14.9469 1.68184 16.0713 1.58685C16.3376 1.56455 17.8629 1.17559 18.071 1.15203C19.7012 0.967893 19.9322 1.58818 20.0185 1.62225C20.9966 1.98991 22.8605 1.57088 23.3513 1.54192C25.5969 1.40925 27.5046 1.49649 29.3828 1.40179C30.6111 1.34058 30.7313 0.934273 31.6958 0.946711C34.9023 0.987818 36.0215 1.55462 39.043 1.06317C39.6909 0.958348 39.047 0.514263 41.3685 0.863459C41.5144 0.885473 43.238 1.20492 44.2338 1.00286C44.3588 0.977386 44.3549 0.847965 44.5198 0.837092C45.6252 0.766766 46.3624 0.869872 47.5666 0.820491C48.7707 0.771109 50.2185 0.697493 51.5934 0.741389C52.4219 0.767638 53.4849 1.00877 53.8816 1.0678C55.0015 1.23787 56.2022 0.959035 56.896 1.16497C57.5957 1.37195 56.2279 1.68627 58.0625 1.82C58.1305 1.48375 58.2866 1.13863 58.3958 0.800471C62.4164 0.81231 66.3724 0.921039 70.4064 0.906184C70.9065 0.904006 70.3951 0.723238 70.9312 0.716243C73.1933 0.687525 75.169 0.816389 77.5148 0.765071C79.3306 0.724657 81.3217 0.533262 83.2204 0.485043C84.3802 0.869805 87.1977 0.739187 89.2444 0.774348C89.9614 0.786498 89.9135 0.88926 90.4233 0.922785C92.3469 1.04678 91.4455 0.706764 91.9728 0.653255C94.2353 0.424888 94.429 1.19449 97.0965 1.17547C97.2377 1.17472 98.9652 0.764494 99.2031 0.738948C100.715 0.572366 99.4534 0.881733 100.399 0.912043C102.127 0.967434 103.327 1.0654 105.354 0.945246C105.945 0.909656 107.363 0.653965 108.51 0.851741C108.661 0.877638 108.578 1.01323 108.699 1.02117C110.899 1.15354 110.957 0.727482 112.214 0.583187C113.471 0.438923 115.412 0.733037 115.808 0.817805C116.841 1.03709 115.015 0.911521 114.959 0.933039C114.302 1.18913 115.718 1.14504 116.8 1.16668C116.957 1.58444 118.47 1.55936 117.922 1.18743C117.859 1.14681 117.017 1.18577 116.8 1.16668C117.75 0.756806 119.413 0.704313 121.25 1.08734C122.109 1.26685 121.297 1.47616 123.908 1.39959C125.094 1.36503 124.636 1.07738 125.682 0.998957C128.071 0.820028 131.177 1.08835 133.641 1.04608C134.535 1.03073 133.664 0.873272 134.275 0.857356C135.897 0.814626 137.327 0.932768 138.956 0.872248C139.103 0.866565 138.743 0.701742 139.249 0.699641C143.089 0.6805 146.433 0.78607 150.442 0.788997C152.379 0.790336 155.842 0.699431 157.848 0.717708C161.326 0.748411 165.605 0.98809 168.576 0.929865C170.513 0.892595 170.088 0.727737 170.919 0.615413C172.521 0.397683 175.357 0.787688 175.739 0.848079C175.75 0.850077 174.083 0.888941 174.973 0.973566C175.49 1.1499 175.72 0.848843 175.739 0.848079C175.832 0.86258 176.351 0.876862 177 0.887466L178.119 0.894333L178.113 2C178.095 3.09712 178.087 4.56643 178.107 4.982C178.124 5.34138 178.28 5.14036 178.286 5.32772C178.426 9.78177 178.466 14.2436 178.393 18.761C178.39 18.8405 178.215 18.7207 178.21 18.9078C178.132 21.523 178.346 23.1976 178.473 25.3545C178.6 27.5111 178.557 29.2214 178.257 30.498C178.295 32.1253 178.162 34.4598 178.082 35.8032C178.001 37.1466 178.341 37.334 178.348 37.4522C178.563 41.139 178.369 43.2702 178.338 47.095C178.323 48.9135 178.373 52.5206 178.41 54.4895C178.44 56.0455 178.36 56.983 178.411 58.4167C178.418 58.6107 178.569 58.4147 178.575 58.4739C178.756 60.0741 178.386 59.3051 178.32 59.6355C178.08 60.8332 177.952 61.5732 178.065 63.6224C178.091 64.095 178.624 65.4719 178.655 66.3334C178.694 67.4537 178.503 67.0309 178.55 68.2038C178.553 68.3042 178.671 68.2833 178.666 69.0072C178.643 72.3675 178.575 76.031 178.587 79.523C178.588 80 178.775 79.3885 178.78 80.0776C178.802 83.3115 178.795 86.856 178.707 90.0065C178.685 90.782 178.554 90.2958 178.515 90.4641C178.28 91.4976 178.622 92.9632 178.628 93.205C178.793 98.9734 178.483 103.388 178.631 109.267C178.639 109.587 179.006 112.051 178.691 113.15C178.671 113.225 178.349 114.312 178.569 115.274C178.583 115.334 178.748 114.656 178.731 115.838C178.714 117.021 178.825 118.924 178.643 120.549C178.586 121.064 178.265 122.28 178.521 123.815C178.539 123.915 179.117 126.284 178.718 127.13C178.652 127.267 178.23 127.124 178.447 128.956C178.489 129.306 178.583 128.67 178.641 129.593C178.732 131.005 178.619 132.877 178.807 134.614C178.84 134.917 179.127 136.206 178.909 137.241C178.875 137.403 178.734 137.095 178.719 137.641C178.643 140.238 178.737 142.958 178.64 145.595C178.605 146.529 178.378 146.052 178.317 147.025C178.256 147.999 178.197 149.961 178.301 150.98C178.405 151.999 178.768 150.886 178.797 152.413C178.801 152.608 178.804 152.804 178.807 153L178.796 154.818L177 154.807C170.562 154.911 164.179 154.709 157.747 154.679C156.764 154.675 157.579 154.804 156.13 154.807C150.79 154.817 141.569 154.938 136.934 154.662C133.221 154.441 137.894 154.273 135.057 154.183C133.687 154.14 132.206 154.562 131.875 154.576C128.646 154.71 126.402 154.524 123.496 154.581C122.896 154.593 123.485 154.764 122.974 154.772C121.229 154.802 119.395 154.725 117.728 154.739C116.98 154.746 117.118 154.877 116.43 154.867C114.783 154.844 113.327 154.789 111.722 154.667C111.575 154.655 112.562 154.493 111.344 154.487C109.372 154.478 106.924 154.357 104.656 154.482C103.983 154.519 103.956 154.818 102.509 154.611C102.206 154.568 102.593 154.21 100.907 154.52C100.624 154.571 97.7927 154.989 96.4032 154.72C96.0366 154.649 95.101 154.355 94.2915 154.401C94.1818 154.409 94.6215 154.569 93.9508 154.585C91.5869 154.637 89.1093 154.62 86.6807 154.67C86.0322 154.684 86.9981 154.85 86.0316 154.865C83.3736 154.907 80.055 154.865 77.4558 154.813C76.4975 154.793 77.1599 154.656 77.0902 154.641C75.9689 154.398 75.3059 154.726 74.9338 154.745C72.6192 154.86 70.8567 154.706 68.7233 154.746C68.1345 154.757 68.552 154.914 68.4347 154.928C67.2193 155.064 68.1247 154.783 67.3553 154.752C65.1999 154.664 62.7972 154.677 60.6175 154.697C59.8169 154.704 60.7167 154.886 59.9982 154.891C55.7455 154.922 51.3245 154.905 47.1743 154.805C46.3928 154.785 46.8845 154.646 46.7216 154.614C45.599 154.39 43.9539 154.695 43.5753 154.724C41.8541 154.856 41.1855 154.733 39.6654 154.756C32.2399 154.871 23.0713 154.789 16.062 154.738C10.9478 154.702 6.47517 154.644 2 154.606L0.383753 154.597L0.393548 153C0.423178 149.483 0.440427 145.964 0.425228 142.13C0.423208 141.577 0.237219 142.135 0.23309 141.658C0.188254 135.497 0.260931 129.431 0.207211 123.258C0.203133 122.751 0.026814 123.481 0.0143409 122.668C-0.0124794 121 -0.00289595 118.888 0.0534033 117.201C0.0805295 116.379 0.231827 117.482 0.256039 116.654C0.312764 114.726 0.325321 112.66 0.297055 110.68C0.284642 109.837 0.104312 111.109 0.102231 110.013C0.0843411 102.553 0.0532839 95.2253 0.286801 87.6859C0.302839 87.1691 0.66934 86.7155 0.599056 85.6166C0.497342 85.5338 0.377695 85.5383 0.268979 85.5022C0.210415 74.6412 0.337469 63.8911 0.357113 52.9996C0.3579 52.5404 0.163709 53.334 0.164243 52.445C0.167114 47.2994 0.113317 42.3027 0.306332 37.0393C0.325208 36.5171 0.666837 36.785 0.615169 35.2461C0.605741 34.9746 0.56018 32.6568 0.486019 32.0575C0.474833 31.9761 0.315374 32.399 0.310727 31.6521C0.286512 27.3116 0.322916 22.7631 0.420346 18.4302C0.436375 17.7309 0.606185 18.4756 0.619075 17.9775C0.709218 14.4444 0.580131 10.6014 0.734309 7.22541C0.838122 4.96561 1.13165 5.80225 1.42059 4.60143C1.46135 4.43158 1.46781 3.03225 1.63592 2.95988C2.05864 2.7741 2.52152 3.4519 2.9721 3.17378C3.06915 3.11502 2.96462 1.24095 3.19915 2.35052C3.21484 2.42804 3.29268 3.78675 3.37224 4.1214C3.42725 4.35439 3.59821 3.93453 3.66863 4.40991C3.73897 4.88526 3.59566 5.4076 3.67839 6.19571C3.76215 6.98347 3.95664 6.63709 3.97966 8.21033ZM177.722 41.8521C177.559 43.096 178.157 43.2795 178.014 41.9341C178.006 41.869 177.73 41.7879 177.722 41.8521ZM66.3498 1.37225C67.976 1.63609 69.0889 1.24814 67.9416 1.04437C66.7946 0.840818 65.8544 1.29227 66.3498 1.37225ZM49.4867 1.56487C51.3873 1.7729 51.6865 0.924645 49.6509 1.09612C49.5325 1.10581 49.3756 1.55279 49.4867 1.56487ZM1.50286 10.1702C1.51081 10.1531 1.51855 9.14717 1.51067 9.12313C1.32069 8.58751 1.30534 10.5989 1.50286 10.1702ZM32.7529 1.77459C33.3462 1.88933 35.0546 1.75687 34.3174 1.61419C33.7239 1.4994 32.014 1.63185 32.7529 1.77459ZM177.084 106.74C177.075 106.76 177.067 107.481 177.117 107.467C177.28 107.418 177.234 106.414 177.084 106.74ZM4.31192 1.78435C8.51396 1.81628 11.0617 2.51698 6.48572 2.43792C5.65708 2.42361 8.27169 2.21447 7.21695 2.1513C5.28707 2.03621 4.00555 2.47616 2.03615 2.24041C1.6796 2.19726 4.07221 1.78098 4.31938 1.78338C4.3169 1.7837 4.31441 1.78403 4.31192 1.78435ZM177.004 42.5684C176.996 42.5933 176.988 43.5915 176.996 43.6155C177.186 44.1561 177.201 42.145 177.004 42.5684ZM176.714 148.821C176.697 148.876 176.681 151.193 176.697 151.268C177.007 152.477 177.04 147.793 176.714 148.821ZM150.335 2.43401C149.245 2.62506 147.942 2.64755 147.074 2.40764C148.157 2.42038 149.246 2.42226 150.335 2.43401Z" fill="white"/>
<path d="M74.4354 67.045H78.9464V67.89H74.4354V67.045ZM73.4994 69.333H79.9214V70.178H73.4994V69.333ZM76.2164 67.487H77.1394V74C77.1394 74.2427 77.1091 74.429 77.0484 74.559C76.9877 74.6977 76.8751 74.806 76.7104 74.884C76.5544 74.9533 76.3464 74.9967 76.0864 75.014C75.8264 75.0313 75.4971 75.04 75.0984 75.04C75.0724 74.9187 75.0291 74.7757 74.9684 74.611C74.9077 74.4463 74.8471 74.3077 74.7864 74.195C75.0724 74.2037 75.3281 74.208 75.5534 74.208C75.7787 74.208 75.9304 74.2037 76.0084 74.195C76.1471 74.195 76.2164 74.1257 76.2164 73.987V67.487ZM76.6194 64.068C76.4114 64.4753 76.1471 64.9043 75.8264 65.355C75.5144 65.8057 75.1634 66.2433 74.7734 66.668C74.3834 67.084 73.9761 67.4567 73.5514 67.786C73.4994 67.6647 73.4214 67.526 73.3174 67.37C73.2221 67.2053 73.1267 67.0667 73.0314 66.954C73.4647 66.6507 73.8807 66.2823 74.2794 65.849C74.6781 65.4157 75.0377 64.9607 75.3584 64.484C75.6791 63.9987 75.9347 63.535 76.1254 63.093H77.0484C77.3084 63.5697 77.6161 64.0463 77.9714 64.523C78.3267 64.991 78.7037 65.4287 79.1024 65.836C79.5097 66.2347 79.9127 66.5727 80.3114 66.85C80.2161 66.9713 80.1164 67.1143 80.0124 67.279C79.9171 67.4437 79.8304 67.5953 79.7524 67.734C79.3624 67.422 78.9681 67.0623 78.5694 66.655C78.1794 66.239 77.8154 65.8057 77.4774 65.355C77.1394 64.9043 76.8534 64.4753 76.6194 64.068ZM78.0104 71.049L78.8034 70.763C78.9854 71.075 79.1631 71.4087 79.3364 71.764C79.5184 72.1193 79.6787 72.466 79.8174 72.804C79.9647 73.1333 80.0731 73.428 80.1424 73.688L79.2844 74.013C79.2237 73.7617 79.1241 73.4627 78.9854 73.116C78.8554 72.7693 78.7037 72.4183 78.5304 72.063C78.3657 71.699 78.1924 71.361 78.0104 71.049ZM74.3834 70.867L75.2284 71.049C75.0811 71.6037 74.8817 72.1453 74.6304 72.674C74.3877 73.194 74.1234 73.6403 73.8374 74.013C73.7854 73.961 73.7161 73.909 73.6294 73.857C73.5427 73.7963 73.4517 73.74 73.3564 73.688C73.2611 73.6273 73.1744 73.5797 73.0964 73.545C73.3911 73.1983 73.6467 72.7867 73.8634 72.31C74.0801 71.8333 74.2534 71.3523 74.3834 70.867ZM68.9494 66.889H69.7944V75.027H68.9494V66.889ZM69.4564 68.436H72.5504V69.112H69.4564V68.436ZM69.8074 65.433H72.3424V66.135H69.8074V65.433ZM69.4694 71.556H73.0314V72.336H69.4694V71.556ZM69.4694 73.22H73.2264V74H69.4694V73.22ZM69.4694 66.889H72.9664V70.685H69.4694V69.996H72.1474V67.578H69.4694V66.889ZM70.3794 63.08H70.8864V63.288H71.1724V63.548C70.9211 64.016 70.5744 64.5533 70.1324 65.16C69.6991 65.758 69.1617 66.3213 68.5204 66.85C68.4511 66.7547 68.3514 66.6463 68.2214 66.525C68.1001 66.4037 67.9874 66.317 67.8834 66.265C68.4814 65.797 68.9927 65.2727 69.4174 64.692C69.8421 64.1113 70.1627 63.574 70.3794 63.08ZM70.6784 63.08H71.3544C71.6144 63.3053 71.8787 63.5567 72.1474 63.834C72.4247 64.1113 72.6804 64.3887 72.9144 64.666C73.1571 64.9347 73.3521 65.1817 73.4994 65.407L72.8884 66.07C72.7497 65.8533 72.5634 65.6063 72.3294 65.329C72.1041 65.043 71.8614 64.757 71.6014 64.471C71.3501 64.1763 71.0944 63.9207 70.8344 63.704H70.6784V63.08ZM84.7817 64.5039C85.3784 64.5039 85.9095 64.6203 86.375 64.853C86.8405 65.0815 87.2044 65.4032 87.4668 65.8179C87.7334 66.2284 87.8667 66.696 87.8667 67.2207C87.8667 67.7454 87.7334 68.2152 87.4668 68.6299C87.2044 69.0404 86.8405 69.362 86.375 69.5947C85.9095 69.8232 85.3784 69.9375 84.7817 69.9375C84.1893 69.9375 83.6561 69.8232 83.1821 69.5947C82.7082 69.362 82.3379 69.0404 82.0713 68.6299C81.8089 68.2152 81.6777 67.7454 81.6777 67.2207C81.6777 66.696 81.8089 66.2284 82.0713 65.8179C82.3379 65.4032 82.7082 65.0815 83.1821 64.853C83.6561 64.6203 84.1893 64.5039 84.7817 64.5039ZM84.7817 65.5576C84.4136 65.5576 84.0835 65.6253 83.7915 65.7607C83.5037 65.8962 83.2773 66.0908 83.1123 66.3447C82.9473 66.5986 82.8647 66.8906 82.8647 67.2207C82.8647 67.5508 82.9473 67.8407 83.1123 68.0903C83.2773 68.34 83.5037 68.5347 83.7915 68.6743C84.0835 68.814 84.4136 68.8838 84.7817 68.8838C85.1499 68.8838 85.4779 68.814 85.7656 68.6743C86.0576 68.5347 86.284 68.34 86.4448 68.0903C86.6099 67.8407 86.6924 67.5508 86.6924 67.2207C86.6924 66.8906 86.6099 66.5986 86.4448 66.3447C86.284 66.0908 86.0576 65.8962 85.7656 65.7607C85.4779 65.6253 85.1499 65.5576 84.7817 65.5576ZM90.4756 75.1045H89.2759V63.6978H90.4756V75.1045ZM81.1255 71.6514C82.0649 71.6471 82.9155 71.6366 83.6772 71.6196C84.4432 71.6027 85.2557 71.5688 86.1147 71.5181C86.978 71.4631 87.7926 71.3805 88.5586 71.2705L88.6475 72.1528C87.8561 72.2967 87.033 72.4067 86.1782 72.4829C85.3276 72.5549 84.5278 72.6014 83.7788 72.6226C83.0298 72.6437 82.1982 72.6543 81.2842 72.6543L81.1255 71.6514ZM104.688 74.8506H96.7915V73.854H104.688V74.8506ZM97.9976 74.1968H96.7915V71.5625H97.9976V74.1968ZM105.875 70.7246H95.4775V69.7344H105.875V70.7246ZM101.248 70.1152H100.061V67.9126H101.248V70.1152ZM101.07 64.4658C101.07 65.1598 100.871 65.7967 100.473 66.3765C100.075 66.9562 99.5358 67.4429 98.8545 67.8364C98.1774 68.2257 97.4242 68.4924 96.5947 68.6362L96.1123 67.6904C96.8317 67.5804 97.4919 67.3646 98.0928 67.043C98.6937 66.7214 99.1676 66.3363 99.5146 65.8877C99.8659 65.4349 100.042 64.9609 100.042 64.4658V64.0151H101.07V64.4658ZM101.26 64.4658C101.26 64.9694 101.434 65.4497 101.781 65.9067C102.128 66.3595 102.602 66.7425 103.203 67.0557C103.804 67.3688 104.466 67.5804 105.189 67.6904L104.72 68.6362C103.886 68.4839 103.129 68.2152 102.447 67.8301C101.77 67.445 101.233 66.9626 100.835 66.3828C100.437 65.8031 100.238 65.1641 100.238 64.4658V64.0151H101.26V64.4658ZM43.0459 83.4995H40.7607V82.1519H43.0459V83.4995ZM39.0688 81.1045C39.0688 82.042 38.9565 82.938 38.7319 83.7925C38.5122 84.647 38.1777 85.4185 37.7285 86.1069C37.2842 86.7954 36.73 87.335 36.0659 87.7256L35.1211 86.4951C35.7266 86.1484 36.2295 85.6895 36.6299 85.1182C37.0352 84.542 37.3354 83.9121 37.5308 83.2285C37.731 82.5449 37.8311 81.8369 37.8311 81.1045V80.6284H39.0688V81.1045ZM39.3691 81.1045C39.3691 81.8076 39.4668 82.4863 39.6621 83.1406C39.8574 83.7949 40.1577 84.3906 40.563 84.9277C40.9683 85.46 41.4688 85.8896 42.0645 86.2168L41.1636 87.418C40.4946 87.0615 39.9331 86.561 39.479 85.9165C39.0249 85.2671 38.688 84.5322 38.4683 83.7119C38.2485 82.8916 38.1387 82.0225 38.1387 81.1045V80.6284H39.3691V81.1045ZM41.5884 80.6943H35.5752V79.376H41.5884V80.6943ZM39.3618 80.4233H37.8311V77.5303H39.3618V80.4233ZM46.7153 90.2891H45.1772V77.0615H46.7153V90.2891ZM44.02 89.6592H42.4966V77.3179H44.02V89.6592ZM59.3789 85.0742H57.7529V77.0615H59.3789V85.0742ZM58.4268 82.3276H55.8633V80.9946H58.4268V82.3276ZM59.3789 90.1353H50.5679V85.6821H59.3789V90.1353ZM52.2012 88.8242H57.7896V86.9639H52.2012V88.8242ZM56.0903 79.603H48.312V78.3066H56.0903V79.603ZM52.2012 80.1157C52.8115 80.1157 53.3535 80.2183 53.8271 80.4233C54.3057 80.6235 54.6792 80.9043 54.9478 81.2656C55.2163 81.627 55.3506 82.0347 55.3506 82.4888C55.3506 82.9575 55.2163 83.3726 54.9478 83.7339C54.6792 84.0903 54.3057 84.3711 53.8271 84.5762C53.3535 84.7764 52.8115 84.8765 52.2012 84.8765C51.5957 84.8765 51.0562 84.7764 50.5825 84.5762C50.1089 84.3711 49.7378 84.0903 49.4692 83.7339C49.2007 83.3726 49.0664 82.9575 49.0664 82.4888C49.0664 82.0347 49.2007 81.627 49.4692 81.2656C49.7378 80.9043 50.1089 80.6235 50.5825 80.4233C51.0562 80.2183 51.5957 80.1157 52.2012 80.1157ZM52.2012 81.3535C51.8887 81.3535 51.6128 81.3999 51.3735 81.4927C51.1392 81.5806 50.9536 81.7124 50.8169 81.8882C50.6851 82.0591 50.6191 82.2593 50.6191 82.4888C50.6191 82.728 50.6826 82.9355 50.8096 83.1113C50.9414 83.2822 51.127 83.4165 51.3662 83.5142C51.6104 83.6069 51.8887 83.6558 52.2012 83.6606C52.5186 83.6558 52.7944 83.6069 53.0288 83.5142C53.2681 83.4165 53.4512 83.2822 53.5781 83.1113C53.71 82.9355 53.7759 82.728 53.7759 82.4888C53.7759 82.2593 53.71 82.0591 53.5781 81.8882C53.4512 81.7124 53.2681 81.5806 53.0288 81.4927C52.7896 81.3999 52.5137 81.3535 52.2012 81.3535ZM53.0068 79.2441H51.3955V76.9517H53.0068V79.2441ZM71.3394 81.3755H68.7759V80.0645H71.3394V81.3755ZM71.3027 83.9976H68.7466V82.6865H71.3027V83.9976ZM68.666 79.6689H61.2759V78.3726H68.666V79.6689ZM65.0405 80.1963C65.6313 80.1963 66.1636 80.3013 66.6372 80.5112C67.1108 80.7163 67.4771 81.0068 67.7358 81.3828C67.9995 81.7539 68.1313 82.1787 68.1313 82.6572C68.1313 83.1455 67.9995 83.5776 67.7358 83.9536C67.4771 84.3247 67.1108 84.6128 66.6372 84.8179C66.1636 85.0229 65.6313 85.1255 65.0405 85.1255C64.4448 85.1255 63.9126 85.0229 63.4438 84.8179C62.9751 84.6128 62.6138 84.3247 62.3599 83.9536C62.106 83.5776 61.979 83.1455 61.979 82.6572C61.979 82.1738 62.106 81.7466 62.3599 81.3755C62.6138 80.9995 62.9751 80.709 63.4438 80.5039C63.9126 80.2988 64.4448 80.1963 65.0405 80.1963ZM65.0405 81.4121C64.7329 81.4121 64.4619 81.4634 64.2275 81.5659C63.9932 81.6636 63.8101 81.8052 63.6782 81.9907C63.5513 82.1763 63.4878 82.3984 63.4878 82.6572C63.4878 82.916 63.5513 83.1382 63.6782 83.3237C63.8101 83.5093 63.9907 83.6533 64.2202 83.7559C64.4546 83.8535 64.728 83.9023 65.0405 83.9023C65.353 83.9023 65.6265 83.8535 65.8608 83.7559C66.1001 83.6533 66.2856 83.5093 66.4175 83.3237C66.5542 83.1382 66.6226 82.916 66.6226 82.6572C66.6226 82.3984 66.5542 82.1763 66.4175 81.9907C66.2856 81.8052 66.1001 81.6636 65.8608 81.5659C65.6265 81.4634 65.353 81.4121 65.0405 81.4121ZM65.8682 79.2661H64.2422V76.959H65.8682V79.2661ZM72.3428 85.5356H70.7168V77.0615H72.3428V85.5356ZM67.897 85.6821C68.8247 85.6821 69.6279 85.7725 70.3066 85.9531C70.9854 86.1338 71.5054 86.3999 71.8667 86.7515C72.2329 87.0981 72.416 87.5107 72.416 87.9893C72.416 88.4629 72.2329 88.8706 71.8667 89.2124C71.5054 89.5591 70.9829 89.8228 70.2993 90.0034C69.6206 90.189 68.8198 90.2817 67.897 90.2817C66.9644 90.2817 66.1587 90.189 65.48 90.0034C64.8013 89.8228 64.2788 89.5591 63.9126 89.2124C63.5464 88.8706 63.3633 88.4629 63.3633 87.9893C63.3633 87.5107 63.5464 87.0981 63.9126 86.7515C64.2788 86.3999 64.8013 86.1338 65.48 85.9531C66.1587 85.7725 66.9644 85.6821 67.897 85.6821ZM67.897 86.9272C67.2915 86.9272 66.7788 86.9663 66.3589 87.0444C65.9438 87.1226 65.624 87.2422 65.3994 87.4033C65.1797 87.5596 65.0698 87.7549 65.0698 87.9893C65.0698 88.2139 65.1797 88.4043 65.3994 88.5605C65.624 88.7168 65.9463 88.8389 66.3662 88.9268C66.7861 89.0098 67.2964 89.0513 67.897 89.0513C68.4829 89.0513 68.9834 89.0098 69.3984 88.9268C69.8135 88.8389 70.1284 88.7168 70.3433 88.5605C70.563 88.4043 70.6729 88.2139 70.6729 87.9893C70.6729 87.7549 70.563 87.5596 70.3433 87.4033C70.1284 87.2422 69.8159 87.1226 69.4058 87.0444C68.9956 86.9663 68.4927 86.9272 67.897 86.9272ZM83.7539 85.3452C84.7207 85.3452 85.5532 85.4429 86.2515 85.6382C86.9546 85.8286 87.4966 86.1118 87.8774 86.4878C88.2632 86.8589 88.4561 87.3032 88.4561 87.8208C88.4561 88.3286 88.2632 88.7656 87.8774 89.1318C87.4966 89.5029 86.9521 89.7861 86.2441 89.9814C85.541 90.1816 84.7109 90.2817 83.7539 90.2817C82.8115 90.2817 81.9863 90.1816 81.2783 89.9814C80.5752 89.7861 80.0308 89.5029 79.645 89.1318C79.2642 88.7656 79.0737 88.3286 79.0737 87.8208C79.0737 87.3081 79.2642 86.8638 79.645 86.4878C80.0308 86.1118 80.5752 85.8286 81.2783 85.6382C81.9814 85.4429 82.8066 85.3452 83.7539 85.3452ZM83.7539 86.561C83.1191 86.561 82.5723 86.6099 82.1133 86.7075C81.6543 86.8052 81.3027 86.9492 81.0586 87.1396C80.8193 87.3301 80.6997 87.5571 80.6997 87.8208C80.6997 88.0796 80.8193 88.2993 81.0586 88.48C81.3027 88.6606 81.6543 88.7998 82.1133 88.8975C82.5723 88.9902 83.1191 89.0366 83.7539 89.0366C84.4033 89.0366 84.9551 88.9902 85.4092 88.8975C85.8682 88.7998 86.2197 88.6606 86.4639 88.48C86.7129 88.2944 86.8374 88.0747 86.8374 87.8208C86.8374 87.5571 86.7129 87.3301 86.4639 87.1396C86.2197 86.9492 85.8682 86.8052 85.4092 86.7075C84.9551 86.6099 84.4033 86.561 83.7539 86.561ZM87.687 78.9805H79.1982V77.6914H87.687V78.9805ZM89.8403 84.3784H77.814V83.0601H89.8403V84.3784ZM84.0835 83.4336H82.4722V80.665H84.0835V83.4336ZM88.3828 78.7827C88.3828 79.4956 88.3608 80.1108 88.3169 80.6284C88.2778 81.146 88.1729 81.7075 88.002 82.313L86.3979 82.1519C86.5542 81.5366 86.6494 80.9922 86.6836 80.5186C86.7227 80.0449 86.7446 79.4663 86.7495 78.7827V77.6914H88.3828V78.7827ZM98.4463 81.4048H96.0586V80.0938H98.4463V81.4048ZM98.4463 85.4844H96.0586V84.1514H98.4463V85.4844ZM102.182 90.2891H100.614V77.0615H102.182V90.2891ZM99.4937 89.6665H97.9629V77.2886H99.4937V89.6665ZM93.7515 78.0649C94.3374 78.0649 94.8477 78.2554 95.2822 78.6362C95.7168 79.0171 96.0537 79.564 96.293 80.2769C96.5322 80.9897 96.6519 81.8271 96.6519 82.7891C96.6519 83.7461 96.5322 84.5835 96.293 85.3013C96.0537 86.0142 95.7168 86.5635 95.2822 86.9492C94.8477 87.335 94.3374 87.5278 93.7515 87.5278C93.1753 87.5278 92.6699 87.335 92.2354 86.9492C91.8057 86.5635 91.4712 86.0142 91.2319 85.3013C90.9976 84.5835 90.8804 83.7461 90.8804 82.7891C90.8804 81.8223 90.9976 80.9849 91.2319 80.2769C91.4712 79.564 91.8081 79.0171 92.2427 78.6362C92.6772 78.2554 93.1802 78.0649 93.7515 78.0649ZM93.7515 79.603C93.4634 79.603 93.2168 79.7251 93.0117 79.9692C92.8066 80.2085 92.6479 80.5674 92.5356 81.0459C92.4282 81.5195 92.3745 82.1006 92.3745 82.7891C92.3745 83.4727 92.4282 84.0513 92.5356 84.5249C92.6479 84.9985 92.8066 85.3574 93.0117 85.6016C93.2168 85.8457 93.4634 85.9678 93.7515 85.9678C94.0444 85.9678 94.2959 85.8457 94.5059 85.6016C94.7158 85.3574 94.877 84.9985 94.9893 84.5249C95.1064 84.0464 95.165 83.4678 95.165 82.7891C95.165 82.1055 95.1064 81.5269 94.9893 81.0532C94.877 80.5747 94.7134 80.2134 94.4985 79.9692C94.2886 79.7251 94.0396 79.603 93.7515 79.603ZM107.638 87.8062L113.08 79.9985H107.609V78.3945H115.446V79.5884L110.011 87.396H115.475V89H107.638V87.8062ZM120.602 89.1538C119.84 89.1538 119.169 88.9829 118.588 88.6411C118.012 88.2993 117.567 87.8184 117.255 87.1982C116.942 86.5781 116.786 85.8628 116.786 85.0522C116.786 84.2319 116.942 83.5142 117.255 82.8989C117.567 82.2788 118.012 81.7979 118.588 81.4561C119.169 81.1143 119.84 80.9434 120.602 80.9434C121.369 80.9434 122.04 81.1143 122.616 81.4561C123.192 81.7979 123.634 82.2788 123.942 82.8989C124.25 83.5142 124.403 84.2319 124.403 85.0522C124.403 85.8628 124.25 86.5781 123.942 87.1982C123.634 87.8184 123.192 88.2993 122.616 88.6411C122.04 88.9829 121.369 89.1538 120.602 89.1538ZM120.617 87.667C121.027 87.667 121.374 87.5522 121.657 87.3228C121.945 87.0884 122.16 86.7734 122.301 86.3779C122.443 85.9824 122.514 85.5381 122.514 85.0449C122.514 84.5469 122.443 84.1001 122.301 83.7046C122.16 83.3091 121.945 82.9966 121.657 82.7671C121.374 82.5327 121.027 82.4155 120.617 82.4155C120.197 82.4155 119.84 82.5327 119.547 82.7671C119.254 82.9966 119.035 83.3091 118.888 83.7046C118.742 84.1001 118.668 84.5469 118.668 85.0449C118.668 85.543 118.742 85.9897 118.888 86.3853C119.035 86.7759 119.254 87.0884 119.547 87.3228C119.84 87.5522 120.197 87.667 120.617 87.667ZM127.729 89H125.868V81.0459H127.648V82.3936H127.736C127.931 81.9346 128.229 81.5781 128.629 81.3242C129.03 81.0703 129.523 80.9434 130.109 80.9434C130.661 80.9434 131.139 81.0605 131.544 81.2949C131.955 81.5244 132.27 81.8638 132.489 82.313C132.714 82.7622 132.826 83.3018 132.826 83.9316V89H130.966V84.2173C130.966 83.8608 130.905 83.5581 130.783 83.3091C130.661 83.0552 130.485 82.8599 130.255 82.7231C130.026 82.5864 129.745 82.5181 129.413 82.5181C129.081 82.5181 128.788 82.5889 128.534 82.7305C128.28 82.8721 128.083 83.0796 127.941 83.353C127.799 83.6265 127.729 83.9536 127.729 84.3345V89ZM138.144 89.1538C137.357 89.1538 136.674 88.9878 136.093 88.6558C135.512 88.3237 135.062 87.8501 134.745 87.2349C134.433 86.6196 134.276 85.8994 134.276 85.0742C134.276 84.2588 134.433 83.5386 134.745 82.9136C135.062 82.2837 135.504 81.7979 136.071 81.4561C136.637 81.1143 137.296 80.9434 138.048 80.9434C138.727 80.9434 139.34 81.0874 139.887 81.3755C140.434 81.6636 140.868 82.1104 141.19 82.7158C141.513 83.3164 141.674 84.061 141.674 84.9497V85.5356H135.163V84.2686H139.887C139.887 83.9072 139.811 83.585 139.66 83.3018C139.508 83.0186 139.293 82.7964 139.015 82.6353C138.742 82.4741 138.427 82.3936 138.07 82.3936C137.689 82.3936 137.353 82.4839 137.06 82.6646C136.767 82.8452 136.537 83.0894 136.371 83.397C136.21 83.6997 136.127 84.0317 136.122 84.3931V85.4771C136.122 85.9409 136.205 86.3413 136.371 86.6782C136.542 87.0103 136.781 87.2642 137.089 87.4399C137.396 87.6157 137.755 87.7036 138.166 87.7036C138.429 87.7036 138.666 87.667 138.876 87.5938C139.091 87.5205 139.274 87.4253 139.425 87.3081C139.577 87.186 139.691 87.042 139.77 86.876H141.601C141.488 87.3301 141.276 87.7305 140.963 88.0771C140.656 88.4189 140.26 88.6851 139.777 88.8755C139.293 89.061 138.749 89.1538 138.144 89.1538Z" fill="white"/>
</svg>
