<svg width="296" height="209" viewBox="0 0 296 209" fill="none" xmlns="http://www.w3.org/2000/svg">
<path d="M129.506 117.132H133.961V117.967H129.506V117.132ZM128.582 119.391H134.924V120.226H128.582V119.391ZM131.265 117.569H132.176V124C132.176 124.24 132.147 124.424 132.087 124.552C132.027 124.689 131.915 124.796 131.753 124.873C131.599 124.941 131.393 124.984 131.137 125.001C130.88 125.018 130.555 125.027 130.161 125.027C130.135 124.907 130.093 124.766 130.033 124.603C129.973 124.441 129.913 124.304 129.853 124.193C130.135 124.201 130.388 124.205 130.61 124.205C130.833 124.205 130.983 124.201 131.06 124.193C131.197 124.193 131.265 124.124 131.265 123.987V117.569ZM131.663 114.192C131.458 114.595 131.197 115.018 130.88 115.463C130.572 115.908 130.225 116.34 129.84 116.76C129.455 117.171 129.053 117.539 128.633 117.864C128.582 117.744 128.505 117.607 128.402 117.453C128.308 117.29 128.214 117.153 128.12 117.042C128.548 116.743 128.959 116.379 129.352 115.951C129.746 115.523 130.101 115.074 130.418 114.603C130.734 114.124 130.987 113.666 131.175 113.23H132.087C132.343 113.7 132.647 114.171 132.998 114.642C133.349 115.104 133.721 115.536 134.115 115.938C134.517 116.332 134.915 116.666 135.309 116.94C135.215 117.059 135.116 117.201 135.014 117.363C134.919 117.526 134.834 117.676 134.757 117.812C134.372 117.504 133.982 117.149 133.589 116.747C133.203 116.336 132.844 115.908 132.51 115.463C132.176 115.018 131.894 114.595 131.663 114.192ZM133.037 121.086L133.82 120.804C133.999 121.112 134.175 121.441 134.346 121.792C134.526 122.143 134.684 122.485 134.821 122.819C134.966 123.144 135.073 123.435 135.142 123.692L134.295 124.013C134.235 123.765 134.136 123.469 133.999 123.127C133.871 122.785 133.721 122.438 133.55 122.087C133.387 121.728 133.216 121.394 133.037 121.086ZM129.455 120.906L130.289 121.086C130.144 121.634 129.947 122.169 129.699 122.691C129.459 123.204 129.198 123.645 128.916 124.013C128.864 123.961 128.796 123.91 128.71 123.859C128.625 123.799 128.535 123.743 128.441 123.692C128.347 123.632 128.261 123.585 128.184 123.551C128.475 123.208 128.728 122.802 128.942 122.331C129.155 121.86 129.327 121.385 129.455 120.906ZM124.089 116.978H124.923V125.014H124.089V116.978ZM124.59 118.506H127.645V119.173H124.59V118.506ZM124.936 115.54H127.44V116.233H124.936V115.54ZM124.603 121.587H128.12V122.357H124.603V121.587ZM124.603 123.23H128.312V124H124.603V123.23ZM124.603 116.978H128.056V120.727H124.603V120.046H127.247V117.658H124.603V116.978ZM125.501 113.217H126.002V113.422H126.284V113.679C126.036 114.141 125.694 114.672 125.257 115.271C124.829 115.861 124.299 116.417 123.665 116.94C123.597 116.845 123.499 116.738 123.37 116.619C123.25 116.499 123.139 116.413 123.036 116.362C123.627 115.9 124.132 115.382 124.551 114.809C124.971 114.235 125.287 113.705 125.501 113.217ZM125.796 113.217H126.464C126.721 113.439 126.982 113.687 127.247 113.961C127.521 114.235 127.773 114.509 128.004 114.783C128.244 115.048 128.437 115.292 128.582 115.515L127.979 116.169C127.842 115.955 127.658 115.711 127.427 115.438C127.204 115.155 126.965 114.873 126.708 114.59C126.46 114.299 126.207 114.047 125.95 113.833H125.796V113.217ZM139.723 114.623C140.312 114.623 140.837 114.738 141.296 114.968C141.756 115.193 142.115 115.511 142.375 115.92C142.638 116.326 142.769 116.787 142.769 117.306C142.769 117.824 142.638 118.288 142.375 118.697C142.115 119.102 141.756 119.42 141.296 119.65C140.837 119.876 140.312 119.988 139.723 119.988C139.138 119.988 138.612 119.876 138.144 119.65C137.676 119.42 137.31 119.102 137.047 118.697C136.788 118.288 136.658 117.824 136.658 117.306C136.658 116.787 136.788 116.326 137.047 115.92C137.31 115.511 137.676 115.193 138.144 114.968C138.612 114.738 139.138 114.623 139.723 114.623ZM139.723 115.663C139.36 115.663 139.034 115.73 138.745 115.864C138.461 115.998 138.238 116.19 138.075 116.441C137.912 116.691 137.83 116.98 137.83 117.306C137.83 117.632 137.912 117.918 138.075 118.164C138.238 118.411 138.461 118.603 138.745 118.741C139.034 118.879 139.36 118.948 139.723 118.948C140.087 118.948 140.411 118.879 140.695 118.741C140.983 118.603 141.207 118.411 141.365 118.164C141.528 117.918 141.61 117.632 141.61 117.306C141.61 116.98 141.528 116.691 141.365 116.441C141.207 116.19 140.983 115.998 140.695 115.864C140.411 115.73 140.087 115.663 139.723 115.663ZM145.346 125.091H144.161V113.827H145.346V125.091ZM136.113 121.681C137.04 121.677 137.88 121.666 138.632 121.649C139.389 121.633 140.191 121.599 141.039 121.549C141.892 121.495 142.696 121.413 143.453 121.305L143.54 122.176C142.759 122.318 141.946 122.427 141.102 122.502C140.262 122.573 139.472 122.619 138.733 122.64C137.993 122.661 137.172 122.671 136.269 122.671L136.113 121.681ZM159.067 118.528H155.964V117.569H159.067V118.528ZM154.109 116.685C154.109 117.546 153.979 118.377 153.72 119.18C153.461 119.978 153.095 120.686 152.623 121.305C152.151 121.923 151.603 122.397 150.981 122.728L150.222 121.762C150.795 121.491 151.3 121.089 151.739 120.559C152.182 120.024 152.525 119.418 152.767 118.741C153.01 118.064 153.131 117.379 153.131 116.685V114.761H154.109V116.685ZM154.34 116.685C154.34 117.375 154.46 118.045 154.698 118.697C154.94 119.345 155.277 119.922 155.707 120.427C156.142 120.929 156.639 121.307 157.199 121.562L156.484 122.527C155.857 122.205 155.31 121.75 154.842 121.161C154.378 120.567 154.017 119.886 153.758 119.117C153.503 118.344 153.375 117.533 153.375 116.685V114.761H154.34V116.685ZM159.656 125.091H158.471V113.827H159.656V125.091ZM170.13 125.053H168.945V113.827H170.13V125.053ZM171.873 119.305H169.823V118.315H171.873V119.305ZM167.19 115.018C167.19 116.142 167.015 117.193 166.664 118.171C166.317 119.144 165.761 120.043 164.996 120.866C164.236 121.685 163.256 122.391 162.057 122.985L161.392 122.057C162.424 121.539 163.283 120.941 163.968 120.264C164.654 119.583 165.168 118.825 165.51 117.989C165.853 117.149 166.024 116.227 166.024 115.225V115.018H167.19ZM166.626 116.008H161.944V115.018H166.626V116.008ZM102.77 137.088H96.4707V128.307H102.77V137.088ZM98.082 135.792H101.18V129.581H98.082V135.792ZM106.783 140.326H105.135V127.062H106.783V140.326ZM119.784 140.289H118.165V127.062H119.784V140.289ZM111.104 136.546H109.493V128.343H111.104V136.546ZM110.628 135.594C111.683 135.594 112.74 135.548 113.8 135.455C114.859 135.357 115.917 135.204 116.971 134.994L117.184 136.349C116.085 136.573 114.996 136.734 113.917 136.832C112.838 136.93 111.742 136.979 110.628 136.979H109.493V135.594H110.628ZM132.088 136.495H130.484V134.378H132.088V136.495ZM137.333 134.73H125.277V133.434H137.333V134.73ZM135.86 140.289H134.227V137.315H126.61V136.004H135.86V140.289ZM128.441 128.702H134.154V127.384H135.772V132.445H126.837V127.384H128.441V128.702ZM134.154 131.156V129.911H128.441V131.156H134.154ZM145.118 128.373C145.118 129.833 144.95 131.144 144.613 132.306C144.281 133.468 143.675 134.552 142.796 135.558C141.917 136.559 140.697 137.45 139.134 138.231L138.241 137C139.598 136.332 140.663 135.582 141.434 134.752C142.21 133.917 142.755 133.006 143.067 132.02C143.38 131.029 143.536 129.881 143.536 128.578V128.373H145.118ZM144.503 129.691H139.039V128.373H144.503V129.691ZM138.563 133.353L138.351 131.947L143.492 131.632V132.884L138.563 133.353ZM148.604 140.282H146.979V127.062H148.604V140.282ZM150.567 133.587H148.187V132.24H150.567V133.587ZM162.704 140.289H161.144V127.062H162.704V140.289ZM158.99 133.412H157.042V131.947H158.99V133.412ZM160.06 139.645H158.514V127.34H160.06V139.645ZM157.372 129.947H151.314V128.629H157.372V129.947ZM151.058 135.836C152.23 135.836 153.392 135.816 154.544 135.777C155.702 135.733 156.727 135.65 157.621 135.528L157.73 136.708C156.812 136.893 155.787 137.02 154.654 137.088C153.526 137.152 152.389 137.184 151.241 137.184L151.058 135.836ZM153.717 136.217H152.245V129.464H153.717V136.217ZM156.449 136.217H154.955V129.464H156.449V136.217ZM168.08 137.806L173.521 129.999H168.05V128.395H175.887V129.588L170.453 137.396H175.917V139H168.08V137.806ZM181.043 139.154C180.282 139.154 179.61 138.983 179.029 138.641C178.453 138.299 178.009 137.818 177.696 137.198C177.384 136.578 177.228 135.863 177.228 135.052C177.228 134.232 177.384 133.514 177.696 132.899C178.009 132.279 178.453 131.798 179.029 131.456C179.61 131.114 180.282 130.943 181.043 130.943C181.81 130.943 182.481 131.114 183.058 131.456C183.634 131.798 184.076 132.279 184.383 132.899C184.691 133.514 184.845 134.232 184.845 135.052C184.845 135.863 184.691 136.578 184.383 137.198C184.076 137.818 183.634 138.299 183.058 138.641C182.481 138.983 181.81 139.154 181.043 139.154ZM181.058 137.667C181.468 137.667 181.815 137.552 182.098 137.323C182.386 137.088 182.601 136.773 182.743 136.378C182.884 135.982 182.955 135.538 182.955 135.045C182.955 134.547 182.884 134.1 182.743 133.705C182.601 133.309 182.386 132.997 182.098 132.767C181.815 132.533 181.468 132.416 181.058 132.416C180.638 132.416 180.282 132.533 179.989 132.767C179.696 132.997 179.476 133.309 179.33 133.705C179.183 134.1 179.11 134.547 179.11 135.045C179.11 135.543 179.183 135.99 179.33 136.385C179.476 136.776 179.696 137.088 179.989 137.323C180.282 137.552 180.638 137.667 181.058 137.667ZM188.17 139H186.31V131.046H188.089V132.394H188.177C188.373 131.935 188.67 131.578 189.071 131.324C189.471 131.07 189.964 130.943 190.55 130.943C191.102 130.943 191.581 131.061 191.986 131.295C192.396 131.524 192.711 131.864 192.931 132.313C193.155 132.762 193.268 133.302 193.268 133.932V139H191.407V134.217C191.407 133.861 191.346 133.558 191.224 133.309C191.102 133.055 190.926 132.86 190.697 132.723C190.467 132.586 190.187 132.518 189.854 132.518C189.522 132.518 189.229 132.589 188.976 132.73C188.722 132.872 188.524 133.08 188.382 133.353C188.241 133.626 188.17 133.954 188.17 134.334V139ZM198.585 139.154C197.799 139.154 197.115 138.988 196.534 138.656C195.953 138.324 195.504 137.85 195.187 137.235C194.874 136.62 194.718 135.899 194.718 135.074C194.718 134.259 194.874 133.539 195.187 132.914C195.504 132.284 195.946 131.798 196.512 131.456C197.079 131.114 197.738 130.943 198.49 130.943C199.168 130.943 199.781 131.087 200.328 131.375C200.875 131.664 201.31 132.11 201.632 132.716C201.954 133.316 202.115 134.061 202.115 134.95V135.536H195.604V134.269H200.328C200.328 133.907 200.252 133.585 200.101 133.302C199.95 133.019 199.735 132.796 199.457 132.635C199.183 132.474 198.868 132.394 198.512 132.394C198.131 132.394 197.794 132.484 197.501 132.665C197.208 132.845 196.979 133.089 196.812 133.397C196.651 133.7 196.568 134.032 196.563 134.393V135.477C196.563 135.941 196.646 136.341 196.812 136.678C196.983 137.01 197.223 137.264 197.53 137.44C197.838 137.616 198.197 137.704 198.607 137.704C198.871 137.704 199.107 137.667 199.317 137.594C199.532 137.521 199.715 137.425 199.867 137.308C200.018 137.186 200.133 137.042 200.211 136.876H202.042C201.93 137.33 201.717 137.73 201.405 138.077C201.097 138.419 200.702 138.685 200.218 138.875C199.735 139.061 199.19 139.154 198.585 139.154Z" fill="white"/>
<path d="M3.97966 62.8489C4.03177 68.0548 3.97605 74.8789 3.89958 80.0652C3.87587 81.6906 3.76985 80.8675 3.7487 81.9895C3.70748 84.1839 3.75948 86.2284 3.71037 88.3969C3.69358 89.1156 3.52565 88.221 3.51189 88.9746C3.43767 93.1041 3.48045 97.0107 3.44475 101.194C3.26863 121.799 3.20559 142.054 3.12908 162.911C3.10399 169.788 2.95159 178.148 3.01824 185.252C3.02617 186.081 3.17357 185.587 3.18572 185.744C3.3717 188.219 3.07413 187.396 3.0346 189.012C2.89286 194.834 2.86862 201.249 2.90794 207L2 206.092C2.58281 206.088 3.15881 206.083 3.72668 206.078C6.35219 206.054 3.71976 205.761 6.36335 205.925C6.54694 205.936 5.88077 206.093 6.60079 206.109C8.23366 206.147 11.3316 206.119 12.5971 206.131C15.036 206.156 15.4395 206.155 17.7464 206.156C20.8999 206.16 24.6508 206.238 28.0343 206.202C28.7565 206.194 27.8004 206.034 28.9522 206.007C30.1051 205.979 33.1548 205.993 34.183 206.031C35.2115 206.069 34.7736 206.195 34.9556 206.224C36.4529 206.468 39.9808 206.13 40.4345 206.121C48.7105 205.979 55.8076 206.172 63.5762 206.171C69.4737 206.17 75.7798 206.107 81.3914 206.115C88.0769 206.126 93.743 206.213 100.238 206.198C100.923 206.197 100.12 206.008 100.957 206.006C109.852 205.984 118.684 206.005 127.54 206.132C128.428 206.145 127.284 206.311 128.171 206.334C133.604 206.47 142.2 206.797 145.426 206.076C149.106 206.104 153.574 206.133 156.866 206.278C158.989 206.372 156.927 206.552 159.535 206.475C160.123 206.458 159.358 206.3 160.24 206.286C163.953 206.228 168.01 206.28 171.683 206.198C172.43 206.181 172.226 206.039 172.438 206.014C174.217 205.807 177.179 206.149 177.825 206.174C182.741 206.359 186.332 206.286 190.912 206.29C191.975 206.291 190.719 206.101 191.742 206.096C197.046 206.068 202.541 206.085 207.735 206.169C208.891 206.188 207.828 206.35 208.38 206.368C210.815 206.443 211.354 206.137 213.689 206.203C214.181 206.216 213.904 206.355 213.994 206.37C215.399 206.61 216.62 206.271 216.981 206.263C221.553 206.161 224.476 206.515 228.892 206.465C229.421 206.458 228.229 206.283 229.714 206.276C239.61 206.227 250.075 206.275 259.87 206.416C261.392 206.437 260.305 206.569 260.401 206.586C261.963 206.839 262.974 206.499 263.47 206.486C267.388 206.394 271.047 206.679 273.709 206.274C280.485 206.332 287.248 206.328 294 206.328L293.328 207C293.328 197.221 293.336 187.467 293.55 177.733C293.555 177.524 293.722 177.899 293.73 177.482C293.824 172.456 293.563 173.422 293.245 170.096C293.165 169.259 293.55 166.711 293.578 166.485C293.682 165.664 293.931 166.516 293.951 166.241C294.109 163.965 293.285 164.335 293.284 161.265C293.286 161.169 293.437 161.572 293.452 161.315C293.5 160.514 293.44 159.72 293.492 158.937C293.613 157.143 294.013 156.505 293.78 153.766C293.75 153.419 293.282 153.949 293.304 151.207C293.313 150.114 293.305 145.277 293.336 143.921C293.366 142.567 293.517 143.497 293.523 143.4C293.723 139.751 293.805 141.135 294.1 139.307C294.394 137.479 293.693 137.986 293.615 137.241C293.537 136.494 293.701 133.819 293.758 133.162C293.816 132.505 293.911 133.324 293.944 132.74C294.155 128.866 293.596 131.04 293.484 129.763C293.221 126.754 293.741 124.41 293.792 121.655C293.806 120.909 293.687 121.518 293.676 120.854C293.634 118.225 293.796 116.644 293.647 113.653C293.623 113.163 293.31 110.745 293.54 109.18C293.573 108.958 293.702 109.588 293.732 108.468C293.775 106.794 293.803 103.778 293.76 101.979C293.728 100.651 293.515 102.173 293.581 100.501C293.61 99.7581 293.735 101.135 293.781 99.7392C293.826 98.3505 293.82 94.7998 293.816 93.4488C293.812 92.1001 293.65 92.8383 293.639 92.7293C293.576 92.0698 293.498 89.4815 293.498 89.2528C293.48 78.8012 293.703 69.0867 293.678 59L294 59.3224C292.953 59.325 291.901 59.3303 290.844 59.3388C289.963 59.3457 290.55 59.5164 290.416 59.5192C287.398 59.5908 289.777 59.1368 287.669 58.9848C287.974 59.3313 286.729 59.2686 284.604 59.3066C283.579 59.3252 284.137 59.4593 284.044 59.4731C282.525 59.6769 281.467 59.4136 281.194 59.3598C280.188 59.1617 279.093 59.3958 278.409 59.2634C277.725 59.1319 279.299 58.9371 277.261 58.9396C276.689 59.0637 278.202 59.3878 276.655 59.4404C270.815 59.6391 259.913 59.3847 255.217 59.3583C250.531 59.3319 249.018 59.3548 246.287 59.31C241.354 59.2289 243.162 59.4694 240.099 59.5795C237.027 59.6896 238.521 59.0978 238.079 58.9706C237.646 58.8435 237.172 58.9744 236.633 58.9045C236.096 58.8346 237.259 58.7481 235.995 58.7219C234.731 58.6956 231.273 58.9219 230.825 59.0549C229.877 59.3367 231.435 59.6324 228.089 59.5285C227.896 59.5223 228.521 59.3667 227.784 59.351C221.931 59.2312 215.85 59.2238 210.004 59.1178C209.201 59.103 209.919 58.9299 209.451 58.9194C204.579 58.8086 206.321 59.1005 203.65 59.4247C204.25 58.9933 202.773 58.7293 199.075 58.7267C196.852 58.7251 197.235 58.9135 195.797 59.0463C195.365 59.0864 193.792 58.957 193.507 59.0456C192.568 59.3353 194.049 59.6596 190.236 59.5304C190.069 59.5243 190.602 59.3657 190.024 59.3561C186.288 59.2933 185.841 59.5963 181.802 59.633C178.636 59.6618 173.006 59.477 169.402 59.447C169.478 58.9619 166.073 59.0729 164.692 59.4074C162.353 59.3937 159.826 59.4126 157.565 59.3664C156.787 59.3506 157.298 59.2102 157.2 59.195C155.695 58.9569 154.679 59.2823 154.174 59.2951C148.701 59.4191 144.243 59.1725 139.02 59.4135C138.835 59.4222 138.534 59.7591 137.138 59.5131C137.048 59.4962 138.773 59.3428 136.316 59.331C133.859 59.3191 129.227 59.1385 125.815 59.2946C124.99 59.3322 122.902 59.6057 121.226 59.392C121.003 59.363 121.247 59.2664 120.925 59.2126C119.883 59.0412 119.314 59.3818 118.09 59.0925C117.481 58.9486 116.545 58.8227 115.336 58.757L115.498 58.8194C114.633 57.9515 113.518 56.9418 112.165 55.8592C112.079 55.7902 111.294 55.4462 110.492 54.7194C109.213 53.5589 107.428 51.8772 106.086 50.6724C105.444 50.0955 105.743 50.5898 105.629 50.4918C101.251 46.6785 98.279 43.8037 93.699 39.5956C92.8597 38.8239 90.2712 36.8024 88.7514 35.1918C87.0821 33.4237 89.4839 34.4777 85.2117 30.8974C83.489 29.4529 80.6761 28.3264 78.0364 25.2235C72.1254 20.0853 66.9271 15.0356 60.9615 9.92539C60.6934 9.6955 59.6684 9.16521 59.0539 8.60695C58.142 7.77776 57.7301 7.22403 57.0819 6.62873C55.3298 5.01656 53.6308 3.54052 51.9386 2.0532L52.038 2.04959C51.1915 2.95098 50.3417 3.85019 49.4639 4.75406C48.5237 5.72263 48.7493 5.28476 47.6279 6.43999C46.5072 7.59459 45.8974 8.49655 44.3218 10.0064C43.1314 11.1462 41.7172 12.0705 40.1706 13.6157C40.3824 13.9348 39.3365 15.0117 37.5585 17.0037C37.2169 17.3867 37.6919 17.0804 37.5351 17.2663C36.8992 18.0245 36.1882 18.6086 35.5911 19.3351C35.4457 19.5116 35.5303 19.6079 35.4166 19.7572C34.4534 21.0305 32.4362 22.7145 32.0893 23.0033C30.7608 24.1112 30.3237 24.8055 29.3559 25.7045C28.3896 26.6018 29.6865 25.1178 28.5879 26.1951C26.3109 28.4284 23.4871 31.3957 21.2391 33.7258C20.3427 34.6561 21.0764 34.1388 20.9509 34.2747C19.1308 36.2304 17.1281 38.0523 16.3463 39.3554C14.43 40.0824 15.2913 40.5757 12.5185 43.2067C12.2998 43.4137 11.7354 43.4019 12.4917 42.5272C13.248 41.6526 14.555 40.4801 15.5969 39.2593C15.8437 38.9703 17.0695 37.1339 17.258 36.9038C18.735 35.1016 19.4102 35.2942 19.52 35.2292C20.7508 34.4793 22.2893 32.2742 22.7531 31.75C24.8747 29.3514 26.8215 27.4521 28.6078 25.4572C29.7766 24.153 29.6023 23.748 30.5637 22.7658C33.7595 19.5006 35.2733 18.7437 37.9026 15.2993C38.4668 14.5612 37.5109 14.9148 40.055 12.7721C40.2149 12.6375 42.1471 11.0884 42.9847 9.92546C43.0899 9.77934 42.9926 9.69372 43.1477 9.51676C44.1885 8.33253 44.9908 7.6467 46.1443 6.37551C47.2976 5.10444 48.6743 3.56611 50.0634 2.18431C50.3917 1.85771 50.7793 1.51696 51.1555 1.20128L51.9353 0.397109L52.7573 1.14323C53.2657 1.70995 53.7128 2.2511 53.9442 2.50756C55.0167 3.7013 56.4751 4.63842 57.0722 5.45274C57.6748 6.27339 56.0158 5.20347 57.8696 7.0514C58.1665 6.86619 58.5627 6.7584 58.9046 6.61114C63.1554 10.4518 67.2728 14.3029 71.5557 18.1365C72.0869 18.6115 71.666 17.9897 72.2386 18.4955C74.6538 20.6299 76.6603 22.6087 79.1793 24.8063C81.1297 26.5068 83.3667 28.2621 85.4101 30.0358C86.3812 31.4272 89.4528 34.0153 91.5972 35.9921C92.3485 36.6844 92.229 36.7151 92.7467 37.226C94.7012 39.1514 93.9739 38.0396 94.5682 38.5024C97.1174 40.4889 96.8078 41.2456 99.6459 43.7737C99.7961 43.9078 101.9 45.2492 102.169 45.4569C103.882 46.7738 102.339 45.8015 103.321 46.7258C105.113 48.4132 106.319 49.6301 108.546 51.4723C109.196 52.0091 110.869 53.1701 111.952 54.4109C112.095 54.574 111.916 54.5953 112.039 54.717C114.28 56.9117 114.626 56.6501 116.054 57.7408C116.134 57.8016 116.215 57.8654 116.297 57.9318L115.336 57.563C117.12 57.471 119.617 57.7378 120.149 57.8178C121.622 58.0371 119.02 57.9115 118.94 57.933C118.003 58.1891 120.021 58.145 121.563 58.1667C121.786 58.5844 123.942 58.5594 123.161 58.1874C123.072 58.1468 121.872 58.1858 121.563 58.1667C122.916 57.7568 125.285 57.7043 127.903 58.0873C129.128 58.2669 127.97 58.4762 131.691 58.3996C133.38 58.365 132.727 58.0774 134.218 57.999C137.623 57.82 142.048 58.0884 145.558 58.0461C146.832 58.0307 145.591 57.8733 146.462 57.8574C148.773 57.8146 150.811 57.9328 153.132 57.8722C153.342 57.8666 152.828 57.7017 153.55 57.6996C159.021 57.6805 163.785 57.7861 169.497 57.789C172.258 57.7903 177.192 57.6994 180.051 57.7177C185.007 57.7484 191.103 57.9881 195.336 57.9299C198.097 57.8926 197.491 57.7277 198.674 57.6154C200.957 57.3977 204.998 57.7877 205.543 57.8481C205.559 57.8501 203.183 57.8889 204.451 57.9736C205.188 58.1499 205.516 57.8488 205.543 57.8481C205.9 57.8871 210.646 57.9245 211.588 57.893C212.101 57.8758 211.814 57.7196 212.081 57.7136C218.427 57.5738 224.785 57.5341 231.222 57.6071C231.335 57.6103 231.164 57.785 231.431 57.7902C235.157 57.8679 237.543 57.6542 240.617 57.5273C243.689 57.4004 246.126 57.4429 247.945 57.7429C250.264 57.7051 253.59 57.8377 255.505 57.9181C257.419 57.9986 257.686 57.6585 257.854 57.6518C263.107 57.4366 266.144 57.6313 271.594 57.6616C274.185 57.6765 279.325 57.6272 282.13 57.59C284.347 57.5601 285.683 57.6398 287.726 57.5888C288.002 57.582 287.723 57.4306 287.807 57.4247C290.087 57.2436 288.992 57.6138 289.462 57.6799C290.925 57.886 291.909 58.0095 294 57.9693L295.035 57.9738L295.031 59C295.037 59.3479 295.049 59.7265 295.065 60.1431C295.091 60.8166 295.624 62.7783 295.655 64.006C295.694 65.6021 295.503 64.9997 295.55 66.671C295.553 66.814 295.671 66.7842 295.666 67.8157C295.644 72.6037 295.575 77.8237 295.587 82.7993C295.588 83.479 295.775 82.6076 295.78 83.5896C295.802 88.1974 295.795 93.2479 295.707 97.7369C295.685 98.8418 295.554 98.1491 295.515 98.389C295.28 99.8615 295.622 101.95 295.628 102.294C295.793 110.513 295.483 116.804 295.631 125.181C295.639 125.637 296.006 129.147 295.691 130.713C295.671 130.82 295.349 132.369 295.569 133.739C295.583 133.825 295.748 132.859 295.731 134.544C295.714 136.229 295.825 138.94 295.643 141.256C295.586 141.989 295.265 143.722 295.521 145.909C295.539 146.052 296.117 149.428 295.718 150.633C295.652 150.829 295.23 150.624 295.447 153.234C295.489 153.733 295.583 152.828 295.641 154.142C295.732 156.155 295.619 158.822 295.807 161.297C295.84 161.728 296.127 163.566 295.909 165.039C295.875 165.27 295.734 164.831 295.719 165.61C295.643 169.311 295.737 173.186 295.64 176.943C295.605 178.274 295.378 177.594 295.317 178.981C295.256 180.369 295.197 183.164 295.301 184.616C295.405 186.068 295.768 184.482 295.797 186.657C295.888 193.464 295.803 200.224 295.737 207L295.729 208.744L294 208.737C291.361 208.711 288.72 208.688 286.073 208.679C284.673 208.675 285.834 208.804 283.77 208.807C276.16 208.817 263.021 208.938 256.418 208.662C251.127 208.441 257.785 208.273 253.742 208.183C251.791 208.14 249.68 208.562 249.209 208.576C244.609 208.71 241.411 208.524 237.27 208.581C236.415 208.593 237.254 208.764 236.526 208.772C234.04 208.802 231.427 208.725 229.052 208.739C227.986 208.746 228.182 208.877 227.202 208.867C224.856 208.844 222.781 208.789 220.493 208.667C220.285 208.655 221.691 208.493 219.955 208.487C217.145 208.478 213.657 208.357 210.425 208.482C209.466 208.519 209.428 208.818 207.367 208.611C206.934 208.568 207.486 208.21 205.084 208.52C204.68 208.571 200.646 208.989 198.666 208.72C198.144 208.649 196.811 208.355 195.658 208.401C195.501 208.409 196.128 208.569 195.172 208.585C191.804 208.637 188.274 208.62 184.813 208.67C183.889 208.684 185.265 208.85 183.888 208.865C180.101 208.907 175.372 208.865 171.669 208.813C170.303 208.793 171.247 208.656 171.148 208.641C169.55 208.398 168.606 208.726 168.075 208.745C164.777 208.86 162.266 208.706 159.226 208.746C158.387 208.757 158.982 208.914 158.815 208.928C157.083 209.064 158.373 208.783 157.277 208.752C154.206 208.664 150.782 208.677 147.677 208.697C146.536 208.704 147.818 208.886 146.794 208.891C140.735 208.922 134.435 208.905 128.522 208.805C127.408 208.785 128.109 208.646 127.877 208.614C126.277 208.39 123.933 208.695 123.394 208.724C120.941 208.856 119.989 208.733 117.823 208.756C107.242 208.871 94.1784 208.789 84.1911 208.738C71.1766 208.673 61.0777 208.54 48.667 208.575C47.8782 208.577 48.6735 208.763 47.9936 208.767C39.2148 208.812 30.5722 208.739 21.7758 208.793C21.054 208.797 22.0945 208.973 20.9359 208.986C18.5595 209.012 15.5491 209.003 13.1464 208.947C11.9744 208.919 13.5464 208.768 12.3667 208.744C9.61996 208.687 6.67564 208.675 3.85426 208.703C2.6536 208.715 4.4651 208.896 2.9045 208.898C2.60285 208.898 2.30135 208.899 2 208.899L0.0925405 208.891L0.100683 207C0.0827916 196.681 0.05991 186.529 0.286801 176.091C0.302839 175.354 0.66934 174.708 0.599056 173.142C0.497342 173.024 0.377695 173.031 0.268979 172.979C0.210415 157.504 0.337469 142.186 0.357113 126.668C0.3579 126.013 0.163709 127.144 0.164243 125.877C0.167114 118.545 0.113317 111.426 0.306332 103.926C0.325208 103.182 0.666837 103.564 0.615169 101.371C0.605741 100.984 0.56018 97.6817 0.486019 96.8279C0.474833 96.7119 0.315374 97.3144 0.310727 96.2502C0.286512 90.0656 0.322916 83.5846 0.420346 77.4108C0.436375 76.4144 0.606185 77.4755 0.619075 76.7658C0.709218 71.7316 0.580131 66.2559 0.734309 61.4455C0.838122 58.2256 1.13165 59.4177 1.42059 57.7067C1.46135 57.4647 1.46781 55.4708 1.63592 55.3677C2.05864 55.103 2.52152 56.0688 2.9721 55.6725C3.06915 55.5888 2.96462 52.9185 3.19915 54.4994C3.21484 54.6099 3.29268 56.5459 3.37224 57.0227C3.42725 57.3547 3.59821 56.7564 3.66863 57.4338C3.73897 58.1111 3.59566 58.8554 3.67839 59.9783C3.76215 61.1008 3.95664 60.6072 3.97966 62.8489ZM264.123 58.2778C265.896 58.4411 266.157 57.8429 264.24 57.986C264.147 57.9936 264.032 58.2698 264.123 58.2778ZM66.9471 14.6168C68.4931 16.3628 69.9313 17.135 68.8525 15.8901C67.7737 14.6456 66.4758 14.0852 66.9471 14.6168ZM48.5769 4.91899C50.6036 3.11082 50.2875 2.21562 48.4011 4.42552C48.2912 4.55383 48.4585 5.02475 48.5769 4.91899ZM1.50286 65.6415C1.51081 65.617 1.51855 64.1838 1.51067 64.1495C1.32069 63.3863 1.30534 66.2523 1.50286 65.6415ZM32.2044 22.2537C32.873 21.7237 34.4644 19.8771 33.6335 20.5355C32.9648 21.0656 31.3718 22.9138 32.2044 22.2537ZM294.084 121.58C294.075 121.608 294.067 122.636 294.117 122.615C294.28 122.545 294.234 121.115 294.084 121.58ZM4.12744 51.4757C8.29974 47.1814 11.3206 45.0499 6.74512 49.6956C5.91655 50.5369 8.34756 47.7062 7.26054 48.7459C5.2719 50.6486 4.32367 52.2698 2.209 54.1295C1.82585 54.4658 3.8883 51.7196 4.1341 51.4674C4.13188 51.4701 4.12965 51.4729 4.12744 51.4757ZM265.144 58.9963C265.179 59.0042 266.602 59.0117 266.636 59.0038C267.406 58.8139 264.541 58.7987 265.144 58.9963ZM293.714 181.54C293.697 181.618 293.681 184.919 293.697 185.027C294.007 186.749 294.04 180.075 293.714 181.54ZM169.345 59.434C167.793 59.6251 165.936 59.6476 164.699 59.4076C166.241 59.4204 167.794 59.4223 169.345 59.434Z" fill="white"/>
</svg>
