<svg width="296" height="272" viewBox="0 0 296 272" fill="none" xmlns="http://www.w3.org/2000/svg">
<path d="M3.97966 12.6681C4.03177 18.9442 3.97605 27.1713 3.89958 33.4237C3.87587 35.3832 3.76985 34.391 3.7487 35.7437C3.70748 38.3892 3.75948 40.8539 3.71037 43.4683C3.69358 44.3347 3.52565 43.2562 3.51189 44.1647C3.43767 49.1432 3.48045 53.8529 3.44475 58.8962C3.26863 83.7375 3.20559 108.156 3.12908 133.301C3.10399 141.592 2.95159 151.671 3.01824 160.235C3.02617 161.235 3.17357 160.639 3.18572 160.829C3.3717 163.812 3.07413 162.82 3.0346 164.768C2.87849 172.499 2.86492 181.096 2.9218 188.536C2.94644 191.701 3.23921 188.527 3.07488 191.714C3.06378 191.936 2.90725 191.133 2.89055 192.001C2.853 193.969 2.88098 197.704 2.86858 199.23C2.84389 202.17 2.84546 202.657 2.84368 205.438C2.83988 209.24 2.76207 213.761 2.79754 217.841C2.80557 218.711 2.96603 217.559 2.99334 218.947C3.0206 220.337 3.00699 224.014 2.96917 225.253C2.93132 226.493 2.8052 225.965 2.7763 226.185C2.5323 227.99 2.87023 232.243 2.87859 232.79C3.02099 242.767 2.82848 251.324 2.82903 260.689C2.82938 263.737 2.84126 266.876 2.85404 270L2 269.146C6.1636 269.129 10.3019 269.11 14.1669 269.115C22.2268 269.126 29.0579 269.213 36.8879 269.198C37.7142 269.197 36.7459 269.008 37.7552 269.006C48.4781 268.984 59.1264 269.005 69.803 269.132C70.8737 269.145 69.4938 269.311 70.5635 269.334C77.113 269.47 87.4762 269.797 91.3661 269.076C95.8026 269.104 101.189 269.133 105.158 269.278C107.717 269.372 105.231 269.552 108.375 269.475C109.084 269.458 108.162 269.3 109.225 269.286C113.702 269.228 118.592 269.28 123.021 269.198C123.922 269.181 123.676 269.039 123.931 269.014C126.076 268.807 129.647 269.149 130.425 269.174C136.353 269.359 140.681 269.286 146.203 269.29C147.485 269.291 145.97 269.101 147.203 269.096C153.598 269.068 160.223 269.085 166.485 269.169C167.878 269.188 166.597 269.35 167.262 269.368C170.197 269.443 170.848 269.137 173.662 269.203C174.256 269.217 173.922 269.355 174.03 269.37C175.724 269.61 177.196 269.271 177.632 269.263C183.143 269.161 186.667 269.515 191.991 269.465C192.628 269.458 191.192 269.283 192.983 269.276C204.912 269.227 217.529 269.275 229.337 269.416C231.173 269.437 229.862 269.569 229.978 269.586C231.861 269.839 233.079 269.499 233.678 269.486C238.401 269.394 242.812 269.68 246.021 269.274C262.07 269.387 278.06 269.263 294 269.397L293.397 270C293.43 266.075 293.479 262.152 293.55 258.233C293.555 257.981 293.722 258.432 293.73 257.929C293.824 251.871 293.563 253.034 293.245 249.026C293.165 248.016 293.55 244.944 293.578 244.672C293.682 243.682 293.931 244.709 293.951 244.377C294.109 241.633 293.285 242.08 293.284 238.379C293.286 238.263 293.437 238.749 293.452 238.438C293.5 237.473 293.44 236.516 293.492 235.572C293.613 233.41 294.013 232.64 293.78 229.338C293.75 228.92 293.282 229.558 293.304 226.253C293.313 224.936 293.305 219.104 293.336 217.469C293.366 215.837 293.517 216.958 293.523 216.841C293.723 212.442 293.805 214.11 294.1 211.906C294.394 209.703 293.693 210.314 293.615 209.416C293.537 208.516 293.701 205.291 293.758 204.498C293.816 203.706 293.911 204.694 293.944 203.989C294.155 199.319 293.596 201.939 293.484 200.401C293.221 196.772 293.741 193.947 293.792 190.625C293.806 189.727 293.687 190.46 293.676 189.66C293.634 186.49 293.796 184.584 293.647 180.978C293.623 180.388 293.31 177.473 293.54 175.586C293.573 175.319 293.702 176.078 293.732 174.727C293.775 172.71 293.803 169.074 293.76 166.904C293.728 165.303 293.515 167.139 293.581 165.123C293.61 164.227 293.735 165.887 293.781 164.204C293.826 162.53 293.82 158.249 293.816 156.621C293.812 154.995 293.65 155.885 293.639 155.753C293.576 154.958 293.498 151.838 293.498 151.562C293.479 137.653 293.752 124.827 293.661 111.285C293.654 110.223 293.484 110.931 293.481 110.768C293.409 107.13 293.863 109.999 294.015 107.457C293.669 107.825 293.731 106.324 293.693 103.762C293.675 102.527 293.541 103.199 293.527 103.087C293.323 101.255 293.586 99.98 293.64 99.6515C293.838 98.4386 293.604 97.1187 293.737 96.2933C293.868 95.4685 294.063 97.3668 294.06 94.9091C293.936 94.2198 293.612 96.0445 293.56 94.1785C293.361 87.1378 293.615 73.9953 293.642 68.3343C293.668 62.6846 293.645 60.8598 293.69 57.5677C293.771 51.6211 293.531 53.8004 293.42 50.1079C293.31 46.4047 293.902 48.205 294.029 47.6726C294.157 47.1501 294.026 46.5795 294.096 45.9295C294.165 45.2816 294.252 46.6842 294.278 45.1604C294.304 43.6358 294.078 39.4673 293.945 38.9269C293.663 37.7844 293.368 39.6628 293.471 35.6285C293.478 35.3966 293.633 36.1495 293.649 35.2611C293.769 28.2046 293.776 20.8739 293.882 13.8261C293.897 12.8571 294.07 13.7236 294.081 13.1596C294.191 7.28525 293.899 9.38519 293.575 6.16558C293.96 6.81052 294.212 5.46322 294.263 2L294.264 1.73752L294 1.73658C293.581 1.73033 293.131 1.72701 292.65 1.72674C289.97 1.72506 290.431 1.9135 288.698 2.04632C288.178 2.08635 286.281 1.95696 285.938 2.04558C284.805 2.33528 286.591 2.65958 281.994 2.53045C281.793 2.52431 282.435 2.36573 281.738 2.35613C277.234 2.29327 276.695 2.59629 271.826 2.63298C268.009 2.66178 261.222 2.477 256.876 2.44695C256.968 1.96185 252.863 2.07293 251.198 2.4074C248.378 2.39371 245.332 2.41261 242.606 2.36638C241.668 2.35062 242.285 2.21017 242.166 2.195C240.352 1.95694 239.126 2.28234 238.518 2.2951C231.92 2.4191 226.545 2.17248 220.249 2.4135C220.025 2.42218 219.663 2.75915 217.98 2.51311C217.871 2.49615 219.95 2.34284 216.989 2.33098C214.026 2.3191 208.442 2.13846 204.329 2.29461C203.334 2.3322 200.817 2.60574 198.796 2.39202C198.527 2.363 198.822 2.26635 198.433 2.21258C197.177 2.04122 196.492 2.38181 195.015 2.09246C193.539 1.80313 190.468 1.58644 186.321 1.78606C186.189 1.79187 185.207 2.06182 183.903 2.05755C181.821 2.0505 178.865 1.99427 176.691 1.99602C175.65 1.99696 176.316 2.16459 176.135 2.16765C169.136 2.26159 164.155 2.11215 156.657 2.04729C155.283 2.03507 151.333 2.26365 148.672 2.08294C145.75 1.88511 148.752 1.06217 142.037 1.25823C139.328 1.33665 135.899 2.38069 131.031 1.83977C121.59 1.97381 112.859 1.69697 103.392 1.88836C102.967 1.89684 101.62 2.18822 100.619 2.18426C99.1335 2.1778 98.318 2.04162 97.257 2.03265C92.8112 1.99162 88.743 2.10814 84.4567 2.09002C82.8293 2.08343 83.3983 1.94262 81.4574 1.93474C79.5176 1.92701 78.2242 2.11244 75.5956 2.02288C73.6104 1.95462 71.6254 1.5756 68.9903 1.53143C68.8898 1.90528 67.08 1.89758 63.8634 1.99627C63.2451 2.01542 63.908 2.14554 63.6156 2.16131C62.4252 2.22837 61.3236 2.12053 60.1933 2.19353C59.9183 2.21107 59.9054 2.33874 59.6806 2.36028C57.7692 2.5483 54.6203 2.26112 54.0794 2.21111C52.0066 2.02121 51.038 2.18726 49.448 2.11248C47.8607 2.03771 50.2341 1.94423 48.3799 1.89886C44.5366 1.805 39.5983 1.82562 35.695 1.81976C34.1376 1.8182 35.2 1.98863 34.9772 1.99236C31.7566 2.03559 28.5 1.8543 26.7142 2.19378C24.4814 1.31602 24.7721 2.27891 20.1688 2.1032C19.8062 2.08899 19.3449 1.67391 20.7371 1.61297C22.1291 1.55209 24.2402 1.68184 26.1716 1.58685C26.6291 1.56455 29.2492 1.17559 29.6067 1.15203C32.407 0.967893 32.8039 1.58818 32.952 1.62225C34.6321 1.98991 37.834 1.57088 38.6772 1.54192C42.5344 1.40925 45.8117 1.49649 49.0379 1.40179C51.148 1.34058 51.3544 0.934273 53.0113 0.946711C58.5192 0.987818 60.4418 1.55462 65.6322 1.06317C66.7451 0.958348 65.6391 0.514263 69.6269 0.863459C69.8775 0.885473 72.8382 1.20492 74.5488 1.00286C74.7636 0.977386 74.7568 0.847965 75.0402 0.837092C76.939 0.766766 78.2054 0.869872 80.2739 0.820491C82.3423 0.771109 84.8294 0.697493 87.191 0.741389C88.6143 0.767638 90.4404 1.00877 91.1217 1.0678C93.0454 1.23787 95.1081 0.959035 96.2999 1.16497C97.5018 1.37195 95.1522 1.68627 98.3037 1.82C98.4204 1.48375 98.6886 1.13863 98.8762 0.800471C105.783 0.81231 112.578 0.921039 119.508 0.906184C120.367 0.904006 119.489 0.723238 120.409 0.716243C124.295 0.687525 127.689 0.816389 131.719 0.765071C134.838 0.724657 138.258 0.533262 141.52 0.485043C143.512 0.869805 148.352 0.739187 151.868 0.774348C153.099 0.786498 153.017 0.88926 153.893 0.922785C157.197 1.04678 155.649 0.706764 156.555 0.653255C160.441 0.424888 160.774 1.19449 165.356 1.17547C165.599 1.17472 168.566 0.764494 168.975 0.738948C171.572 0.572366 169.404 0.881733 171.03 0.912043C173.997 0.967434 176.059 1.0654 179.54 0.945246C180.556 0.909656 182.991 0.653965 184.962 0.851741C185.222 0.877638 185.078 1.01323 185.287 1.02117C189.065 1.15354 189.165 0.727482 191.324 0.583187C193.484 0.438923 196.819 0.733037 197.498 0.817805C199.273 1.03709 196.137 0.911521 196.041 0.933039C194.911 1.18913 197.344 1.14504 199.202 1.16668C199.471 1.58444 202.071 1.55936 201.129 1.18743C201.022 1.14681 199.576 1.18577 199.202 1.16668C200.834 0.756806 203.691 0.704313 206.846 1.08734C208.323 1.26685 206.927 1.47616 211.413 1.39959C213.449 1.36503 212.662 1.07738 214.459 0.998957C218.565 0.820028 223.899 1.08835 228.131 1.04608C229.667 1.03073 228.171 0.873272 229.221 0.857356C232.007 0.814626 234.464 0.932768 237.262 0.872248C237.515 0.866565 236.896 0.701742 237.766 0.699641C244.362 0.6805 250.105 0.78607 256.992 0.788997C260.319 0.790336 266.268 0.699431 269.715 0.717708C275.689 0.748411 283.039 0.98809 288.142 0.929865C291.471 0.892595 290.741 0.727737 292.167 0.615413C292.711 0.572346 293.339 0.553056 294 0.550291L295.455 0.555487L295.45 2C295.461 4.68162 295.2 7.92083 295.152 8.44708C295.15 8.46716 295.111 5.6028 295.026 7.13117C294.85 8.01979 295.151 8.41481 295.152 8.44708C295.113 8.87791 295.075 14.5998 295.107 15.7359C295.124 16.3533 295.28 16.008 295.286 16.3298C295.426 23.9809 295.466 31.6454 295.393 39.4054C295.39 39.542 295.215 39.3363 295.21 39.6575C295.132 44.15 295.346 47.0265 295.473 50.7317C295.6 54.4363 295.557 57.3742 295.257 59.5672C295.295 62.3624 295.162 66.3726 295.082 68.6804C295.001 70.9879 295.341 71.31 295.348 71.513C295.563 77.8461 295.369 81.5071 295.338 88.0774C295.323 91.2011 295.373 97.3973 295.41 100.779C295.44 103.452 295.36 105.063 295.411 107.526C295.418 107.859 295.569 107.522 295.575 107.624C295.756 110.373 295.386 109.052 295.32 109.619C295.08 111.677 294.952 112.948 295.065 116.468C295.091 117.28 295.624 119.645 295.655 121.125C295.694 123.049 295.503 122.323 295.55 124.338C295.553 124.51 295.671 124.474 295.666 125.718C295.643 131.49 295.575 137.783 295.587 143.782C295.588 144.601 295.775 143.551 295.78 144.735C295.802 150.29 295.795 156.378 295.707 161.79C295.685 163.122 295.554 162.287 295.515 162.576C295.28 164.352 295.622 166.869 295.628 167.285C295.793 177.193 295.483 184.777 295.631 194.876C295.639 195.426 296.006 199.658 295.691 201.546C295.671 201.675 295.349 203.543 295.569 205.194C295.583 205.297 295.748 204.133 295.731 206.164C295.714 208.195 295.825 211.464 295.643 214.256C295.586 215.14 295.265 217.229 295.521 219.866C295.539 220.038 296.117 224.108 295.718 225.561C295.652 225.797 295.23 225.55 295.447 228.697C295.489 229.298 295.583 228.207 295.641 229.791C295.732 232.218 295.619 235.434 295.807 238.417C295.84 238.937 296.127 241.152 295.909 242.929C295.875 243.207 295.734 242.678 295.719 243.617C295.643 248.078 295.737 252.75 295.64 257.28C295.605 258.885 295.378 258.064 295.317 259.737C295.256 261.41 295.197 264.78 295.301 266.53C295.405 268.281 295.768 266.368 295.797 268.991C295.801 269.327 295.804 269.664 295.807 270L295.801 271.814L294 271.807C282.941 271.911 271.977 271.709 260.928 271.679C259.239 271.675 260.639 271.804 258.151 271.807C248.976 271.817 233.136 271.938 225.176 271.662C218.797 271.441 226.824 271.273 221.95 271.183C219.598 271.14 217.053 271.562 216.485 271.576C210.939 271.71 207.084 271.524 202.091 271.581C201.061 271.593 202.072 271.764 201.194 271.772C198.197 271.802 195.047 271.725 192.184 271.739C190.899 271.746 191.136 271.877 189.953 271.867C187.125 271.844 184.623 271.789 181.866 271.667C181.614 271.655 183.309 271.493 181.216 271.487C177.829 271.478 173.625 271.357 169.727 271.482C168.571 271.519 168.526 271.818 166.04 271.611C165.519 271.568 166.184 271.21 163.289 271.52C162.802 271.571 157.938 271.989 155.551 271.72C154.922 271.649 153.315 271.355 151.924 271.401C151.736 271.409 152.491 271.569 151.339 271.585C147.278 271.637 143.022 271.62 138.85 271.67C137.736 271.684 139.396 271.85 137.735 271.865C133.169 271.907 127.469 271.865 123.004 271.813C121.358 271.793 122.495 271.656 122.376 271.641C120.45 271.398 119.311 271.726 118.672 271.745C114.696 271.86 111.668 271.706 108.003 271.746C106.992 271.757 107.709 271.914 107.508 271.928C105.42 272.064 106.975 271.783 105.653 271.752C101.951 271.664 97.8234 271.677 94.0792 271.697C92.7038 271.704 94.2496 271.886 93.0153 271.891C85.7101 271.922 78.1158 271.905 70.9865 271.805C69.6441 271.785 70.4887 271.646 70.2089 271.614C68.2806 271.39 65.4546 271.695 64.8042 271.724C61.8475 271.856 60.699 271.733 58.0879 271.756C45.3323 271.871 29.5827 271.789 17.5421 271.738C12.0173 271.715 6.92832 271.684 2 271.655L0.33952 271.649L0.345408 270C0.399656 260.932 0.447604 252.409 0.425228 242.715C0.423208 241.764 0.237219 242.723 0.23309 241.903C0.188254 231.32 0.260931 220.9 0.207211 210.295C0.203133 209.425 0.026814 210.68 0.0143409 209.283C-0.0124794 206.418 -0.00289595 202.789 0.0534033 199.892C0.0805295 198.479 0.231827 200.374 0.256039 198.952C0.312764 195.641 0.325321 192.091 0.297055 188.69C0.284642 187.242 0.104312 189.426 0.102231 187.545C0.0843411 174.728 0.0532839 162.142 0.286801 149.191C0.302839 148.303 0.66934 147.524 0.599056 145.636C0.497342 145.494 0.377695 145.501 0.268979 145.439C0.210415 126.782 0.337469 108.316 0.357113 89.6067C0.3579 88.8179 0.163709 90.1811 0.164243 88.6539C0.167114 79.8149 0.113317 71.2316 0.306332 62.1903C0.325208 61.2932 0.666837 61.7534 0.615169 59.1098C0.605741 58.6435 0.56018 54.6619 0.486019 53.6325C0.474833 53.4927 0.315374 54.2191 0.310727 52.9361C0.286512 45.4801 0.322916 37.6667 0.420346 30.2236C0.436375 29.0224 0.606185 30.3016 0.619075 29.446C0.709218 23.3769 0.580131 16.7755 0.734309 10.9762C0.838122 7.0943 1.13165 8.53148 1.42059 6.46871C1.46135 6.17695 1.46781 3.77318 1.63592 3.64888C2.05864 3.32975 2.52152 4.49405 2.9721 4.01631C3.06915 3.91538 2.96462 0.696111 3.19915 2.60212C3.21484 2.73528 3.29268 5.06926 3.37224 5.64412C3.42725 6.04436 3.59821 5.32312 3.66863 6.13973C3.73897 6.95627 3.59566 7.85354 3.67839 9.20736C3.76215 10.5606 3.95664 9.96556 3.97966 12.6681ZM294.722 79.071C294.559 81.2078 295.157 81.5231 295.014 79.212C295.006 79.1001 294.73 78.9608 294.722 79.071ZM112.54 1.37225C115.333 1.63609 117.245 1.24814 115.274 1.04437C113.304 0.840818 111.689 1.29227 112.54 1.37225ZM83.5723 1.56487C86.8371 1.7729 87.3511 0.924645 83.8543 1.09612C83.6509 1.10581 83.3814 1.55279 83.5723 1.56487ZM1.50286 16.0348C1.51081 16.0053 1.51855 14.2774 1.51067 14.2361C1.32069 13.316 1.30534 16.7711 1.50286 16.0348ZM54.8271 1.77459C55.8463 1.88933 58.7808 1.75687 57.5145 1.61419C56.495 1.4994 53.5577 1.63185 54.8271 1.77459ZM294.084 190.535C294.075 190.569 294.067 191.808 294.117 191.783C294.28 191.699 294.234 189.975 294.084 190.535ZM5.97141 1.78435C13.1895 1.81628 17.5661 2.51698 9.70554 2.43792C8.28208 2.42361 12.7734 2.21447 10.9616 2.1513C7.64653 2.03621 5.44512 2.47616 2.06206 2.24041C1.44969 2.19726 5.55962 1.78098 5.98422 1.78338C5.97995 1.7837 5.97568 1.78403 5.97141 1.78435ZM294.004 80.3015C293.996 80.3442 293.988 82.0591 293.996 82.1002C294.186 83.0288 294.201 79.5742 294.004 80.3015ZM293.714 262.821C293.697 262.916 293.681 266.896 293.697 267.026C294.007 269.102 294.04 261.056 293.714 262.821ZM256.808 2.43401C254.937 2.62506 252.698 2.64755 251.207 2.40764C253.066 2.42038 254.938 2.42226 256.808 2.43401Z" fill="white"/>
<path d="M126.192 119.938H130.772V120.796H126.192V119.938ZM125.241 122.261H131.762V123.119H125.241V122.261ZM128 120.387H128.937V127C128.937 127.246 128.907 127.436 128.845 127.568C128.783 127.708 128.669 127.818 128.502 127.898C128.343 127.968 128.132 128.012 127.868 128.03C127.604 128.047 127.27 128.056 126.865 128.056C126.839 127.933 126.795 127.788 126.733 127.62C126.671 127.453 126.61 127.312 126.548 127.198C126.839 127.207 127.098 127.211 127.327 127.211C127.556 127.211 127.71 127.207 127.789 127.198C127.93 127.198 128 127.128 128 126.987V120.387ZM128.409 116.915C128.198 117.329 127.93 117.764 127.604 118.222C127.287 118.68 126.931 119.124 126.535 119.555C126.139 119.978 125.725 120.356 125.294 120.69C125.241 120.567 125.162 120.426 125.057 120.268C124.96 120.101 124.863 119.96 124.766 119.846C125.206 119.538 125.629 119.164 126.033 118.724C126.438 118.284 126.803 117.822 127.129 117.338C127.455 116.845 127.714 116.374 127.908 115.925H128.845C129.109 116.409 129.421 116.893 129.782 117.377C130.143 117.852 130.526 118.297 130.931 118.71C131.344 119.115 131.753 119.458 132.158 119.74C132.061 119.863 131.96 120.008 131.855 120.176C131.758 120.343 131.67 120.497 131.591 120.638C131.195 120.321 130.794 119.956 130.389 119.542C129.993 119.12 129.624 118.68 129.281 118.222C128.937 117.764 128.647 117.329 128.409 116.915ZM129.822 124.004L130.627 123.713C130.812 124.03 130.992 124.369 131.168 124.73C131.353 125.09 131.516 125.442 131.657 125.786C131.806 126.12 131.916 126.419 131.987 126.683L131.115 127.013C131.054 126.758 130.953 126.454 130.812 126.102C130.68 125.75 130.526 125.394 130.35 125.033C130.183 124.664 130.007 124.32 129.822 124.004ZM126.139 123.819L126.997 124.004C126.847 124.567 126.645 125.117 126.39 125.654C126.143 126.182 125.875 126.635 125.585 127.013C125.532 126.96 125.461 126.908 125.373 126.855C125.285 126.793 125.193 126.736 125.096 126.683C124.999 126.622 124.911 126.573 124.832 126.538C125.131 126.186 125.391 125.768 125.611 125.284C125.831 124.8 126.007 124.312 126.139 123.819ZM120.621 119.78H121.479V128.043H120.621V119.78ZM121.136 121.35H124.278V122.037H121.136V121.35ZM121.493 118.301H124.067V119.014H121.493V118.301ZM121.149 124.518H124.766V125.31H121.149V124.518ZM121.149 126.208H124.964V127H121.149V126.208ZM121.149 119.78H124.7V123.634H121.149V122.934H123.869V120.479H121.149V119.78ZM122.073 115.912H122.588V116.123H122.879V116.387C122.623 116.862 122.271 117.408 121.823 118.024C121.383 118.631 120.837 119.203 120.186 119.74C120.115 119.643 120.014 119.533 119.882 119.41C119.759 119.287 119.645 119.199 119.539 119.146C120.146 118.671 120.665 118.138 121.097 117.549C121.528 116.959 121.853 116.414 122.073 115.912ZM122.377 115.912H123.063C123.327 116.141 123.596 116.396 123.869 116.678C124.15 116.959 124.41 117.241 124.647 117.522C124.894 117.795 125.092 118.046 125.241 118.275L124.621 118.948C124.48 118.728 124.291 118.477 124.053 118.196C123.825 117.905 123.578 117.615 123.314 117.324C123.059 117.025 122.799 116.766 122.535 116.546H122.377V115.912ZM136.697 117.358C137.303 117.358 137.842 117.476 138.315 117.712C138.788 117.944 139.157 118.271 139.424 118.692C139.694 119.109 139.83 119.584 139.83 120.116C139.83 120.649 139.694 121.126 139.424 121.547C139.157 121.964 138.788 122.291 138.315 122.527C137.842 122.759 137.303 122.875 136.697 122.875C136.096 122.875 135.554 122.759 135.073 122.527C134.592 122.291 134.216 121.964 133.945 121.547C133.679 121.126 133.546 120.649 133.546 120.116C133.546 119.584 133.679 119.109 133.945 118.692C134.216 118.271 134.592 117.944 135.073 117.712C135.554 117.476 136.096 117.358 136.697 117.358ZM136.697 118.428C136.323 118.428 135.988 118.496 135.692 118.634C135.4 118.771 135.17 118.969 135.002 119.227C134.835 119.485 134.751 119.781 134.751 120.116C134.751 120.452 134.835 120.746 135.002 120.999C135.17 121.253 135.4 121.451 135.692 121.592C135.988 121.734 136.323 121.805 136.697 121.805C137.071 121.805 137.404 121.734 137.696 121.592C137.993 121.451 138.223 121.253 138.386 120.999C138.554 120.746 138.637 120.452 138.637 120.116C138.637 119.781 138.554 119.485 138.386 119.227C138.223 118.969 137.993 118.771 137.696 118.634C137.404 118.496 137.071 118.428 136.697 118.428ZM142.479 128.121H141.261V116.539H142.479V128.121ZM132.985 124.615C133.939 124.611 134.802 124.6 135.576 124.583C136.354 124.566 137.179 124.531 138.051 124.48C138.927 124.424 139.754 124.34 140.532 124.229L140.622 125.124C139.819 125.271 138.983 125.382 138.115 125.46C137.252 125.533 136.439 125.58 135.679 125.601C134.918 125.623 134.074 125.634 133.146 125.634L132.985 124.615ZM151.579 119.478C151.579 120.389 151.44 121.262 151.161 122.095C150.881 122.924 150.49 123.657 149.987 124.293C149.485 124.925 148.898 125.404 148.228 125.73L147.461 124.705C148.062 124.435 148.597 124.031 149.066 123.494C149.538 122.952 149.906 122.331 150.168 121.631C150.434 120.926 150.568 120.209 150.568 119.478V117.5H151.579V119.478ZM151.799 119.478C151.799 120.179 151.928 120.864 152.185 121.534C152.447 122.205 152.811 122.802 153.275 123.326C153.743 123.85 154.269 124.244 154.854 124.506L154.119 125.479C153.47 125.17 152.89 124.71 152.379 124.1C151.872 123.489 151.479 122.785 151.199 121.986C150.92 121.186 150.78 120.351 150.78 119.478V117.5H151.799V119.478ZM157.129 128.121H155.898V116.539H157.129V128.121ZM168.041 124.937H166.803V116.539H168.041V124.937ZM169.723 120.987H167.667V119.968H169.723V120.987ZM164.908 117.422C164.908 118.415 164.691 119.321 164.257 120.142C163.823 120.959 163.198 121.665 162.382 122.263C161.57 122.856 160.599 123.326 159.469 123.674L158.946 122.695C159.922 122.402 160.755 122.022 161.447 121.554C162.143 121.081 162.676 120.544 163.046 119.942C163.415 119.337 163.6 118.688 163.6 117.996V117.422H164.908ZM164.257 118.441H159.436V117.422H164.257V118.441ZM168.524 127.864H160.713V126.852H168.524V127.864ZM161.937 127.271H160.713V124.087H161.937V127.271ZM105.111 141.707H93.0112V140.367H105.111V141.707ZM99.8667 140.777H98.2334V137.334H99.8667V140.777ZM99.5664 132.383C99.5664 133.292 99.3345 134.126 98.8706 134.888C98.4067 135.65 97.7646 136.29 96.9443 136.807C96.1289 137.32 95.2061 137.676 94.1758 137.876L93.5312 136.587C94.4102 136.436 95.2036 136.15 95.9116 135.73C96.6245 135.311 97.1812 134.808 97.5815 134.222C97.9819 133.636 98.1821 133.023 98.1821 132.383V131.79H99.5664V132.383ZM99.8813 132.383C99.8813 133.033 100.084 133.646 100.489 134.222C100.895 134.798 101.458 135.291 102.181 135.701C102.904 136.106 103.717 136.38 104.62 136.521L103.976 137.803C102.936 137.613 102 137.266 101.17 136.763C100.345 136.255 99.6982 135.625 99.2295 134.874C98.7607 134.122 98.5264 133.292 98.5264 132.383V131.79H99.8813V132.383ZM104.056 132.464H94.0073V131.138H104.056V132.464ZM110.414 136.968H108.78V134.522H110.414V136.968ZM115.182 136.968H113.556V134.522H115.182V136.968ZM118.031 137.745H105.975V136.426H118.031V137.745ZM111.988 138.536C112.945 138.536 113.766 138.626 114.449 138.807C115.138 138.987 115.663 139.256 116.024 139.612C116.39 139.964 116.573 140.394 116.573 140.901C116.573 141.409 116.39 141.839 116.024 142.19C115.663 142.542 115.138 142.811 114.449 142.996C113.766 143.182 112.945 143.274 111.988 143.274C111.026 143.274 110.199 143.182 109.505 142.996C108.817 142.811 108.29 142.542 107.923 142.19C107.557 141.839 107.374 141.409 107.374 140.901C107.374 140.394 107.557 139.964 107.923 139.612C108.29 139.256 108.817 138.987 109.505 138.807C110.199 138.626 111.026 138.536 111.988 138.536ZM111.988 139.766C111.344 139.766 110.802 139.81 110.362 139.898C109.928 139.981 109.598 140.108 109.374 140.279C109.149 140.45 109.037 140.657 109.037 140.901C109.037 141.146 109.149 141.353 109.374 141.524C109.598 141.695 109.93 141.827 110.37 141.919C110.809 142.007 111.349 142.051 111.988 142.051C112.618 142.051 113.155 142.007 113.6 141.919C114.044 141.827 114.378 141.695 114.603 141.524C114.828 141.353 114.94 141.146 114.94 140.901C114.94 140.657 114.828 140.45 114.603 140.279C114.378 140.108 114.046 139.981 113.607 139.898C113.167 139.81 112.628 139.766 111.988 139.766ZM112.003 130.274C112.97 130.274 113.81 130.376 114.522 130.582C115.24 130.782 115.792 131.07 116.178 131.446C116.563 131.822 116.756 132.271 116.756 132.793C116.756 133.306 116.563 133.75 116.178 134.126C115.792 134.498 115.243 134.783 114.53 134.983C113.817 135.179 112.975 135.276 112.003 135.276C111.026 135.276 110.179 135.179 109.461 134.983C108.744 134.783 108.189 134.498 107.799 134.126C107.413 133.75 107.22 133.306 107.22 132.793C107.22 132.271 107.413 131.822 107.799 131.446C108.189 131.07 108.744 130.782 109.461 130.582C110.179 130.376 111.026 130.274 112.003 130.274ZM112.003 131.534C111.344 131.534 110.782 131.585 110.318 131.688C109.859 131.785 109.51 131.927 109.271 132.112C109.032 132.298 108.912 132.525 108.912 132.793C108.912 133.062 109.032 133.289 109.271 133.475C109.51 133.655 109.859 133.794 110.318 133.892C110.782 133.99 111.344 134.039 112.003 134.039C112.652 134.039 113.207 133.99 113.666 133.892C114.125 133.794 114.476 133.655 114.72 133.475C114.964 133.289 115.086 133.062 115.086 132.793C115.086 132.525 114.964 132.298 114.72 132.112C114.476 131.927 114.125 131.785 113.666 131.688C113.207 131.585 112.652 131.534 112.003 131.534ZM129.376 139.971H127.75V130.076H129.376V139.971ZM131.229 135.577H128.893V134.236H131.229V135.577ZM126.798 132.837H118.939V131.541H126.798V132.837ZM122.872 133.387C123.502 133.387 124.061 133.492 124.549 133.702C125.042 133.912 125.426 134.209 125.699 134.595C125.973 134.976 126.109 135.418 126.109 135.921C126.109 136.414 125.973 136.849 125.699 137.225C125.426 137.601 125.042 137.894 124.549 138.104C124.061 138.313 123.502 138.418 122.872 138.418C122.242 138.418 121.678 138.313 121.18 138.104C120.687 137.894 120.304 137.601 120.03 137.225C119.762 136.849 119.627 136.414 119.627 135.921C119.627 135.418 119.762 134.976 120.03 134.595C120.304 134.209 120.687 133.912 121.18 133.702C121.678 133.492 122.242 133.387 122.872 133.387ZM122.872 134.646C122.545 134.646 122.252 134.695 121.993 134.793C121.739 134.891 121.544 135.04 121.407 135.24C121.271 135.435 121.202 135.662 121.202 135.921C121.202 136.18 121.271 136.404 121.407 136.595C121.544 136.78 121.739 136.922 121.993 137.02C122.252 137.117 122.545 137.166 122.872 137.166C123.209 137.166 123.504 137.117 123.758 137.02C124.012 136.922 124.21 136.78 124.352 136.595C124.493 136.404 124.564 136.18 124.564 135.921C124.564 135.662 124.493 135.435 124.352 135.24C124.21 135.04 124.012 134.891 123.758 134.793C123.504 134.695 123.209 134.646 122.872 134.646ZM123.692 132.186H122.059V130.069H123.692V132.186ZM129.896 143.055H120.895V141.722H129.896V143.055ZM122.513 142.278H120.895V139.195H122.513V142.278ZM137.103 138.917C138.343 138.917 139.42 138.887 140.333 138.829C141.246 138.77 142.181 138.667 143.138 138.521L143.299 139.839C142.352 139.981 141.415 140.081 140.487 140.14C139.559 140.193 138.431 140.225 137.103 140.235H136.012V138.917H137.103ZM142.259 132.53H137.66V139.341H136.012V131.197H142.259V132.53ZM142.025 136.185H137.257V134.896H142.025V136.185ZM145.841 143.289H144.215V130.062H145.841V143.289ZM147.884 136.551H145.475V135.188H147.884V136.551ZM159.457 137.583H157.823V130.076H159.457V137.583ZM159.457 143.135H150.682V138.221H159.457V143.135ZM152.286 141.824H157.86V139.517H152.286V141.824ZM152.242 130.713C152.921 130.713 153.529 130.845 154.066 131.109C154.608 131.373 155.033 131.746 155.34 132.229C155.653 132.708 155.809 133.255 155.809 133.87C155.809 134.466 155.653 135.003 155.34 135.481C155.033 135.96 154.608 136.333 154.066 136.602C153.529 136.871 152.921 137.005 152.242 137.005C151.563 137.005 150.953 136.871 150.411 136.602C149.874 136.333 149.449 135.96 149.137 135.481C148.829 135.003 148.675 134.466 148.675 133.87C148.675 133.255 148.829 132.708 149.137 132.229C149.449 131.746 149.874 131.373 150.411 131.109C150.953 130.845 151.563 130.713 152.242 130.713ZM152.242 132.083C151.856 132.078 151.515 132.149 151.217 132.295C150.919 132.437 150.685 132.645 150.514 132.918C150.348 133.191 150.265 133.509 150.265 133.87C150.265 134.217 150.348 134.524 150.514 134.793C150.685 135.057 150.919 135.262 151.217 135.408C151.515 135.555 151.856 135.628 152.242 135.628C152.623 135.628 152.96 135.555 153.253 135.408C153.551 135.262 153.783 135.057 153.949 134.793C154.115 134.524 154.198 134.217 154.198 133.87C154.198 133.509 154.115 133.191 153.949 132.918C153.788 132.645 153.558 132.437 153.26 132.295C152.962 132.149 152.623 132.078 152.242 132.083ZM165.316 140.806L170.758 132.999H165.287V131.395H173.124V132.588L167.689 140.396H173.153V142H165.316V140.806ZM178.28 142.154C177.518 142.154 176.847 141.983 176.266 141.641C175.689 141.299 175.245 140.818 174.933 140.198C174.62 139.578 174.464 138.863 174.464 138.052C174.464 137.232 174.62 136.514 174.933 135.899C175.245 135.279 175.689 134.798 176.266 134.456C176.847 134.114 177.518 133.943 178.28 133.943C179.046 133.943 179.718 134.114 180.294 134.456C180.87 134.798 181.312 135.279 181.62 135.899C181.927 136.514 182.081 137.232 182.081 138.052C182.081 138.863 181.927 139.578 181.62 140.198C181.312 140.818 180.87 141.299 180.294 141.641C179.718 141.983 179.046 142.154 178.28 142.154ZM178.294 140.667C178.705 140.667 179.051 140.552 179.334 140.323C179.623 140.088 179.837 139.773 179.979 139.378C180.121 138.982 180.191 138.538 180.191 138.045C180.191 137.547 180.121 137.1 179.979 136.705C179.837 136.309 179.623 135.997 179.334 135.767C179.051 135.533 178.705 135.416 178.294 135.416C177.875 135.416 177.518 135.533 177.225 135.767C176.932 135.997 176.712 136.309 176.566 136.705C176.419 137.1 176.346 137.547 176.346 138.045C176.346 138.543 176.419 138.99 176.566 139.385C176.712 139.776 176.932 140.088 177.225 140.323C177.518 140.552 177.875 140.667 178.294 140.667ZM185.406 142H183.546V134.046H185.326V135.394H185.414C185.609 134.935 185.907 134.578 186.307 134.324C186.708 134.07 187.201 133.943 187.787 133.943C188.338 133.943 188.817 134.061 189.222 134.295C189.632 134.524 189.947 134.864 190.167 135.313C190.392 135.762 190.504 136.302 190.504 136.932V142H188.644V137.217C188.644 136.861 188.583 136.558 188.46 136.309C188.338 136.055 188.163 135.86 187.933 135.723C187.704 135.586 187.423 135.518 187.091 135.518C186.759 135.518 186.466 135.589 186.212 135.73C185.958 135.872 185.76 136.08 185.619 136.353C185.477 136.626 185.406 136.954 185.406 137.334V142ZM195.821 142.154C195.035 142.154 194.352 141.988 193.771 141.656C193.189 141.324 192.74 140.85 192.423 140.235C192.11 139.62 191.954 138.899 191.954 138.074C191.954 137.259 192.11 136.539 192.423 135.914C192.74 135.284 193.182 134.798 193.749 134.456C194.315 134.114 194.974 133.943 195.726 133.943C196.405 133.943 197.018 134.087 197.564 134.375C198.111 134.664 198.546 135.11 198.868 135.716C199.19 136.316 199.352 137.061 199.352 137.95V138.536H192.84V137.269H197.564C197.564 136.907 197.489 136.585 197.337 136.302C197.186 136.019 196.971 135.796 196.693 135.635C196.419 135.474 196.104 135.394 195.748 135.394C195.367 135.394 195.03 135.484 194.737 135.665C194.444 135.845 194.215 136.089 194.049 136.397C193.888 136.7 193.805 137.032 193.8 137.393V138.477C193.8 138.941 193.883 139.341 194.049 139.678C194.22 140.01 194.459 140.264 194.767 140.44C195.074 140.616 195.433 140.704 195.843 140.704C196.107 140.704 196.344 140.667 196.554 140.594C196.769 140.521 196.952 140.425 197.103 140.308C197.254 140.186 197.369 140.042 197.447 139.876H199.278C199.166 140.33 198.954 140.73 198.641 141.077C198.333 141.419 197.938 141.685 197.455 141.875C196.971 142.061 196.427 142.154 195.821 142.154Z" fill="white"/>
</svg>
