<svg width="181" height="271" viewBox="0 0 181 271" fill="none" xmlns="http://www.w3.org/2000/svg">
<path d="M5.0576 10.4011C5.11176 15.3436 5.05385 21.8224 4.97437 26.7462C4.94972 28.2893 4.83953 27.5079 4.81755 28.5731C4.77471 30.6565 4.82875 32.5975 4.77771 34.6563C4.76026 35.3386 4.58572 34.4893 4.57141 35.2047C4.49427 39.1252 4.53873 42.8342 4.50163 46.8057C4.31858 66.3683 4.25305 85.5978 4.17353 105.4C4.14746 111.929 3.98905 119.866 4.05833 126.61C4.06657 127.397 4.21977 126.928 4.2324 127.078C4.4257 129.427 4.11642 128.646 4.07533 130.18C3.91308 136.268 3.89897 143.038 3.95809 148.897C3.9837 151.39 4.288 148.89 4.1172 151.4C4.10566 151.574 3.94297 150.942 3.92561 151.626C3.88659 153.176 3.91567 156.117 3.90278 157.318C3.87711 159.634 3.87875 160.017 3.87689 162.207C3.87294 165.201 3.79207 168.762 3.82893 171.974C3.83729 172.66 4.00406 171.752 4.03244 172.846C4.06078 173.94 4.04664 176.836 4.00732 177.812C3.96799 178.788 3.8369 178.373 3.80686 178.545C3.55326 179.967 3.90449 183.316 3.91318 183.747C4.06118 191.604 3.8611 198.342 3.86167 205.718C3.86253 211.317 3.92858 217.304 3.91952 222.631C3.90809 228.979 3.81771 234.358 3.83325 240.524C3.8347 241.175 4.03079 240.412 4.03295 241.207C4.05577 249.651 4.03439 258.037 3.90201 266.445C3.88857 267.288 3.7164 266.201 3.69267 267.044C3.6842 267.352 3.67503 267.672 3.66542 268L3 267.335C8.15979 267.486 15.5458 267.744 18.4258 267.039C21.9196 267.068 26.1611 267.099 29.2867 267.25C31.3019 267.347 29.3446 267.535 31.8202 267.455C32.3785 267.437 31.6524 267.272 32.4897 267.258C36.015 267.198 39.8665 267.251 43.3539 267.166C44.0633 267.149 43.8696 267.002 44.0706 266.975C45.7597 266.761 48.5717 267.115 49.1847 267.141C53.8526 267.333 57.2616 267.258 61.6101 267.262C62.6192 267.264 61.4264 267.066 62.3974 267.06C67.4335 267.032 72.6505 267.049 77.5817 267.136C78.6786 267.156 77.6699 267.325 78.194 267.343C80.5053 267.421 81.0176 267.103 83.2342 267.172C83.7015 267.186 83.4382 267.33 83.5235 267.346C84.8576 267.594 86.0167 267.242 86.3599 267.234C90.7004 267.128 93.4749 267.496 97.6682 267.444C98.1698 267.437 97.0386 267.255 98.4488 267.247C107.843 267.197 117.779 267.247 127.078 267.393C128.524 267.415 127.492 267.552 127.583 267.569C129.065 267.833 130.025 267.479 130.496 267.466C134.215 267.37 137.69 267.667 140.217 267.246C152.855 267.363 165.447 267.234 178 267.373L177.373 268C177.407 264.909 177.458 261.82 177.533 258.733C177.537 258.535 177.711 258.891 177.719 258.494C177.817 253.723 177.546 254.64 177.215 251.483C177.132 250.687 177.532 248.268 177.561 248.054C177.669 247.274 177.928 248.083 177.949 247.822C178.113 245.661 177.256 246.013 177.256 243.098C177.257 243.007 177.415 243.39 177.431 243.145C177.48 242.385 177.417 241.631 177.472 240.888C177.597 239.185 178.014 238.579 177.771 235.979C177.74 235.65 177.254 236.152 177.277 233.549C177.286 232.512 177.278 227.919 177.31 226.632C177.341 225.346 177.498 226.229 177.504 226.137C177.712 222.673 177.797 223.987 178.104 222.251C178.41 220.516 177.681 220.997 177.6 220.29C177.519 219.581 177.689 217.041 177.749 216.417C177.808 215.793 177.908 216.571 177.941 216.017C178.161 212.339 177.58 214.402 177.464 213.19C177.19 210.333 177.731 208.108 177.784 205.492C177.798 204.785 177.675 205.362 177.663 204.732C177.619 202.236 177.788 200.735 177.633 197.895C177.608 197.431 177.283 195.135 177.522 193.649C177.556 193.439 177.691 194.037 177.721 192.973C177.766 191.384 177.796 188.521 177.751 186.812C177.717 185.551 177.495 186.997 177.564 185.409C177.595 184.704 177.725 186.011 177.772 184.686C177.819 183.367 177.813 179.996 177.809 178.714C177.804 177.433 177.636 178.134 177.625 178.031C177.56 177.405 177.478 174.947 177.479 174.73C177.458 163.777 177.742 153.677 177.648 143.012C177.641 142.175 177.463 142.733 177.46 142.605C177.386 139.74 177.858 141.999 178.016 139.998C177.656 140.287 177.721 139.105 177.681 137.087C177.662 136.115 177.523 136.644 177.508 136.556C177.296 135.113 177.57 134.109 177.626 133.851C177.832 132.895 177.589 131.856 177.726 131.206C177.863 130.556 178.065 132.051 178.063 130.116C177.934 129.573 177.597 131.01 177.542 129.541C177.336 123.996 177.6 113.646 177.628 109.188C177.655 104.739 177.631 103.302 177.678 100.71C177.762 96.0266 177.512 97.7428 177.398 94.835C177.283 91.9187 177.898 93.3364 178.031 92.9172C178.163 92.5057 178.027 92.0563 178.099 91.5445C178.172 91.0343 178.262 92.1388 178.289 90.9388C178.316 89.7381 178.081 86.4555 177.943 86.0299C177.65 85.1303 177.343 86.6095 177.451 83.4325C177.457 83.2498 177.619 83.8428 177.635 83.1431C177.76 77.5862 177.767 71.8132 177.878 66.2631C177.893 65.5 178.073 66.1823 178.084 65.7382C178.199 61.1122 177.896 62.7658 177.559 60.2304C178.007 60.7997 178.281 59.3976 178.284 55.8867C178.286 53.7762 178.09 54.1396 177.952 52.7745C177.91 52.3649 178.045 50.8716 177.953 50.601C177.652 49.7087 177.314 51.1153 177.449 47.4955C177.455 47.3367 177.62 47.8424 177.63 47.2936C177.695 43.7465 177.38 43.3221 177.342 39.4878C177.312 36.4824 177.504 31.1373 177.535 27.7152C178.04 27.7871 177.924 24.5549 177.577 23.2437C177.591 21.0228 177.571 18.6241 177.619 16.4775C177.636 15.7388 177.782 16.2241 177.797 16.131C178.045 14.7025 177.707 13.737 177.693 13.2576C177.592 9.18462 177.728 5.70314 177.671 2L178 2.32939C176.979 2.34519 175.942 2.37566 174.871 2.42978C174.695 2.43881 174.41 2.78904 173.084 2.53331C172.998 2.51569 174.636 2.35634 172.304 2.34401C169.971 2.33166 165.573 2.14392 162.334 2.30621C161.551 2.34528 159.568 2.62959 157.977 2.40745C157.765 2.37729 157.997 2.27684 157.691 2.22095C156.702 2.04284 156.162 2.39684 155 2.0961C153.837 1.79537 151.419 1.57015 148.153 1.77764C148.049 1.78367 147.275 2.06425 146.248 2.05981C144.609 2.05249 142.281 1.99404 140.569 1.99587C139.749 1.99684 140.274 2.17107 140.132 2.17425C134.62 2.27188 130.697 2.11656 124.792 2.04916C123.71 2.03645 120.6 2.27403 118.504 2.0862C116.203 1.88059 118.568 1.02525 113.279 1.22903C111.146 1.31054 108.445 2.39568 104.612 1.83347C97.1772 1.97278 90.3017 1.68504 82.8464 1.88396C82.5111 1.89278 81.451 2.19563 80.6628 2.19151C79.4927 2.1848 78.8504 2.04326 78.0149 2.03393C74.5139 1.99129 71.3101 2.1124 67.9346 2.09356C66.6531 2.08672 67.1012 1.94036 65.5727 1.93218C64.0451 1.92413 63.0265 2.11686 60.9565 2.02378C59.3931 1.95283 57.83 1.5589 55.7549 1.51298C55.6758 1.90155 54.2506 1.89355 51.7174 1.99612C51.2305 2.01602 51.7526 2.15127 51.5223 2.16766C50.5848 2.23736 49.7173 2.12527 48.8272 2.20115C48.6107 2.21938 48.6005 2.35208 48.4235 2.37447C46.9183 2.56989 44.4385 2.2714 44.0125 2.21942C42.3802 2.02204 41.6174 2.19463 40.3653 2.11691C39.1153 2.03919 40.9844 1.94204 39.5242 1.89487C36.4975 1.79733 32.6087 1.81876 29.5348 1.81266C28.3083 1.81104 29.1451 1.98818 28.9695 1.99206C26.4334 2.03699 23.8687 1.84857 22.4625 2.20141C20.7041 1.2891 20.9331 2.2899 17.3079 2.10726C17.0224 2.09249 16.6591 1.66107 17.7554 1.59773C18.8517 1.53445 20.5141 1.66931 22.0352 1.57058C22.3954 1.54741 24.4587 1.14314 24.7403 1.11865C26.9455 0.927258 27.258 1.57196 27.3747 1.60737C28.6978 1.98951 31.2193 1.55398 31.8833 1.52389C34.9209 1.386 37.5017 1.47666 40.0423 1.37824C41.704 1.31462 41.8666 0.892316 43.1714 0.905243C47.5089 0.947968 49.023 1.53709 53.1103 1.02628C53.9867 0.917338 53.1158 0.45577 56.2562 0.818714C56.4535 0.841594 58.7851 1.17362 60.1322 0.963606C60.3014 0.937126 60.296 0.802609 60.5191 0.791308C62.0145 0.718214 63.0117 0.825379 64.6407 0.774053C66.2695 0.722728 68.2282 0.646213 70.0879 0.691838C71.2087 0.71912 72.6468 0.969745 73.1834 1.0311C74.6983 1.20786 76.3227 0.918052 77.2612 1.1321C78.2076 1.34722 76.3574 1.67392 78.8392 1.81291C78.9311 1.46343 79.1423 1.10471 79.29 0.753246C84.729 0.765551 90.0805 0.87856 95.5376 0.86312C96.2141 0.860856 95.5222 0.672971 96.2475 0.665701C99.3075 0.635853 101.98 0.76979 105.153 0.716452C107.61 0.674446 110.303 0.475516 112.872 0.425399C114.441 0.825309 118.252 0.689549 121.021 0.726094C121.991 0.738722 121.926 0.84553 122.616 0.880375C125.218 1.00925 123.998 0.655849 124.712 0.600233C127.772 0.362876 128.034 1.16277 131.643 1.14301C131.834 1.14223 134.171 0.715852 134.493 0.6893C136.538 0.51616 134.831 0.837707 136.111 0.86921C138.448 0.926782 140.071 1.02861 142.813 0.90372C143.613 0.866729 145.53 0.600971 147.083 0.806534C147.287 0.833451 147.174 0.974384 147.338 0.982637C150.314 1.12022 150.392 0.677383 152.093 0.527407C153.793 0.377463 156.42 0.683157 156.954 0.771262C158.353 0.999184 155.883 0.868667 155.807 0.891033C154.917 1.15721 156.833 1.11138 158.297 1.13387C158.509 1.56808 160.556 1.54201 159.814 1.15544C159.73 1.11322 158.591 1.15371 158.297 1.13387C159.582 0.707861 161.831 0.653302 164.316 1.0514C165.479 1.23799 164.38 1.45554 167.913 1.37595C169.516 1.34003 168.897 1.04106 170.312 0.959546C172.606 0.827581 175.387 0.929683 178 0.984415L179.02 0.989225L179.016 2C178.993 3.06938 178.979 4.11044 178.991 5.07837C179.007 6.28803 179.171 5.10963 179.188 5.93634C179.232 8.13023 179.109 10.0651 179.172 12.2685C179.178 12.4681 179.349 11.9803 179.352 12.6655C179.371 17.8598 179.262 22.3827 179.259 27.806C179.257 30.4264 179.352 35.1112 179.333 37.8257C179.301 42.5304 179.052 48.318 179.112 52.3371C179.151 54.9585 179.322 54.3834 179.439 55.5066C179.665 57.674 179.26 61.5105 179.197 62.0271C179.195 62.0429 179.155 59.7872 179.067 60.9908C178.884 61.6906 179.196 62.0016 179.197 62.0271C179.157 62.3663 179.118 66.8723 179.151 67.767C179.168 68.2532 179.331 67.9813 179.337 68.2347C179.482 74.26 179.524 80.2958 179.448 86.4068C179.444 86.5143 179.263 86.3523 179.257 86.6053C179.177 90.1431 179.399 92.4084 179.531 95.3262C179.663 98.2435 179.618 100.557 179.307 102.284C179.346 104.485 179.208 107.643 179.124 109.461C179.041 111.278 179.394 111.532 179.401 111.692C179.625 116.679 179.423 119.562 179.391 124.736C179.376 127.196 179.427 132.075 179.465 134.739C179.497 136.844 179.414 138.112 179.467 140.051C179.474 140.314 179.631 140.049 179.637 140.129C179.826 142.293 179.441 141.253 179.372 141.7C179.122 143.32 178.989 144.321 179.107 147.094C179.134 147.733 179.688 149.595 179.72 150.761C179.761 152.276 179.563 151.704 179.611 153.291C179.615 153.427 179.737 153.399 179.732 154.378C179.708 158.923 179.637 163.879 179.649 168.603C179.65 169.248 179.845 168.421 179.85 169.353C179.873 173.728 179.866 178.523 179.775 182.785C179.752 183.834 179.615 183.176 179.575 183.404C179.331 184.802 179.686 186.785 179.693 187.112C179.863 194.915 179.542 200.887 179.695 208.84C179.704 209.273 180.085 212.605 179.758 214.092C179.736 214.194 179.402 215.665 179.631 216.966C179.645 217.046 179.817 216.13 179.799 217.729C179.782 219.329 179.897 221.903 179.708 224.102C179.648 224.798 179.315 226.443 179.581 228.519C179.599 228.655 180.2 231.86 179.785 233.004C179.717 233.19 179.279 232.996 179.504 235.474C179.547 235.947 179.645 235.088 179.706 236.335C179.8 238.247 179.683 240.779 179.878 243.128C179.913 243.538 180.21 245.282 179.984 246.681C179.949 246.901 179.803 246.484 179.786 247.223C179.708 250.737 179.806 254.416 179.704 257.983C179.669 259.247 179.432 258.601 179.369 259.918C179.305 261.235 179.244 263.889 179.352 265.267C179.461 266.646 179.838 265.14 179.868 267.205C179.872 267.47 179.875 267.735 179.879 268L179.87 269.887L178 269.879C169.291 269.986 160.657 269.777 151.956 269.745C150.626 269.741 151.728 269.876 149.769 269.878C142.544 269.888 130.07 270.015 123.801 269.728C118.778 269.498 125.099 269.323 121.261 269.23C119.408 269.185 117.404 269.624 116.957 269.638C112.589 269.778 109.554 269.584 105.622 269.643C104.81 269.655 105.606 269.833 104.915 269.842C102.555 269.873 100.075 269.793 97.8196 269.808C96.8078 269.815 96.9942 269.95 96.0633 269.94C93.8356 269.916 91.8658 269.859 89.6941 269.732C89.4962 269.721 90.8308 269.552 89.1827 269.545C86.5153 269.536 83.2043 269.41 80.1354 269.54C79.2248 269.579 79.1891 269.889 77.2318 269.675C76.8212 269.63 77.3451 269.257 75.065 269.579C74.6816 269.633 70.8514 270.067 68.9718 269.787C68.4759 269.714 67.2103 269.409 66.1152 269.457C65.9668 269.464 66.5616 269.631 65.6543 269.647C62.4564 269.702 59.105 269.684 55.8197 269.736C54.9423 269.75 56.249 269.923 54.9415 269.938C51.3458 269.982 46.8566 269.938 43.3405 269.884C42.0442 269.864 42.9402 269.721 42.8459 269.706C41.329 269.453 40.4322 269.794 39.9288 269.814C36.7977 269.933 34.4135 269.773 31.5275 269.815C30.731 269.826 31.2958 269.989 31.1372 270.004C29.4929 270.145 30.7178 269.853 29.677 269.821C26.7613 269.73 23.5109 269.743 20.5623 269.764C19.4793 269.772 20.6965 269.96 19.7246 269.965C14.1841 269.996 8.43238 269.981 3 269.887L1.10443 269.878L1.11328 268C1.11689 267.792 1.12061 267.584 1.12445 267.377C1.14438 266.32 1.28969 266.985 1.32288 266.764C1.55509 265.246 1.23836 263.02 1.20819 262.508C1.07043 260.18 1.19893 259.276 1.17495 257.219C1.05553 247.174 1.14064 234.771 1.19322 225.289C1.26089 212.933 1.39913 203.346 1.36323 191.563C1.36113 190.814 1.16782 191.569 1.16353 190.924C1.11693 182.589 1.19246 174.384 1.13663 166.033C1.13239 165.347 0.94913 166.335 0.936165 165.235C0.908289 162.979 0.91825 160.121 0.976766 157.84C1.00496 156.727 1.16221 158.22 1.18738 157.1C1.24634 154.492 1.25939 151.697 1.23001 149.018C1.21711 147.878 1.02968 149.598 1.02752 148.116C1.00892 138.024 0.976642 128.112 1.21935 117.913C1.23602 117.213 1.61695 116.6 1.5439 115.113C1.43818 115.001 1.31382 115.007 1.20083 114.958C1.13996 100.266 1.27202 85.7238 1.29243 70.9903C1.29325 70.3691 1.09141 71.4427 1.09197 70.24C1.09495 63.2792 1.03904 56.5199 1.23965 49.3998C1.25927 48.6934 1.61435 49.0558 1.56065 46.974C1.55085 46.6068 1.50349 43.4713 1.42641 42.6606C1.41479 42.5505 1.24905 43.1225 1.24422 42.1122C1.21905 36.2406 1.25689 30.0875 1.35815 24.2261C1.37481 23.2801 1.55131 24.2875 1.56471 23.6138C1.6584 18.8343 1.52423 13.6357 1.68448 9.06873C1.79238 6.01176 2.09747 7.14354 2.39777 5.51911C2.44014 5.28935 2.44686 3.39638 2.62158 3.29849C3.06095 3.04718 3.54205 3.96407 4.01037 3.58784C4.11124 3.50836 4.00259 0.973188 4.24636 2.47417C4.26267 2.57903 4.34357 4.41704 4.42627 4.86974C4.48344 5.18493 4.66113 4.61695 4.73432 5.26003C4.80744 5.90306 4.65848 6.60967 4.74447 7.6758C4.83152 8.74145 5.03367 8.27288 5.0576 10.4011ZM178.751 117.643C178.581 119.326 179.203 119.574 179.054 117.754C179.046 117.666 178.759 117.557 178.751 117.643ZM90.0499 1.34753C92.2498 1.62176 93.7552 1.21853 92.2033 1.00674C90.6516 0.795181 89.3797 1.2644 90.0499 1.34753ZM67.2382 1.54774C69.8092 1.76396 70.214 0.882309 67.4602 1.06054C67.3001 1.07061 67.0878 1.53519 67.2382 1.54774ZM2.48329 13.0524C2.49155 13.0291 2.49959 11.6684 2.49141 11.6359C2.29395 10.9113 2.27799 13.6322 2.48329 13.0524ZM44.6013 1.76571C45.4039 1.88498 47.7149 1.7473 46.7176 1.599C45.9149 1.47969 43.6017 1.61736 44.6013 1.76571ZM178.087 205.422C178.078 205.448 178.069 206.424 178.122 206.404C178.291 206.338 178.243 204.98 178.087 205.422ZM6.12747 1.77586C11.8118 1.80905 15.2583 2.53734 9.0681 2.45516C7.94713 2.44029 11.4841 2.22291 10.0573 2.15725C7.44657 2.03763 5.71308 2.49491 3.04889 2.24987C2.56659 2.20502 5.80322 1.77235 6.13758 1.77485C6.13419 1.77519 6.13084 1.77553 6.12747 1.77586ZM178.004 118.612C177.996 118.646 177.988 119.997 177.996 120.029C178.193 120.76 178.209 118.04 178.004 118.612ZM177.703 262.347C177.685 262.421 177.669 265.555 177.685 265.658C178.008 267.292 178.042 260.956 177.703 262.347ZM177.549 27.6614C177.35 26.1878 177.327 24.4251 177.576 23.2504C177.563 24.7148 177.561 26.189 177.549 27.6614Z" fill="white"/>
<path d="M70.2875 119.045H74.7985V119.89H70.2875V119.045ZM69.3515 121.333H75.7735V122.178H69.3515V121.333ZM72.0685 119.487H72.9915V126C72.9915 126.243 72.9611 126.429 72.9005 126.559C72.8398 126.698 72.7271 126.806 72.5625 126.884C72.4065 126.953 72.1985 126.997 71.9385 127.014C71.6785 127.031 71.3491 127.04 70.9505 127.04C70.9245 126.919 70.8811 126.776 70.8205 126.611C70.7598 126.446 70.6991 126.308 70.6385 126.195C70.9245 126.204 71.1801 126.208 71.4055 126.208C71.6308 126.208 71.7825 126.204 71.8605 126.195C71.9991 126.195 72.0685 126.126 72.0685 125.987V119.487ZM72.4715 116.068C72.2635 116.475 71.9991 116.904 71.6785 117.355C71.3665 117.806 71.0155 118.243 70.6255 118.668C70.2355 119.084 69.8281 119.457 69.4035 119.786C69.3515 119.665 69.2735 119.526 69.1695 119.37C69.0741 119.205 68.9788 119.067 68.8835 118.954C69.3168 118.651 69.7328 118.282 70.1315 117.849C70.5301 117.416 70.8898 116.961 71.2105 116.484C71.5311 115.999 71.7868 115.535 71.9775 115.093H72.9005C73.1605 115.57 73.4681 116.046 73.8235 116.523C74.1788 116.991 74.5558 117.429 74.9545 117.836C75.3618 118.235 75.7648 118.573 76.1635 118.85C76.0681 118.971 75.9685 119.114 75.8645 119.279C75.7691 119.444 75.6825 119.595 75.6045 119.734C75.2145 119.422 74.8201 119.062 74.4215 118.655C74.0315 118.239 73.6675 117.806 73.3295 117.355C72.9915 116.904 72.7055 116.475 72.4715 116.068ZM73.8625 123.049L74.6555 122.763C74.8375 123.075 75.0151 123.409 75.1885 123.764C75.3705 124.119 75.5308 124.466 75.6695 124.804C75.8168 125.133 75.9251 125.428 75.9945 125.688L75.1365 126.013C75.0758 125.762 74.9761 125.463 74.8375 125.116C74.7075 124.769 74.5558 124.418 74.3825 124.063C74.2178 123.699 74.0445 123.361 73.8625 123.049ZM70.2355 122.867L71.0805 123.049C70.9331 123.604 70.7338 124.145 70.4825 124.674C70.2398 125.194 69.9755 125.64 69.6895 126.013C69.6375 125.961 69.5681 125.909 69.4815 125.857C69.3948 125.796 69.3038 125.74 69.2085 125.688C69.1131 125.627 69.0265 125.58 68.9485 125.545C69.2431 125.198 69.4988 124.787 69.7155 124.31C69.9321 123.833 70.1055 123.352 70.2355 122.867ZM64.8015 118.889H65.6465V127.027H64.8015V118.889ZM65.3085 120.436H68.4025V121.112H65.3085V120.436ZM65.6595 117.433H68.1945V118.135H65.6595V117.433ZM65.3215 123.556H68.8835V124.336H65.3215V123.556ZM65.3215 125.22H69.0785V126H65.3215V125.22ZM65.3215 118.889H68.8185V122.685H65.3215V121.996H67.9995V119.578H65.3215V118.889ZM66.2315 115.08H66.7385V115.288H67.0245V115.548C66.7731 116.016 66.4265 116.553 65.9845 117.16C65.5511 117.758 65.0138 118.321 64.3725 118.85C64.3031 118.755 64.2035 118.646 64.0735 118.525C63.9521 118.404 63.8395 118.317 63.7355 118.265C64.3335 117.797 64.8448 117.273 65.2695 116.692C65.6941 116.111 66.0148 115.574 66.2315 115.08ZM66.5305 115.08H67.2065C67.4665 115.305 67.7308 115.557 67.9995 115.834C68.2768 116.111 68.5325 116.389 68.7665 116.666C69.0091 116.935 69.2041 117.182 69.3515 117.407L68.7405 118.07C68.6018 117.853 68.4155 117.606 68.1815 117.329C67.9561 117.043 67.7135 116.757 67.4535 116.471C67.2021 116.176 66.9465 115.921 66.6865 115.704H66.5305V115.08ZM80.6338 116.504C81.2305 116.504 81.7616 116.62 82.2271 116.853C82.6925 117.082 83.0565 117.403 83.3188 117.818C83.5854 118.228 83.7188 118.696 83.7188 119.221C83.7188 119.745 83.5854 120.215 83.3188 120.63C83.0565 121.04 82.6925 121.362 82.2271 121.595C81.7616 121.823 81.2305 121.938 80.6338 121.938C80.0413 121.938 79.5081 121.823 79.0342 121.595C78.5602 121.362 78.1899 121.04 77.9233 120.63C77.661 120.215 77.5298 119.745 77.5298 119.221C77.5298 118.696 77.661 118.228 77.9233 117.818C78.1899 117.403 78.5602 117.082 79.0342 116.853C79.5081 116.62 80.0413 116.504 80.6338 116.504ZM80.6338 117.558C80.2656 117.558 79.9355 117.625 79.6436 117.761C79.3558 117.896 79.1294 118.091 78.9644 118.345C78.7993 118.599 78.7168 118.891 78.7168 119.221C78.7168 119.551 78.7993 119.841 78.9644 120.09C79.1294 120.34 79.3558 120.535 79.6436 120.674C79.9355 120.814 80.2656 120.884 80.6338 120.884C81.002 120.884 81.3299 120.814 81.6177 120.674C81.9097 120.535 82.1361 120.34 82.2969 120.09C82.4619 119.841 82.5444 119.551 82.5444 119.221C82.5444 118.891 82.4619 118.599 82.2969 118.345C82.1361 118.091 81.9097 117.896 81.6177 117.761C81.3299 117.625 81.002 117.558 80.6338 117.558ZM86.3276 127.104H85.1279V115.698H86.3276V127.104ZM76.9775 123.651C77.917 123.647 78.7676 123.637 79.5293 123.62C80.2952 123.603 81.1077 123.569 81.9668 123.518C82.8301 123.463 83.6447 123.381 84.4106 123.271L84.4995 124.153C83.7082 124.297 82.8851 124.407 82.0303 124.483C81.1797 124.555 80.3799 124.601 79.6309 124.623C78.8818 124.644 78.0503 124.654 77.1362 124.654L76.9775 123.651ZM101.74 125.632H91.3296V124.654H101.74V125.632ZM97.0742 124.953H95.8809V121.931H97.0742V124.953ZM96.8965 117.285C96.8965 118.068 96.6828 118.8 96.2554 119.481C95.828 120.162 95.2567 120.736 94.5415 121.201C93.8263 121.662 93.0498 121.976 92.2119 122.141L91.6851 121.144C92.4129 121.021 93.0942 120.767 93.729 120.382C94.368 119.997 94.8779 119.532 95.2588 118.986C95.6439 118.44 95.8364 117.873 95.8364 117.285V116.44H96.8965V117.285ZM97.106 117.285C97.106 117.877 97.2985 118.446 97.6836 118.992C98.0729 119.534 98.5871 119.997 99.2261 120.382C99.8693 120.767 100.555 121.021 101.283 121.144L100.756 122.141C99.9137 121.971 99.1351 121.658 98.4199 121.201C97.7048 120.74 97.1335 120.171 96.7061 119.494C96.2829 118.817 96.0713 118.08 96.0713 117.285V116.44H97.106V117.285ZM112.004 127.104H110.804V115.698H112.004V127.104ZM104.184 123.366C105.237 123.37 106.202 123.342 107.078 123.283C107.958 123.224 108.866 123.12 109.801 122.972L109.922 123.962C108.974 124.119 108.056 124.227 107.167 124.286C106.278 124.341 105.284 124.369 104.184 124.369H103.212V123.366H104.184ZM108.525 120.884H104.444V123.747H103.212V119.919H107.307V117.71H103.193V116.726H108.525V120.884ZM37.1401 139.638H35.5361V136.503H37.1401V139.638ZM36.3491 129.801C37.2866 129.801 38.1289 129.95 38.876 130.248C39.6279 130.546 40.2163 130.966 40.6411 131.508C41.0659 132.05 41.2783 132.672 41.2783 133.375C41.2783 134.098 41.0659 134.73 40.6411 135.272C40.2163 135.814 39.6304 136.234 38.8833 136.532C38.1362 136.825 37.2915 136.972 36.3491 136.972C35.4067 136.972 34.5596 136.825 33.8076 136.532C33.0605 136.234 32.4746 135.814 32.0498 135.272C31.6299 134.73 31.4199 134.098 31.4199 133.375C31.4199 132.672 31.6299 132.05 32.0498 131.508C32.4746 130.966 33.0605 130.546 33.8076 130.248C34.5596 129.95 35.4067 129.801 36.3491 129.801ZM36.3491 131.112C35.7046 131.112 35.1284 131.205 34.6206 131.391C34.1128 131.576 33.7173 131.84 33.4341 132.182C33.1558 132.523 33.0166 132.921 33.0166 133.375C33.0166 133.844 33.1558 134.252 33.4341 134.599C33.7173 134.945 34.1104 135.211 34.6133 135.397C35.1162 135.578 35.6948 135.67 36.3491 135.675C37.0034 135.67 37.5796 135.578 38.0776 135.397C38.5806 135.211 38.9712 134.945 39.2495 134.599C39.5327 134.252 39.6743 133.844 39.6743 133.375C39.6743 132.921 39.5327 132.523 39.2495 132.182C38.9712 131.84 38.5806 131.576 38.0776 131.391C37.5747 131.205 36.9985 131.112 36.3491 131.112ZM42.4209 140.7H30.3213V139.359H42.4209V140.7ZM54.2935 142.326H52.6455V129.062H54.2935V142.326ZM45.2188 137.741C46.7227 137.741 47.9189 137.716 48.8076 137.667C49.7012 137.614 50.5898 137.509 51.4736 137.353L51.6274 138.693C50.7339 138.859 49.8232 138.971 48.8955 139.03C47.9727 139.088 46.7471 139.12 45.2188 139.125H44.1055V137.741H45.2188ZM50.4849 131.596H45.7314V138.268H44.1055V130.263H50.4849V131.596ZM63.0679 139.638H61.4639V136.503H63.0679V139.638ZM62.2769 129.801C63.2144 129.801 64.0566 129.95 64.8037 130.248C65.5557 130.546 66.144 130.966 66.5688 131.508C66.9937 132.05 67.2061 132.672 67.2061 133.375C67.2061 134.098 66.9937 134.73 66.5688 135.272C66.144 135.814 65.5581 136.234 64.811 136.532C64.064 136.825 63.2192 136.972 62.2769 136.972C61.3345 136.972 60.4873 136.825 59.7354 136.532C58.9883 136.234 58.4023 135.814 57.9775 135.272C57.5576 134.73 57.3477 134.098 57.3477 133.375C57.3477 132.672 57.5576 132.05 57.9775 131.508C58.4023 130.966 58.9883 130.546 59.7354 130.248C60.4873 129.95 61.3345 129.801 62.2769 129.801ZM62.2769 131.112C61.6323 131.112 61.0562 131.205 60.5483 131.391C60.0405 131.576 59.645 131.84 59.3618 132.182C59.0835 132.523 58.9443 132.921 58.9443 133.375C58.9443 133.844 59.0835 134.252 59.3618 134.599C59.645 134.945 60.0381 135.211 60.541 135.397C61.0439 135.578 61.6226 135.67 62.2769 135.675C62.9312 135.67 63.5073 135.578 64.0054 135.397C64.5083 135.211 64.8989 134.945 65.1772 134.599C65.4604 134.252 65.6021 133.844 65.6021 133.375C65.6021 132.921 65.4604 132.523 65.1772 132.182C64.8989 131.84 64.5083 131.576 64.0054 131.391C63.5024 131.205 62.9263 131.112 62.2769 131.112ZM68.3486 140.7H56.249V139.359H68.3486V140.7ZM82.6748 130.922H74.186V129.618H82.6748V130.922ZM83.4219 130.819C83.4219 131.405 83.4146 131.896 83.3999 132.292C83.3901 132.687 83.356 133.131 83.2974 133.625C83.2437 134.118 83.1606 134.643 83.0483 135.199L81.4443 135.06C81.5566 134.533 81.6396 134.032 81.6934 133.559C81.7471 133.08 81.7788 132.648 81.7886 132.262C81.8032 131.876 81.8105 131.396 81.8105 130.819V129.618H83.4219V130.819ZM74.0322 133.617L73.8271 132.27L82.2866 132.057V133.258L74.0322 133.617ZM84.8281 137.228H72.8018V135.939H84.8281V137.228ZM79.064 136.774H77.4307V134.188H79.064V136.774ZM83.6709 142.091H74.2446V140.78H83.6709V142.091ZM75.8779 141.366H74.2446V138.158H75.8779V141.366ZM93.5513 134.02H91.4126V132.738H93.5513V134.02ZM97.0669 138.971H95.5142V129.076H97.0669V138.971ZM94.4595 138.649H92.8994V129.325H94.4595V138.649ZM97.4258 142.055H88.2778V140.722H97.4258V142.055ZM89.9258 141.579H88.2778V137.887H89.9258V141.579ZM87.1792 135.675C88.3267 135.675 89.2227 135.658 89.8672 135.624C90.5117 135.585 91.1709 135.502 91.8447 135.375L92.0059 136.664C91.2881 136.796 90.5801 136.884 89.8818 136.928C89.1885 136.972 88.2876 136.994 87.1792 136.994H86.3003V135.675H87.1792ZM91.3467 131.42H87.8604V136.129H86.3003V130.102H91.3467V131.42ZM90.834 134.145H87.3843V132.899H90.834V134.145ZM110.814 140.707H98.7148V139.367H110.814V140.707ZM105.351 132.145C105.351 133.039 105.124 133.856 104.669 134.599C104.22 135.336 103.581 135.954 102.75 136.452C101.92 136.945 100.956 137.284 99.8574 137.47L99.2349 136.166C100.197 136.024 101.029 135.753 101.732 135.353C102.44 134.953 102.982 134.474 103.358 133.917C103.734 133.361 103.922 132.77 103.922 132.145V131.859H105.351V132.145ZM105.585 132.145C105.585 132.77 105.771 133.361 106.142 133.917C106.518 134.474 107.06 134.953 107.768 135.353C108.48 135.753 109.315 136.024 110.272 136.166L109.635 137.47C108.532 137.284 107.565 136.945 106.735 136.452C105.905 135.954 105.263 135.336 104.809 134.599C104.354 133.856 104.127 133.039 104.127 132.145V131.859H105.585V132.145ZM109.723 132.321H99.7842V131.01H109.723V132.321ZM105.548 131.53H103.937V129.311H105.548V131.53ZM115.59 139.806L121.032 131.999H115.561V130.395H123.397V131.588L117.963 139.396H123.427V141H115.59V139.806ZM128.554 141.154C127.792 141.154 127.121 140.983 126.54 140.641C125.963 140.299 125.519 139.818 125.207 139.198C124.894 138.578 124.738 137.863 124.738 137.052C124.738 136.232 124.894 135.514 125.207 134.899C125.519 134.279 125.963 133.798 126.54 133.456C127.121 133.114 127.792 132.943 128.554 132.943C129.32 132.943 129.992 133.114 130.568 133.456C131.144 133.798 131.586 134.279 131.894 134.899C132.201 135.514 132.355 136.232 132.355 137.052C132.355 137.863 132.201 138.578 131.894 139.198C131.586 139.818 131.144 140.299 130.568 140.641C129.992 140.983 129.32 141.154 128.554 141.154ZM128.568 139.667C128.979 139.667 129.325 139.552 129.608 139.323C129.896 139.088 130.111 138.773 130.253 138.378C130.395 137.982 130.465 137.538 130.465 137.045C130.465 136.547 130.395 136.1 130.253 135.705C130.111 135.309 129.896 134.997 129.608 134.767C129.325 134.533 128.979 134.416 128.568 134.416C128.148 134.416 127.792 134.533 127.499 134.767C127.206 134.997 126.986 135.309 126.84 135.705C126.693 136.1 126.62 136.547 126.62 137.045C126.62 137.543 126.693 137.99 126.84 138.385C126.986 138.776 127.206 139.088 127.499 139.323C127.792 139.552 128.148 139.667 128.568 139.667ZM135.68 141H133.82V133.046H135.6V134.394H135.688C135.883 133.935 136.181 133.578 136.581 133.324C136.981 133.07 137.475 132.943 138.061 132.943C138.612 132.943 139.091 133.061 139.496 133.295C139.906 133.524 140.221 133.864 140.441 134.313C140.666 134.762 140.778 135.302 140.778 135.932V141H138.917V136.217C138.917 135.861 138.856 135.558 138.734 135.309C138.612 135.055 138.437 134.86 138.207 134.723C137.978 134.586 137.697 134.518 137.365 134.518C137.033 134.518 136.74 134.589 136.486 134.73C136.232 134.872 136.034 135.08 135.893 135.353C135.751 135.626 135.68 135.954 135.68 136.334V141ZM146.095 141.154C145.309 141.154 144.625 140.988 144.044 140.656C143.463 140.324 143.014 139.85 142.697 139.235C142.384 138.62 142.228 137.899 142.228 137.074C142.228 136.259 142.384 135.539 142.697 134.914C143.014 134.284 143.456 133.798 144.022 133.456C144.589 133.114 145.248 132.943 146 132.943C146.679 132.943 147.292 133.087 147.838 133.375C148.385 133.664 148.82 134.11 149.142 134.716C149.464 135.316 149.625 136.061 149.625 136.95V137.536H143.114V136.269H147.838C147.838 135.907 147.763 135.585 147.611 135.302C147.46 135.019 147.245 134.796 146.967 134.635C146.693 134.474 146.378 134.394 146.022 134.394C145.641 134.394 145.304 134.484 145.011 134.665C144.718 134.845 144.489 135.089 144.323 135.397C144.162 135.7 144.079 136.032 144.074 136.393V137.477C144.074 137.941 144.157 138.341 144.323 138.678C144.494 139.01 144.733 139.264 145.041 139.44C145.348 139.616 145.707 139.704 146.117 139.704C146.381 139.704 146.618 139.667 146.828 139.594C147.042 139.521 147.226 139.425 147.377 139.308C147.528 139.186 147.643 139.042 147.721 138.876H149.552C149.44 139.33 149.228 139.73 148.915 140.077C148.607 140.419 148.212 140.685 147.729 140.875C147.245 141.061 146.701 141.154 146.095 141.154Z" fill="white"/>
</svg>
