<svg width="175" height="272" viewBox="0 0 175 272" fill="none" xmlns="http://www.w3.org/2000/svg">
<path d="M3.97966 10.363C4.03177 15.2831 3.97605 21.7325 3.89958 26.634C3.87587 28.1701 3.76985 27.3922 3.7487 28.4526C3.70748 30.5266 3.75948 32.4587 3.71037 34.5082C3.69358 35.1874 3.52565 34.3419 3.51189 35.0541C3.43767 38.9569 3.48045 42.649 3.44475 46.6025C3.26863 66.0764 3.20559 85.2187 3.12908 104.931C3.10399 111.43 2.95159 119.331 3.01824 126.045C3.02617 126.829 3.17357 126.361 3.18572 126.51C3.3717 128.849 3.07413 128.071 3.0346 129.598C2.87849 135.659 2.86492 142.398 2.9218 148.231C2.94644 150.712 3.23921 148.224 3.07488 150.723C3.06378 150.896 2.90725 150.266 2.89055 150.947C2.853 152.49 2.88098 155.418 2.86858 156.614C2.84389 158.919 2.84546 159.3 2.84368 161.481C2.83988 164.461 2.76207 168.006 2.79754 171.204C2.80557 171.886 2.96603 170.983 2.99334 172.071C3.0206 173.161 3.00699 176.043 2.96917 177.015C2.93132 177.987 2.8052 177.573 2.7763 177.745C2.5323 179.16 2.87023 182.494 2.87859 182.923C3.02099 190.744 2.82848 197.452 2.82903 204.794C2.82985 210.368 2.89341 216.327 2.88469 221.631C2.87369 227.949 2.78674 233.304 2.80169 239.442C2.80308 240.09 2.99174 239.331 2.99382 240.122C3.01578 248.528 2.99521 256.876 2.86785 265.246C2.85491 266.085 2.68926 265.003 2.66643 265.842C2.63334 267.09 2.58897 268.515 2.55112 270L2 269.449C6.62579 269.567 11.8413 269.621 14.1495 269.076C17.6274 269.104 21.8497 269.133 24.9611 269.278C26.9672 269.372 25.0188 269.552 27.4831 269.475C28.0389 269.458 27.3161 269.3 28.1497 269.286C31.6589 269.228 35.493 269.28 38.9646 269.198C39.6707 269.181 39.4779 269.039 39.678 269.014C41.3595 268.807 44.1587 269.149 44.7689 269.174C49.4157 269.359 52.8091 269.286 57.1379 269.29C58.1425 269.291 56.9551 269.101 57.9217 269.096C62.935 269.068 68.1283 269.085 73.0371 269.169C74.129 269.188 73.1249 269.35 73.6467 269.368C75.9474 269.443 76.4574 269.137 78.664 269.203C79.1292 269.217 78.8671 269.355 78.952 269.37C80.28 269.61 81.4339 269.271 81.7755 269.263C86.0964 269.161 88.8583 269.515 93.0325 269.465C93.5319 269.458 92.4058 269.283 93.8095 269.276C103.161 269.227 113.052 269.275 122.309 269.416C123.748 269.437 122.721 269.569 122.811 269.586C124.287 269.839 125.242 269.499 125.712 269.486C129.414 269.394 132.872 269.68 135.388 269.274C147.969 269.387 160.504 269.263 173 269.397L172.397 270C172.43 266.923 172.479 263.848 172.55 260.775C172.555 260.578 172.722 260.932 172.73 260.538C172.824 255.788 172.563 256.7 172.245 253.558C172.165 252.766 172.55 250.358 172.578 250.145C172.682 249.368 172.931 250.173 172.951 249.914C173.109 247.762 172.285 248.113 172.284 245.211C172.286 245.12 172.437 245.501 172.452 245.258C172.5 244.501 172.44 243.751 172.492 243.011C172.613 241.316 173.013 240.712 172.78 238.124C172.75 237.796 172.282 238.297 172.304 235.706C172.313 234.673 172.305 230.101 172.336 228.82C172.366 227.54 172.517 228.418 172.523 228.327C172.723 224.879 172.805 226.186 173.1 224.459C173.394 222.731 172.693 223.21 172.615 222.506C172.537 221.801 172.701 219.272 172.758 218.651C172.816 218.03 172.911 218.805 172.944 218.252C173.155 214.591 172.596 216.645 172.484 215.439C172.221 212.595 172.741 210.38 172.792 207.776C172.806 207.071 172.687 207.646 172.676 207.019C172.634 204.534 172.796 203.04 172.647 200.213C172.623 199.751 172.31 197.465 172.54 195.986C172.573 195.777 172.702 196.372 172.732 195.313C172.775 193.731 172.803 190.881 172.76 189.18C172.728 187.925 172.515 189.364 172.581 187.784C172.61 187.082 172.735 188.383 172.781 187.064C172.826 185.751 172.82 182.396 172.816 181.119C172.812 179.844 172.65 180.542 172.639 180.439C172.576 179.815 172.498 177.369 172.498 177.153C172.479 166.25 172.752 156.195 172.661 145.579C172.654 144.746 172.484 145.301 172.481 145.174C172.409 142.322 172.863 144.57 173.015 142.578C172.669 142.866 172.731 141.69 172.693 139.681C172.675 138.713 172.541 139.24 172.527 139.152C172.323 137.716 172.586 136.716 172.64 136.459C172.838 135.508 172.604 134.473 172.737 133.826C172.868 133.18 173.063 134.668 173.06 132.741C172.936 132.201 172.612 133.631 172.56 132.168C172.361 126.649 172.615 116.346 172.642 111.908C172.668 107.48 172.645 106.049 172.69 103.468C172.771 98.8065 172.531 100.515 172.42 97.6203C172.31 94.7173 172.902 96.1285 173.029 95.7112C173.157 95.3016 173.026 94.8543 173.096 94.3447C173.165 93.8368 173.252 94.9364 173.278 93.7418C173.304 92.5466 173.078 89.2788 172.945 88.8552C172.663 87.9596 172.368 89.4321 172.472 86.2695C172.478 86.0876 172.633 86.678 172.649 85.9815C172.769 80.4497 172.776 74.7029 172.882 69.178C172.897 68.4183 173.07 69.0976 173.081 68.6555C173.191 64.0504 172.899 65.6966 172.575 63.1727C173.007 63.7394 173.271 62.3437 173.273 58.8487C173.275 56.7477 173.086 57.1095 172.954 55.7506C172.914 55.3429 173.043 53.8563 172.954 53.5869C172.665 52.6986 172.34 54.0989 172.47 50.4955C172.476 50.3375 172.634 50.8408 172.644 50.2946C172.707 46.7635 172.404 46.341 172.367 42.5242C172.338 39.5324 172.523 34.2115 172.553 30.8049C173.038 30.8766 172.927 27.6589 172.593 26.3537C172.606 24.1429 172.587 21.755 172.634 19.6182C172.649 18.8829 172.79 19.366 172.805 19.2733C173.043 17.8512 172.718 16.8901 172.705 16.4129C172.581 11.241 172.828 7.02713 172.586 2.09128C172.585 2.06456 172.576 2.03515 172.563 2L173 2.43725C172.805 2.5116 172.431 2.72153 171.313 2.51311C171.227 2.49615 172.858 2.34284 170.536 2.33098C168.213 2.3191 163.836 2.13846 160.612 2.29461C159.832 2.3322 157.858 2.60574 156.274 2.39202C156.063 2.363 156.294 2.26635 155.99 2.21258C155.005 2.04122 154.467 2.38181 153.31 2.09246C152.153 1.80313 149.746 1.58644 146.494 1.78606C146.391 1.79187 145.621 2.06182 144.599 2.05755C142.966 2.0505 140.649 1.99427 138.945 1.99602C138.129 1.99696 138.651 2.16459 138.51 2.16765C133.023 2.26159 129.118 2.11215 123.24 2.04729C122.163 2.03507 119.066 2.26365 116.98 2.08294C114.69 1.88511 117.043 1.06217 111.779 1.25823C109.655 1.33665 106.967 2.38069 103.151 1.83977C95.7501 1.97381 88.9058 1.69697 81.4843 1.88836C81.1505 1.89684 80.0952 2.18822 79.3106 2.18426C78.1458 2.1778 77.5064 2.04162 76.6747 2.03265C73.1896 1.99162 70.0003 2.10814 66.6401 2.09002C65.3644 2.08343 65.8105 1.94262 64.2889 1.93474C62.7683 1.92701 61.7543 2.11244 59.6937 2.02288C58.1374 1.95462 56.5814 1.5756 54.5156 1.53143C54.4369 1.90528 53.0181 1.89758 50.4965 1.99627C50.0117 2.01542 50.5315 2.14554 50.3022 2.16131C49.369 2.22837 48.5054 2.12053 47.6194 2.19353C47.4038 2.21107 47.3937 2.33874 47.2175 2.36028C45.7191 2.5483 43.2505 2.26112 42.8265 2.21111C41.2016 2.02121 40.4422 2.18726 39.1959 2.11248C37.9516 2.03771 39.8121 1.94423 38.3586 1.89886C35.3456 1.805 31.4744 1.82562 28.4144 1.81976C27.1935 1.8182 28.0265 1.98863 27.8518 1.99236C25.3271 2.03559 22.7741 1.8543 21.3742 2.19378C19.6237 1.31602 19.8518 2.27891 16.2431 2.1032C15.9588 2.08899 15.5972 1.67391 16.6885 1.61297C17.7798 1.55209 19.4347 1.68184 20.9488 1.58685C21.3074 1.56455 23.3614 1.17559 23.6417 1.15203C25.8369 0.967893 26.148 1.58818 26.2642 1.62225C27.5813 1.98991 30.0913 1.57088 30.7523 1.54192C33.7761 1.40925 36.3452 1.49649 38.8743 1.40179C40.5285 1.34058 40.6903 0.934273 41.9892 0.946711C46.3071 0.987818 47.8142 1.55462 51.8831 1.06317C52.7555 0.958348 51.8885 0.514263 55.0147 0.863459C55.2111 0.885473 57.5321 1.20492 58.8731 1.00286C59.0415 0.977386 59.0362 0.847965 59.2583 0.837092C60.7468 0.766766 61.7396 0.869872 63.3612 0.820491C64.9826 0.771109 66.9324 0.697493 68.7837 0.741389C69.8994 0.767638 71.3309 1.00877 71.8651 1.0678C73.3731 1.23787 74.9901 0.959035 75.9244 1.16497C76.8666 1.37195 75.0247 1.68627 77.4952 1.82C77.5867 1.48375 77.797 1.13863 77.944 0.800471C83.3583 0.81231 88.6856 0.921039 94.1179 0.906184C94.7914 0.904006 94.1026 0.723238 94.8246 0.716243C97.8707 0.687525 100.531 0.816389 103.69 0.765071C106.135 0.724657 108.817 0.533262 111.374 0.485043C112.935 0.869805 116.729 0.739187 119.486 0.774348C120.451 0.786498 120.387 0.88926 121.073 0.922785C123.663 1.04678 122.45 0.706764 123.16 0.653255C126.206 0.424888 126.467 1.19449 130.059 1.17547C130.25 1.17472 132.576 0.764494 132.896 0.738948C134.932 0.572366 133.233 0.881733 134.507 0.912043C136.833 0.967434 138.45 1.0654 141.179 0.945246C141.975 0.909656 143.884 0.653965 145.429 0.851741C145.633 0.877638 145.52 1.01323 145.684 1.02117C148.646 1.15354 148.724 0.727482 150.416 0.583187C152.109 0.438923 154.724 0.733037 155.256 0.817805C156.648 1.03709 154.189 0.911521 154.114 0.933039C153.229 1.18913 155.135 1.14504 156.593 1.16668C156.804 1.58444 158.841 1.55936 158.103 1.18743C158.019 1.14681 156.885 1.18577 156.593 1.16668C157.872 0.756806 160.111 0.704313 162.584 1.08734C163.742 1.26685 162.648 1.47616 166.165 1.39959C167.761 1.36503 167.144 1.07738 168.553 0.998957C169.91 0.923524 171.438 0.927582 173 0.954346L174.05 0.959131L174.046 2C174.009 4.1435 173.929 6.35169 173.954 8.27076C173.969 9.47491 174.127 8.30187 174.143 9.12486C174.185 11.3088 174.067 13.2349 174.128 15.4282C174.133 15.6269 174.298 15.1414 174.3 15.8235C174.319 20.9942 174.214 25.4966 174.211 30.8954C174.21 33.5039 174.301 38.1674 174.282 40.8696C174.252 45.5529 174.012 51.3143 174.07 55.3152C174.107 57.9246 174.272 57.3521 174.385 58.4702C174.602 60.6278 174.212 64.4469 174.152 64.9612C174.15 64.9769 174.111 62.7315 174.026 63.9296C173.85 64.6262 174.151 64.9359 174.152 64.9612C174.113 65.2989 174.075 69.7845 174.107 70.6751C174.124 71.1591 174.28 70.8884 174.286 71.1407C174.426 77.1386 174.466 83.147 174.393 89.2303C174.39 89.3374 174.215 89.1761 174.21 89.4279C174.132 92.9498 174.346 95.2047 174.473 98.1093C174.6 101.013 174.557 103.317 174.257 105.036C174.295 107.227 174.162 110.371 174.082 112.18C174.001 113.989 174.341 114.241 174.348 114.4C174.563 119.365 174.369 122.235 174.338 127.386C174.323 129.834 174.373 134.692 174.41 137.343C174.44 139.439 174.36 140.701 174.411 142.632C174.418 142.893 174.569 142.629 174.575 142.709C174.756 144.864 174.386 143.828 174.32 144.273C174.08 145.886 173.952 146.882 174.065 149.642C174.091 150.278 174.624 152.132 174.655 153.293C174.694 154.801 174.503 154.232 174.55 155.811C174.553 155.946 174.671 155.918 174.666 156.893C174.644 161.418 174.575 166.352 174.587 171.054C174.588 171.696 174.775 170.873 174.78 171.801C174.802 176.156 174.795 180.929 174.707 185.171C174.685 186.216 174.554 185.561 174.515 185.788C174.28 187.179 174.622 189.153 174.628 189.479C174.793 197.246 174.483 203.191 174.631 211.108C174.639 211.539 175.006 214.857 174.691 216.337C174.671 216.438 174.349 217.902 174.569 219.197C174.583 219.277 174.748 218.365 174.731 219.957C174.714 221.55 174.825 224.112 174.643 226.301C174.586 226.994 174.265 228.632 174.521 230.699C174.539 230.833 175.117 234.024 174.718 235.163C174.652 235.348 174.23 235.155 174.447 237.622C174.489 238.093 174.583 237.237 174.641 238.479C174.732 240.382 174.619 242.902 174.807 245.241C174.84 245.649 175.127 247.385 174.909 248.778C174.875 248.996 174.734 248.582 174.719 249.317C174.643 252.815 174.737 256.477 174.64 260.028C174.605 261.286 174.378 260.643 174.317 261.954C174.256 263.266 174.197 265.908 174.301 267.28C174.405 268.652 174.768 267.153 174.797 269.209C174.801 269.473 174.804 269.736 174.807 270L174.799 271.816L173 271.807C164.33 271.911 155.735 271.709 147.074 271.679C145.75 271.675 146.847 271.804 144.897 271.807C137.704 271.817 125.287 271.938 119.047 271.662C114.046 271.441 120.339 271.273 116.518 271.183C114.674 271.14 112.679 271.562 112.234 271.576C107.886 271.71 104.864 271.524 100.95 271.581C100.142 271.593 100.935 271.764 100.247 271.772C97.8975 271.802 95.4283 271.725 93.1832 271.739C92.176 271.746 92.3616 271.877 91.4349 271.867C89.2173 271.844 87.2564 271.789 85.0946 271.667C84.8976 271.655 86.2262 271.493 84.5855 271.487C81.9302 271.478 78.6342 271.357 75.5792 271.482C74.6728 271.519 74.6372 271.818 72.6888 271.611C72.2801 271.568 72.8015 271.21 70.5318 271.52C70.1501 271.571 66.3374 271.989 64.4662 271.72C63.9726 271.649 62.7127 271.355 61.6227 271.401C61.4748 271.409 62.067 271.569 61.1638 271.585C57.9804 271.637 54.6442 271.62 51.3738 271.67C50.5004 271.684 51.8012 271.85 50.4996 271.865C46.9202 271.907 42.4513 271.865 38.9512 271.813C37.6608 271.793 38.5527 271.656 38.4588 271.641C36.9489 271.398 36.0561 271.726 35.555 271.745C32.4381 271.86 30.0647 271.706 27.1917 271.746C26.3989 271.757 26.9611 271.914 26.8032 271.928C25.1664 272.064 26.3857 271.783 25.3496 271.752C22.4472 271.664 19.2116 271.677 16.2763 271.697C15.1982 271.704 16.41 271.886 15.4424 271.891C11.006 271.915 6.43359 271.91 2 271.86L0.131607 271.851L0.140042 270C0.154585 268.71 0.172939 267.433 0.195493 266.173C0.214669 265.121 0.354478 265.783 0.38641 265.564C0.60982 264.052 0.305087 261.837 0.276059 261.327C0.143517 259.009 0.267153 258.109 0.244077 256.062C0.12918 246.062 0.211066 233.716 0.261655 224.277C0.326762 211.977 0.459765 202.433 0.425228 190.703C0.423208 189.958 0.237219 190.71 0.23309 190.067C0.188254 181.77 0.260931 173.602 0.207211 165.289C0.203133 164.606 0.026814 165.59 0.0143409 164.495C-0.0124794 162.249 -0.00289595 159.404 0.0534033 157.133C0.0805295 156.026 0.231827 157.511 0.256039 156.396C0.312764 153.8 0.325321 151.018 0.297055 148.351C0.284642 147.217 0.104312 148.929 0.102231 147.454C0.0843411 137.407 0.0532839 127.54 0.286801 117.387C0.302839 116.691 0.66934 116.08 0.599056 114.6C0.497342 114.489 0.377695 114.495 0.268979 114.446C0.210415 99.8205 0.337469 85.3441 0.357113 70.6774C0.3579 70.059 0.163709 71.1277 0.164243 69.9305C0.167114 63.0013 0.113317 56.2726 0.306332 49.1849C0.325208 48.4816 0.666837 48.8424 0.615169 46.77C0.605741 46.4045 0.56018 43.2832 0.486019 42.4762C0.474833 42.3666 0.315374 42.936 0.310727 41.9303C0.286512 36.0853 0.322916 29.9601 0.420346 24.1253C0.436375 23.1836 0.606185 24.1865 0.619075 23.5157C0.709218 18.758 0.580131 13.5829 0.734309 9.03667C0.838122 5.99357 1.13165 7.12021 1.42059 5.50315C1.46135 5.27443 1.46781 3.39005 1.63592 3.2926C2.05864 3.04243 2.52152 3.95516 2.9721 3.58064C3.06915 3.50152 2.96462 0.977844 3.19915 2.47202C3.21484 2.5764 3.29268 4.40608 3.37224 4.85673C3.42725 5.17049 3.59821 4.60509 3.66863 5.24525C3.73897 5.88536 3.59566 6.58876 3.67839 7.65006C3.76215 8.71088 3.95664 8.24443 3.97966 10.363ZM173.722 120.325C173.559 122 174.157 122.248 174.014 120.436C174.006 120.348 173.73 120.239 173.722 120.325ZM88.6551 1.37225C90.845 1.63609 92.3436 1.24814 90.7987 1.04437C89.2541 0.840818 87.988 1.29227 88.6551 1.37225ZM65.9468 1.56487C68.5062 1.7729 68.9091 0.924645 66.1679 1.09612C66.0085 1.10581 65.7972 1.55279 65.9468 1.56487ZM1.50286 13.0023C1.51081 12.9791 1.51855 11.6246 1.51067 11.5922C1.32069 10.8709 1.30534 13.5795 1.50286 13.0023ZM43.4127 1.77459C44.2116 1.88933 46.5121 1.75687 45.5194 1.61419C44.7202 1.4994 42.4176 1.63185 43.4127 1.77459ZM173.084 207.705C173.075 207.732 173.067 208.703 173.117 208.683C173.28 208.618 173.234 207.266 173.084 207.705ZM5.1133 1.78435C10.7718 1.81628 14.2027 2.51698 8.04058 2.43792C6.92469 2.42361 10.4456 2.21447 9.02528 2.1513C6.42645 2.03621 4.70073 2.47616 2.04868 2.24041C1.56856 2.19726 4.79051 1.78098 5.12334 1.78338C5.11998 1.7837 5.11662 1.78403 5.1133 1.78435ZM173.004 121.29C172.996 121.323 172.988 122.668 172.996 122.7C173.186 123.428 173.201 120.72 173.004 121.29ZM172.714 264.372C172.697 264.447 172.681 267.566 172.697 267.668C173.007 269.296 173.04 262.988 172.714 264.372ZM172.566 30.7513C172.375 29.2844 172.352 27.5297 172.592 26.3604C172.58 27.8181 172.578 29.2856 172.566 30.7513Z" fill="white"/>
<path d="M78.4009 124.139H83.2943V125.056H78.4009V124.139ZM77.3855 126.621H84.352V127.538H77.3855V126.621ZM80.3329 124.618H81.3341V131.684C81.3341 131.947 81.3012 132.149 81.2354 132.29C81.1696 132.44 81.0474 132.558 80.8687 132.643C80.6995 132.718 80.4739 132.765 80.1918 132.784C79.9098 132.802 79.5525 132.812 79.1201 132.812C79.0919 132.68 79.0449 132.525 78.9791 132.346C78.9132 132.168 78.8474 132.017 78.7816 131.895C79.0919 131.905 79.3692 131.909 79.6136 131.909C79.8581 131.909 80.0226 131.905 80.1072 131.895C80.2576 131.895 80.3329 131.82 80.3329 131.669V124.618ZM80.77 120.91C80.5444 121.351 80.2576 121.817 79.9098 122.306C79.5713 122.795 79.1906 123.269 78.7675 123.73C78.3445 124.181 77.9026 124.585 77.4419 124.943C77.3855 124.811 77.3009 124.661 77.1881 124.491C77.0847 124.313 76.9812 124.162 76.8778 124.04C77.3479 123.711 77.7992 123.312 78.2316 122.842C78.6641 122.371 79.0543 121.878 79.4021 121.361C79.75 120.834 80.0273 120.331 80.2341 119.852H81.2354C81.5174 120.369 81.8512 120.886 82.2367 121.403C82.6221 121.911 83.0311 122.386 83.4635 122.827C83.9054 123.26 84.3426 123.627 84.7751 123.927C84.6716 124.059 84.5635 124.214 84.4507 124.393C84.3473 124.571 84.2533 124.736 84.1687 124.886C83.7456 124.548 83.3178 124.158 82.8854 123.716C82.4623 123.265 82.0674 122.795 81.7008 122.306C81.3341 121.817 81.0239 121.351 80.77 120.91ZM82.279 128.482L83.1392 128.172C83.3366 128.511 83.5294 128.873 83.7174 129.258C83.9148 129.643 84.0887 130.02 84.2392 130.386C84.399 130.743 84.5165 131.063 84.5917 131.345L83.661 131.698C83.5952 131.425 83.4871 131.101 83.3366 130.725C83.1956 130.349 83.0311 129.968 82.8431 129.582C82.6644 129.188 82.4764 128.821 82.279 128.482ZM78.3445 128.285L79.2611 128.482C79.1013 129.084 78.885 129.672 78.6124 130.245C78.3492 130.809 78.0624 131.293 77.7522 131.698C77.6958 131.641 77.6205 131.585 77.5265 131.528C77.4325 131.463 77.3338 131.402 77.2304 131.345C77.127 131.279 77.0329 131.228 76.9483 131.19C77.268 130.814 77.5453 130.367 77.7804 129.85C78.0154 129.333 78.2034 128.811 78.3445 128.285ZM72.4497 123.97H73.3664V132.798H72.4497V123.97ZM72.9997 125.648H76.356V126.381H72.9997V125.648ZM73.3805 122.39H76.1304V123.152H73.3805V122.39ZM73.0138 129.032H76.8778V129.879H73.0138V129.032ZM73.0138 130.837H77.0894V131.684H73.0138V130.837ZM73.0138 123.97H76.8073V128.088H73.0138V127.34H75.9189V124.717H73.0138V123.97ZM74.001 119.838H74.551V120.063H74.8612V120.345C74.5886 120.853 74.2125 121.436 73.733 122.094C73.263 122.743 72.6801 123.354 71.9844 123.927C71.9092 123.824 71.801 123.706 71.66 123.575C71.5284 123.443 71.4062 123.349 71.2934 123.293C71.9421 122.785 72.4967 122.216 72.9574 121.586C73.4181 120.957 73.7659 120.374 74.001 119.838ZM74.3253 119.838H75.0586C75.3407 120.082 75.6274 120.355 75.9189 120.656C76.2197 120.957 76.4971 121.257 76.7509 121.558C77.0141 121.85 77.2257 122.118 77.3855 122.362L76.7227 123.081C76.5723 122.846 76.3701 122.578 76.1163 122.277C75.8719 121.967 75.6086 121.657 75.3266 121.347C75.0539 121.027 74.7766 120.75 74.4946 120.515H74.3253V119.838ZM89.6244 121.382C90.2717 121.382 90.8478 121.509 91.3527 121.761C91.8577 122.009 92.2525 122.358 92.5371 122.808C92.8263 123.253 92.9709 123.76 92.9709 124.33C92.9709 124.899 92.8263 125.408 92.5371 125.858C92.2525 126.303 91.8577 126.652 91.3527 126.905C90.8478 127.153 90.2717 127.277 89.6244 127.277C88.9817 127.277 88.4033 127.153 87.8892 126.905C87.375 126.652 86.9733 126.303 86.6841 125.858C86.3995 125.408 86.2572 124.899 86.2572 124.33C86.2572 123.76 86.3995 123.253 86.6841 122.808C86.9733 122.358 87.375 122.009 87.8892 121.761C88.4033 121.509 88.9817 121.382 89.6244 121.382ZM89.6244 122.525C89.225 122.525 88.8669 122.599 88.5502 122.746C88.238 122.893 87.9924 123.104 87.8134 123.379C87.6344 123.655 87.5449 123.971 87.5449 124.33C87.5449 124.688 87.6344 125.002 87.8134 125.273C87.9924 125.544 88.238 125.755 88.5502 125.906C88.8669 126.058 89.225 126.134 89.6244 126.134C90.0238 126.134 90.3795 126.058 90.6917 125.906C91.0084 125.755 91.254 125.544 91.4285 125.273C91.6075 125.002 91.697 124.688 91.697 124.33C91.697 123.971 91.6075 123.655 91.4285 123.379C91.254 123.104 91.0084 122.893 90.6917 122.746C90.3795 122.599 90.0238 122.525 89.6244 122.525ZM95.801 132.882H94.4996V120.508H95.801V132.882ZM85.6581 129.136C86.6772 129.131 87.6 129.12 88.4263 129.101C89.2571 129.083 90.1385 129.046 91.0704 128.991C92.0069 128.932 92.8906 128.842 93.7215 128.723L93.8179 129.68C92.9594 129.836 92.0666 129.955 91.1393 130.038C90.2166 130.116 89.349 130.166 88.5364 130.189C87.7239 130.212 86.8219 130.224 85.8303 130.224L85.6581 129.136ZM110.619 122.092H102.639V121.038H110.619V122.092ZM112.52 126.085H101.227V125.046H112.52V126.085ZM111.088 121.844C111.088 122.473 111.069 123.051 111.032 123.579C110.996 124.102 110.904 124.694 110.757 125.356L109.469 125.218C109.607 124.571 109.694 123.999 109.731 123.503C109.768 123.003 109.786 122.45 109.786 121.844V121.038H111.088V121.844ZM111.101 130.43H103.871V132.021H102.563V129.418H109.8V128.234H102.549V127.208H111.101V130.43ZM111.418 132.723H102.563V131.684H111.418V132.723ZM56.4336 137.924C56.4336 139.027 56.2822 140.07 55.9795 141.051C55.6816 142.028 55.2446 142.887 54.6685 143.629C54.0923 144.372 53.3989 144.936 52.5884 145.321L51.5923 143.959C52.3101 143.642 52.9326 143.175 53.46 142.56C53.9873 141.94 54.3901 141.229 54.6685 140.429C54.9517 139.623 55.0933 138.788 55.0933 137.924V135.807H56.4336V137.924ZM56.7339 137.924C56.7339 138.744 56.8706 139.538 57.144 140.304C57.4175 141.071 57.813 141.754 58.3306 142.355C58.853 142.956 59.4634 143.407 60.1616 143.71L59.1948 145.014C58.4136 144.647 57.7349 144.108 57.1587 143.395C56.5825 142.677 56.1431 141.85 55.8403 140.912C55.5376 139.975 55.3862 138.979 55.3862 137.924V135.807H56.7339V137.924ZM62.7471 148.009H61.0991V134.745H62.7471V148.009ZM78.7139 142.179H77.0879V134.745H78.7139V142.179ZM80.5669 139.096H78.2524V137.763H80.5669V139.096ZM75.0371 135.551C75.0371 136.693 74.7954 137.719 74.312 138.627C73.8286 139.53 73.123 140.302 72.1953 140.941C71.2676 141.581 70.1421 142.079 68.8188 142.436L68.167 141.125C69.2705 140.846 70.2056 140.47 70.9722 139.997C71.7437 139.518 72.3247 138.969 72.7153 138.349C73.106 137.724 73.3013 137.047 73.3013 136.32V135.551H75.0371ZM74.2681 136.862H68.8042V135.551H74.2681V136.862ZM78.7139 147.819H70.1519V142.721H78.7139V147.819ZM71.7705 146.522H77.1025V144.04H71.7705V146.522ZM85.6279 136.701C85.6279 137.575 85.4863 138.39 85.2031 139.147C84.9199 139.904 84.5049 140.563 83.958 141.125C83.416 141.681 82.752 142.101 81.9658 142.384L81.0869 141.103C81.7803 140.858 82.3662 140.514 82.8447 140.07C83.3281 139.621 83.6895 139.108 83.9287 138.532C84.1729 137.951 84.2949 137.34 84.2949 136.701V135.441H85.6279V136.701ZM85.9209 136.854C85.9209 137.416 86.0405 137.953 86.2798 138.466C86.5239 138.979 86.8779 139.433 87.3418 139.828C87.8105 140.224 88.3745 140.529 89.0337 140.744L88.1621 142.011C87.415 141.757 86.7729 141.376 86.2358 140.868C85.6987 140.355 85.291 139.755 85.0127 139.066C84.7393 138.378 84.6025 137.641 84.6025 136.854V135.441H85.9209V136.854ZM91.6777 142.663H90.0518V134.745H91.6777V142.663ZM93.5308 139.315H91.2163V137.96H93.5308V139.315ZM87.3711 142.956C88.2793 142.956 89.0654 143.053 89.7295 143.249C90.3984 143.444 90.9111 143.729 91.2676 144.105C91.624 144.477 91.8022 144.926 91.8022 145.453C91.8022 145.98 91.624 146.432 91.2676 146.808C90.9111 147.189 90.4009 147.477 89.7368 147.672C89.0728 147.868 88.2842 147.965 87.3711 147.965C86.458 147.965 85.6621 147.868 84.9834 147.672C84.3096 147.477 83.7896 147.189 83.4233 146.808C83.062 146.432 82.8813 145.98 82.8813 145.453C82.8813 144.926 83.062 144.477 83.4233 144.105C83.7896 143.729 84.3096 143.444 84.9834 143.249C85.6621 143.053 86.458 142.956 87.3711 142.956ZM87.3711 144.237C86.7705 144.237 86.2554 144.284 85.8257 144.376C85.4009 144.469 85.0762 144.608 84.8516 144.794C84.6318 144.975 84.522 145.194 84.522 145.453C84.522 145.722 84.6318 145.949 84.8516 146.134C85.0762 146.315 85.3984 146.452 85.8184 146.544C86.2432 146.637 86.7607 146.686 87.3711 146.691C87.9863 146.686 88.5039 146.637 88.9238 146.544C89.3438 146.452 89.6611 146.315 89.876 146.134C90.0908 145.949 90.1982 145.722 90.1982 145.453C90.1982 145.189 90.0884 144.967 89.8687 144.787C89.6538 144.606 89.334 144.469 88.9092 144.376C88.4844 144.284 87.9717 144.237 87.3711 144.237ZM98.1157 145.49L103.558 137.682H98.0864V136.078H105.923V137.272L100.489 145.08H105.953V146.684H98.1157V145.49ZM111.08 146.837C110.318 146.837 109.646 146.667 109.065 146.325C108.489 145.983 108.045 145.502 107.732 144.882C107.42 144.262 107.264 143.546 107.264 142.736C107.264 141.916 107.42 141.198 107.732 140.583C108.045 139.962 108.489 139.481 109.065 139.14C109.646 138.798 110.318 138.627 111.08 138.627C111.846 138.627 112.518 138.798 113.094 139.14C113.67 139.481 114.112 139.962 114.419 140.583C114.727 141.198 114.881 141.916 114.881 142.736C114.881 143.546 114.727 144.262 114.419 144.882C114.112 145.502 113.67 145.983 113.094 146.325C112.518 146.667 111.846 146.837 111.08 146.837ZM111.094 145.351C111.504 145.351 111.851 145.236 112.134 145.006C112.422 144.772 112.637 144.457 112.779 144.062C112.92 143.666 112.991 143.222 112.991 142.729C112.991 142.23 112.92 141.784 112.779 141.388C112.637 140.993 112.422 140.68 112.134 140.451C111.851 140.216 111.504 140.099 111.094 140.099C110.674 140.099 110.318 140.216 110.025 140.451C109.732 140.68 109.512 140.993 109.366 141.388C109.219 141.784 109.146 142.23 109.146 142.729C109.146 143.227 109.219 143.673 109.366 144.069C109.512 144.459 109.732 144.772 110.025 145.006C110.318 145.236 110.674 145.351 111.094 145.351ZM118.206 146.684H116.346V138.729H118.125V140.077H118.213C118.409 139.618 118.707 139.262 119.107 139.008C119.507 138.754 120 138.627 120.586 138.627C121.138 138.627 121.617 138.744 122.022 138.979C122.432 139.208 122.747 139.547 122.967 139.997C123.191 140.446 123.304 140.985 123.304 141.615V146.684H121.443V141.901C121.443 141.544 121.382 141.242 121.26 140.993C121.138 140.739 120.962 140.543 120.733 140.407C120.503 140.27 120.223 140.202 119.891 140.202C119.559 140.202 119.266 140.272 119.012 140.414C118.758 140.556 118.56 140.763 118.418 141.037C118.277 141.31 118.206 141.637 118.206 142.018V146.684ZM128.621 146.837C127.835 146.837 127.151 146.671 126.57 146.339C125.989 146.007 125.54 145.534 125.223 144.918C124.91 144.303 124.754 143.583 124.754 142.758C124.754 141.942 124.91 141.222 125.223 140.597C125.54 139.967 125.982 139.481 126.548 139.14C127.115 138.798 127.774 138.627 128.526 138.627C129.205 138.627 129.817 138.771 130.364 139.059C130.911 139.347 131.346 139.794 131.668 140.399C131.99 141 132.151 141.745 132.151 142.633V143.219H125.64V141.952H130.364C130.364 141.591 130.289 141.269 130.137 140.985C129.986 140.702 129.771 140.48 129.493 140.319C129.219 140.158 128.904 140.077 128.548 140.077C128.167 140.077 127.83 140.167 127.537 140.348C127.244 140.529 127.015 140.773 126.849 141.081C126.688 141.383 126.604 141.715 126.6 142.077V143.161C126.6 143.625 126.683 144.025 126.849 144.362C127.02 144.694 127.259 144.948 127.566 145.124C127.874 145.299 128.233 145.387 128.643 145.387C128.907 145.387 129.144 145.351 129.354 145.277C129.568 145.204 129.751 145.109 129.903 144.992C130.054 144.87 130.169 144.726 130.247 144.56H132.078C131.966 145.014 131.753 145.414 131.441 145.761C131.133 146.103 130.738 146.369 130.254 146.559C129.771 146.745 129.227 146.837 128.621 146.837Z" fill="white"/>
</svg>
